# B_block_1 (Sightline generated, CENTIMETRES, +Z up)
v -17.38 -8.19 -21.14
v -18.92 4.00 -15.42
v -1.44 3.20 -18.21
v -0.95 -9.73 -20.24
v -0.95 -9.73 -20.24
v -1.44 3.20 -18.21
v 15.91 1.08 -17.93
v 15.55 -10.69 -20.68
v -18.92 4.00 -15.42
v -20.42 16.61 -10.67
v -2.02 15.25 -14.14
v -1.44 3.20 -18.21
v -1.44 3.20 -18.21
v -2.02 15.25 -14.14
v 16.35 13.70 -17.16
v 15.91 1.08 -17.93
v -16.82 -18.65 13.12
v -0.50 -16.90 10.80
v -2.79 -2.29 11.54
v -19.51 -2.32 10.52
v -19.51 -2.32 10.52
v -2.79 -2.29 11.54
v -5.10 12.43 16.17
v -22.23 14.12 12.20
v -0.50 -16.90 10.80
v 15.78 -15.02 13.30
v 13.93 -2.25 12.83
v -2.79 -2.29 11.54
v -2.79 -2.29 11.54
v 13.93 -2.25 12.83
v 12.05 10.65 17.18
v -5.10 12.43 16.17
v -17.38 -8.19 -21.14
v -0.94 -9.81 -21.03
v -0.68 -12.63 -3.70
v -17.10 -13.32 -3.98
v -17.10 -13.32 -3.98
v -0.68 -12.63 -3.70
v -0.50 -16.52 13.31
v -16.82 -18.65 13.12
v -0.94 -9.81 -21.03
v 15.55 -10.69 -20.68
v 15.65 -13.01 -3.74
v -0.68 -12.63 -3.70
v -0.68 -12.63 -3.70
v 15.65 -13.01 -3.74
v 15.78 -15.02 13.30
v -0.50 -16.52 13.31
v -20.42 16.61 -10.67
v -21.33 15.36 0.77
v -3.37 15.73 0.62
v -2.14 14.07 -14.04
v -2.14 14.07 -14.04
v -3.37 15.73 0.62
v 14.20 12.16 0.01
v 16.35 13.70 -17.16
v -21.33 15.36 0.77
v -22.23 14.12 12.20
v -5.00 13.34 14.80
v -3.37 15.73 0.62
v -3.37 15.73 0.62
v -5.00 13.34 14.80
v 12.05 10.65 17.18
v 14.20 12.16 0.01
v -17.38 -8.19 -21.14
v -15.99 -13.29 -3.99
v -19.50 0.94 -1.63
v -17.37 4.38 -15.88
v -17.37 4.38 -15.88
v -19.50 0.94 -1.63
v -21.09 15.39 0.77
v -20.42 16.61 -10.67
v -15.99 -13.29 -3.99
v -16.82 -18.65 13.12
v -20.05 -2.32 12.65
v -19.50 0.94 -1.63
v -19.50 0.94 -1.63
v -20.05 -2.32 12.65
v -22.23 14.12 12.20
v -21.09 15.39 0.77
v 15.55 -10.69 -20.68
v 16.74 1.48 -18.93
v 17.35 -0.42 -1.87
v 14.65 -12.83 -3.68
v 14.65 -12.83 -3.68
v 17.35 -0.42 -1.87
v 13.19 -2.16 15.25
v 15.78 -15.02 13.30
v 16.74 1.48 -18.93
v 16.35 13.70 -17.16
v 14.58 12.17 0.01
v 17.35 -0.42 -1.87
v 17.35 -0.42 -1.87
v 14.58 12.17 0.01
v 12.05 10.65 17.18
v 13.19 -2.16 15.25
vt 0.0000 0.0000
vt 0.0678 -0.0000
vt 0.0483 0.0844
vt -0.0144 0.0814
vt 0.0000 0.0000
vt 0.0655 0.0000
vt 0.0520 0.0862
vt -0.0082 0.0823
vt 0.0000 0.0000
vt 0.0678 0.0000
vt 0.0452 0.0911
vt -0.0183 0.0867
vt 0.0000 0.0000
vt 0.0637 0.0000
vt 0.0473 0.0904
vt -0.0136 0.0863
vt 0.0000 0.0000
vt 0.0829 -0.0000
vt 0.0788 0.0724
vt -0.0028 0.0837
vt 0.0000 0.0000
vt 0.0838 0.0000
vt 0.0737 0.0758
vt -0.0129 0.0828
vt 0.0000 0.0000
vt 0.0829 -0.0000
vt 0.0807 0.0643
vt -0.0024 0.0740
vt 0.0000 0.0000
vt 0.0839 0.0000
vt 0.0763 0.0683
vt -0.0096 0.0774
vt 0.0000 0.0000
vt 0.0826 -0.0000
vt 0.0859 0.0870
vt 0.0045 0.0894
vt 0.0000 0.0000
vt 0.0822 -0.0000
vt 0.0837 0.0869
vt 0.0017 0.0895
vt 0.0000 0.0000
vt 0.0826 -0.0000
vt 0.0855 0.0855
vt 0.0038 0.0877
vt 0.0000 0.0000
vt 0.0817 0.0000
vt 0.0823 0.0853
vt 0.0012 0.0872
vt 0.0000 0.0000
vt 0.0577 0.0000
vt 0.0497 0.0880
vt -0.0225 0.0910
vt 0.0000 0.0000
vt 0.0740 0.0000
vt 0.0617 0.0871
vt -0.0233 0.0908
vt 0.0000 0.0000
vt 0.0577 0.0000
vt 0.0642 0.0869
vt -0.0080 0.0895
vt 0.0000 0.0000
vt 0.0724 0.0000
vt 0.0767 0.0868
vt -0.0099 0.0891
vt 0.0000 0.0000
vt 0.0897 0.0000
vt 0.0794 0.0717
vt 0.0073 0.0677
vt 0.0000 0.0000
vt 0.0741 0.0000
vt 0.0699 0.0733
vt 0.0130 0.0669
vt 0.0000 0.0000
vt 0.0897 0.0000
vt 0.0639 0.0791
vt -0.0092 0.0737
vt 0.0000 0.0000
vt 0.0733 0.0000
vt 0.0532 0.0805
vt -0.0041 0.0736
vt 0.0000 0.0000
vt 0.0618 -0.0000
vt 0.0649 0.0855
vt 0.0011 0.0858
vt 0.0000 0.0000
vt 0.0641 -0.0000
vt 0.0634 0.0845
vt 0.0026 0.0858
vt 0.0000 0.0000
vt 0.0618 0.0000
vt 0.0668 0.0857
vt 0.0028 0.0859
vt 0.0000 0.0000
vt 0.0651 -0.0000
vt 0.0728 0.0864
vt 0.0083 0.0881
usemtl concrete
f 1/1 2/2 3/3
f 1/1 3/3 4/4
f 5/5 6/6 7/7
f 5/5 7/7 8/8
f 9/9 10/10 11/11
f 9/9 11/11 12/12
f 13/13 14/14 15/15
f 13/13 15/15 16/16
f 17/17 18/18 19/19
f 17/17 19/19 20/20
f 21/21 22/22 23/23
f 21/21 23/23 24/24
f 25/25 26/26 27/27
f 25/25 27/27 28/28
f 29/29 30/30 31/31
f 29/29 31/31 32/32
f 33/33 34/34 35/35
f 33/33 35/35 36/36
f 37/37 38/38 39/39
f 37/37 39/39 40/40
f 41/41 42/42 43/43
f 41/41 43/43 44/44
f 45/45 46/46 47/47
f 45/45 47/47 48/48
f 49/49 50/50 51/51
f 49/49 51/51 52/52
f 53/53 54/54 55/55
f 53/53 55/55 56/56
f 57/57 58/58 59/59
f 57/57 59/59 60/60
f 61/61 62/62 63/63
f 61/61 63/63 64/64
f 65/65 66/66 67/67
f 65/65 67/67 68/68
f 69/69 70/70 71/71
f 69/69 71/71 72/72
f 73/73 74/74 75/75
f 73/73 75/75 76/76
f 77/77 78/78 79/79
f 77/77 79/79 80/80
f 81/81 82/82 83/83
f 81/81 83/83 84/84
f 85/85 86/86 87/87
f 85/85 87/87 88/88
f 89/89 90/90 91/91
f 89/89 91/91 92/92
f 93/93 94/94 95/95
f 93/93 95/95 96/96
