# B_block_3 (Sightline generated, CENTIMETRES, +Z up)
v -33.20 -41.20 -37.19
v -27.95 -7.14 -33.25
v 0.06 -4.46 -37.37
v -1.48 -36.90 -32.86
v -1.48 -36.90 -32.86
v 0.06 -4.46 -37.37
v 28.10 -1.86 -40.48
v 29.93 -31.86 -38.46
v -27.95 -7.14 -33.25
v -22.81 27.15 -32.41
v 1.77 27.55 -36.22
v 0.06 -4.46 -37.37
v 0.06 -4.46 -37.37
v 1.77 27.55 -36.22
v 26.40 27.83 -38.44
v 28.10 -1.86 -40.48
v -30.30 -34.45 22.31
v -0.08 -39.72 28.81
v -3.44 -1.73 28.10
v -31.36 -2.15 24.74
v -31.36 -2.15 24.74
v -3.44 -1.73 28.10
v -7.79 35.14 32.57
v -33.99 28.38 35.27
v -0.08 -39.72 28.81
v 30.77 -44.28 31.99
v 24.07 -1.78 33.65
v -3.44 -1.73 28.10
v -3.44 -1.73 28.10
v 24.07 -1.78 33.65
v 19.21 42.80 25.74
v -7.79 35.14 32.57
v -33.20 -41.20 -37.19
v -2.03 -33.92 -38.10
v -1.00 -35.96 -5.55
v -32.25 -34.49 -7.79
v -32.25 -34.49 -7.79
v -1.00 -35.96 -5.55
v -0.14 -36.84 26.88
v -30.30 -34.45 22.31
v -2.03 -33.92 -38.10
v 29.93 -31.86 -38.46
v 29.62 -33.17 -3.75
v -1.00 -35.96 -5.55
v -1.00 -35.96 -5.55
v 29.62 -33.17 -3.75
v 30.77 -44.28 31.99
v -0.14 -36.84 26.88
v -22.81 27.15 -32.41
v -28.45 30.61 1.37
v -2.79 30.95 -2.45
v 1.71 32.47 -35.53
v 1.71 32.47 -35.53
v -2.79 30.95 -2.45
v 22.72 40.29 -6.45
v 26.40 27.83 -38.44
v -28.45 30.61 1.37
v -33.99 28.38 35.27
v -7.42 37.49 30.46
v -2.79 30.95 -2.45
v -2.79 30.95 -2.45
v -7.42 37.49 30.46
v 19.21 42.80 25.74
v 22.72 40.29 -6.45
v -33.20 -41.20 -37.19
v -33.76 -37.52 -7.37
v -26.43 -5.57 -3.12
v -28.72 -6.92 -34.78
v -28.72 -6.92 -34.78
v -26.43 -5.57 -3.12
v -30.42 28.07 1.49
v -22.81 27.15 -32.41
v -33.76 -37.52 -7.37
v -30.30 -34.45 22.31
v -30.39 -3.30 28.73
v -26.43 -5.57 -3.12
v -26.43 -5.57 -3.12
v -30.39 -3.30 28.73
v -33.99 28.38 35.27
v -30.42 28.07 1.49
v 29.93 -31.86 -38.46
v 30.58 -1.87 -38.45
v 25.30 -1.45 -4.79
v 31.60 -37.99 -3.24
v 31.60 -37.99 -3.24
v 25.30 -1.45 -4.79
v 22.04 -0.91 28.87
v 30.77 -44.28 31.99
v 30.58 -1.87 -38.45
v 26.40 27.83 -38.44
v 26.89 35.56 -6.36
v 25.30 -1.45 -4.79
v 25.30 -1.45 -4.79
v 26.89 35.56 -6.36
v 19.21 42.80 25.74
v 22.04 -0.91 28.87
vt 0.0000 0.0000
vt 0.1734 0.0000
vt 0.2054 0.1330
vt 0.0476 0.1544
vt 0.0000 0.0000
vt 0.1639 -0.0000
vt 0.1855 0.1398
vt 0.0362 0.1574
vt 0.0000 0.0000
vt 0.1734 0.0000
vt 0.1932 0.1228
vt 0.0335 0.1382
vt 0.0000 0.0000
vt 0.1604 -0.0000
vt 0.1680 0.1234
vt 0.0199 0.1403
vt 0.0000 0.0000
vt 0.1568 0.0000
vt 0.1079 0.1838
vt -0.0298 0.1593
vt 0.0000 0.0000
vt 0.1407 -0.0000
vt 0.1245 0.1824
vt -0.0045 0.1620
vt 0.0000 0.0000
vt 0.1568 -0.0000
vt 0.0937 0.2054
vt -0.0445 0.1855
vt 0.0000 0.0000
vt 0.1403 0.0000
vt 0.1082 0.2158
vt -0.0173 0.1862
vt 0.0000 0.0000
vt 0.1601 0.0000
vt 0.1582 0.1568
vt 0.0081 0.1506
vt 0.0000 0.0000
vt 0.1568 -0.0000
vt 0.1729 0.1614
vt 0.0205 0.1495
vt 0.0000 0.0000
vt 0.1601 -0.0000
vt 0.1562 0.1735
vt 0.0027 0.1632
vt 0.0000 0.0000
vt 0.1540 -0.0000
vt 0.1651 0.1799
vt 0.0133 0.1617
vt 0.0000 0.0000
vt 0.1721 0.0000
vt 0.1325 0.1210
vt -0.0327 0.1221
vt 0.0000 0.0000
vt 0.1671 0.0000
vt 0.1280 0.1122
vt -0.0300 0.1228
vt 0.0000 0.0000
vt 0.1721 -0.0000
vt 0.1241 0.1269
vt -0.0396 0.1235
vt 0.0000 0.0000
vt 0.1694 -0.0000
vt 0.1333 0.1316
vt -0.0279 0.1344
vt 0.0000 0.0000
vt 0.1502 0.0000
vt 0.1902 0.1596
vt 0.0325 0.1702
vt 0.0000 0.0000
vt 0.1588 0.0000
vt 0.1875 0.1612
vt 0.0211 0.1720
vt 0.0000 0.0000
vt 0.1502 0.0000
vt 0.1978 0.1473
vt 0.0416 0.1600
vt 0.0000 0.0000
vt 0.1609 -0.0000
vt 0.2067 0.1562
vt 0.0372 0.1669
vt 0.0000 0.0000
vt 0.1500 -0.0000
vt 0.1515 0.1667
vt -0.0305 0.1763
vt 0.0000 0.0000
vt 0.1856 0.0000
vt 0.1839 0.1690
vt -0.0376 0.1750
vt 0.0000 0.0000
vt 0.1500 0.0000
vt 0.1879 0.1574
vt 0.0058 0.1703
vt 0.0000 0.0000
vt 0.1854 0.0000
vt 0.2131 0.1649
vt -0.0051 0.1690
usemtl concrete
f 1/1 2/2 3/3
f 1/1 3/3 4/4
f 5/5 6/6 7/7
f 5/5 7/7 8/8
f 9/9 10/10 11/11
f 9/9 11/11 12/12
f 13/13 14/14 15/15
f 13/13 15/15 16/16
f 17/17 18/18 19/19
f 17/17 19/19 20/20
f 21/21 22/22 23/23
f 21/21 23/23 24/24
f 25/25 26/26 27/27
f 25/25 27/27 28/28
f 29/29 30/30 31/31
f 29/29 31/31 32/32
f 33/33 34/34 35/35
f 33/33 35/35 36/36
f 37/37 38/38 39/39
f 37/37 39/39 40/40
f 41/41 42/42 43/43
f 41/41 43/43 44/44
f 45/45 46/46 47/47
f 45/45 47/47 48/48
f 49/49 50/50 51/51
f 49/49 51/51 52/52
f 53/53 54/54 55/55
f 53/53 55/55 56/56
f 57/57 58/58 59/59
f 57/57 59/59 60/60
f 61/61 62/62 63/63
f 61/61 63/63 64/64
f 65/65 66/66 67/67
f 65/65 67/67 68/68
f 69/69 70/70 71/71
f 69/69 71/71 72/72
f 73/73 74/74 75/75
f 73/73 75/75 76/76
f 77/77 78/78 79/79
f 77/77 79/79 80/80
f 81/81 82/82 83/83
f 81/81 83/83 84/84
f 85/85 86/86 87/87
f 85/85 87/87 88/88
f 89/89 90/90 91/91
f 89/89 91/91 92/92
f 93/93 94/94 95/95
f 93/93 95/95 96/96
