# B_block_0 (Sightline generated, CENTIMETRES, +Z up)
v -9.75 -11.19 -12.79
v -10.43 -0.97 -10.04
v 0.67 -0.68 -9.94
v 2.84 -11.98 -11.34
v 2.84 -11.98 -11.34
v 0.67 -0.68 -9.94
v 10.58 -1.39 -5.39
v 14.59 -13.46 -6.76
v -10.43 -0.97 -10.04
v -10.79 9.52 -8.45
v -1.55 10.57 -8.34
v 0.67 -0.68 -9.94
v 0.67 -0.68 -9.94
v -1.55 10.57 -8.34
v 7.41 11.37 -7.14
v 10.58 -1.39 -5.39
v -10.78 -10.59 7.23
v -0.10 -12.65 7.36
v 1.39 -1.15 7.45
v -9.10 -0.48 6.63
v -9.10 -0.48 6.63
v 1.39 -1.15 7.45
v 2.87 10.31 5.97
v -7.41 9.64 6.54
v -0.10 -12.65 7.36
v 10.59 -14.73 7.17
v 11.88 -1.84 7.46
v 1.39 -1.15 7.45
v 1.39 -1.15 7.45
v 11.88 -1.84 7.46
v 13.16 11.01 6.42
v 2.87 10.31 5.97
v -9.75 -11.19 -12.79
v 2.32 -13.30 -9.75
v 1.19 -12.23 -1.30
v -10.26 -10.83 -2.78
v -10.26 -10.83 -2.78
v 1.19 -12.23 -1.30
v -0.15 -13.19 7.21
v -10.78 -10.59 7.23
v 2.32 -13.30 -9.75
v 14.59 -13.46 -6.76
v 12.53 -14.71 0.22
v 1.19 -12.23 -1.30
v 1.19 -12.23 -1.30
v 12.53 -14.71 0.22
v 10.59 -14.73 7.17
v -0.15 -13.19 7.21
v -10.79 9.52 -8.45
v -9.22 10.72 -0.94
v 0.69 9.42 -0.67
v -1.63 9.88 -7.80
v -1.63 9.88 -7.80
v 0.69 9.42 -0.67
v 10.27 11.36 -0.35
v 7.41 11.37 -7.14
v -9.22 10.72 -0.94
v -7.41 9.64 6.54
v 2.71 11.97 6.50
v 0.69 9.42 -0.67
v 0.69 9.42 -0.67
v 2.71 11.97 6.50
v 13.16 11.01 6.42
v 10.27 11.36 -0.35
v -9.75 -11.19 -12.79
v -10.03 -10.88 -2.77
v -9.33 -0.64 -1.85
v -9.42 -0.80 -10.58
v -9.42 -0.80 -10.58
v -9.33 -0.64 -1.85
v -9.44 9.56 -0.97
v -10.79 9.52 -8.45
v -10.03 -10.88 -2.77
v -10.78 -10.59 7.23
v -8.79 -0.46 6.90
v -9.33 -0.64 -1.85
v -9.33 -0.64 -1.85
v -8.79 -0.46 6.90
v -7.41 9.64 6.54
v -9.44 9.56 -0.97
v 14.59 -13.46 -6.76
v 10.78 -1.11 -7.02
v 11.55 -1.42 -0.04
v 11.21 -14.50 -0.23
v 11.21 -14.50 -0.23
v 11.55 -1.42 -0.04
v 12.86 -1.57 7.11
v 10.59 -14.73 7.17
v 10.78 -1.11 -7.02
v 7.41 11.37 -7.14
v 8.76 10.74 -0.83
v 11.55 -1.42 -0.04
v 11.55 -1.42 -0.04
v 8.76 10.74 -0.83
v 13.16 11.01 6.42
v 12.86 -1.57 7.11
vt 0.0000 0.0000
vt 0.0531 0.0000
vt 0.0510 0.0551
vt -0.0059 0.0632
vt 0.0000 0.0000
vt 0.0579 0.0000
vt 0.0480 0.0536
vt -0.0154 0.0616
vt 0.0000 0.0000
vt 0.0531 -0.0000
vt 0.0567 0.0464
vt -0.0004 0.0555
vt 0.0000 0.0000
vt 0.0579 0.0000
vt 0.0540 0.0428
vt -0.0098 0.0537
vt 0.0000 0.0000
vt 0.0544 0.0000
vt 0.0508 0.0578
vt -0.0014 0.0513
vt 0.0000 0.0000
vt 0.0527 0.0000
vt 0.0559 0.0577
vt 0.0052 0.0510
vt 0.0000 0.0000
vt 0.0544 0.0000
vt 0.0485 0.0645
vt -0.0037 0.0579
vt 0.0000 0.0000
vt 0.0525 -0.0000
vt 0.0547 0.0647
vt 0.0036 0.0581
vt 0.0000 0.0000
vt 0.0631 0.0000
vt 0.0670 0.0427
vt 0.0093 0.0493
vt 0.0000 0.0000
vt 0.0581 0.0000
vt 0.0576 0.0429
vt 0.0037 0.0500
vt 0.0000 0.0000
vt 0.0631 0.0000
vt 0.0615 0.0353
vt 0.0044 0.0428
vt 0.0000 0.0000
vt 0.0585 0.0000
vt 0.0537 0.0356
vt 0.0000 0.0433
vt 0.0000 0.0000
vt 0.0388 0.0000
vt 0.0492 0.0483
vt 0.0127 0.0442
vt 0.0000 0.0000
vt 0.0376 0.0000
vt 0.0533 0.0463
vt 0.0167 0.0428
vt 0.0000 0.0000
vt 0.0388 0.0000
vt 0.0488 0.0477
vt 0.0137 0.0481
vt 0.0000 0.0000
vt 0.0394 0.0000
vt 0.0508 0.0493
vt 0.0168 0.0459
vt 0.0000 0.0000
vt 0.0502 -0.0000
vt 0.0562 0.0511
vt 0.0126 0.0516
vt 0.0000 0.0000
vt 0.0436 0.0000
vt 0.0490 0.0506
vt 0.0115 0.0519
vt 0.0000 0.0000
vt 0.0502 0.0000
vt 0.0492 0.0513
vt 0.0058 0.0512
vt 0.0000 0.0000
vt 0.0438 0.0000
vt 0.0435 0.0504
vt 0.0054 0.0509
vt 0.0000 0.0000
vt 0.0646 -0.0000
vt 0.0613 0.0291
vt -0.0006 0.0371
vt 0.0000 0.0000
vt 0.0654 0.0000
vt 0.0653 0.0351
vt -0.0007 0.0371
vt 0.0000 0.0000
vt 0.0646 0.0000
vt 0.0595 0.0319
vt -0.0028 0.0350
vt 0.0000 0.0000
vt 0.0625 -0.0000
vt 0.0566 0.0392
vt -0.0045 0.0361
usemtl concrete
f 1/1 2/2 3/3
f 1/1 3/3 4/4
f 5/5 6/6 7/7
f 5/5 7/7 8/8
f 9/9 10/10 11/11
f 9/9 11/11 12/12
f 13/13 14/14 15/15
f 13/13 15/15 16/16
f 17/17 18/18 19/19
f 17/17 19/19 20/20
f 21/21 22/22 23/23
f 21/21 23/23 24/24
f 25/25 26/26 27/27
f 25/25 27/27 28/28
f 29/29 30/30 31/31
f 29/29 31/31 32/32
f 33/33 34/34 35/35
f 33/33 35/35 36/36
f 37/37 38/38 39/39
f 37/37 39/39 40/40
f 41/41 42/42 43/43
f 41/41 43/43 44/44
f 45/45 46/46 47/47
f 45/45 47/47 48/48
f 49/49 50/50 51/51
f 49/49 51/51 52/52
f 53/53 54/54 55/55
f 53/53 55/55 56/56
f 57/57 58/58 59/59
f 57/57 59/59 60/60
f 61/61 62/62 63/63
f 61/61 63/63 64/64
f 65/65 66/66 67/67
f 65/65 67/67 68/68
f 69/69 70/70 71/71
f 69/69 71/71 72/72
f 73/73 74/74 75/75
f 73/73 75/75 76/76
f 77/77 78/78 79/79
f 77/77 79/79 80/80
f 81/81 82/82 83/83
f 81/81 83/83 84/84
f 85/85 86/86 87/87
f 85/85 87/87 88/88
f 89/89 90/90 91/91
f 89/89 91/91 92/92
f 93/93 94/94 95/95
f 93/93 95/95 96/96
