# B_block_2 (Sightline generated, CENTIMETRES, +Z up)
v -17.34 -15.11 -18.42
v -17.78 -1.08 -17.95
v -0.78 -0.37 -15.59
v -0.44 -15.54 -14.95
v -0.44 -15.54 -14.95
v -0.78 -0.37 -15.59
v 16.33 0.62 -16.08
v 16.67 -15.40 -17.22
v -17.78 -1.08 -17.95
v -18.29 12.77 -15.71
v -1.03 15.01 -18.48
v -0.78 -0.37 -15.59
v -0.78 -0.37 -15.59
v -1.03 15.01 -18.48
v 16.07 16.87 -17.32
v 16.33 0.62 -16.08
v -16.70 -24.95 21.73
v 4.80 -20.29 19.38
v 2.77 -1.62 21.37
v -18.89 -5.49 23.40
v -18.89 -5.49 23.40
v 2.77 -1.62 21.37
v 0.64 16.98 21.23
v -21.31 13.79 20.42
v 4.80 -20.29 19.38
v 26.41 -15.54 19.23
v 24.55 2.35 21.60
v 2.77 -1.62 21.37
v 2.77 -1.62 21.37
v 24.55 2.35 21.60
v 22.42 20.03 18.63
v 0.64 16.98 21.23
v -17.34 -15.11 -18.42
v -0.33 -16.27 -18.07
v 2.26 -17.49 1.40
v -17.02 -23.14 0.89
v -17.02 -23.14 0.89
v 2.26 -17.49 1.40
v 4.86 -20.14 20.50
v -16.70 -24.95 21.73
v -0.33 -16.27 -18.07
v 16.67 -15.40 -17.22
v 21.54 -16.21 0.83
v 2.26 -17.49 1.40
v 2.26 -17.49 1.40
v 21.54 -16.21 0.83
v 26.41 -15.54 19.23
v 4.86 -20.14 20.50
v -18.29 12.77 -15.71
v -19.72 12.63 2.38
v -0.18 15.08 1.54
v -1.26 16.10 -16.56
v -1.26 16.10 -16.56
v -0.18 15.08 1.54
v 19.18 19.00 0.63
v 16.07 16.87 -17.32
v -19.72 12.63 2.38
v -21.31 13.79 20.42
v 0.91 13.97 19.64
v -0.18 15.08 1.54
v -0.18 15.08 1.54
v 0.91 13.97 19.64
v 22.42 20.03 18.63
v 19.18 19.00 0.63
v -17.34 -15.11 -18.42
v -16.68 -20.02 1.65
v -18.28 -3.37 2.00
v -17.80 -1.17 -17.06
v -17.80 -1.17 -17.06
v -18.28 -3.37 2.00
v -22.99 13.17 2.38
v -18.29 12.77 -15.71
v -16.68 -20.02 1.65
v -16.70 -24.95 21.73
v -18.91 -5.58 21.07
v -18.28 -3.37 2.00
v -18.28 -3.37 2.00
v -18.91 -5.58 21.07
v -21.31 13.79 20.42
v -22.99 13.17 2.38
v 16.67 -15.40 -17.22
v 17.71 0.76 -17.62
v 21.31 1.50 0.59
v 22.31 -15.46 0.80
v 22.31 -15.46 0.80
v 21.31 1.50 0.59
v 21.33 2.19 19.76
v 26.41 -15.54 19.23
v 17.71 0.76 -17.62
v 16.07 16.87 -17.32
v 18.25 18.43 0.92
v 21.31 1.50 0.59
v 21.31 1.50 0.59
v 18.25 18.43 0.92
v 22.42 20.03 18.63
v 21.33 2.19 19.76
vt 0.0000 0.0000
vt 0.0702 0.0000
vt 0.0715 0.0857
vt -0.0042 0.0862
vt 0.0000 0.0000
vt 0.0759 0.0000
vt 0.0790 0.0852
vt -0.0008 0.0863
vt 0.0000 0.0000
vt 0.0702 0.0000
vt 0.0759 0.0838
vt 0.0023 0.0859
vt 0.0000 0.0000
vt 0.0783 -0.0000
vt 0.0849 0.0855
vt 0.0039 0.0856
vt 0.0000 0.0000
vt 0.1106 0.0000
vt 0.1194 0.0940
vt 0.0090 0.0979
vt 0.0000 0.0000
vt 0.1105 0.0000
vt 0.1164 0.0924
vt 0.0064 0.0981
vt 0.0000 0.0000
vt 0.1106 -0.0000
vt 0.1206 0.0901
vt 0.0101 0.0939
vt 0.0000 0.0000
vt 0.1107 0.0000
vt 0.1159 0.0890
vt 0.0061 0.0934
vt 0.0000 0.0000
vt 0.0852 -0.0000
vt 0.1006 0.0916
vt 0.0063 0.1044
vt 0.0000 0.0000
vt 0.1005 0.0000
vt 0.1116 0.0964
vt 0.0016 0.1046
vt 0.0000 0.0000
vt 0.0852 0.0000
vt 0.1138 0.0891
vt 0.0175 0.0968
vt 0.0000 0.0000
vt 0.0966 -0.0000
vt 0.1184 0.0915
vt 0.0093 0.0969
vt 0.0000 0.0000
vt 0.0907 0.0000
vt 0.0787 0.0976
vt -0.0111 0.0861
vt 0.0000 0.0000
vt 0.0908 -0.0000
vt 0.0909 0.0977
vt 0.0012 0.0868
vt 0.0000 0.0000
vt 0.0907 0.0000
vt 0.0771 0.1096
vt -0.0120 0.0978
vt 0.0000 0.0000
vt 0.0908 -0.0000
vt 0.0904 0.1115
vt 0.0001 0.0989
vt 0.0000 0.0000
vt 0.1034 0.0000
vt 0.0851 0.0815
vt -0.0100 0.0694
vt 0.0000 0.0000
vt 0.0960 0.0000
vt 0.0890 0.0832
vt -0.0012 0.0701
vt 0.0000 0.0000
vt 0.1034 0.0000
vt 0.0771 0.0939
vt -0.0181 0.0817
vt 0.0000 0.0000
vt 0.0960 -0.0000
vt 0.0821 0.0955
vt -0.0069 0.0857
vt 0.0000 0.0000
vt 0.0810 0.0000
vt 0.0836 0.0923
vt -0.0007 0.0944
vt 0.0000 0.0000
vt 0.0850 0.0000
vt 0.0871 0.0937
vt -0.0028 0.0944
vt 0.0000 0.0000
vt 0.0810 0.0000
vt 0.0894 0.0916
vt 0.0036 0.0928
vt 0.0000 0.0000
vt 0.0860 -0.0000
vt 0.0919 0.0886
vt 0.0052 0.0958
usemtl concrete
f 1/1 2/2 3/3
f 1/1 3/3 4/4
f 5/5 6/6 7/7
f 5/5 7/7 8/8
f 9/9 10/10 11/11
f 9/9 11/11 12/12
f 13/13 14/14 15/15
f 13/13 15/15 16/16
f 17/17 18/18 19/19
f 17/17 19/19 20/20
f 21/21 22/22 23/23
f 21/21 23/23 24/24
f 25/25 26/26 27/27
f 25/25 27/27 28/28
f 29/29 30/30 31/31
f 29/29 31/31 32/32
f 33/33 34/34 35/35
f 33/33 35/35 36/36
f 37/37 38/38 39/39
f 37/37 39/39 40/40
f 41/41 42/42 43/43
f 41/41 43/43 44/44
f 45/45 46/46 47/47
f 45/45 47/47 48/48
f 49/49 50/50 51/51
f 49/49 51/51 52/52
f 53/53 54/54 55/55
f 53/53 55/55 56/56
f 57/57 58/58 59/59
f 57/57 59/59 60/60
f 61/61 62/62 63/63
f 61/61 63/63 64/64
f 65/65 66/66 67/67
f 65/65 67/67 68/68
f 69/69 70/70 71/71
f 69/69 71/71 72/72
f 73/73 74/74 75/75
f 73/73 75/75 76/76
f 77/77 78/78 79/79
f 77/77 79/79 80/80
f 81/81 82/82 83/83
f 81/81 83/83 84/84
f 85/85 86/86 87/87
f 85/85 87/87 88/88
f 89/89 90/90 91/91
f 89/89 91/91 92/92
f 93/93 94/94 95/95
f 93/93 95/95 96/96
