# G_mattress (Sightline generated, CENTIMETRES, +Z up)
v -92.91 -57.45 -9.04
v -94.30 -1.64 -11.42
v 1.29 -0.11 -10.61
v 2.31 -56.17 -11.80
v 2.31 -56.17 -11.80
v 1.29 -0.11 -10.61
v 96.89 1.42 -10.23
v 97.57 -54.85 -10.68
v -94.30 -1.64 -11.42
v -95.66 54.20 -9.84
v 0.27 55.95 -9.93
v 1.29 -0.11 -10.61
v 1.29 -0.11 -10.61
v 0.27 55.95 -9.93
v 96.19 57.69 -11.22
v 96.89 1.42 -10.23
v -98.30 -56.00 13.81
v -1.61 -56.86 11.14
v -1.25 1.49 12.00
v -97.10 1.71 11.20
v -97.10 1.71 11.20
v -1.25 1.49 12.00
v -0.89 59.82 11.96
v -95.85 59.48 11.40
v -1.61 -56.86 11.14
v 95.11 -57.67 10.94
v 94.55 1.19 9.23
v -1.25 1.49 12.00
v -1.25 1.49 12.00
v 94.55 1.19 9.23
v 94.05 60.12 10.75
v -0.89 59.82 11.96
v -92.91 -57.45 -9.04
v 2.32 -55.67 -9.89
v 0.37 -56.77 1.28
v -95.62 -56.05 2.34
v -95.62 -56.05 2.34
v 0.37 -56.77 1.28
v -1.61 -56.03 12.32
v -98.30 -56.00 13.81
v 2.32 -55.67 -9.89
v 97.57 -54.85 -10.68
v 96.35 -57.12 0.19
v 0.37 -56.77 1.28
v 0.37 -56.77 1.28
v 96.35 -57.12 0.19
v 95.11 -57.67 10.94
v -1.61 -56.03 12.32
v -95.66 54.20 -9.84
v -95.75 56.49 0.87
v -0.34 58.94 0.01
v 0.28 55.42 -10.40
v 0.28 55.42 -10.40
v -0.34 58.94 0.01
v 95.16 56.98 0.24
v 96.19 57.69 -11.22
v -95.75 56.49 0.87
v -95.85 59.48 11.40
v -0.93 61.35 10.69
v -0.34 58.94 0.01
v -0.34 58.94 0.01
v -0.93 61.35 10.69
v 94.05 60.12 10.75
v 95.16 56.98 0.24
v -92.91 -57.45 -9.04
v -95.57 -56.72 2.39
v -96.22 0.04 1.46
v -93.61 -1.61 -9.28
v -93.61 -1.61 -9.28
v -96.22 0.04 1.46
v -95.04 56.86 0.95
v -95.66 54.20 -9.84
v -95.57 -56.72 2.39
v -98.30 -56.00 13.81
v -96.48 1.76 12.74
v -96.22 0.04 1.46
v -96.22 0.04 1.46
v -96.48 1.76 12.74
v -95.85 59.48 11.40
v -95.04 56.86 0.95
v 97.57 -54.85 -10.68
v 96.64 1.41 -10.98
v 97.63 1.35 0.17
v 94.37 -56.28 -0.10
v 94.37 -56.28 -0.10
v 97.63 1.35 0.17
v 94.67 1.23 10.86
v 95.11 -57.67 10.94
v 96.64 1.41 -10.98
v 96.19 57.69 -11.22
v 93.73 58.88 -0.40
v 97.63 1.35 0.17
v 97.63 1.35 0.17
v 93.73 58.88 -0.40
v 94.05 60.12 10.75
v 94.67 1.23 10.86
v -95.00 -57.50 -11.00
v -95.00 57.50 -11.00
v -95.00 57.50 11.00
v -95.00 -57.50 11.00
v 95.00 -57.50 -11.00
v 95.00 -57.50 11.00
v 95.00 57.50 11.00
v 95.00 57.50 -11.00
v -95.00 -57.50 -11.00
v -95.00 -57.50 11.00
v 95.00 -57.50 11.00
v 95.00 -57.50 -11.00
v -95.00 57.50 -11.00
v 95.00 57.50 -11.00
v 95.00 57.50 11.00
v -95.00 57.50 11.00
v -95.00 -57.50 -11.00
v 95.00 -57.50 -11.00
v 95.00 57.50 -11.00
v -95.00 57.50 -11.00
v -95.00 -57.50 11.00
v -95.00 57.50 11.00
v 95.00 57.50 11.00
v 95.00 -57.50 11.00
vt 0.0000 0.0000
vt 0.3492 0.0000
vt 0.3438 0.5971
vt -0.0060 0.5954
vt 0.0000 0.0000
vt 0.3505 0.0000
vt 0.3493 0.5975
vt -0.0024 0.5955
vt 0.0000 0.0000
vt 0.3492 -0.0000
vt 0.3456 0.5996
vt -0.0048 0.5976
vt 0.0000 0.0000
vt 0.3504 -0.0000
vt 0.3503 0.5996
vt -0.0013 0.5975
vt 0.0000 0.0000
vt 0.6045 -0.0000
vt 0.6035 0.3641
vt 0.0048 0.3611
vt 0.0000 0.0000
vt 0.5991 0.0000
vt 0.6005 0.3645
vt 0.0070 0.3611
vt 0.0000 0.0000
vt 0.6045 0.0000
vt 0.5980 0.3676
vt -0.0008 0.3647
vt 0.0000 0.0000
vt 0.5990 -0.0000
vt 0.5944 0.3683
vt 0.0011 0.3645
vt 0.0000 0.0000
vt 0.5953 0.0000
vt 0.5824 0.0683
vt -0.0174 0.0715
vt 0.0000 0.0000
vt 0.6000 0.0000
vt 0.5868 0.0689
vt -0.0176 0.0715
vt 0.0000 0.0000
vt 0.5953 0.0000
vt 0.5870 0.0689
vt -0.0128 0.0700
vt 0.0000 0.0000
vt 0.5999 0.0000
vt 0.5914 0.0668
vt -0.0132 0.0690
vt 0.0000 0.0000
vt 0.0684 -0.0000
vt 0.0614 0.5964
vt -0.0068 0.5996
vt 0.0000 0.0000
vt 0.0688 0.0000
vt 0.0327 0.5953
vt -0.0339 0.5987
vt 0.0000 0.0000
vt 0.0684 0.0000
vt 0.0617 0.5933
vt -0.0067 0.5965
vt 0.0000 0.0000
vt 0.0685 0.0000
vt 0.0350 0.5927
vt -0.0336 0.5960
vt 0.0000 0.0000
vt 0.0735 0.0000
vt 0.0907 0.3544
vt 0.0212 0.3484
vt 0.0000 0.0000
vt 0.0698 0.0000
vt 0.1176 0.3514
vt 0.0512 0.3453
vt 0.0000 0.0000
vt 0.0735 0.0000
vt 0.0867 0.3606
vt 0.0172 0.3544
vt 0.0000 0.0000
vt 0.0714 0.0000
vt 0.1171 0.3579
vt 0.0500 0.3516
vt 0.0000 0.0000
vt 0.3517 -0.0000
vt 0.3508 0.0648
vt -0.0090 0.0691
vt 0.0000 0.0000
vt 0.3608 -0.0000
vt 0.3593 0.0653
vt -0.0080 0.0692
vt 0.0000 0.0000
vt 0.3517 0.0000
vt 0.3590 0.0661
vt -0.0008 0.0699
vt 0.0000 0.0000
vt 0.3605 0.0000
vt 0.3673 0.0665
vt -0.0001 0.0693
vt 0.0000 0.0000
vt 0.7187 0.0000
vt 0.7187 0.1375
vt 0.0000 0.1375
vt 0.0000 0.0000
vt 0.1375 0.0000
vt 0.1375 0.7187
vt 0.0000 0.7187
vt 0.0000 0.0000
vt 0.1375 0.0000
vt 0.1375 1.1875
vt 0.0000 1.1875
vt 0.0000 0.0000
vt 1.1875 0.0000
vt 1.1875 0.1375
vt 0.0000 0.1375
vt 0.0000 0.0000
vt 1.1875 0.0000
vt 1.1875 0.7187
vt 0.0000 0.7187
vt 0.0000 0.0000
vt 0.7187 0.0000
vt 0.7187 1.1875
vt 0.0000 1.1875
usemtl fabric
f 1/1 2/2 3/3
f 1/1 3/3 4/4
f 5/5 6/6 7/7
f 5/5 7/7 8/8
f 9/9 10/10 11/11
f 9/9 11/11 12/12
f 13/13 14/14 15/15
f 13/13 15/15 16/16
f 17/17 18/18 19/19
f 17/17 19/19 20/20
f 21/21 22/22 23/23
f 21/21 23/23 24/24
f 25/25 26/26 27/27
f 25/25 27/27 28/28
f 29/29 30/30 31/31
f 29/29 31/31 32/32
f 33/33 34/34 35/35
f 33/33 35/35 36/36
f 37/37 38/38 39/39
f 37/37 39/39 40/40
f 41/41 42/42 43/43
f 41/41 43/43 44/44
f 45/45 46/46 47/47
f 45/45 47/47 48/48
f 49/49 50/50 51/51
f 49/49 51/51 52/52
f 53/53 54/54 55/55
f 53/53 55/55 56/56
f 57/57 58/58 59/59
f 57/57 59/59 60/60
f 61/61 62/62 63/63
f 61/61 63/63 64/64
f 65/65 66/66 67/67
f 65/65 67/67 68/68
f 69/69 70/70 71/71
f 69/69 71/71 72/72
f 73/73 74/74 75/75
f 73/73 75/75 76/76
f 77/77 78/78 79/79
f 77/77 79/79 80/80
f 81/81 82/82 83/83
f 81/81 83/83 84/84
f 85/85 86/86 87/87
f 85/85 87/87 88/88
f 89/89 90/90 91/91
f 89/89 91/91 92/92
f 93/93 94/94 95/95
f 93/93 95/95 96/96
f 97/97 98/98 99/99
f 97/97 99/99 100/100
f 101/101 102/102 103/103
f 101/101 103/103 104/104
f 105/105 106/106 107/107
f 105/105 107/107 108/108
f 109/109 110/110 111/111
f 109/109 111/111 112/112
f 113/113 114/114 115/115
f 113/113 115/115 116/116
f 117/117 118/118 119/119
f 117/117 119/119 120/120
