# M_masonry_1 (Sightline generated, CENTIMETRES, +Z up)
v -13.90 -2.17 0.15
v -12.73 2.36 -0.01
v 4.42 2.55 0.49
v 3.58 -2.15 0.58
v 3.58 -2.15 0.58
v 4.42 2.55 0.49
v 21.59 2.75 0.77
v 21.00 -2.15 1.96
v -12.73 2.36 -0.01
v -11.61 6.87 0.55
v 5.27 7.25 0.38
v 4.42 2.55 0.49
v 4.42 2.55 0.49
v 5.27 7.25 0.38
v 22.15 7.63 0.38
v 21.59 2.75 0.77
v -14.09 -2.97 8.26
v 3.02 -4.07 8.75
v 3.76 1.64 7.83
v -13.51 2.71 8.31
v -13.51 2.71 8.31
v 3.76 1.64 7.83
v 4.49 7.37 7.36
v -12.92 8.39 7.93
v 3.02 -4.07 8.75
v 20.13 -5.20 8.36
v 21.02 0.57 7.49
v 3.76 1.64 7.83
v 3.76 1.64 7.83
v 21.02 0.57 7.49
v 21.90 6.35 6.87
v 4.49 7.37 7.36
v -13.90 -2.17 0.15
v 3.55 -2.77 0.99
v 3.28 -2.77 4.72
v -14.00 -2.21 4.24
v -14.00 -2.21 4.24
v 3.28 -2.77 4.72
v 3.02 -3.60 8.36
v -14.09 -2.97 8.26
v 3.55 -2.77 0.99
v 21.00 -2.15 1.96
v 20.56 -3.72 5.16
v 3.28 -2.77 4.72
v 3.28 -2.77 4.72
v 20.56 -3.72 5.16
v 20.13 -5.20 8.36
v 3.02 -3.60 8.36
v -11.61 6.87 0.55
v -12.28 8.35 4.09
v 4.88 7.18 3.96
v 5.27 7.16 0.49
v 5.27 7.16 0.49
v 4.88 7.18 3.96
v 22.02 7.23 3.57
v 22.15 7.63 0.38
v -12.28 8.35 4.09
v -12.92 8.39 7.93
v 4.48 7.75 7.32
v 4.88 7.18 3.96
v 4.88 7.18 3.96
v 4.48 7.75 7.32
v 21.90 6.35 6.87
v 22.02 7.23 3.57
v -13.90 -2.17 0.15
v -13.92 -2.59 4.20
v -13.41 2.60 4.22
v -12.35 2.25 0.35
v -12.35 2.25 0.35
v -13.41 2.60 4.22
v -12.21 7.62 4.24
v -11.61 6.87 0.55
v -13.92 -2.59 4.20
v -14.09 -2.97 8.26
v -13.27 2.65 8.10
v -13.41 2.60 4.22
v -13.41 2.60 4.22
v -13.27 2.65 8.10
v -12.92 8.39 7.93
v -12.21 7.62 4.24
v 21.00 -2.15 1.96
v 21.49 2.75 1.16
v 21.17 1.67 4.38
v 20.26 -3.64 5.13
v 20.26 -3.64 5.13
v 21.17 1.67 4.38
v 20.46 0.63 7.57
v 20.13 -5.20 8.36
v 21.49 2.75 1.16
v 22.15 7.63 0.38
v 21.48 7.05 3.58
v 21.17 1.67 4.38
v 21.17 1.67 4.38
v 21.48 7.05 3.58
v 21.90 6.35 6.87
v 20.46 0.63 7.57
v -6.84 -8.79 8.58
v -6.12 -1.09 8.39
v 14.55 -5.27 7.98
v 13.30 -12.20 7.45
v 13.30 -12.20 7.45
v 14.55 -5.27 7.98
v 35.20 -9.51 7.00
v 33.50 -15.49 7.49
v -6.12 -1.09 8.39
v -5.45 6.46 6.81
v 15.73 1.49 6.90
v 14.55 -5.27 7.98
v 14.55 -5.27 7.98
v 15.73 1.49 6.90
v 36.91 -3.47 7.02
v 35.20 -9.51 7.00
v -5.75 -6.46 14.80
v 13.69 -12.02 14.61
v 15.02 -5.61 15.35
v -4.89 -0.14 14.68
v -4.89 -0.14 14.68
v 15.02 -5.61 15.35
v 16.37 0.80 15.92
v -4.04 6.06 15.95
v 13.69 -12.02 14.61
v 33.12 -17.55 14.16
v 34.94 -11.06 15.68
v 15.02 -5.61 15.35
v 15.02 -5.61 15.35
v 34.94 -11.06 15.68
v 36.77 -4.45 15.82
v 16.37 0.80 15.92
v -6.84 -8.79 8.58
v 13.32 -12.23 8.07
v 13.44 -12.50 11.43
v -6.23 -7.22 11.52
v -6.23 -7.22 11.52
v 13.44 -12.50 11.43
v 13.63 -12.36 14.62
v -5.75 -6.46 14.80
v 13.32 -12.23 8.07
v 33.50 -15.49 7.49
v 33.23 -17.08 11.05
v 13.44 -12.50 11.43
v 13.44 -12.50 11.43
v 33.23 -17.08 11.05
v 33.12 -17.55 14.16
v 13.63 -12.36 14.62
v -5.45 6.46 6.81
v -4.78 6.12 11.38
v 16.21 1.83 11.40
v 15.71 1.40 6.91
v 15.71 1.40 6.91
v 16.21 1.83 11.40
v 36.86 -3.90 11.42
v 36.91 -3.47 7.02
v -4.78 6.12 11.38
v -4.04 6.06 15.95
v 16.49 1.36 15.89
v 16.21 1.83 11.40
v 16.21 1.83 11.40
v 16.49 1.36 15.89
v 36.77 -4.45 15.82
v 36.86 -3.90 11.42
v -6.84 -8.79 8.58
v -6.43 -7.61 11.70
v -5.14 -0.72 11.48
v -6.65 -1.11 7.76
v -6.65 -1.11 7.76
v -5.14 -0.72 11.48
v -4.75 6.26 11.38
v -5.45 6.46 6.81
v -6.43 -7.61 11.70
v -5.75 -6.46 14.80
v -5.58 -0.12 15.46
v -5.14 -0.72 11.48
v -5.14 -0.72 11.48
v -5.58 -0.12 15.46
v -4.04 6.06 15.95
v -4.75 6.26 11.38
v 33.50 -15.49 7.49
v 34.63 -9.32 7.27
v 35.62 -10.39 11.11
v 33.50 -16.57 10.82
v 33.50 -16.57 10.82
v 35.62 -10.39 11.11
v 35.03 -11.02 14.99
v 33.12 -17.55 14.16
v 34.63 -9.32 7.27
v 36.91 -3.47 7.02
v 36.59 -3.89 11.43
v 35.62 -10.39 11.11
v 35.62 -10.39 11.11
v 36.59 -3.89 11.43
v 36.77 -4.45 15.82
v 35.03 -11.02 14.99
v -27.94 -7.42 13.64
v -29.86 2.17 14.46
v -13.48 7.00 15.00
v -11.19 -1.02 14.12
v -11.19 -1.02 14.12
v -13.48 7.00 15.00
v 2.85 11.96 14.39
v 5.47 5.54 13.18
v -29.86 2.17 14.46
v -31.75 11.69 16.01
v -15.75 15.02 15.94
v -13.48 7.00 15.00
v -13.48 7.00 15.00
v -15.75 15.02 15.94
v 0.27 18.29 16.36
v 2.85 11.96 14.39
v -29.06 -6.67 24.09
v -12.40 -1.68 23.86
v -13.81 6.80 22.88
v -30.67 1.73 23.33
v -30.67 1.73 23.33
v -13.81 6.80 22.88
v -15.22 15.24 21.70
v -32.24 9.89 21.17
v -12.40 -1.68 23.86
v 4.27 3.27 23.36
v 3.03 11.94 22.80
v -13.81 6.80 22.88
v -13.81 6.80 22.88
v 3.03 11.94 22.80
v 1.79 20.65 22.55
v -15.22 15.24 21.70
v -27.94 -7.42 13.64
v -11.30 -0.77 13.39
v -11.89 -1.12 18.54
v -28.43 -7.23 18.89
v -28.43 -7.23 18.89
v -11.89 -1.12 18.54
v -12.36 -1.79 23.73
v -29.06 -6.67 24.09
v -11.30 -0.77 13.39
v 5.47 5.54 13.18
v 4.82 4.54 18.25
v -11.89 -1.12 18.54
v -11.89 -1.12 18.54
v 4.82 4.54 18.25
v 4.27 3.27 23.36
v -12.36 -1.79 23.73
v -31.75 11.69 16.01
v -31.93 10.48 18.49
v -15.52 15.28 19.07
v -15.85 15.51 16.35
v -15.85 15.51 16.35
v -15.52 15.28 19.07
v 1.08 19.22 19.37
v 0.27 18.29 16.36
v -31.93 10.48 18.49
v -32.24 9.89 21.17
v -15.18 15.04 21.79
v -15.52 15.28 19.07
v -15.52 15.28 19.07
v -15.18 15.04 21.79
v 1.79 20.65 22.55
v 1.08 19.22 19.37
v -27.94 -7.42 13.64
v -28.49 -7.04 18.87
v -29.53 2.01 18.80
v -29.14 2.27 14.89
v -29.14 2.27 14.89
v -29.53 2.01 18.80
v -32.05 10.78 18.59
v -31.75 11.69 16.01
v -28.49 -7.04 18.87
v -29.06 -6.67 24.09
v -30.77 1.58 22.62
v -29.53 2.01 18.80
v -29.53 2.01 18.80
v -30.77 1.58 22.62
v -32.24 9.89 21.17
v -32.05 10.78 18.59
v 5.47 5.54 13.18
v 3.35 12.09 14.86
v 2.74 11.86 18.82
v 4.63 4.32 18.22
v 4.63 4.32 18.22
v 2.74 11.86 18.82
v 3.80 12.24 23.11
v 4.27 3.27 23.36
v 3.35 12.09 14.86
v 0.27 18.29 16.36
v 0.73 19.36 19.40
v 2.74 11.86 18.82
v 2.74 11.86 18.82
v 0.73 19.36 19.40
v 1.79 20.65 22.55
v 3.80 12.24 23.11
vt 0.0000 0.0000
vt 0.0468 -0.0000
vt 0.0912 0.1658
vt 0.0435 0.1693
vt 0.0000 0.0000
vt 0.0478 0.0000
vt 0.0802 0.1683
vt 0.0307 0.1721
vt 0.0000 0.0000
vt 0.0468 0.0000
vt 0.0909 0.1629
vt 0.0437 0.1660
vt 0.0000 0.0000
vt 0.0478 0.0000
vt 0.0815 0.1653
vt 0.0324 0.1686
vt 0.0000 0.0000
vt 0.1715 0.0000
vt 0.1749 0.0574
vt 0.0022 0.0571
vt 0.0000 0.0000
vt 0.1730 0.0000
vt 0.1769 0.0578
vt 0.0024 0.0571
vt 0.0000 0.0000
vt 0.1715 0.0000
vt 0.1768 0.0588
vt 0.0038 0.0582
vt 0.0000 0.0000
vt 0.1730 0.0000
vt 0.1784 0.0586
vt 0.0039 0.0578
vt 0.0000 0.0000
vt 0.1748 -0.0000
vt 0.1739 0.0373
vt 0.0010 0.0409
vt 0.0000 0.0000
vt 0.1729 -0.0000
vt 0.1716 0.0374
vt 0.0004 0.0409
vt 0.0000 0.0000
vt 0.1748 0.0000
vt 0.1717 0.0321
vt -0.0006 0.0373
vt 0.0000 0.0000
vt 0.1731 -0.0000
vt 0.1704 0.0347
vt -0.0013 0.0374
vt 0.0000 0.0000
vt 0.0389 0.0000
vt 0.0037 0.1679
vt -0.0287 0.1664
vt 0.0000 0.0000
vt 0.0350 0.0000
vt 0.0121 0.1698
vt -0.0198 0.1677
vt 0.0000 0.0000
vt 0.0389 -0.0000
vt 0.0043 0.1707
vt -0.0296 0.1695
vt 0.0000 0.0000
vt 0.0343 0.0000
vt 0.0072 0.1721
vt -0.0237 0.1697
vt 0.0000 0.0000
vt 0.0408 0.0000
vt 0.0356 0.0504
vt -0.0026 0.0468
vt 0.0000 0.0000
vt 0.0403 0.0000
vt 0.0417 0.0515
vt 0.0040 0.0467
vt 0.0000 0.0000
vt 0.0408 0.0000
vt 0.0335 0.0563
vt -0.0049 0.0519
vt 0.0000 0.0000
vt 0.0388 0.0000
vt 0.0380 0.0567
vt 0.0013 0.0516
vt 0.0000 0.0000
vt 0.0498 0.0000
vt 0.0338 0.0298
vt -0.0205 0.0294
vt 0.0000 0.0000
vt 0.0544 0.0000
vt 0.0387 0.0297
vt -0.0199 0.0298
vt 0.0000 0.0000
vt 0.0498 -0.0000
vt 0.0383 0.0308
vt -0.0160 0.0301
vt 0.0000 0.0000
vt 0.0544 0.0000
vt 0.0430 0.0299
vt -0.0153 0.0306
vt 0.0000 0.0000
vt 0.0774 -0.0000
vt 0.0553 0.2096
vt -0.0148 0.2041
vt 0.0000 0.0000
vt 0.0707 -0.0000
vt 0.0648 0.2107
vt 0.0034 0.2046
vt 0.0000 0.0000
vt 0.0774 -0.0000
vt 0.0469 0.2154
vt -0.0222 0.2097
vt 0.0000 0.0000
vt 0.0694 0.0000
vt 0.0568 0.2169
vt -0.0048 0.2109
vt 0.0000 0.0000
vt 0.2021 -0.0000
vt 0.1973 0.0651
vt -0.0091 0.0632
vt 0.0000 0.0000
vt 0.2066 -0.0000
vt 0.2027 0.0652
vt -0.0079 0.0633
vt 0.0000 0.0000
vt 0.2021 0.0000
vt 0.2015 0.0686
vt -0.0048 0.0656
vt 0.0000 0.0000
vt 0.2065 0.0000
vt 0.2068 0.0685
vt -0.0039 0.0657
vt 0.0000 0.0000
vt 0.2046 0.0000
vt 0.2054 0.0282
vt 0.0026 0.0338
vt 0.0000 0.0000
vt 0.2037 0.0000
vt 0.2050 0.0314
vt 0.0025 0.0338
vt 0.0000 0.0000
vt 0.2046 0.0000
vt 0.2033 0.0367
vt 0.0007 0.0337
vt 0.0000 0.0000
vt 0.2031 0.0000
vt 0.2026 0.0308
vt 0.0009 0.0320
vt 0.0000 0.0000
vt 0.0463 0.0000
vt 0.0801 0.2114
vt 0.0354 0.2147
vt 0.0000 0.0000
vt 0.0454 0.0000
vt 0.0628 0.2134
vt 0.0197 0.2167
vt 0.0000 0.0000
vt 0.0463 -0.0000
vt 0.0790 0.2081
vt 0.0342 0.2115
vt 0.0000 0.0000
vt 0.0452 0.0000
vt 0.0635 0.2101
vt 0.0193 0.2134
vt 0.0000 0.0000
vt 0.0337 0.0000
vt 0.0573 0.0652
vt 0.0195 0.0747
vt 0.0000 0.0000
vt 0.0403 0.0000
vt 0.0476 0.0689
vt 0.0030 0.0772
vt 0.0000 0.0000
vt 0.0337 0.0000
vt 0.0618 0.0561
vt 0.0241 0.0658
vt 0.0000 0.0000
vt 0.0405 0.0000
vt 0.0527 0.0615
vt 0.0089 0.0694
vt 0.0000 0.0000
vt 0.0628 -0.0000
vt 0.0527 0.0386
vt -0.0118 0.0330
vt 0.0000 0.0000
vt 0.0654 0.0000
vt 0.0592 0.0392
vt -0.0090 0.0338
vt 0.0000 0.0000
vt 0.0628 0.0000
vt 0.0560 0.0410
vt -0.0080 0.0402
vt 0.0000 0.0000
vt 0.0659 0.0000
vt 0.0627 0.0435
vt -0.0052 0.0394
vt 0.0000 0.0000
vt 0.0982 -0.0000
vt 0.1137 0.1702
vt 0.0301 0.1768
vt 0.0000 0.0000
vt 0.0838 -0.0000
vt 0.0862 0.1706
vt 0.0164 0.1786
vt 0.0000 0.0000
vt 0.0982 -0.0000
vt 0.0996 0.1633
vt 0.0161 0.1702
vt 0.0000 0.0000
vt 0.0838 0.0000
vt 0.0720 0.1628
vt 0.0023 0.1707
vt 0.0000 0.0000
vt 0.1739 0.0000
vt 0.1849 0.0858
vt 0.0088 0.0854
vt 0.0000 0.0000
vt 0.1761 0.0000
vt 0.1872 0.0851
vt 0.0090 0.0854
vt 0.0000 0.0000
vt 0.1739 0.0000
vt 0.1869 0.0866
vt 0.0108 0.0858
vt 0.0000 0.0000
vt 0.1761 -0.0000
vt 0.1896 0.0865
vt 0.0112 0.0857
vt 0.0000 0.0000
vt 0.1792 -0.0000
vt 0.1717 0.0513
vt -0.0046 0.0525
vt 0.0000 0.0000
vt 0.1763 -0.0000
vt 0.1686 0.0506
vt -0.0050 0.0525
vt 0.0000 0.0000
vt 0.1792 0.0000
vt 0.1690 0.0508
vt -0.0074 0.0515
vt 0.0000 0.0000
vt 0.1764 0.0000
vt 0.1663 0.0516
vt -0.0074 0.0520
vt 0.0000 0.0000
vt 0.0277 0.0000
vt 0.0011 0.1689
vt -0.0241 0.1618
vt 0.0000 0.0000
vt 0.0275 0.0000
vt 0.0474 0.1691
vt 0.0173 0.1626
vt 0.0000 0.0000
vt 0.0277 -0.0000
vt 0.0033 0.1767
vt -0.0232 0.1696
vt 0.0000 0.0000
vt 0.0275 0.0000
vt 0.0509 0.1766
vt 0.0199 0.1695
vt 0.0000 0.0000
vt 0.0527 0.0000
vt 0.0595 0.0908
vt 0.0206 0.0962
vt 0.0000 0.0000
vt 0.0393 0.0000
vt 0.0340 0.0911
vt 0.0075 0.0981
vt 0.0000 0.0000
vt 0.0527 0.0000
vt 0.0458 0.0849
vt 0.0068 0.0908
vt 0.0000 0.0000
vt 0.0404 0.0000
vt 0.0226 0.0836
vt -0.0034 0.0912
vt 0.0000 0.0000
vt 0.0708 0.0000
vt 0.0800 0.0390
vt 0.0032 0.0525
vt 0.0000 0.0000
vt 0.0780 0.0000
vt 0.0823 0.0411
vt -0.0053 0.0523
vt 0.0000 0.0000
vt 0.0708 -0.0000
vt 0.0846 0.0262
vt 0.0090 0.0391
vt 0.0000 0.0000
vt 0.0778 -0.0000
vt 0.0899 0.0332
vt 0.0041 0.0441
usemtl masonry
f 1/1 2/2 3/3
f 1/1 3/3 4/4
f 5/5 6/6 7/7
f 5/5 7/7 8/8
f 9/9 10/10 11/11
f 9/9 11/11 12/12
f 13/13 14/14 15/15
f 13/13 15/15 16/16
f 17/17 18/18 19/19
f 17/17 19/19 20/20
f 21/21 22/22 23/23
f 21/21 23/23 24/24
f 25/25 26/26 27/27
f 25/25 27/27 28/28
f 29/29 30/30 31/31
f 29/29 31/31 32/32
f 33/33 34/34 35/35
f 33/33 35/35 36/36
f 37/37 38/38 39/39
f 37/37 39/39 40/40
f 41/41 42/42 43/43
f 41/41 43/43 44/44
f 45/45 46/46 47/47
f 45/45 47/47 48/48
f 49/49 50/50 51/51
f 49/49 51/51 52/52
f 53/53 54/54 55/55
f 53/53 55/55 56/56
f 57/57 58/58 59/59
f 57/57 59/59 60/60
f 61/61 62/62 63/63
f 61/61 63/63 64/64
f 65/65 66/66 67/67
f 65/65 67/67 68/68
f 69/69 70/70 71/71
f 69/69 71/71 72/72
f 73/73 74/74 75/75
f 73/73 75/75 76/76
f 77/77 78/78 79/79
f 77/77 79/79 80/80
f 81/81 82/82 83/83
f 81/81 83/83 84/84
f 85/85 86/86 87/87
f 85/85 87/87 88/88
f 89/89 90/90 91/91
f 89/89 91/91 92/92
f 93/93 94/94 95/95
f 93/93 95/95 96/96
f 97/97 98/98 99/99
f 97/97 99/99 100/100
f 101/101 102/102 103/103
f 101/101 103/103 104/104
f 105/105 106/106 107/107
f 105/105 107/107 108/108
f 109/109 110/110 111/111
f 109/109 111/111 112/112
f 113/113 114/114 115/115
f 113/113 115/115 116/116
f 117/117 118/118 119/119
f 117/117 119/119 120/120
f 121/121 122/122 123/123
f 121/121 123/123 124/124
f 125/125 126/126 127/127
f 125/125 127/127 128/128
f 129/129 130/130 131/131
f 129/129 131/131 132/132
f 133/133 134/134 135/135
f 133/133 135/135 136/136
f 137/137 138/138 139/139
f 137/137 139/139 140/140
f 141/141 142/142 143/143
f 141/141 143/143 144/144
f 145/145 146/146 147/147
f 145/145 147/147 148/148
f 149/149 150/150 151/151
f 149/149 151/151 152/152
f 153/153 154/154 155/155
f 153/153 155/155 156/156
f 157/157 158/158 159/159
f 157/157 159/159 160/160
f 161/161 162/162 163/163
f 161/161 163/163 164/164
f 165/165 166/166 167/167
f 165/165 167/167 168/168
f 169/169 170/170 171/171
f 169/169 171/171 172/172
f 173/173 174/174 175/175
f 173/173 175/175 176/176
f 177/177 178/178 179/179
f 177/177 179/179 180/180
f 181/181 182/182 183/183
f 181/181 183/183 184/184
f 185/185 186/186 187/187
f 185/185 187/187 188/188
f 189/189 190/190 191/191
f 189/189 191/191 192/192
f 193/193 194/194 195/195
f 193/193 195/195 196/196
f 197/197 198/198 199/199
f 197/197 199/199 200/200
f 201/201 202/202 203/203
f 201/201 203/203 204/204
f 205/205 206/206 207/207
f 205/205 207/207 208/208
f 209/209 210/210 211/211
f 209/209 211/211 212/212
f 213/213 214/214 215/215
f 213/213 215/215 216/216
f 217/217 218/218 219/219
f 217/217 219/219 220/220
f 221/221 222/222 223/223
f 221/221 223/223 224/224
f 225/225 226/226 227/227
f 225/225 227/227 228/228
f 229/229 230/230 231/231
f 229/229 231/231 232/232
f 233/233 234/234 235/235
f 233/233 235/235 236/236
f 237/237 238/238 239/239
f 237/237 239/239 240/240
f 241/241 242/242 243/243
f 241/241 243/243 244/244
f 245/245 246/246 247/247
f 245/245 247/247 248/248
f 249/249 250/250 251/251
f 249/249 251/251 252/252
f 253/253 254/254 255/255
f 253/253 255/255 256/256
f 257/257 258/258 259/259
f 257/257 259/259 260/260
f 261/261 262/262 263/263
f 261/261 263/263 264/264
f 265/265 266/266 267/267
f 265/265 267/267 268/268
f 269/269 270/270 271/271
f 269/269 271/271 272/272
f 273/273 274/274 275/275
f 273/273 275/275 276/276
f 277/277 278/278 279/279
f 277/277 279/279 280/280
f 281/281 282/282 283/283
f 281/281 283/283 284/284
f 285/285 286/286 287/287
f 285/285 287/287 288/288
