# M_masonry_2 (Sightline generated, CENTIMETRES, +Z up)
v -22.71 -3.38 -0.91
v -24.31 2.72 -0.63
v -6.08 6.15 -0.28
v -5.32 -1.11 0.54
v -5.32 -1.11 0.54
v -6.08 6.15 -0.28
v 12.15 9.57 -0.04
v 12.12 1.21 0.39
v -24.31 2.72 -0.63
v -25.89 8.84 -0.74
v -6.90 13.36 0.79
v -6.08 6.15 -0.28
v -6.08 6.15 -0.28
v -6.90 13.36 0.79
v 12.12 17.90 1.28
v 12.15 9.57 -0.04
v -22.86 -5.85 10.30
v -4.27 -2.37 11.08
v -6.94 5.41 10.06
v -25.22 2.85 10.45
v -25.22 2.85 10.45
v -6.94 5.41 10.06
v -9.61 13.22 9.54
v -27.57 11.50 9.45
v -4.27 -2.37 11.08
v 14.33 1.03 10.30
v 11.35 7.96 9.35
v -6.94 5.41 10.06
v -6.94 5.41 10.06
v 11.35 7.96 9.35
v 8.36 14.94 9.43
v -9.61 13.22 9.54
v -22.71 -3.38 -0.91
v -5.33 -0.84 -0.21
v -4.76 -1.86 5.00
v -22.82 -4.38 4.74
v -22.82 -4.38 4.74
v -4.76 -1.86 5.00
v -4.28 -2.31 10.32
v -22.86 -5.85 10.30
v -5.33 -0.84 -0.21
v 12.12 1.21 0.39
v 13.30 0.57 5.23
v -4.76 -1.86 5.00
v -4.76 -1.86 5.00
v 13.30 0.57 5.23
v 14.33 1.03 10.30
v -4.28 -2.31 10.32
v -25.89 8.84 -0.74
v -26.82 10.55 4.24
v -8.44 14.16 4.60
v -6.99 13.82 0.13
v -6.99 13.82 0.13
v -8.44 14.16 4.60
v 10.05 17.29 5.10
v 12.12 17.90 1.28
v -26.82 10.55 4.24
v -27.57 11.50 9.45
v -9.49 12.69 9.60
v -8.44 14.16 4.60
v -8.44 14.16 4.60
v -9.49 12.69 9.60
v 8.36 14.94 9.43
v 10.05 17.29 5.10
v -22.71 -3.38 -0.91
v -22.16 -4.45 4.74
v -24.68 2.80 4.53
v -24.75 2.61 -0.86
v -24.75 2.61 -0.86
v -24.68 2.80 4.53
v -26.82 10.15 4.35
v -25.89 8.84 -0.74
v -22.16 -4.45 4.74
v -22.86 -5.85 10.30
v -25.00 2.88 9.89
v -24.68 2.80 4.53
v -24.68 2.80 4.53
v -25.00 2.88 9.89
v -27.57 11.50 9.45
v -26.82 10.15 4.35
v 12.12 1.21 0.39
v 11.22 9.54 1.03
v 11.47 8.77 5.41
v 12.77 1.11 5.45
v 12.77 1.11 5.45
v 11.47 8.77 5.41
v 12.00 7.99 9.72
v 14.33 1.03 10.30
v 11.22 9.54 1.03
v 12.12 17.90 1.28
v 9.34 16.41 5.56
v 11.47 8.77 5.41
v 11.47 8.77 5.41
v 9.34 16.41 5.56
v 8.36 14.94 9.43
v 12.00 7.99 9.72
v 1.99 -1.82 12.33
v 0.24 2.64 12.87
v 11.79 6.98 11.12
v 14.05 2.12 11.24
v 14.05 2.12 11.24
v 11.79 6.98 11.12
v 23.37 11.33 9.70
v 26.10 6.05 10.16
v 0.24 2.64 12.87
v -1.61 7.07 12.34
v 9.52 11.84 10.92
v 11.79 6.98 11.12
v 11.79 6.98 11.12
v 9.52 11.84 10.92
v 20.72 16.64 10.34
v 23.37 11.33 9.70
v -0.22 -5.45 22.77
v 11.30 0.11 19.99
v 9.95 7.70 21.39
v -0.73 2.57 22.03
v -0.73 2.57 22.03
v 9.95 7.70 21.39
v 8.37 15.26 21.53
v -1.03 10.63 22.47
v 11.30 0.11 19.99
v 23.05 5.69 18.46
v 20.48 12.80 19.96
v 9.95 7.70 21.39
v 9.95 7.70 21.39
v 20.48 12.80 19.96
v 17.97 19.92 21.79
v 8.37 15.26 21.53
v 1.99 -1.82 12.33
v 14.26 1.41 11.04
v 12.53 1.78 16.12
v 0.69 -2.98 17.74
v 0.69 -2.98 17.74
v 12.53 1.78 16.12
v 11.48 -0.09 20.56
v -0.22 -5.45 22.77
v 14.26 1.41 11.04
v 26.10 6.05 10.16
v 24.74 5.33 14.16
v 12.53 1.78 16.12
v 12.53 1.78 16.12
v 24.74 5.33 14.16
v 23.05 5.69 18.46
v 11.48 -0.09 20.56
v -1.61 7.07 12.34
v -1.16 8.52 17.51
v 9.17 13.22 16.85
v 9.41 12.17 11.24
v 9.41 12.17 11.24
v 9.17 13.22 16.85
v 19.27 18.45 16.01
v 20.72 16.64 10.34
v -1.16 8.52 17.51
v -1.03 10.63 22.47
v 8.82 14.52 22.38
v 9.17 13.22 16.85
v 9.17 13.22 16.85
v 8.82 14.52 22.38
v 17.97 19.92 21.79
v 19.27 18.45 16.01
v 1.99 -1.82 12.33
v 1.24 -3.49 17.67
v -0.49 2.50 17.38
v 0.99 2.95 12.61
v 0.99 2.95 12.61
v -0.49 2.50 17.38
v -1.16 8.91 17.46
v -1.61 7.07 12.34
v 1.24 -3.49 17.67
v -0.22 -5.45 22.77
v -0.68 2.57 22.60
v -0.49 2.50 17.38
v -0.49 2.50 17.38
v -0.68 2.57 22.60
v -1.03 10.63 22.47
v -1.16 8.91 17.46
v 26.10 6.05 10.16
v 22.75 11.01 9.99
v 22.65 12.42 15.46
v 23.78 5.47 14.00
v 23.78 5.47 14.00
v 22.65 12.42 15.46
v 21.17 13.14 20.38
v 23.05 5.69 18.46
v 22.75 11.01 9.99
v 20.72 16.64 10.34
v 18.55 17.88 15.76
v 22.65 12.42 15.46
v 22.65 12.42 15.46
v 18.55 17.88 15.76
v 17.97 19.92 21.79
v 21.17 13.14 20.38
vt 0.0000 0.0000
vt 0.0632 0.0000
vt 0.0504 0.1846
vt -0.0213 0.1747
vt 0.0000 0.0000
vt 0.0734 0.0000
vt 0.0881 0.1849
vt 0.0050 0.1759
vt 0.0000 0.0000
vt 0.0632 -0.0000
vt 0.0591 0.1954
vt -0.0126 0.1851
vt 0.0000 0.0000
vt 0.0734 -0.0000
vt 0.0973 0.1942
vt 0.0136 0.1850
vt 0.0000 0.0000
vt 0.1893 0.0000
vt 0.1769 0.0812
vt -0.0072 0.0899
vt 0.0000 0.0000
vt 0.1847 0.0000
vt 0.1692 0.0811
vt -0.0111 0.0895
vt 0.0000 0.0000
vt 0.1893 -0.0000
vt 0.1728 0.0742
vt -0.0118 0.0821
vt 0.0000 0.0000
vt 0.1848 -0.0000
vt 0.1648 0.0730
vt -0.0155 0.0812
vt 0.0000 0.0000
vt 0.1758 0.0000
vt 0.1820 0.0529
vt -0.0002 0.0575
vt 0.0000 0.0000
vt 0.1823 0.0000
vt 0.1872 0.0528
vt -0.0017 0.0574
vt 0.0000 0.0000
vt 0.1758 0.0000
vt 0.1884 0.0485
vt 0.0062 0.0530
vt 0.0000 0.0000
vt 0.1823 0.0000
vt 0.1937 0.0501
vt 0.0049 0.0535
vt 0.0000 0.0000
vt 0.0535 -0.0000
vt 0.0366 0.1863
vt -0.0086 0.1955
vt 0.0000 0.0000
vt 0.0471 0.0000
vt -0.0030 0.1806
vt -0.0452 0.1904
vt 0.0000 0.0000
vt 0.0535 0.0000
vt 0.0315 0.1785
vt -0.0161 0.1866
vt 0.0000 0.0000
vt 0.0532 0.0000
vt 0.0102 0.1745
vt -0.0404 0.1832
vt 0.0000 0.0000
vt 0.0578 0.0000
vt 0.0399 0.0747
vt -0.0125 0.0621
vt 0.0000 0.0000
vt 0.0539 0.0000
vt 0.0544 0.0762
vt 0.0032 0.0633
vt 0.0000 0.0000
vt 0.0578 0.0000
vt 0.0354 0.0868
vt -0.0164 0.0750
vt 0.0000 0.0000
vt 0.0537 -0.0000
vt 0.0522 0.0900
vt 0.0006 0.0766
vt 0.0000 0.0000
vt 0.0841 0.0000
vt 0.0795 0.0441
vt 0.0023 0.0510
vt 0.0000 0.0000
vt 0.0776 -0.0000
vt 0.0689 0.0423
vt -0.0037 0.0509
vt 0.0000 0.0000
vt 0.0841 -0.0000
vt 0.0675 0.0412
vt -0.0062 0.0441
vt 0.0000 0.0000
vt 0.0794 0.0000
vt 0.0686 0.0380
vt -0.0081 0.0434
vt 0.0000 0.0000
vt 0.0483 0.0000
vt 0.0443 0.1243
vt -0.0088 0.1270
vt 0.0000 0.0000
vt 0.0536 -0.0000
vt 0.0446 0.1241
vt -0.0149 0.1264
vt 0.0000 0.0000
vt 0.0483 0.0000
vt 0.0511 0.1218
vt -0.0024 0.1246
vt 0.0000 0.0000
vt 0.0537 0.0000
vt 0.0500 0.1216
vt -0.0090 0.1242
vt 0.0000 0.0000
vt 0.1309 -0.0000
vt 0.1482 0.0741
vt 0.0312 0.0745
vt 0.0000 0.0000
vt 0.1186 -0.0000
vt 0.1370 0.0749
vt 0.0319 0.0742
vt 0.0000 0.0000
vt 0.1309 -0.0000
vt 0.1365 0.0768
vt 0.0186 0.0762
vt 0.0000 0.0000
vt 0.1179 -0.0000
vt 0.1241 0.0758
vt 0.0185 0.0750
vt 0.0000 0.0000
vt 0.1275 0.0000
vt 0.1067 0.0472
vt -0.0209 0.0528
vt 0.0000 0.0000
vt 0.1286 0.0000
vt 0.1064 0.0439
vt -0.0239 0.0516
vt 0.0000 0.0000
vt 0.1275 -0.0000
vt 0.1094 0.0378
vt -0.0182 0.0506
vt 0.0000 0.0000
vt 0.1286 0.0000
vt 0.1070 0.0351
vt -0.0220 0.0442
vt 0.0000 0.0000
vt 0.0539 -0.0000
vt 0.0686 0.1128
vt 0.0121 0.1213
vt 0.0000 0.0000
vt 0.0571 0.0000
vt 0.0543 0.1134
vt -0.0053 0.1218
vt 0.0000 0.0000
vt 0.0539 0.0000
vt 0.0708 0.1043
vt 0.0149 0.1128
vt 0.0000 0.0000
vt 0.0569 0.0000
vt 0.0578 0.1063
vt -0.0025 0.1140
vt 0.0000 0.0000
vt 0.0565 0.0000
vt 0.0384 0.0594
vt -0.0100 0.0477
vt 0.0000 0.0000
vt 0.0501 0.0000
vt 0.0471 0.0578
vt 0.0013 0.0488
vt 0.0000 0.0000
vt 0.0565 0.0000
vt 0.0284 0.0732
vt -0.0189 0.0595
vt 0.0000 0.0000
vt 0.0523 0.0000
vt 0.0522 0.0806
vt 0.0019 0.0645
vt 0.0000 0.0000
vt 0.0599 0.0000
vt 0.0706 0.0440
vt 0.0072 0.0447
vt 0.0000 0.0000
vt 0.0719 -0.0000
vt 0.0911 0.0479
vt 0.0123 0.0436
vt 0.0000 0.0000
vt 0.0599 0.0000
vt 0.0821 0.0517
vt 0.0168 0.0539
vt 0.0000 0.0000
vt 0.0683 -0.0000
vt 0.0907 0.0575
vt 0.0168 0.0492
usemtl masonry
f 1/1 2/2 3/3
f 1/1 3/3 4/4
f 5/5 6/6 7/7
f 5/5 7/7 8/8
f 9/9 10/10 11/11
f 9/9 11/11 12/12
f 13/13 14/14 15/15
f 13/13 15/15 16/16
f 17/17 18/18 19/19
f 17/17 19/19 20/20
f 21/21 22/22 23/23
f 21/21 23/23 24/24
f 25/25 26/26 27/27
f 25/25 27/27 28/28
f 29/29 30/30 31/31
f 29/29 31/31 32/32
f 33/33 34/34 35/35
f 33/33 35/35 36/36
f 37/37 38/38 39/39
f 37/37 39/39 40/40
f 41/41 42/42 43/43
f 41/41 43/43 44/44
f 45/45 46/46 47/47
f 45/45 47/47 48/48
f 49/49 50/50 51/51
f 49/49 51/51 52/52
f 53/53 54/54 55/55
f 53/53 55/55 56/56
f 57/57 58/58 59/59
f 57/57 59/59 60/60
f 61/61 62/62 63/63
f 61/61 63/63 64/64
f 65/65 66/66 67/67
f 65/65 67/67 68/68
f 69/69 70/70 71/71
f 69/69 71/71 72/72
f 73/73 74/74 75/75
f 73/73 75/75 76/76
f 77/77 78/78 79/79
f 77/77 79/79 80/80
f 81/81 82/82 83/83
f 81/81 83/83 84/84
f 85/85 86/86 87/87
f 85/85 87/87 88/88
f 89/89 90/90 91/91
f 89/89 91/91 92/92
f 93/93 94/94 95/95
f 93/93 95/95 96/96
f 97/97 98/98 99/99
f 97/97 99/99 100/100
f 101/101 102/102 103/103
f 101/101 103/103 104/104
f 105/105 106/106 107/107
f 105/105 107/107 108/108
f 109/109 110/110 111/111
f 109/109 111/111 112/112
f 113/113 114/114 115/115
f 113/113 115/115 116/116
f 117/117 118/118 119/119
f 117/117 119/119 120/120
f 121/121 122/122 123/123
f 121/121 123/123 124/124
f 125/125 126/126 127/127
f 125/125 127/127 128/128
f 129/129 130/130 131/131
f 129/129 131/131 132/132
f 133/133 134/134 135/135
f 133/133 135/135 136/136
f 137/137 138/138 139/139
f 137/137 139/139 140/140
f 141/141 142/142 143/143
f 141/141 143/143 144/144
f 145/145 146/146 147/147
f 145/145 147/147 148/148
f 149/149 150/150 151/151
f 149/149 151/151 152/152
f 153/153 154/154 155/155
f 153/153 155/155 156/156
f 157/157 158/158 159/159
f 157/157 159/159 160/160
f 161/161 162/162 163/163
f 161/161 163/163 164/164
f 165/165 166/166 167/167
f 165/165 167/167 168/168
f 169/169 170/170 171/171
f 169/169 171/171 172/172
f 173/173 174/174 175/175
f 173/173 175/175 176/176
f 177/177 178/178 179/179
f 177/177 179/179 180/180
f 181/181 182/182 183/183
f 181/181 183/183 184/184
f 185/185 186/186 187/187
f 185/185 187/187 188/188
f 189/189 190/190 191/191
f 189/189 191/191 192/192
