# M_masonry_0 (Sightline generated, CENTIMETRES, +Z up)
v -24.05 7.71 2.06
v -21.32 11.07 0.21
v -2.40 4.79 -0.09
v -5.06 0.14 0.47
v -5.06 0.14 0.47
v -2.40 4.79 -0.09
v 16.50 -1.52 -0.49
v 13.92 -7.45 -1.21
v -21.32 11.07 0.21
v -18.43 14.65 -0.78
v 0.17 9.31 -1.14
v -2.40 4.79 -0.09
v -2.40 4.79 -0.09
v 0.17 9.31 -1.14
v 18.98 4.27 -0.34
v 16.50 -1.52 -0.49
v -24.87 8.20 8.82
v -5.80 1.31 9.25
v -3.78 5.30 8.37
v -23.18 12.65 9.03
v -23.18 12.65 9.03
v -3.78 5.30 8.37
v -1.76 9.28 7.61
v -21.49 17.09 9.39
v -5.80 1.31 9.25
v 13.30 -5.51 8.57
v 15.62 -2.05 7.80
v -3.78 5.30 8.37
v -3.78 5.30 8.37
v 15.62 -2.05 7.80
v 17.96 1.43 6.52
v -1.76 9.28 7.61
v -24.05 7.71 2.06
v -4.83 0.72 0.41
v -5.37 0.88 4.55
v -24.54 7.76 5.44
v -24.54 7.76 5.44
v -5.37 0.88 4.55
v -6.07 0.63 8.71
v -24.87 8.20 8.82
v -4.83 0.72 0.41
v 13.92 -7.45 -1.21
v 13.64 -6.40 3.68
v -5.37 0.88 4.55
v -5.37 0.88 4.55
v 13.64 -6.40 3.68
v 13.30 -5.51 8.57
v -6.07 0.63 8.71
v -18.43 14.65 -0.78
v -19.76 16.57 4.20
v -0.66 9.67 3.65
v 0.20 9.17 -0.51
v 0.20 9.17 -0.51
v -0.66 9.67 3.65
v 18.48 2.90 3.08
v 18.98 4.27 -0.34
v -19.76 16.57 4.20
v -21.49 17.09 9.39
v -1.66 9.65 7.89
v -0.66 9.67 3.65
v -0.66 9.67 3.65
v -1.66 9.65 7.89
v 17.96 1.43 6.52
v 18.48 2.90 3.08
v -24.05 7.71 2.06
v -24.72 8.15 5.39
v -22.51 12.13 4.82
v -20.91 10.93 0.70
v -20.91 10.93 0.70
v -22.51 12.13 4.82
v -19.76 15.72 4.34
v -18.43 14.65 -0.78
v -24.72 8.15 5.39
v -24.87 8.20 8.82
v -23.02 12.52 9.13
v -22.51 12.13 4.82
v -22.51 12.13 4.82
v -23.02 12.52 9.13
v -21.49 17.09 9.39
v -19.76 15.72 4.34
v 13.92 -7.45 -1.21
v 16.81 -1.75 -0.72
v 15.36 -1.51 3.28
v 13.45 -6.41 3.65
v 13.45 -6.41 3.65
v 15.36 -1.51 3.28
v 16.33 -2.35 7.65
v 13.30 -5.51 8.57
v 16.81 -1.75 -0.72
v 18.98 4.27 -0.34
v 18.41 2.88 3.08
v 15.36 -1.51 3.28
v 15.36 -1.51 3.28
v 18.41 2.88 3.08
v 17.96 1.43 6.52
v 16.33 -2.35 7.65
vt 0.0000 0.0000
vt 0.0471 -0.0000
vt 0.1132 0.1874
vt 0.0624 0.1953
vt 0.0000 0.0000
vt 0.0538 -0.0000
vt 0.0931 0.1949
vt 0.0299 0.2029
vt 0.0000 0.0000
vt 0.0471 0.0000
vt 0.1215 0.1786
vt 0.0692 0.1870
vt 0.0000 0.0000
vt 0.0530 -0.0000
vt 0.0996 0.1888
vt 0.0385 0.1955
vt 0.0000 0.0000
vt 0.2029 0.0000
vt 0.2081 0.0439
vt 0.0008 0.0476
vt 0.0000 0.0000
vt 0.2076 0.0000
vt 0.2126 0.0437
vt -0.0001 0.0476
vt 0.0000 0.0000
vt 0.2029 0.0000
vt 0.2134 0.0410
vt 0.0059 0.0452
vt 0.0000 0.0000
vt 0.2076 0.0000
vt 0.2174 0.0424
vt 0.0049 0.0450
vt 0.0000 0.0000
vt 0.2052 -0.0000
vt 0.1962 0.0408
vt -0.0075 0.0334
vt 0.0000 0.0000
vt 0.2038 0.0000
vt 0.1963 0.0407
vt -0.0061 0.0336
vt 0.0000 0.0000
vt 0.2052 0.0000
vt 0.1946 0.0480
vt -0.0088 0.0409
vt 0.0000 0.0000
vt 0.2037 0.0000
vt 0.1953 0.0474
vt -0.0074 0.0415
vt 0.0000 0.0000
vt 0.0550 0.0000
vt -0.0206 0.1884
vt -0.0621 0.1839
vt 0.0000 0.0000
vt 0.0428 0.0000
vt -0.0089 0.1957
vt -0.0416 0.1896
vt 0.0000 0.0000
vt 0.0550 0.0000
vt -0.0286 0.1952
vt -0.0718 0.1901
vt 0.0000 0.0000
vt 0.0436 0.0000
vt -0.0145 0.2047
vt -0.0492 0.1971
vt 0.0000 0.0000
vt 0.0343 0.0000
vt 0.0295 0.0446
vt -0.0153 0.0445
vt 0.0000 0.0000
vt 0.0458 0.0000
vt 0.0413 0.0447
vt -0.0122 0.0454
vt 0.0000 0.0000
vt 0.0343 0.0000
vt 0.0373 0.0468
vt -0.0061 0.0455
vt 0.0000 0.0000
vt 0.0436 0.0000
vt 0.0485 0.0457
vt -0.0047 0.0452
vt 0.0000 0.0000
vt 0.0641 0.0000
vt 0.0627 0.0421
vt 0.0109 0.0488
vt 0.0000 0.0000
vt 0.0527 -0.0000
vt 0.0454 0.0419
vt 0.0043 0.0498
vt 0.0000 0.0000
vt 0.0641 -0.0000
vt 0.0511 0.0332
vt -0.0003 0.0426
vt 0.0000 0.0000
vt 0.0535 0.0000
vt 0.0378 0.0337
vt -0.0030 0.0454
usemtl masonry
f 1/1 2/2 3/3
f 1/1 3/3 4/4
f 5/5 6/6 7/7
f 5/5 7/7 8/8
f 9/9 10/10 11/11
f 9/9 11/11 12/12
f 13/13 14/14 15/15
f 13/13 15/15 16/16
f 17/17 18/18 19/19
f 17/17 19/19 20/20
f 21/21 22/22 23/23
f 21/21 23/23 24/24
f 25/25 26/26 27/27
f 25/25 27/27 28/28
f 29/29 30/30 31/31
f 29/29 31/31 32/32
f 33/33 34/34 35/35
f 33/33 35/35 36/36
f 37/37 38/38 39/39
f 37/37 39/39 40/40
f 41/41 42/42 43/43
f 41/41 43/43 44/44
f 45/45 46/46 47/47
f 45/45 47/47 48/48
f 49/49 50/50 51/51
f 49/49 51/51 52/52
f 53/53 54/54 55/55
f 53/53 55/55 56/56
f 57/57 58/58 59/59
f 57/57 59/59 60/60
f 61/61 62/62 63/63
f 61/61 63/63 64/64
f 65/65 66/66 67/67
f 65/65 67/67 68/68
f 69/69 70/70 71/71
f 69/69 71/71 72/72
f 73/73 74/74 75/75
f 73/73 75/75 76/76
f 77/77 78/78 79/79
f 77/77 79/79 80/80
f 81/81 82/82 83/83
f 81/81 83/83 84/84
f 85/85 86/86 87/87
f 85/85 87/87 88/88
f 89/89 90/90 91/91
f 89/89 91/91 92/92
f 93/93 94/94 95/95
f 93/93 95/95 96/96
