# R_rebar_0 (Sightline generated, CENTIMETRES, +Z up)
v -21.30 -17.06 -3.88
v -22.11 -0.45 -6.17
v -0.01 0.94 -6.50
v 0.83 -15.32 -4.70
v 0.83 -15.32 -4.70
v -0.01 0.94 -6.50
v 22.04 2.26 -7.32
v 22.79 -13.90 -7.79
v -22.11 -0.45 -6.17
v -22.90 16.17 -8.32
v -0.80 17.30 -7.58
v -0.01 0.94 -6.50
v -0.01 0.94 -6.50
v -0.80 17.30 -7.58
v 21.25 18.35 -7.43
v 22.04 2.26 -7.32
v -19.88 -13.90 5.23
v 1.76 -14.24 5.32
v 1.37 1.82 5.99
v -20.68 2.13 5.60
v -20.68 2.13 5.60
v 1.37 1.82 5.99
v 1.00 17.87 6.94
v -21.45 18.12 6.93
v 1.76 -14.24 5.32
v 23.36 -14.50 3.88
v 23.42 1.52 6.14
v 1.37 1.82 5.99
v 1.37 1.82 5.99
v 23.42 1.52 6.14
v 23.46 17.59 7.68
v 1.00 17.87 6.94
v -21.30 -17.06 -3.88
v 0.66 -14.63 -6.11
v 1.19 -14.36 -0.80
v -20.68 -14.61 0.39
v -20.68 -14.61 0.39
v 1.19 -14.36 -0.80
v 1.77 -14.48 4.64
v -19.88 -13.90 5.23
v 0.66 -14.63 -6.11
v 22.79 -13.90 -7.79
v 23.04 -13.90 -2.05
v 1.19 -14.36 -0.80
v 1.19 -14.36 -0.80
v 23.04 -13.90 -2.05
v 23.36 -14.50 3.88
v 1.77 -14.48 4.64
v -22.90 16.17 -8.32
v -22.21 17.88 -0.79
v 0.11 17.14 -0.24
v -0.83 17.40 -7.90
v -0.83 17.40 -7.90
v 0.11 17.14 -0.24
v 22.38 17.54 0.17
v 21.25 18.35 -7.43
v -22.21 17.88 -0.79
v -21.45 18.12 6.93
v 0.98 18.44 7.23
v 0.11 17.14 -0.24
v 0.11 17.14 -0.24
v 0.98 18.44 7.23
v 23.46 17.59 7.68
v 22.38 17.54 0.17
v -21.30 -17.06 -3.88
v -20.74 -15.48 0.70
v -20.31 0.86 -0.19
v -23.09 -0.47 -5.94
v -23.09 -0.47 -5.94
v -20.31 0.86 -0.19
v -23.24 17.12 -0.52
v -22.90 16.17 -8.32
v -20.74 -15.48 0.70
v -19.88 -13.90 5.23
v -21.52 2.09 6.22
v -20.31 0.86 -0.19
v -20.31 0.86 -0.19
v -21.52 2.09 6.22
v -21.45 18.12 6.93
v -23.24 17.12 -0.52
v 22.79 -13.90 -7.79
v 22.44 2.25 -7.63
v 23.07 1.90 -0.93
v 23.62 -14.17 -1.98
v 23.62 -14.17 -1.98
v 23.07 1.90 -0.93
v 22.60 1.50 5.81
v 23.36 -14.50 3.88
v 22.44 2.25 -7.63
v 21.25 18.35 -7.43
v 21.97 17.95 0.14
v 23.07 1.90 -0.93
v 23.07 1.90 -0.93
v 21.97 17.95 0.14
v 23.46 17.59 7.68
v 22.60 1.50 5.81
v -2.40 14.64 6.06
v -0.41 15.68 6.06
v -10.83 30.89 12.58
v -10.99 31.21 10.37
v -0.41 15.68 6.06
v -0.76 16.35 3.94
v -8.84 31.93 12.58
v -10.83 30.89 12.58
v -0.76 16.35 3.94
v -2.75 15.31 3.94
v -9.00 32.25 10.37
v -8.84 31.93 12.58
v -2.75 15.31 3.94
v -2.40 14.64 6.06
v -10.99 31.21 10.37
v -9.00 32.25 10.37
v -10.99 31.21 10.37
v -10.83 30.89 12.58
v -19.77 47.82 10.06
v -17.63 48.50 10.00
v -10.83 30.89 12.58
v -8.84 31.93 12.58
v -20.00 48.71 12.10
v -19.77 47.82 10.06
v -8.84 31.93 12.58
v -9.00 32.25 10.37
v -17.86 49.40 12.04
v -20.00 48.71 12.10
v -9.00 32.25 10.37
v -10.99 31.21 10.37
v -17.63 48.50 10.00
v -17.86 49.40 12.04
v -17.63 48.50 10.00
v -19.77 47.82 10.06
v -18.74 61.18 -3.71
v -19.11 62.47 -1.91
v -19.77 47.82 10.06
v -20.00 48.71 12.10
v -20.95 60.97 -4.01
v -18.74 61.18 -3.71
v -20.00 48.71 12.10
v -17.86 49.40 12.04
v -21.32 62.26 -2.21
v -20.95 60.97 -4.01
v -17.86 49.40 12.04
v -17.63 48.50 10.00
v -19.11 62.47 -1.91
v -21.32 62.26 -2.21
v -19.11 62.47 -1.91
v -18.74 61.18 -3.71
v -17.71 79.65 -9.69
v -19.91 79.63 -10.12
v -18.74 61.18 -3.71
v -20.95 60.97 -4.01
v -17.31 78.71 -11.68
v -17.71 79.65 -9.69
v -20.95 60.97 -4.01
v -21.32 62.26 -2.21
v -19.51 78.69 -12.12
v -17.31 78.71 -11.68
v -21.32 62.26 -2.21
v -19.11 62.47 -1.91
v -19.91 79.63 -10.12
v -19.51 78.69 -12.12
v -2.75 15.31 3.94
v -0.76 16.35 3.94
v -0.41 15.68 6.06
v -2.40 14.64 6.06
v -19.91 79.63 -10.12
v -17.71 79.65 -9.69
v -17.31 78.71 -11.68
v -19.51 78.69 -12.12
v 6.90 8.98 6.51
v 5.77 11.78 6.51
v -13.63 0.68 5.40
v -13.68 0.66 2.38
v 5.77 11.78 6.51
v 5.91 11.84 3.49
v -14.73 3.49 5.40
v -13.63 0.68 5.40
v 5.91 11.84 3.49
v 7.04 9.04 3.49
v -14.77 3.47 2.38
v -14.73 3.49 5.40
v 7.04 9.04 3.49
v 6.90 8.98 6.51
v -13.68 0.66 2.38
v -14.77 3.47 2.38
v -13.68 0.66 2.38
v -13.63 0.68 5.40
v -34.69 -7.19 4.27
v -35.56 -4.31 4.27
v -13.63 0.68 5.40
v -14.73 3.49 5.40
v -34.39 -7.10 7.27
v -34.69 -7.19 4.27
v -14.73 3.49 5.40
v -14.77 3.47 2.38
v -35.26 -4.21 7.27
v -34.39 -7.10 7.27
v -14.77 3.47 2.38
v -13.68 0.66 2.38
v -35.56 -4.31 4.27
v -35.26 -4.21 7.27
v -35.56 -4.31 4.27
v -34.69 -7.19 4.27
v -56.88 -9.24 6.95
v -56.83 -9.22 9.97
v -34.69 -7.19 4.27
v -34.39 -7.10 7.27
v -56.16 -12.17 6.96
v -56.88 -9.24 6.95
v -34.39 -7.10 7.27
v -35.26 -4.21 7.27
v -56.11 -12.15 9.98
v -56.16 -12.17 6.96
v -35.26 -4.21 7.27
v -35.56 -4.31 4.27
v -56.83 -9.22 9.97
v -56.11 -12.15 9.98
v -56.83 -9.22 9.97
v -56.88 -9.24 6.95
v -78.47 -14.84 8.00
v -77.71 -17.76 8.00
v -56.88 -9.24 6.95
v -56.16 -12.17 6.96
v -78.21 -14.77 4.99
v -78.47 -14.84 8.00
v -56.16 -12.17 6.96
v -56.11 -12.15 9.98
v -77.45 -17.69 5.00
v -78.21 -14.77 4.99
v -56.11 -12.15 9.98
v -56.83 -9.22 9.97
v -77.71 -17.76 8.00
v -77.45 -17.69 5.00
v 7.04 9.04 3.49
v 5.91 11.84 3.49
v 5.77 11.78 6.51
v 6.90 8.98 6.51
v -77.71 -17.76 8.00
v -78.47 -14.84 8.00
v -78.21 -14.77 4.99
v -77.45 -17.69 5.00
v -15.26 3.65 6.00
v -17.23 2.55 6.00
v -8.59 -8.23 13.08
v -8.13 -9.06 11.03
v -17.23 2.55 6.00
v -16.72 1.64 4.00
v -10.47 -9.48 13.15
v -8.59 -8.23 13.08
v -16.72 1.64 4.00
v -14.75 2.74 4.00
v -10.00 -10.31 11.11
v -10.47 -9.48 13.15
v -14.75 2.74 4.00
v -15.26 3.65 6.00
v -8.13 -9.06 11.03
v -10.00 -10.31 11.11
v -8.13 -9.06 11.03
v -8.59 -8.23 13.08
v 1.01 -20.13 16.94
v -0.77 -21.50 17.09
v -8.59 -8.23 13.08
v -10.47 -9.48 13.15
v 0.31 -19.01 18.77
v 1.01 -20.13 16.94
v -10.47 -9.48 13.15
v -10.00 -10.31 11.11
v -1.47 -20.39 18.92
v 0.31 -19.01 18.77
v -10.00 -10.31 11.11
v -8.13 -9.06 11.03
v -0.77 -21.50 17.09
v -1.47 -20.39 18.92
v -0.77 -21.50 17.09
v 1.01 -20.13 16.94
v 6.13 -29.22 28.83
v 5.25 -27.90 30.43
v 1.01 -20.13 16.94
v 0.31 -19.01 18.77
v 7.84 -27.77 28.57
v 6.13 -29.22 28.83
v 0.31 -19.01 18.77
v -1.47 -20.39 18.92
v 6.95 -26.44 30.17
v 7.84 -27.77 28.57
v -1.47 -20.39 18.92
v -0.77 -21.50 17.09
v 5.25 -27.90 30.43
v 6.95 -26.44 30.17
v 5.25 -27.90 30.43
v 6.13 -29.22 28.83
v 14.59 -35.37 40.37
v 16.21 -33.84 40.00
v 6.13 -29.22 28.83
v 7.84 -27.77 28.57
v 15.39 -36.62 38.67
v 14.59 -35.37 40.37
v 7.84 -27.77 28.57
v 6.95 -26.44 30.17
v 17.00 -35.09 38.30
v 15.39 -36.62 38.67
v 6.95 -26.44 30.17
v 5.25 -27.90 30.43
v 16.21 -33.84 40.00
v 17.00 -35.09 38.30
v -14.75 2.74 4.00
v -16.72 1.64 4.00
v -17.23 2.55 6.00
v -15.26 3.65 6.00
v 16.21 -33.84 40.00
v 14.59 -35.37 40.37
v 15.39 -36.62 38.67
v 17.00 -35.09 38.30
v 3.77 -15.65 6.52
v 2.01 -18.14 6.52
v 22.28 -28.79 8.11
v 23.31 -29.52 5.33
v 2.01 -18.14 6.52
v 2.20 -18.27 3.48
v 20.79 -31.45 8.25
v 22.28 -28.79 8.11
v 2.20 -18.27 3.48
v 3.96 -15.78 3.48
v 21.82 -32.18 5.47
v 20.79 -31.45 8.25
v 3.96 -15.78 3.48
v 3.77 -15.65 6.52
v 23.31 -29.52 5.33
v 21.82 -32.18 5.47
v 23.31 -29.52 5.33
v 22.28 -28.79 8.11
v 39.70 -34.79 21.65
v 38.54 -37.59 21.95
v 22.28 -28.79 8.11
v 20.79 -31.45 8.25
v 37.91 -33.80 23.91
v 39.70 -34.79 21.65
v 20.79 -31.45 8.25
v 21.82 -32.18 5.47
v 36.75 -36.60 24.22
v 37.91 -33.80 23.91
v 21.82 -32.18 5.47
v 23.31 -29.52 5.33
v 38.54 -37.59 21.95
v 36.75 -36.60 24.22
v 38.54 -37.59 21.95
v 39.70 -34.79 21.65
v 55.97 -42.95 36.92
v 54.35 -42.02 39.34
v 39.70 -34.79 21.65
v 37.91 -33.80 23.91
v 56.71 -40.06 36.30
v 55.97 -42.95 36.92
v 37.91 -33.80 23.91
v 36.75 -36.60 24.22
v 55.09 -39.12 38.71
v 56.71 -40.06 36.30
v 36.75 -36.60 24.22
v 38.54 -37.59 21.95
v 54.35 -42.02 39.34
v 55.09 -39.12 38.71
v 54.35 -42.02 39.34
v 55.97 -42.95 36.92
v 74.84 -40.40 51.27
v 75.14 -37.51 50.35
v 55.97 -42.95 36.92
v 56.71 -40.06 36.30
v 76.35 -41.35 48.80
v 74.84 -40.40 51.27
v 56.71 -40.06 36.30
v 55.09 -39.12 38.71
v 76.66 -38.45 47.88
v 76.35 -41.35 48.80
v 55.09 -39.12 38.71
v 54.35 -42.02 39.34
v 75.14 -37.51 50.35
v 76.66 -38.45 47.88
v 3.96 -15.78 3.48
v 2.20 -18.27 3.48
v 2.01 -18.14 6.52
v 3.77 -15.65 6.52
v 75.14 -37.51 50.35
v 74.84 -40.40 51.27
v 76.35 -41.35 48.80
v 76.66 -38.45 47.88
v -11.37 -7.80 5.98
v -14.13 -7.20 5.98
v -15.67 -27.60 27.15
v -16.13 -29.71 25.34
v -14.13 -7.20 5.98
v -14.56 -9.20 4.02
v -18.45 -27.13 27.30
v -15.67 -27.60 27.15
v -14.56 -9.20 4.02
v -11.80 -9.80 4.02
v -18.91 -29.24 25.49
v -18.45 -27.13 27.30
v -11.80 -9.80 4.02
v -11.37 -7.80 5.98
v -16.13 -29.71 25.34
v -18.91 -29.24 25.49
v -16.13 -29.71 25.34
v -15.67 -27.60 27.15
v -15.77 -47.58 49.15
v -18.53 -47.00 49.18
v -15.67 -27.60 27.15
v -18.45 -27.13 27.30
v -15.26 -45.24 50.65
v -15.77 -47.58 49.15
v -18.45 -27.13 27.30
v -18.91 -29.24 25.49
v -18.03 -44.66 50.68
v -15.26 -45.24 50.65
v -18.91 -29.24 25.49
v -16.13 -29.71 25.34
v -18.53 -47.00 49.18
v -18.03 -44.66 50.68
v -18.53 -47.00 49.18
v -15.77 -47.58 49.15
v -24.70 -59.90 75.73
v -24.13 -57.18 76.19
v -15.77 -47.58 49.15
v -15.26 -45.24 50.65
v -21.94 -60.44 75.47
v -24.70 -59.90 75.73
v -15.26 -45.24 50.65
v -18.03 -44.66 50.68
v -21.37 -57.71 75.92
v -21.94 -60.44 75.47
v -18.03 -44.66 50.68
v -18.53 -47.00 49.18
v -24.13 -57.18 76.19
v -21.37 -57.71 75.92
v -24.13 -57.18 76.19
v -24.70 -59.90 75.73
v -14.76 -54.21 103.84
v -12.10 -54.62 102.98
v -24.70 -59.90 75.73
v -21.94 -60.44 75.47
v -15.06 -56.98 104.24
v -14.76 -54.21 103.84
v -21.94 -60.44 75.47
v -21.37 -57.71 75.92
v -12.40 -57.40 103.38
v -15.06 -56.98 104.24
v -21.37 -57.71 75.92
v -24.13 -57.18 76.19
v -12.10 -54.62 102.98
v -12.40 -57.40 103.38
v -11.80 -9.80 4.02
v -14.56 -9.20 4.02
v -14.13 -7.20 5.98
v -11.37 -7.80 5.98
v -12.10 -54.62 102.98
v -14.76 -54.21 103.84
v -15.06 -56.98 104.24
v -12.40 -57.40 103.38
v -7.90 1.98 6.64
v -7.57 5.28 6.64
v -37.56 5.00 10.41
v -38.47 5.09 7.23
v -7.57 5.28 6.64
v -7.99 5.32 3.36
v -37.83 8.30 10.58
v -37.56 5.00 10.41
v -7.99 5.32 3.36
v -8.32 2.03 3.36
v -38.73 8.39 7.40
v -37.83 8.30 10.58
v -8.32 2.03 3.36
v -7.90 1.98 6.64
v -38.47 5.09 7.23
v -38.73 8.39 7.40
v -38.47 5.09 7.23
v -37.56 5.00 10.41
v -65.18 -3.35 19.36
v -65.89 -0.13 19.65
v -37.56 5.00 10.41
v -37.83 8.30 10.58
v -63.98 -3.37 22.45
v -65.18 -3.35 19.36
v -37.83 8.30 10.58
v -38.73 8.39 7.40
v -64.70 -0.14 22.74
v -63.98 -3.37 22.45
v -38.73 8.39 7.40
v -38.47 5.09 7.23
v -65.89 -0.13 19.65
v -64.70 -0.14 22.74
v -65.89 -0.13 19.65
v -65.18 -3.35 19.36
v -94.52 -5.94 28.84
v -93.78 -6.08 32.06
v -65.18 -3.35 19.36
v -63.98 -3.37 22.45
v -93.31 -9.00 28.44
v -94.52 -5.94 28.84
v -63.98 -3.37 22.45
v -64.70 -0.14 22.74
v -92.57 -9.14 31.66
v -93.31 -9.00 28.44
v -64.70 -0.14 22.74
v -65.89 -0.13 19.65
v -93.78 -6.08 32.06
v -92.57 -9.14 31.66
v -93.78 -6.08 32.06
v -94.52 -5.94 28.84
v -119.60 -23.23 34.38
v -117.81 -25.98 33.86
v -94.52 -5.94 28.84
v -93.31 -9.00 28.44
v -120.08 -22.93 31.12
v -119.60 -23.23 34.38
v -93.31 -9.00 28.44
v -92.57 -9.14 31.66
v -118.30 -25.68 30.60
v -120.08 -22.93 31.12
v -92.57 -9.14 31.66
v -93.78 -6.08 32.06
v -117.81 -25.98 33.86
v -118.30 -25.68 30.60
v -8.32 2.03 3.36
v -7.99 5.32 3.36
v -7.57 5.28 6.64
v -7.90 1.98 6.64
v -117.81 -25.98 33.86
v -119.60 -23.23 34.38
v -120.08 -22.93 31.12
v -118.30 -25.68 30.60
vt 0.0000 0.0000
vt 0.0839 0.0000
vt 0.0857 0.1107
vt 0.0038 0.1110
vt 0.0000 0.0000
vt 0.0819 0.0000
vt 0.0833 0.1100
vt 0.0031 0.1110
vt 0.0000 0.0000
vt 0.0839 0.0000
vt 0.0838 0.1106
vt 0.0019 0.1107
vt 0.0000 0.0000
vt 0.0821 0.0000
vt 0.0819 0.1103
vt 0.0016 0.1105
vt 0.0000 0.0000
vt 0.1082 -0.0000
vt 0.1050 0.0803
vt -0.0053 0.0801
vt 0.0000 0.0000
vt 0.1103 0.0000
vt 0.1073 0.0803
vt -0.0049 0.0801
vt 0.0000 0.0000
vt 0.1082 0.0000
vt 0.1068 0.0805
vt -0.0031 0.0803
vt 0.0000 0.0000
vt 0.1102 -0.0000
vt 0.1094 0.0806
vt -0.0030 0.0803
vt 0.0000 0.0000
vt 0.1110 -0.0000
vt 0.1111 0.0239
vt 0.0023 0.0247
vt 0.0000 0.0000
vt 0.1095 -0.0000
vt 0.1109 0.0270
vt 0.0027 0.0246
vt 0.0000 0.0000
vt 0.1110 0.0000
vt 0.1101 0.0286
vt 0.0007 0.0267
vt 0.0000 0.0000
vt 0.1094 -0.0000
vt 0.1092 0.0297
vt 0.0013 0.0273
vt 0.0000 0.0000
vt 0.0388 0.0000
vt 0.0506 0.1106
vt 0.0133 0.1098
vt 0.0000 0.0000
vt 0.0386 0.0000
vt 0.0542 0.1102
vt 0.0156 0.1094
vt 0.0000 0.0000
vt 0.0388 0.0000
vt 0.0514 0.1113
vt 0.0136 0.1109
vt 0.0000 0.0000
vt 0.0381 0.0000
vt 0.0524 0.1114
vt 0.0150 0.1104
vt 0.0000 0.0000
vt 0.0244 0.0000
vt 0.0469 0.0781
vt 0.0162 0.0825
vt 0.0000 0.0000
vt 0.0326 0.0000
vt 0.0415 0.0801
vt 0.0069 0.0838
vt 0.0000 0.0000
vt 0.0244 0.0000
vt 0.0535 0.0741
vt 0.0228 0.0786
vt 0.0000 0.0000
vt 0.0332 -0.0000
vt 0.0514 0.0767
vt 0.0161 0.0810
vt 0.0000 0.0000
vt 0.0807 -0.0000
vt 0.0793 0.0336
vt -0.0012 0.0293
vt 0.0000 0.0000
vt 0.0806 -0.0000
vt 0.0809 0.0339
vt 0.0003 0.0294
vt 0.0000 0.0000
vt 0.0807 -0.0000
vt 0.0789 0.0380
vt -0.0015 0.0336
vt 0.0000 0.0000
vt 0.0806 0.0000
vt 0.0808 0.0371
vt 0.0004 0.0339
vt 0.0000 0.0000
vt 0.0561 0.0000
vt 0.0000 0.4825
vt 0.0000 0.4788
vt 0.0000 0.0000
vt 0.0561 0.0000
vt 0.0005 0.4826
vt 0.0005 0.4890
vt 0.0000 0.0000
vt 0.0561 -0.0000
vt 0.0000 0.4726
vt 0.0000 0.4890
vt 0.0000 0.0000
vt 0.0561 0.0000
vt 0.0005 0.4723
vt 0.0005 0.4790
vt 0.0000 0.0000
vt 0.0561 0.0000
vt -0.0826 0.4589
vt -0.0826 0.4557
vt 0.0000 0.0000
vt 0.0561 0.0000
vt 0.0024 0.4984
vt -0.0029 0.4826
vt 0.0000 0.0000
vt 0.0561 0.0000
vt 0.0919 0.4802
vt 0.0919 0.4957
vt 0.0000 0.0000
vt 0.0561 -0.0000
vt 0.0037 0.4576
vt -0.0015 0.4845
vt 0.0000 0.0000
vt 0.0561 0.0000
vt -0.0799 0.4573
vt -0.0799 0.4534
vt 0.0000 0.0000
vt 0.0561 0.0000
vt -0.1852 0.4420
vt -0.1820 0.4445
vt 0.0000 0.0000
vt 0.0561 0.0000
vt 0.0820 0.4841
vt 0.0820 0.5000
vt 0.0000 0.0000
vt 0.0561 -0.0000
vt 0.1833 0.4390
vt 0.1865 0.4507
vt 0.0000 0.0000
vt 0.0561 0.0000
vt -0.0862 0.4616
vt -0.0862 0.4683
vt 0.0000 0.0000
vt 0.0561 -0.0000
vt -0.0481 0.4774
vt -0.0471 0.4840
vt 0.0000 0.0000
vt 0.0561 0.0000
vt 0.0871 0.4775
vt 0.0871 0.4840
vt 0.0000 0.0000
vt 0.0561 0.0000
vt 0.0474 0.4728
vt 0.0484 0.4793
vt 0.0000 0.0000
vt 0.0561 0.0000
vt 0.0561 0.0561
vt 0.0000 0.0561
vt 0.0000 0.0000
vt 0.0561 0.0000
vt 0.0561 0.0561
vt 0.0000 0.0561
vt 0.0000 0.0000
vt 0.0754 -0.0000
vt 0.0000 0.5495
vt 0.0000 0.5645
vt 0.0000 0.0000
vt 0.0754 0.0000
vt 0.0001 0.5484
vt 0.0001 0.5595
vt 0.0000 0.0000
vt 0.0754 0.0000
vt 0.0000 0.5534
vt 0.0000 0.5585
vt 0.0000 0.0000
vt 0.0754 0.0000
vt 0.0001 0.5545
vt 0.0001 0.5636
vt 0.0000 0.0000
vt 0.0754 0.0000
vt 0.0376 0.5563
vt 0.0376 0.5616
vt 0.0000 0.0000
vt 0.0754 -0.0000
vt 0.0070 0.5511
vt 0.0075 0.5626
vt 0.0000 0.0000
vt 0.0754 0.0000
vt -0.0373 0.5440
vt -0.0373 0.5591
vt 0.0000 0.0000
vt 0.0754 -0.0000
vt -0.0073 0.5517
vt -0.0068 0.5605
vt 0.0000 0.0000
vt 0.0754 0.0000
vt -0.0360 0.5452
vt -0.0360 0.5631
vt 0.0000 0.0000
vt 0.0754 -0.0000
vt 0.0103 0.5501
vt 0.0106 0.5611
vt 0.0000 0.0000
vt 0.0754 0.0000
vt 0.0361 0.5554
vt 0.0361 0.5577
vt 0.0000 0.0000
vt 0.0754 -0.0000
vt -0.0103 0.5526
vt -0.0100 0.5618
vt 0.0000 0.0000
vt 0.0754 0.0000
vt 0.0585 0.5528
vt 0.0585 0.5629
vt 0.0000 0.0000
vt 0.0754 -0.0000
vt 0.0070 0.5479
vt 0.0071 0.5581
vt 0.0000 0.0000
vt 0.0754 -0.0000
vt -0.0581 0.5439
vt -0.0581 0.5541
vt 0.0000 0.0000
vt 0.0754 -0.0000
vt -0.0071 0.5549
vt -0.0070 0.5649
vt 0.0000 0.0000
vt 0.0754 0.0000
vt 0.0754 0.0754
vt 0.0000 0.0754
vt 0.0000 0.0000
vt 0.0754 -0.0000
vt 0.0754 0.0754
vt -0.0000 0.0754
vt 0.0000 0.0000
vt 0.0564 0.0000
vt 0.0001 0.3797
vt 0.0001 0.3855
vt 0.0000 0.0000
vt 0.0564 -0.0000
vt 0.0001 0.3843
vt -0.0001 0.3879
vt 0.0000 0.0000
vt 0.0564 0.0000
vt 0.0001 0.3821
vt 0.0001 0.3925
vt 0.0000 0.0000
vt 0.0564 0.0000
vt 0.0001 0.3774
vt -0.0001 0.3901
vt 0.0000 0.0000
vt 0.0564 0.0000
vt -0.0156 0.3836
vt -0.0156 0.3915
vt 0.0000 0.0000
vt 0.0564 -0.0000
vt -0.0312 0.3725
vt -0.0320 0.3930
vt 0.0000 0.0000
vt 0.0564 0.0000
vt 0.0166 0.3774
vt 0.0166 0.3858
vt 0.0000 0.0000
vt 0.0564 0.0000
vt 0.0322 0.3870
vt 0.0314 0.3823
vt 0.0000 0.0000
vt 0.0564 -0.0000
vt -0.0014 0.3874
vt -0.0014 0.3991
vt 0.0000 0.0000
vt 0.0564 -0.0000
vt 0.0882 0.3734
vt 0.0888 0.3855
vt 0.0000 0.0000
vt 0.0564 0.0000
vt 0.0016 0.3743
vt 0.0016 0.3787
vt 0.0000 0.0000
vt 0.0564 0.0000
vt -0.0881 0.3677
vt -0.0874 0.3723
vt 0.0000 0.0000
vt 0.0564 0.0000
vt 0.0262 0.3839
vt 0.0262 0.3920
vt 0.0000 0.0000
vt 0.0564 -0.0000
vt 0.0273 0.3800
vt 0.0276 0.3881
vt 0.0000 0.0000
vt 0.0564 0.0000
vt -0.0261 0.3760
vt -0.0261 0.3842
vt 0.0000 0.0000
vt 0.0564 0.0000
vt -0.0274 0.3798
vt -0.0272 0.3880
vt 0.0000 0.0000
vt 0.0564 -0.0000
vt 0.0564 0.0564
vt -0.0000 0.0564
vt 0.0000 0.0000
vt 0.0564 -0.0000
vt 0.0564 0.0564
vt 0.0000 0.0564
vt 0.0000 0.0000
vt 0.0763 0.0000
vt 0.0003 0.5648
vt 0.0003 0.5997
vt 0.0000 0.0000
vt 0.0763 0.0000
vt 0.0008 0.5721
vt 0.0038 0.5739
vt 0.0000 0.0000
vt 0.0763 0.0000
vt 0.0003 0.5987
vt 0.0003 0.5821
vt 0.0000 0.0000
vt 0.0763 0.0000
vt 0.0008 0.5903
vt 0.0038 0.6080
vt 0.0000 0.0000
vt 0.0763 0.0000
vt 0.2022 0.5525
vt 0.2022 0.5636
vt 0.0000 0.0000
vt 0.0763 -0.0000
vt -0.0625 0.5612
vt -0.0655 0.5679
vt 0.0000 0.0000
vt 0.0763 0.0000
vt -0.1985 0.5385
vt -0.1985 0.5483
vt 0.0000 0.0000
vt 0.0763 0.0000
vt 0.0661 0.5939
vt 0.0631 0.6060
vt 0.0000 0.0000
vt 0.0763 -0.0000
vt 0.0061 0.5851
vt 0.0061 0.5979
vt 0.0000 0.0000
vt 0.0763 0.0000
vt -0.0198 0.5714
vt -0.0209 0.5937
vt 0.0000 0.0000
vt 0.0763 0.0000
vt -0.0049 0.5771
vt -0.0049 0.5840
vt 0.0000 0.0000
vt 0.0763 0.0000
vt 0.0211 0.5904
vt 0.0200 0.5874
vt 0.0000 0.0000
vt 0.0763 0.0000
vt 0.0236 0.5887
vt 0.0236 0.5984
vt 0.0000 0.0000
vt 0.0763 -0.0000
vt 0.0995 0.5776
vt 0.1000 0.5874
vt 0.0000 0.0000
vt 0.0763 0.0000
vt -0.0235 0.5726
vt -0.0235 0.5825
vt 0.0000 0.0000
vt 0.0763 0.0000
vt -0.0989 0.5676
vt -0.0984 0.5778
vt 0.0000 0.0000
vt 0.0763 -0.0000
vt 0.0763 0.0763
vt 0.0000 0.0763
vt 0.0000 0.0000
vt 0.0763 -0.0000
vt 0.0763 0.0763
vt -0.0000 0.0763
vt 0.0000 0.0000
vt 0.0706 0.0000
vt 0.0001 0.7293
vt 0.0001 0.7407
vt 0.0000 0.0000
vt 0.0706 0.0000
vt -0.0001 0.7342
vt 0.0002 0.7360
vt 0.0000 0.0000
vt 0.0706 0.0000
vt 0.0001 0.7389
vt 0.0001 0.7410
vt 0.0000 0.0000
vt 0.0706 0.0000
vt -0.0001 0.7340
vt 0.0002 0.7456
vt 0.0000 0.0000
vt 0.0706 -0.0000
vt 0.0489 0.7393
vt 0.0489 0.7371
vt 0.0000 0.0000
vt 0.0706 -0.0000
vt -0.0520 0.7294
vt -0.0515 0.7412
vt 0.0000 0.0000
vt 0.0706 0.0000
vt -0.0483 0.7258
vt -0.0483 0.7413
vt 0.0000 0.0000
vt 0.0706 0.0000
vt 0.0516 0.7351
vt 0.0521 0.7368
vt 0.0000 0.0000
vt 0.0706 -0.0000
vt -0.0928 0.7450
vt -0.0928 0.7290
vt 0.0000 0.0000
vt 0.0706 0.0000
vt 0.0544 0.7433
vt 0.0567 0.7637
vt 0.0000 0.0000
vt 0.0706 0.0000
vt 0.0931 0.7120
vt 0.0931 0.7407
vt 0.0000 0.0000
vt 0.0706 0.0000
vt -0.0513 0.7213
vt -0.0490 0.7136
vt 0.0000 0.0000
vt 0.0706 0.0000
vt -0.2308 0.6927
vt -0.2308 0.6998
vt 0.0000 0.0000
vt 0.0706 0.0000
vt 0.1545 0.7365
vt 0.1497 0.7438
vt 0.0000 0.0000
vt 0.0706 0.0000
vt 0.2344 0.6998
vt 0.2344 0.7067
vt 0.0000 0.0000
vt 0.0706 0.0000
vt -0.1480 0.7002
vt -0.1528 0.7058
vt 0.0000 0.0000
vt 0.0706 0.0000
vt 0.0706 0.0706
vt -0.0000 0.0706
vt 0.0000 0.0000
vt 0.0706 -0.0000
vt 0.0706 0.0706
vt 0.0000 0.0706
vt 0.0000 0.0000
vt 0.0828 0.0000
vt 0.0007 0.7470
vt 0.0007 0.7682
vt 0.0000 0.0000
vt 0.0828 -0.0000
vt -0.0007 0.7620
vt 0.0016 0.7557
vt 0.0000 0.0000
vt 0.0828 -0.0000
vt 0.0007 0.7745
vt 0.0007 0.7710
vt 0.0000 0.0000
vt 0.0828 0.0000
vt -0.0007 0.7595
vt 0.0016 0.7832
vt 0.0000 0.0000
vt 0.0828 0.0000
vt 0.1148 0.7499
vt 0.1148 0.7553
vt 0.0000 0.0000
vt 0.0828 -0.0000
vt -0.1400 0.7377
vt -0.1411 0.7419
vt 0.0000 0.0000
vt 0.0828 -0.0000
vt -0.1144 0.7540
vt -0.1144 0.7665
vt 0.0000 0.0000
vt 0.0828 0.0000
vt 0.1419 0.7573
vt 0.1408 0.7709
vt 0.0000 0.0000
vt 0.0828 0.0000
vt -0.0332 0.7604
vt -0.0332 0.7767
vt 0.0000 0.0000
vt 0.0828 0.0000
vt -0.0412 0.7472
vt -0.0432 0.7723
vt 0.0000 0.0000
vt 0.0828 0.0000
vt 0.0343 0.7594
vt 0.0343 0.7607
vt 0.0000 0.0000
vt 0.0828 0.0000
vt 0.0441 0.7720
vt 0.0421 0.7643
vt 0.0000 0.0000
vt 0.0828 0.0000
vt 0.0705 0.7696
vt 0.0705 0.7783
vt 0.0000 0.0000
vt 0.0828 0.0000
vt 0.1536 0.7496
vt 0.1551 0.7584
vt 0.0000 0.0000
vt 0.0828 0.0000
vt -0.0701 0.7452
vt -0.0701 0.7542
vt 0.0000 0.0000
vt 0.0828 0.0000
vt -0.1534 0.7404
vt -0.1519 0.7499
vt 0.0000 0.0000
vt 0.0828 0.0000
vt 0.0828 0.0828
vt 0.0000 0.0828
vt 0.0000 0.0000
vt 0.0828 0.0000
vt 0.0828 0.0828
vt -0.0000 0.0828
usemtl concrete
f 1/1 2/2 3/3
f 1/1 3/3 4/4
f 5/5 6/6 7/7
f 5/5 7/7 8/8
f 9/9 10/10 11/11
f 9/9 11/11 12/12
f 13/13 14/14 15/15
f 13/13 15/15 16/16
f 17/17 18/18 19/19
f 17/17 19/19 20/20
f 21/21 22/22 23/23
f 21/21 23/23 24/24
f 25/25 26/26 27/27
f 25/25 27/27 28/28
f 29/29 30/30 31/31
f 29/29 31/31 32/32
f 33/33 34/34 35/35
f 33/33 35/35 36/36
f 37/37 38/38 39/39
f 37/37 39/39 40/40
f 41/41 42/42 43/43
f 41/41 43/43 44/44
f 45/45 46/46 47/47
f 45/45 47/47 48/48
f 49/49 50/50 51/51
f 49/49 51/51 52/52
f 53/53 54/54 55/55
f 53/53 55/55 56/56
f 57/57 58/58 59/59
f 57/57 59/59 60/60
f 61/61 62/62 63/63
f 61/61 63/63 64/64
f 65/65 66/66 67/67
f 65/65 67/67 68/68
f 69/69 70/70 71/71
f 69/69 71/71 72/72
f 73/73 74/74 75/75
f 73/73 75/75 76/76
f 77/77 78/78 79/79
f 77/77 79/79 80/80
f 81/81 82/82 83/83
f 81/81 83/83 84/84
f 85/85 86/86 87/87
f 85/85 87/87 88/88
f 89/89 90/90 91/91
f 89/89 91/91 92/92
f 93/93 94/94 95/95
f 93/93 95/95 96/96
usemtl rebar
f 97/97 98/98 99/99
f 97/97 99/99 100/100
f 101/101 102/102 103/103
f 101/101 103/103 104/104
f 105/105 106/106 107/107
f 105/105 107/107 108/108
f 109/109 110/110 111/111
f 109/109 111/111 112/112
f 113/113 114/114 115/115
f 113/113 115/115 116/116
f 117/117 118/118 119/119
f 117/117 119/119 120/120
f 121/121 122/122 123/123
f 121/121 123/123 124/124
f 125/125 126/126 127/127
f 125/125 127/127 128/128
f 129/129 130/130 131/131
f 129/129 131/131 132/132
f 133/133 134/134 135/135
f 133/133 135/135 136/136
f 137/137 138/138 139/139
f 137/137 139/139 140/140
f 141/141 142/142 143/143
f 141/141 143/143 144/144
f 145/145 146/146 147/147
f 145/145 147/147 148/148
f 149/149 150/150 151/151
f 149/149 151/151 152/152
f 153/153 154/154 155/155
f 153/153 155/155 156/156
f 157/157 158/158 159/159
f 157/157 159/159 160/160
f 161/161 162/162 163/163
f 161/161 163/163 164/164
f 165/165 166/166 167/167
f 165/165 167/167 168/168
f 169/169 170/170 171/171
f 169/169 171/171 172/172
f 173/173 174/174 175/175
f 173/173 175/175 176/176
f 177/177 178/178 179/179
f 177/177 179/179 180/180
f 181/181 182/182 183/183
f 181/181 183/183 184/184
f 185/185 186/186 187/187
f 185/185 187/187 188/188
f 189/189 190/190 191/191
f 189/189 191/191 192/192
f 193/193 194/194 195/195
f 193/193 195/195 196/196
f 197/197 198/198 199/199
f 197/197 199/199 200/200
f 201/201 202/202 203/203
f 201/201 203/203 204/204
f 205/205 206/206 207/207
f 205/205 207/207 208/208
f 209/209 210/210 211/211
f 209/209 211/211 212/212
f 213/213 214/214 215/215
f 213/213 215/215 216/216
f 217/217 218/218 219/219
f 217/217 219/219 220/220
f 221/221 222/222 223/223
f 221/221 223/223 224/224
f 225/225 226/226 227/227
f 225/225 227/227 228/228
f 229/229 230/230 231/231
f 229/229 231/231 232/232
f 233/233 234/234 235/235
f 233/233 235/235 236/236
f 237/237 238/238 239/239
f 237/237 239/239 240/240
f 241/241 242/242 243/243
f 241/241 243/243 244/244
f 245/245 246/246 247/247
f 245/245 247/247 248/248
f 249/249 250/250 251/251
f 249/249 251/251 252/252
f 253/253 254/254 255/255
f 253/253 255/255 256/256
f 257/257 258/258 259/259
f 257/257 259/259 260/260
f 261/261 262/262 263/263
f 261/261 263/263 264/264
f 265/265 266/266 267/267
f 265/265 267/267 268/268
f 269/269 270/270 271/271
f 269/269 271/271 272/272
f 273/273 274/274 275/275
f 273/273 275/275 276/276
f 277/277 278/278 279/279
f 277/277 279/279 280/280
f 281/281 282/282 283/283
f 281/281 283/283 284/284
f 285/285 286/286 287/287
f 285/285 287/287 288/288
f 289/289 290/290 291/291
f 289/289 291/291 292/292
f 293/293 294/294 295/295
f 293/293 295/295 296/296
f 297/297 298/298 299/299
f 297/297 299/299 300/300
f 301/301 302/302 303/303
f 301/301 303/303 304/304
f 305/305 306/306 307/307
f 305/305 307/307 308/308
f 309/309 310/310 311/311
f 309/309 311/311 312/312
f 313/313 314/314 315/315
f 313/313 315/315 316/316
f 317/317 318/318 319/319
f 317/317 319/319 320/320
f 321/321 322/322 323/323
f 321/321 323/323 324/324
f 325/325 326/326 327/327
f 325/325 327/327 328/328
f 329/329 330/330 331/331
f 329/329 331/331 332/332
f 333/333 334/334 335/335
f 333/333 335/335 336/336
f 337/337 338/338 339/339
f 337/337 339/339 340/340
f 341/341 342/342 343/343
f 341/341 343/343 344/344
f 345/345 346/346 347/347
f 345/345 347/347 348/348
f 349/349 350/350 351/351
f 349/349 351/351 352/352
f 353/353 354/354 355/355
f 353/353 355/355 356/356
f 357/357 358/358 359/359
f 357/357 359/359 360/360
f 361/361 362/362 363/363
f 361/361 363/363 364/364
f 365/365 366/366 367/367
f 365/365 367/367 368/368
f 369/369 370/370 371/371
f 369/369 371/371 372/372
f 373/373 374/374 375/375
f 373/373 375/375 376/376
f 377/377 378/378 379/379
f 377/377 379/379 380/380
f 381/381 382/382 383/383
f 381/381 383/383 384/384
f 385/385 386/386 387/387
f 385/385 387/387 388/388
f 389/389 390/390 391/391
f 389/389 391/391 392/392
f 393/393 394/394 395/395
f 393/393 395/395 396/396
f 397/397 398/398 399/399
f 397/397 399/399 400/400
f 401/401 402/402 403/403
f 401/401 403/403 404/404
f 405/405 406/406 407/407
f 405/405 407/407 408/408
f 409/409 410/410 411/411
f 409/409 411/411 412/412
f 413/413 414/414 415/415
f 413/413 415/415 416/416
f 417/417 418/418 419/419
f 417/417 419/419 420/420
f 421/421 422/422 423/423
f 421/421 423/423 424/424
f 425/425 426/426 427/427
f 425/425 427/427 428/428
f 429/429 430/430 431/431
f 429/429 431/431 432/432
f 433/433 434/434 435/435
f 433/433 435/435 436/436
f 437/437 438/438 439/439
f 437/437 439/439 440/440
f 441/441 442/442 443/443
f 441/441 443/443 444/444
f 445/445 446/446 447/447
f 445/445 447/447 448/448
f 449/449 450/450 451/451
f 449/449 451/451 452/452
f 453/453 454/454 455/455
f 453/453 455/455 456/456
f 457/457 458/458 459/459
f 457/457 459/459 460/460
f 461/461 462/462 463/463
f 461/461 463/463 464/464
f 465/465 466/466 467/467
f 465/465 467/467 468/468
f 469/469 470/470 471/471
f 469/469 471/471 472/472
f 473/473 474/474 475/475
f 473/473 475/475 476/476
f 477/477 478/478 479/479
f 477/477 479/479 480/480
f 481/481 482/482 483/483
f 481/481 483/483 484/484
f 485/485 486/486 487/487
f 485/485 487/487 488/488
f 489/489 490/490 491/491
f 489/489 491/491 492/492
f 493/493 494/494 495/495
f 493/493 495/495 496/496
f 497/497 498/498 499/499
f 497/497 499/499 500/500
f 501/501 502/502 503/503
f 501/501 503/503 504/504
f 505/505 506/506 507/507
f 505/505 507/507 508/508
f 509/509 510/510 511/511
f 509/509 511/511 512/512
f 513/513 514/514 515/515
f 513/513 515/515 516/516
f 517/517 518/518 519/519
f 517/517 519/519 520/520
f 521/521 522/522 523/523
f 521/521 523/523 524/524
f 525/525 526/526 527/527
f 525/525 527/527 528/528
