# R_rebar_1 (Sightline generated, CENTIMETRES, +Z up)
v -13.51 -13.36 -12.28
v -12.04 0.83 -10.25
v 2.04 0.25 -8.30
v 2.27 -13.68 -11.43
v 2.27 -13.68 -11.43
v 2.04 0.25 -8.30
v 16.25 -0.07 -7.74
v 17.95 -14.21 -9.52
v -12.04 0.83 -10.25
v -10.74 14.70 -6.54
v 1.92 14.41 -6.38
v 2.04 0.25 -8.30
v 2.04 0.25 -8.30
v 1.92 14.41 -6.38
v 14.53 14.01 -5.64
v 16.25 -0.07 -7.74
v -14.93 -13.49 12.84
v -1.41 -12.89 11.22
v -1.31 -2.03 9.76
v -16.02 -2.50 10.31
v -16.02 -2.50 10.31
v -1.31 -2.03 9.76
v -1.21 8.72 7.75
v -17.12 8.58 8.18
v -1.41 -12.89 11.22
v 12.07 -11.60 12.84
v 13.42 -1.74 8.30
v -1.31 -2.03 9.76
v -1.31 -2.03 9.76
v 13.42 -1.74 8.30
v 14.73 8.58 6.00
v -1.21 8.72 7.75
v -13.51 -13.36 -12.28
v 2.23 -13.43 -10.90
v 0.42 -12.20 0.98
v -14.22 -13.32 0.28
v -14.22 -13.32 0.28
v 0.42 -12.20 0.98
v -1.43 -12.36 12.84
v -14.93 -13.49 12.84
v 2.23 -13.43 -10.90
v 17.95 -14.21 -9.52
v 14.98 -13.90 1.65
v 0.42 -12.20 0.98
v 0.42 -12.20 0.98
v 14.98 -13.90 1.65
v 12.07 -11.60 12.84
v -1.43 -12.36 12.84
v -10.74 14.70 -6.54
v -13.94 10.72 0.44
v 0.35 11.46 0.50
v 1.89 14.06 -6.21
v 1.89 14.06 -6.21
v 0.35 11.46 0.50
v 14.64 12.31 0.61
v 14.53 14.01 -5.64
v -13.94 10.72 0.44
v -17.12 8.58 8.18
v -1.19 8.98 7.26
v 0.35 11.46 0.50
v 0.35 11.46 0.50
v -1.19 8.98 7.26
v 14.73 8.58 6.00
v 14.64 12.31 0.61
v -13.51 -13.36 -12.28
v -13.42 -13.52 0.33
v -14.01 -0.90 0.56
v -12.30 0.69 -9.42
v -12.30 0.69 -9.42
v -14.01 -0.90 0.56
v -14.12 11.66 0.81
v -10.74 14.70 -6.54
v -13.42 -13.52 0.33
v -14.93 -13.49 12.84
v -14.38 -2.64 10.61
v -14.01 -0.90 0.56
v -14.01 -0.90 0.56
v -14.38 -2.64 10.61
v -17.12 8.58 8.18
v -14.12 11.66 0.81
v 17.95 -14.21 -9.52
v 15.56 -0.16 -7.75
v 16.01 -0.70 1.22
v 15.00 -12.91 1.66
v 15.00 -12.91 1.66
v 16.01 -0.70 1.22
v 12.63 -1.57 9.23
v 12.07 -11.60 12.84
v 15.56 -0.16 -7.75
v 14.53 14.01 -5.64
v 14.41 11.28 0.13
v 16.01 -0.70 1.22
v 16.01 -0.70 1.22
v 14.41 11.28 0.13
v 14.73 8.58 6.00
v 12.63 -1.57 9.23
v 0.17 -4.49 5.73
v 3.42 -3.85 5.73
v -2.66 9.84 35.39
v -3.27 12.89 34.28
v 3.42 -3.85 5.73
v 2.84 -0.95 4.27
v 0.59 10.45 35.31
v -2.66 9.84 35.39
v 2.84 -0.95 4.27
v -0.40 -1.59 4.27
v -0.02 13.51 34.20
v 0.59 10.45 35.31
v -0.40 -1.59 4.27
v 0.17 -4.49 5.73
v -3.27 12.89 34.28
v -0.02 13.51 34.20
v -3.27 12.89 34.28
v -2.66 9.84 35.39
v -3.03 20.34 66.42
v 0.09 21.20 67.09
v -2.66 9.84 35.39
v 0.59 10.45 35.31
v -2.33 17.20 67.19
v -3.03 20.34 66.42
v 0.59 10.45 35.31
v -0.02 13.51 34.20
v 0.79 18.06 67.86
v -2.33 17.20 67.19
v -0.02 13.51 34.20
v -3.27 12.89 34.28
v 0.09 21.20 67.09
v 0.79 18.06 67.86
v 0.09 21.20 67.09
v -3.03 20.34 66.42
v -16.72 25.07 96.26
v -16.10 22.00 97.32
v -3.03 20.34 66.42
v -2.33 17.20 67.19
v -19.01 23.89 94.19
v -16.72 25.07 96.26
v -2.33 17.20 67.19
v 0.79 18.06 67.86
v -18.40 20.83 95.26
v -19.01 23.89 94.19
v 0.79 18.06 67.86
v 0.09 21.20 67.09
v -16.10 22.00 97.32
v -18.40 20.83 95.26
v -16.10 22.00 97.32
v -16.72 25.07 96.26
v -44.78 25.20 114.79
v -46.47 23.97 112.23
v -16.72 25.07 96.26
v -19.01 23.89 94.19
v -45.17 28.25 113.59
v -44.78 25.20 114.79
v -19.01 23.89 94.19
v -18.40 20.83 95.26
v -46.86 27.02 111.03
v -45.17 28.25 113.59
v -18.40 20.83 95.26
v -16.10 22.00 97.32
v -46.47 23.97 112.23
v -46.86 27.02 111.03
v -0.40 -1.59 4.27
v 2.84 -0.95 4.27
v 3.42 -3.85 5.73
v 0.17 -4.49 5.73
v -46.47 23.97 112.23
v -44.78 25.20 114.79
v -45.17 28.25 113.59
v -46.86 27.02 111.03
v 13.94 4.53 5.95
v 12.43 1.77 5.95
v 27.02 -2.67 25.82
v 29.18 -3.85 23.86
v 12.43 1.77 5.95
v 14.64 0.55 4.05
v 25.25 -5.25 25.44
v 27.02 -2.67 25.82
v 14.64 0.55 4.05
v 16.16 3.32 4.05
v 27.41 -6.44 23.47
v 25.25 -5.25 25.44
v 16.16 3.32 4.05
v 13.94 4.53 5.95
v 29.18 -3.85 23.86
v 27.41 -6.44 23.47
v 29.18 -3.85 23.86
v 27.02 -2.67 25.82
v 39.04 -18.13 42.21
v 36.87 -20.06 40.98
v 27.02 -2.67 25.82
v 25.25 -5.25 25.44
v 36.83 -16.78 44.00
v 39.04 -18.13 42.21
v 25.25 -5.25 25.44
v 27.41 -6.44 23.47
v 34.65 -18.71 42.77
v 36.83 -16.78 44.00
v 27.41 -6.44 23.47
v 29.18 -3.85 23.86
v 36.87 -20.06 40.98
v 34.65 -18.71 42.77
v 36.87 -20.06 40.98
v 39.04 -18.13 42.21
v 35.86 -37.84 57.66
v 33.62 -36.38 59.34
v 39.04 -18.13 42.21
v 36.83 -16.78 44.00
v 38.08 -36.24 59.24
v 35.86 -37.84 57.66
v 36.83 -16.78 44.00
v 34.65 -18.71 42.77
v 35.84 -34.79 60.91
v 38.08 -36.24 59.24
v 34.65 -18.71 42.77
v 36.87 -20.06 40.98
v 33.62 -36.38 59.34
v 35.84 -34.79 60.91
v 33.62 -36.38 59.34
v 35.86 -37.84 57.66
v 36.48 -54.29 76.17
v 38.69 -52.57 77.62
v 35.86 -37.84 57.66
v 38.08 -36.24 59.24
v 38.70 -55.62 74.37
v 36.48 -54.29 76.17
v 38.08 -36.24 59.24
v 35.84 -34.79 60.91
v 40.91 -53.90 75.82
v 38.70 -55.62 74.37
v 35.84 -34.79 60.91
v 33.62 -36.38 59.34
v 38.69 -52.57 77.62
v 40.91 -53.90 75.82
v 16.16 3.32 4.05
v 14.64 0.55 4.05
v 12.43 1.77 5.95
v 13.94 4.53 5.95
v 38.69 -52.57 77.62
v 36.48 -54.29 76.17
v 38.70 -55.62 74.37
v 40.91 -53.90 75.82
v -2.79 1.47 5.63
v -2.24 3.84 5.63
v -11.19 3.39 19.78
v -13.26 3.87 18.60
v -2.24 3.84 5.63
v -4.27 4.30 4.37
v -10.61 5.75 19.70
v -11.19 3.39 19.78
v -4.27 4.30 4.37
v -4.81 1.93 4.37
v -12.68 6.23 18.52
v -10.61 5.75 19.70
v -4.81 1.93 4.37
v -2.79 1.47 5.63
v -13.26 3.87 18.60
v -12.68 6.23 18.52
v -13.26 3.87 18.60
v -11.19 3.39 19.78
v -20.35 6.75 33.59
v -19.63 9.04 33.24
v -11.19 3.39 19.78
v -10.61 5.75 19.70
v -18.19 6.22 34.58
v -20.35 6.75 33.59
v -10.61 5.75 19.70
v -12.68 6.23 18.52
v -17.47 8.52 34.24
v -18.19 6.22 34.58
v -12.68 6.23 18.52
v -13.26 3.87 18.60
v -19.63 9.04 33.24
v -17.47 8.52 34.24
v -19.63 9.04 33.24
v -20.35 6.75 33.59
v -24.15 14.22 47.80
v -22.04 13.72 48.90
v -20.35 6.75 33.59
v -18.19 6.22 34.58
v -25.16 12.27 48.84
v -24.15 14.22 47.80
v -18.19 6.22 34.58
v -17.47 8.52 34.24
v -23.05 11.77 49.95
v -25.16 12.27 48.84
v -17.47 8.52 34.24
v -19.63 9.04 33.24
v -22.04 13.72 48.90
v -23.05 11.77 49.95
v -22.04 13.72 48.90
v -24.15 14.22 47.80
v -26.16 26.20 58.70
v -27.30 24.65 60.19
v -24.15 14.22 47.80
v -25.16 12.27 48.84
v -28.22 26.52 57.44
v -26.16 26.20 58.70
v -25.16 12.27 48.84
v -23.05 11.77 49.95
v -29.36 24.97 58.93
v -28.22 26.52 57.44
v -23.05 11.77 49.95
v -22.04 13.72 48.90
v -27.30 24.65 60.19
v -29.36 24.97 58.93
v -4.81 1.93 4.37
v -4.27 4.30 4.37
v -2.24 3.84 5.63
v -2.79 1.47 5.63
v -27.30 24.65 60.19
v -26.16 26.20 58.70
v -28.22 26.52 57.44
v -29.36 24.97 58.93
v 3.33 -13.60 6.36
v 4.62 -11.15 6.36
v -24.09 0.86 1.31
v -23.27 0.42 -1.28
v 4.62 -11.15 6.36
v 5.01 -11.36 3.64
v -22.61 3.18 1.39
v -24.09 0.86 1.31
v 5.01 -11.36 3.64
v 3.72 -13.80 3.64
v -21.79 2.75 -1.20
v -22.61 3.18 1.39
v 3.72 -13.80 3.64
v 3.33 -13.60 6.36
v -23.27 0.42 -1.28
v -21.79 2.75 -1.20
v -23.27 0.42 -1.28
v -24.09 0.86 1.31
v -44.04 17.24 -16.67
v -42.26 19.33 -16.46
v -24.09 0.86 1.31
v -22.61 3.18 1.39
v -45.38 18.15 -14.44
v -44.04 17.24 -16.67
v -22.61 3.18 1.39
v -21.79 2.75 -1.20
v -43.60 20.24 -14.23
v -45.38 18.15 -14.44
v -21.79 2.75 -1.20
v -23.27 0.42 -1.28
v -42.26 19.33 -16.46
v -43.60 20.24 -14.23
v -42.26 19.33 -16.46
v -44.04 17.24 -16.67
v -57.49 36.86 -36.79
v -58.76 37.70 -34.49
v -44.04 17.24 -16.67
v -45.38 18.15 -14.44
v -59.54 35.06 -37.26
v -57.49 36.86 -36.79
v -45.38 18.15 -14.44
v -43.60 20.24 -14.23
v -60.80 35.90 -34.96
v -59.54 35.06 -37.26
v -43.60 20.24 -14.23
v -42.26 19.33 -16.46
v -58.76 37.70 -34.49
v -60.80 35.90 -34.96
v -58.76 37.70 -34.49
v -57.49 36.86 -36.79
v -73.26 62.21 -45.92
v -75.44 60.63 -46.54
v -57.49 36.86 -36.79
v -59.54 35.06 -37.26
v -72.18 61.69 -48.40
v -73.26 62.21 -45.92
v -59.54 35.06 -37.26
v -60.80 35.90 -34.96
v -74.35 60.11 -49.02
v -72.18 61.69 -48.40
v -60.80 35.90 -34.96
v -58.76 37.70 -34.49
v -75.44 60.63 -46.54
v -74.35 60.11 -49.02
v 3.72 -13.80 3.64
v 5.01 -11.36 3.64
v 4.62 -11.15 6.36
v 3.33 -13.60 6.36
v -75.44 60.63 -46.54
v -73.26 62.21 -45.92
v -72.18 61.69 -48.40
v -74.35 60.11 -49.02
v 1.08 1.50 6.25
v 2.43 -1.23 6.25
v 18.68 10.23 19.83
v 20.75 11.26 17.84
v 2.43 -1.23 6.25
v 3.99 -0.46 3.75
v 20.09 7.53 19.90
v 18.68 10.23 19.83
v 3.99 -0.46 3.75
v 2.64 2.28 3.75
v 22.16 8.56 17.91
v 20.09 7.53 19.90
v 2.64 2.28 3.75
v 1.08 1.50 6.25
v 20.75 11.26 17.84
v 22.16 8.56 17.91
v 20.75 11.26 17.84
v 18.68 10.23 19.83
v 30.06 17.43 40.32
v 31.30 14.64 40.17
v 18.68 10.23 19.83
v 20.09 7.53 19.90
v 27.40 16.20 41.17
v 30.06 17.43 40.32
v 20.09 7.53 19.90
v 22.16 8.56 17.91
v 28.64 13.42 41.02
v 27.40 16.20 41.17
v 22.16 8.56 17.91
v 20.75 11.26 17.84
v 31.30 14.64 40.17
v 28.64 13.42 41.02
v 31.30 14.64 40.17
v 30.06 17.43 40.32
v 35.53 12.02 64.00
v 32.75 10.77 64.23
v 30.06 17.43 40.32
v 27.40 16.20 41.17
v 34.36 14.74 64.71
v 35.53 12.02 64.00
v 27.40 16.20 41.17
v 28.64 13.42 41.02
v 31.59 13.50 64.93
v 34.36 14.74 64.71
v 28.64 13.42 41.02
v 31.30 14.64 40.17
v 32.75 10.77 64.23
v 31.59 13.50 64.93
v 32.75 10.77 64.23
v 35.53 12.02 64.00
v 36.28 4.58 87.31
v 35.14 7.27 88.20
v 35.53 12.02 64.00
v 34.36 14.74 64.71
v 39.07 5.79 87.20
v 36.28 4.58 87.31
v 34.36 14.74 64.71
v 31.59 13.50 64.93
v 37.94 8.48 88.10
v 39.07 5.79 87.20
v 31.59 13.50 64.93
v 32.75 10.77 64.23
v 35.14 7.27 88.20
v 37.94 8.48 88.10
v 2.64 2.28 3.75
v 3.99 -0.46 3.75
v 2.43 -1.23 6.25
v 1.08 1.50 6.25
v 35.14 7.27 88.20
v 36.28 4.58 87.31
v 39.07 5.79 87.20
v 37.94 8.48 88.10
vt 0.0000 0.0000
vt 0.0721 0.0000
vt 0.0777 0.0707
vt 0.0070 0.0787
vt 0.0000 0.0000
vt 0.0714 0.0000
vt 0.0693 0.0709
vt -0.0017 0.0790
vt 0.0000 0.0000
vt 0.0721 0.0000
vt 0.0766 0.0627
vt 0.0061 0.0709
vt 0.0000 0.0000
vt 0.0715 -0.0000
vt 0.0695 0.0631
vt -0.0018 0.0711
vt 0.0000 0.0000
vt 0.0682 0.0000
vt 0.0719 0.0544
vt -0.0015 0.0567
vt 0.0000 0.0000
vt 0.0737 0.0000
vt 0.0763 0.0546
vt -0.0033 0.0566
vt 0.0000 0.0000
vt 0.0682 -0.0000
vt 0.0768 0.0514
vt 0.0047 0.0546
vt 0.0000 0.0000
vt 0.0740 -0.0000
vt 0.0827 0.0526
vt 0.0025 0.0546
vt 0.0000 0.0000
vt 0.0790 -0.0000
vt 0.0751 0.0600
vt 0.0020 0.0629
vt 0.0000 0.0000
vt 0.0735 0.0000
vt 0.0670 0.0597
vt -0.0007 0.0629
vt 0.0000 0.0000
vt 0.0790 0.0000
vt 0.0690 0.0568
vt -0.0041 0.0602
vt 0.0000 0.0000
vt 0.0734 -0.0000
vt 0.0602 0.0563
vt -0.0063 0.0597
vt 0.0000 0.0000
vt 0.0432 0.0000
vt 0.0153 0.0657
vt -0.0206 0.0598
vt 0.0000 0.0000
vt 0.0368 0.0000
vt 0.0208 0.0697
vt -0.0106 0.0624
vt 0.0000 0.0000
vt 0.0432 -0.0000
vt 0.0093 0.0722
vt -0.0269 0.0663
vt 0.0000 0.0000
vt 0.0368 -0.0000
vt 0.0150 0.0764
vt -0.0159 0.0698
vt 0.0000 0.0000
vt 0.0630 -0.0000
vt 0.0634 0.0626
vt 0.0135 0.0707
vt 0.0000 0.0000
vt 0.0512 0.0000
vt 0.0428 0.0616
vt 0.0019 0.0719
vt 0.0000 0.0000
vt 0.0630 0.0000
vt 0.0517 0.0542
vt 0.0016 0.0631
vt 0.0000 0.0000
vt 0.0510 0.0000
vt 0.0301 0.0534
vt -0.0094 0.0621
vt 0.0000 0.0000
vt 0.0718 0.0000
vt 0.0743 0.0432
vt 0.0157 0.0560
vt 0.0000 0.0000
vt 0.0613 0.0000
vt 0.0541 0.0427
vt 0.0033 0.0581
vt 0.0000 0.0000
vt 0.0718 0.0000
vt 0.0626 0.0304
vt 0.0038 0.0449
vt 0.0000 0.0000
vt 0.0607 0.0000
vt 0.0445 0.0258
vt -0.0057 0.0433
vt 0.0000 0.0000
vt 0.0826 0.0000
vt 0.0000 0.8225
vt 0.0000 0.8402
vt 0.0000 0.0000
vt 0.0826 0.0000
vt 0.0004 0.8203
vt 0.0002 0.8306
vt 0.0000 0.0000
vt 0.0826 0.0000
vt 0.0000 0.8299
vt 0.0000 0.8285
vt 0.0000 0.0000
vt 0.0826 -0.0000
vt 0.0004 0.8321
vt 0.0002 0.8381
vt 0.0000 0.0000
vt 0.0826 0.0000
vt 0.0972 0.8154
vt 0.0972 0.8447
vt 0.0000 0.0000
vt 0.0826 0.0000
vt 0.0232 0.8116
vt 0.0211 0.8189
vt 0.0000 0.0000
vt 0.0826 0.0000
vt -0.0967 0.8261
vt -0.0967 0.8122
vt 0.0000 0.0000
vt 0.0826 -0.0000
vt -0.0186 0.8402
vt -0.0208 0.8490
vt 0.0000 0.0000
vt 0.0826 0.0000
vt 0.2234 0.8130
vt 0.2234 0.8279
vt 0.0000 0.0000
vt 0.0826 0.0000
vt -0.0079 0.8021
vt -0.0117 0.8290
vt 0.0000 0.0000
vt 0.0826 0.0000
vt -0.2131 0.7808
vt -0.2131 0.7824
vt 0.0000 0.0000
vt 0.0826 0.0000
vt 0.0121 0.8506
vt 0.0082 0.8389
vt 0.0000 0.0000
vt 0.0826 -0.0000
vt 0.0670 0.8366
vt 0.0670 0.8446
vt 0.0000 0.0000
vt 0.0826 0.0000
vt 0.1952 0.8094
vt 0.1968 0.8174
vt 0.0000 0.0000
vt 0.0826 0.0000
vt -0.0668 0.8104
vt -0.0668 0.8186
vt 0.0000 0.0000
vt 0.0826 0.0000
vt -0.1945 0.7964
vt -0.1929 0.8053
vt 0.0000 0.0000
vt 0.0826 0.0000
vt 0.0826 0.0826
vt -0.0000 0.0826
vt 0.0000 0.0000
vt 0.0826 0.0000
vt 0.0826 0.0826
vt -0.0000 0.0826
vt 0.0000 0.0000
vt 0.0789 0.0000
vt 0.0005 0.6164
vt 0.0005 0.6241
vt 0.0000 0.0000
vt 0.0789 -0.0000
vt -0.0002 0.6044
vt 0.0002 0.6263
vt 0.0000 0.0000
vt 0.0789 0.0000
vt 0.0005 0.6018
vt 0.0005 0.6142
vt 0.0000 0.0000
vt 0.0789 0.0000
vt -0.0002 0.6140
vt 0.0002 0.6119
vt 0.0000 0.0000
vt 0.0789 0.0000
vt -0.0176 0.6262
vt -0.0176 0.6197
vt 0.0000 0.0000
vt 0.0789 0.0000
vt 0.0966 0.6131
vt 0.0988 0.6308
vt 0.0000 0.0000
vt 0.0789 0.0000
vt 0.0179 0.5919
vt 0.0179 0.6179
vt 0.0000 0.0000
vt 0.0789 -0.0000
vt -0.0936 0.5903
vt -0.0914 0.5927
vt 0.0000 0.0000
vt 0.0789 -0.0000
vt -0.1270 0.5916
vt -0.1270 0.6063
vt 0.0000 0.0000
vt 0.0789 0.0000
vt 0.0646 0.6138
vt 0.0640 0.6279
vt 0.0000 0.0000
vt 0.0789 -0.0000
vt 0.1280 0.5996
vt 0.1280 0.6055
vt 0.0000 0.0000
vt 0.0789 0.0000
vt -0.0639 0.5976
vt -0.0645 0.6033
vt 0.0000 0.0000
vt 0.0789 0.0000
vt 0.0342 0.6126
vt 0.0342 0.6225
vt 0.0000 0.0000
vt 0.0789 0.0000
vt 0.0339 0.6081
vt 0.0342 0.6182
vt 0.0000 0.0000
vt 0.0789 -0.0000
vt -0.0341 0.6037
vt -0.0341 0.6139
vt 0.0000 0.0000
vt 0.0789 0.0000
vt -0.0341 0.6082
vt -0.0338 0.6182
vt 0.0000 0.0000
vt 0.0789 0.0000
vt 0.0789 0.0789
vt -0.0000 0.0789
vt 0.0000 0.0000
vt 0.0789 0.0000
vt 0.0789 0.0789
vt 0.0000 0.0789
vt 0.0000 0.0000
vt 0.0608 -0.0000
vt 0.0000 0.4098
vt 0.0000 0.4210
vt 0.0000 0.0000
vt 0.0608 0.0000
vt 0.0001 0.4076
vt -0.0000 0.4186
vt 0.0000 0.0000
vt 0.0608 0.0000
vt 0.0000 0.4100
vt 0.0000 0.4164
vt 0.0000 0.0000
vt 0.0608 0.0000
vt 0.0001 0.4122
vt -0.0000 0.4188
vt 0.0000 0.0000
vt 0.0608 0.0000
vt 0.0169 0.4161
vt 0.0169 0.4193
vt 0.0000 0.0000
vt 0.0608 -0.0000
vt 0.0149 0.4109
vt 0.0156 0.4225
vt 0.0000 0.0000
vt 0.0608 0.0000
vt -0.0167 0.4031
vt -0.0167 0.4174
vt 0.0000 0.0000
vt 0.0608 0.0000
vt -0.0151 0.4083
vt -0.0144 0.4144
vt 0.0000 0.0000
vt 0.0608 0.0000
vt -0.0364 0.3964
vt -0.0364 0.4114
vt 0.0000 0.0000
vt 0.0608 0.0000
vt 0.0189 0.4182
vt 0.0200 0.4119
vt 0.0000 0.0000
vt 0.0608 0.0000
vt 0.0399 0.4199
vt 0.0399 0.4227
vt 0.0000 0.0000
vt 0.0608 0.0000
vt -0.0199 0.4012
vt -0.0188 0.4244
vt 0.0000 0.0000
vt 0.0608 0.0000
vt 0.0413 0.4032
vt 0.0413 0.4121
vt 0.0000 0.0000
vt 0.0608 0.0000
vt -0.1005 0.3864
vt -0.1020 0.3952
vt 0.0000 0.0000
vt 0.0608 -0.0000
vt -0.0410 0.4124
vt -0.0410 0.4210
vt 0.0000 0.0000
vt 0.0608 0.0000
vt 0.1039 0.4075
vt 0.1024 0.4166
vt 0.0000 0.0000
vt 0.0608 0.0000
vt 0.0608 0.0608
vt -0.0000 0.0608
vt 0.0000 0.0000
vt 0.0608 -0.0000
vt 0.0608 0.0608
vt 0.0000 0.0608
vt 0.0000 0.0000
vt 0.0690 0.0000
vt 0.0001 0.7822
vt 0.0001 0.7756
vt 0.0000 0.0000
vt 0.0690 0.0000
vt 0.0000 0.7764
vt 0.0011 0.7882
vt 0.0000 0.0000
vt 0.0690 0.0000
vt 0.0001 0.7638
vt 0.0001 0.7824
vt 0.0000 0.0000
vt 0.0690 0.0000
vt 0.0000 0.7695
vt 0.0011 0.7698
vt 0.0000 0.0000
vt 0.0690 0.0000
vt -0.1409 0.7549
vt -0.1409 0.7569
vt 0.0000 0.0000
vt 0.0690 0.0000
vt 0.0677 0.7849
vt 0.0648 0.7839
vt 0.0000 0.0000
vt 0.0690 0.0000
vt 0.1437 0.7645
vt 0.1437 0.7747
vt 0.0000 0.0000
vt 0.0690 0.0000
vt -0.0640 0.7553
vt -0.0669 0.7682
vt 0.0000 0.0000
vt 0.0690 -0.0000
vt -0.0463 0.7673
vt -0.0463 0.7631
vt 0.0000 0.0000
vt 0.0690 0.0000
vt -0.0803 0.7761
vt -0.0808 0.7747
vt 0.0000 0.0000
vt 0.0690 0.0000
vt 0.0473 0.7758
vt 0.0473 0.7919
vt 0.0000 0.0000
vt 0.0690 0.0000
vt 0.0809 0.7614
vt 0.0803 0.7749
vt 0.0000 0.0000
vt 0.0690 0.0000
vt -0.1151 0.7553
vt -0.1151 0.7616
vt 0.0000 0.0000
vt 0.0690 -0.0000
vt -0.0833 0.7699
vt -0.0822 0.7761
vt 0.0000 0.0000
vt 0.0690 -0.0000
vt 0.1158 0.7731
vt 0.1158 0.7792
vt 0.0000 0.0000
vt 0.0690 0.0000
vt 0.0826 0.7670
vt 0.0837 0.7731
vt 0.0000 0.0000
vt 0.0690 0.0000
vt 0.0690 0.0690
vt -0.0000 0.0690
vt 0.0000 0.0000
vt 0.0690 -0.0000
vt 0.0690 0.0690
vt -0.0000 0.0690
vt 0.0000 0.0000
vt 0.0763 0.0000
vt 0.0000 0.5929
vt 0.0000 0.6209
vt 0.0000 0.0000
vt 0.0763 0.0000
vt 0.0009 0.5946
vt 0.0015 0.6020
vt 0.0000 0.0000
vt 0.0763 0.0000
vt 0.0000 0.6139
vt 0.0000 0.6041
vt 0.0000 0.0000
vt 0.0763 0.0000
vt 0.0009 0.6117
vt 0.0015 0.6232
vt 0.0000 0.0000
vt 0.0763 0.0000
vt 0.1561 0.6028
vt 0.1561 0.6031
vt 0.0000 0.0000
vt 0.0763 -0.0000
vt -0.0193 0.5906
vt -0.0162 0.6126
vt 0.0000 0.0000
vt 0.0763 -0.0000
vt -0.1493 0.5643
vt -0.1493 0.5839
vt 0.0000 0.0000
vt 0.0763 0.0000
vt 0.0166 0.6154
vt 0.0196 0.6118
vt 0.0000 0.0000
vt 0.0763 -0.0000
vt -0.0734 0.5995
vt -0.0734 0.6059
vt 0.0000 0.0000
vt 0.0763 0.0000
vt 0.1044 0.6093
vt 0.1015 0.6143
vt 0.0000 0.0000
vt 0.0763 -0.0000
vt 0.0747 0.5976
vt 0.0747 0.6102
vt 0.0000 0.0000
vt 0.0763 0.0000
vt -0.0997 0.5795
vt -0.1027 0.5935
vt 0.0000 0.0000
vt 0.0763 0.0000
vt -0.0251 0.5986
vt -0.0251 0.6081
vt 0.0000 0.0000
vt 0.0763 0.0000
vt -0.0384 0.6011
vt -0.0382 0.6106
vt 0.0000 0.0000
vt 0.0763 -0.0000
vt 0.0252 0.6066
vt 0.0252 0.6160
vt 0.0000 0.0000
vt 0.0763 0.0000
vt 0.0383 0.6027
vt 0.0385 0.6122
vt 0.0000 0.0000
vt 0.0763 0.0000
vt 0.0763 0.0763
vt 0.0000 0.0763
vt 0.0000 0.0000
vt 0.0763 0.0000
vt 0.0763 0.0763
vt 0.0000 0.0763
usemtl concrete
f 1/1 2/2 3/3
f 1/1 3/3 4/4
f 5/5 6/6 7/7
f 5/5 7/7 8/8
f 9/9 10/10 11/11
f 9/9 11/11 12/12
f 13/13 14/14 15/15
f 13/13 15/15 16/16
f 17/17 18/18 19/19
f 17/17 19/19 20/20
f 21/21 22/22 23/23
f 21/21 23/23 24/24
f 25/25 26/26 27/27
f 25/25 27/27 28/28
f 29/29 30/30 31/31
f 29/29 31/31 32/32
f 33/33 34/34 35/35
f 33/33 35/35 36/36
f 37/37 38/38 39/39
f 37/37 39/39 40/40
f 41/41 42/42 43/43
f 41/41 43/43 44/44
f 45/45 46/46 47/47
f 45/45 47/47 48/48
f 49/49 50/50 51/51
f 49/49 51/51 52/52
f 53/53 54/54 55/55
f 53/53 55/55 56/56
f 57/57 58/58 59/59
f 57/57 59/59 60/60
f 61/61 62/62 63/63
f 61/61 63/63 64/64
f 65/65 66/66 67/67
f 65/65 67/67 68/68
f 69/69 70/70 71/71
f 69/69 71/71 72/72
f 73/73 74/74 75/75
f 73/73 75/75 76/76
f 77/77 78/78 79/79
f 77/77 79/79 80/80
f 81/81 82/82 83/83
f 81/81 83/83 84/84
f 85/85 86/86 87/87
f 85/85 87/87 88/88
f 89/89 90/90 91/91
f 89/89 91/91 92/92
f 93/93 94/94 95/95
f 93/93 95/95 96/96
usemtl rebar
f 97/97 98/98 99/99
f 97/97 99/99 100/100
f 101/101 102/102 103/103
f 101/101 103/103 104/104
f 105/105 106/106 107/107
f 105/105 107/107 108/108
f 109/109 110/110 111/111
f 109/109 111/111 112/112
f 113/113 114/114 115/115
f 113/113 115/115 116/116
f 117/117 118/118 119/119
f 117/117 119/119 120/120
f 121/121 122/122 123/123
f 121/121 123/123 124/124
f 125/125 126/126 127/127
f 125/125 127/127 128/128
f 129/129 130/130 131/131
f 129/129 131/131 132/132
f 133/133 134/134 135/135
f 133/133 135/135 136/136
f 137/137 138/138 139/139
f 137/137 139/139 140/140
f 141/141 142/142 143/143
f 141/141 143/143 144/144
f 145/145 146/146 147/147
f 145/145 147/147 148/148
f 149/149 150/150 151/151
f 149/149 151/151 152/152
f 153/153 154/154 155/155
f 153/153 155/155 156/156
f 157/157 158/158 159/159
f 157/157 159/159 160/160
f 161/161 162/162 163/163
f 161/161 163/163 164/164
f 165/165 166/166 167/167
f 165/165 167/167 168/168
f 169/169 170/170 171/171
f 169/169 171/171 172/172
f 173/173 174/174 175/175
f 173/173 175/175 176/176
f 177/177 178/178 179/179
f 177/177 179/179 180/180
f 181/181 182/182 183/183
f 181/181 183/183 184/184
f 185/185 186/186 187/187
f 185/185 187/187 188/188
f 189/189 190/190 191/191
f 189/189 191/191 192/192
f 193/193 194/194 195/195
f 193/193 195/195 196/196
f 197/197 198/198 199/199
f 197/197 199/199 200/200
f 201/201 202/202 203/203
f 201/201 203/203 204/204
f 205/205 206/206 207/207
f 205/205 207/207 208/208
f 209/209 210/210 211/211
f 209/209 211/211 212/212
f 213/213 214/214 215/215
f 213/213 215/215 216/216
f 217/217 218/218 219/219
f 217/217 219/219 220/220
f 221/221 222/222 223/223
f 221/221 223/223 224/224
f 225/225 226/226 227/227
f 225/225 227/227 228/228
f 229/229 230/230 231/231
f 229/229 231/231 232/232
f 233/233 234/234 235/235
f 233/233 235/235 236/236
f 237/237 238/238 239/239
f 237/237 239/239 240/240
f 241/241 242/242 243/243
f 241/241 243/243 244/244
f 245/245 246/246 247/247
f 245/245 247/247 248/248
f 249/249 250/250 251/251
f 249/249 251/251 252/252
f 253/253 254/254 255/255
f 253/253 255/255 256/256
f 257/257 258/258 259/259
f 257/257 259/259 260/260
f 261/261 262/262 263/263
f 261/261 263/263 264/264
f 265/265 266/266 267/267
f 265/265 267/267 268/268
f 269/269 270/270 271/271
f 269/269 271/271 272/272
f 273/273 274/274 275/275
f 273/273 275/275 276/276
f 277/277 278/278 279/279
f 277/277 279/279 280/280
f 281/281 282/282 283/283
f 281/281 283/283 284/284
f 285/285 286/286 287/287
f 285/285 287/287 288/288
f 289/289 290/290 291/291
f 289/289 291/291 292/292
f 293/293 294/294 295/295
f 293/293 295/295 296/296
f 297/297 298/298 299/299
f 297/297 299/299 300/300
f 301/301 302/302 303/303
f 301/301 303/303 304/304
f 305/305 306/306 307/307
f 305/305 307/307 308/308
f 309/309 310/310 311/311
f 309/309 311/311 312/312
f 313/313 314/314 315/315
f 313/313 315/315 316/316
f 317/317 318/318 319/319
f 317/317 319/319 320/320
f 321/321 322/322 323/323
f 321/321 323/323 324/324
f 325/325 326/326 327/327
f 325/325 327/327 328/328
f 329/329 330/330 331/331
f 329/329 331/331 332/332
f 333/333 334/334 335/335
f 333/333 335/335 336/336
f 337/337 338/338 339/339
f 337/337 339/339 340/340
f 341/341 342/342 343/343
f 341/341 343/343 344/344
f 345/345 346/346 347/347
f 345/345 347/347 348/348
f 349/349 350/350 351/351
f 349/349 351/351 352/352
f 353/353 354/354 355/355
f 353/353 355/355 356/356
f 357/357 358/358 359/359
f 357/357 359/359 360/360
f 361/361 362/362 363/363
f 361/361 363/363 364/364
f 365/365 366/366 367/367
f 365/365 367/367 368/368
f 369/369 370/370 371/371
f 369/369 371/371 372/372
f 373/373 374/374 375/375
f 373/373 375/375 376/376
f 377/377 378/378 379/379
f 377/377 379/379 380/380
f 381/381 382/382 383/383
f 381/381 383/383 384/384
f 385/385 386/386 387/387
f 385/385 387/387 388/388
f 389/389 390/390 391/391
f 389/389 391/391 392/392
f 393/393 394/394 395/395
f 393/393 395/395 396/396
f 397/397 398/398 399/399
f 397/397 399/399 400/400
f 401/401 402/402 403/403
f 401/401 403/403 404/404
f 405/405 406/406 407/407
f 405/405 407/407 408/408
f 409/409 410/410 411/411
f 409/409 411/411 412/412
f 413/413 414/414 415/415
f 413/413 415/415 416/416
f 417/417 418/418 419/419
f 417/417 419/419 420/420
f 421/421 422/422 423/423
f 421/421 423/423 424/424
f 425/425 426/426 427/427
f 425/425 427/427 428/428
f 429/429 430/430 431/431
f 429/429 431/431 432/432
f 433/433 434/434 435/435
f 433/433 435/435 436/436
f 437/437 438/438 439/439
f 437/437 439/439 440/440
f 441/441 442/442 443/443
f 441/441 443/443 444/444
f 445/445 446/446 447/447
f 445/445 447/447 448/448
f 449/449 450/450 451/451
f 449/449 451/451 452/452
f 453/453 454/454 455/455
f 453/453 455/455 456/456
