# R_rebar_2 (Sightline generated, CENTIMETRES, +Z up)
v -18.92 -12.02 -12.73
v -20.72 -1.85 -9.41
v -0.16 -1.44 -10.49
v 1.63 -12.48 -11.32
v 1.63 -12.48 -11.32
v -0.16 -1.44 -10.49
v 20.44 -0.76 -12.32
v 22.23 -12.64 -10.80
v -20.72 -1.85 -9.41
v -22.52 8.24 -5.87
v -1.98 9.37 -8.97
v -0.16 -1.44 -10.49
v -0.16 -1.44 -10.49
v -1.98 9.37 -8.97
v 18.61 10.72 -12.73
v 20.44 -0.76 -12.32
v -24.42 -10.79 8.69
v -2.21 -11.80 11.48
v -0.87 -1.18 7.13
v -23.81 -0.36 8.55
v -23.81 -0.36 8.55
v -0.87 -1.18 7.13
v 0.22 9.46 6.12
v -23.23 10.08 8.70
v -2.21 -11.80 11.48
v 20.17 -12.83 12.11
v 21.92 -1.99 7.86
v -0.87 -1.18 7.13
v -0.87 -1.18 7.13
v 21.92 -1.99 7.86
v 23.51 8.86 5.59
v 0.22 9.46 6.12
v -18.92 -12.02 -12.73
v 1.63 -13.80 -11.69
v -0.22 -11.25 -0.73
v -21.66 -10.86 -2.05
v -21.66 -10.86 -2.05
v -0.22 -11.25 -0.73
v -2.11 -10.90 10.35
v -24.42 -10.79 8.69
v 1.63 -13.80 -11.69
v 22.23 -12.64 -10.80
v 21.19 -13.52 0.70
v -0.22 -11.25 -0.73
v -0.22 -11.25 -0.73
v 21.19 -13.52 0.70
v 20.17 -12.83 12.11
v -2.11 -10.90 10.35
v -22.52 8.24 -5.87
v -22.76 7.77 1.59
v -0.87 8.98 -1.02
v -2.04 10.47 -9.43
v -2.04 10.47 -9.43
v -0.87 8.98 -1.02
v 21.14 8.78 -3.44
v 18.61 10.72 -12.73
v -22.76 7.77 1.59
v -23.23 10.08 8.70
v 0.20 8.69 7.24
v -0.87 8.98 -1.02
v -0.87 8.98 -1.02
v 0.20 8.69 7.24
v 23.51 8.86 5.59
v 21.14 8.78 -3.44
v -18.92 -12.02 -12.73
v -23.26 -11.55 -2.42
v -22.02 -1.10 -0.24
v -19.23 -1.75 -8.93
v -19.23 -1.75 -8.93
v -22.02 -1.10 -0.24
v -22.56 9.19 1.49
v -22.52 8.24 -5.87
v -23.26 -11.55 -2.42
v -24.42 -10.79 8.69
v -23.36 -0.31 8.81
v -22.02 -1.10 -0.24
v -22.02 -1.10 -0.24
v -23.36 -0.31 8.81
v -23.23 10.08 8.70
v -22.56 9.19 1.49
v 22.23 -12.64 -10.80
v 21.52 -0.78 -11.67
v 22.74 -1.21 -1.31
v 22.82 -12.47 0.80
v 22.82 -12.47 0.80
v 22.74 -1.21 -1.31
v 22.18 -1.93 8.88
v 20.17 -12.83 12.11
v 21.52 -0.78 -11.67
v 18.61 10.72 -12.73
v 22.68 10.05 -3.43
v 22.74 -1.21 -1.31
v 22.74 -1.21 -1.31
v 22.68 10.05 -3.43
v 23.51 8.86 5.59
v 22.18 -1.93 8.88
v -1.98 10.21 6.53
v 1.32 11.04 6.53
v -8.56 36.34 -6.67
v -8.21 34.96 -9.76
v 1.32 11.04 6.53
v 1.68 9.59 3.47
v -5.22 36.99 -6.59
v -8.56 36.34 -6.67
v 1.68 9.59 3.47
v -1.61 8.76 3.47
v -4.88 35.61 -9.67
v -5.22 36.99 -6.59
v -1.61 8.76 3.47
v -1.98 10.21 6.53
v -8.21 34.96 -9.76
v -4.88 35.61 -9.67
v -8.21 34.96 -9.76
v -8.56 36.34 -6.67
v -11.42 62.39 -21.53
v -8.11 63.16 -21.50
v -8.56 36.34 -6.67
v -5.22 36.99 -6.59
v -11.71 63.50 -18.33
v -11.42 62.39 -21.53
v -5.22 36.99 -6.59
v -4.88 35.61 -9.67
v -8.40 64.27 -18.30
v -11.71 63.50 -18.33
v -4.88 35.61 -9.67
v -8.21 34.96 -9.76
v -8.11 63.16 -21.50
v -8.40 64.27 -18.30
v -8.11 63.16 -21.50
v -11.42 62.39 -21.53
v -17.51 90.67 -29.79
v -17.72 91.44 -26.49
v -11.42 62.39 -21.53
v -11.71 63.50 -18.33
v -20.77 89.71 -29.77
v -17.51 90.67 -29.79
v -11.71 63.50 -18.33
v -8.40 64.27 -18.30
v -20.97 90.47 -26.47
v -20.77 89.71 -29.77
v -8.40 64.27 -18.30
v -8.11 63.16 -21.50
v -17.72 91.44 -26.49
v -20.97 90.47 -26.47
v -17.72 91.44 -26.49
v -17.51 90.67 -29.79
v -24.92 119.79 -32.16
v -28.21 118.95 -32.17
v -17.51 90.67 -29.79
v -20.77 89.71 -29.77
v -24.75 119.17 -35.50
v -24.92 119.79 -32.16
v -20.77 89.71 -29.77
v -20.97 90.47 -26.47
v -28.04 118.33 -35.51
v -24.75 119.17 -35.50
v -20.97 90.47 -26.47
v -17.72 91.44 -26.49
v -28.21 118.95 -32.17
v -28.04 118.33 -35.51
v -1.61 8.76 3.47
v 1.68 9.59 3.47
v 1.32 11.04 6.53
v -1.98 10.21 6.53
v -28.21 118.95 -32.17
v -24.92 119.79 -32.16
v -24.75 119.17 -35.50
v -28.04 118.33 -35.51
v -0.67 -23.48 5.71
v -0.67 -21.01 5.22
v -10.15 -18.95 28.57
v -12.65 -19.00 28.31
v -0.67 -21.01 5.22
v -3.00 -21.19 4.29
v -10.15 -16.49 28.03
v -10.15 -18.95 28.57
v -3.00 -21.19 4.29
v -3.00 -23.66 4.78
v -12.65 -16.54 27.77
v -10.15 -16.49 28.03
v -3.00 -23.66 4.78
v -0.67 -23.48 5.71
v -12.65 -19.00 28.31
v -12.65 -16.54 27.77
v -12.65 -19.00 28.31
v -10.15 -18.95 28.57
v -8.19 -13.06 53.00
v -8.18 -10.59 52.49
v -10.15 -18.95 28.57
v -10.15 -16.49 28.03
v -5.70 -13.13 52.64
v -8.19 -13.06 53.00
v -10.15 -16.49 28.03
v -12.65 -16.54 27.77
v -5.70 -10.67 52.13
v -5.70 -13.13 52.64
v -12.65 -16.54 27.77
v -12.65 -19.00 28.31
v -8.18 -10.59 52.49
v -5.70 -10.67 52.13
v -8.18 -10.59 52.49
v -8.19 -13.06 53.00
v -5.23 -6.20 77.32
v -2.75 -6.29 76.91
v -8.19 -13.06 53.00
v -5.70 -13.13 52.64
v -5.19 -8.60 78.07
v -5.23 -6.20 77.32
v -5.70 -13.13 52.64
v -5.70 -10.67 52.13
v -2.71 -8.69 77.65
v -5.19 -8.60 78.07
v -5.70 -10.67 52.13
v -8.18 -10.59 52.49
v -2.75 -6.29 76.91
v -2.71 -8.69 77.65
v -2.75 -6.29 76.91
v -5.23 -6.20 77.32
v 2.77 4.13 99.24
v 2.86 1.84 100.29
v -5.23 -6.20 77.32
v -5.19 -8.60 78.07
v 0.32 4.28 99.78
v 2.77 4.13 99.24
v -5.19 -8.60 78.07
v -2.71 -8.69 77.65
v 0.41 1.99 100.82
v 0.32 4.28 99.78
v -2.71 -8.69 77.65
v -2.75 -6.29 76.91
v 2.86 1.84 100.29
v 0.41 1.99 100.82
v -3.00 -23.66 4.78
v -3.00 -21.19 4.29
v -0.67 -21.01 5.22
v -0.67 -23.48 5.71
v 2.86 1.84 100.29
v 2.77 4.13 99.24
v 0.32 4.28 99.78
v 0.41 1.99 100.82
v -3.22 7.47 5.94
v -2.68 5.06 5.94
v 22.03 13.05 27.77
v 23.57 13.39 25.87
v -2.68 5.06 5.94
v -1.13 5.41 4.06
v 22.47 10.63 27.69
v 22.03 13.05 27.77
v -1.13 5.41 4.06
v -1.66 7.82 4.06
v 24.01 10.97 25.79
v 22.47 10.63 27.69
v -1.66 7.82 4.06
v -3.22 7.47 5.94
v 23.57 13.39 25.87
v 24.01 10.97 25.79
v 23.57 13.39 25.87
v 22.03 13.05 27.77
v 49.65 15.54 47.23
v 50.15 13.13 47.21
v 22.03 13.05 27.77
v 22.47 10.63 27.69
v 48.03 15.19 49.05
v 49.65 15.54 47.23
v 22.47 10.63 27.69
v 24.01 10.97 25.79
v 48.53 12.78 49.03
v 48.03 15.19 49.05
v 24.01 10.97 25.79
v 23.57 13.39 25.87
v 50.15 13.13 47.21
v 48.53 12.78 49.03
v 50.15 13.13 47.21
v 49.65 15.54 47.23
v 72.85 20.81 71.07
v 71.39 20.48 73.03
v 49.65 15.54 47.23
v 48.03 15.19 49.05
v 72.11 23.15 70.90
v 72.85 20.81 71.07
v 48.03 15.19 49.05
v 48.53 12.78 49.03
v 70.64 22.83 72.86
v 72.11 23.15 70.90
v 48.53 12.78 49.03
v 50.15 13.13 47.21
v 71.39 20.48 73.03
v 70.64 22.83 72.86
v 71.39 20.48 73.03
v 72.85 20.81 71.07
v 98.78 31.51 89.81
v 97.98 33.83 89.60
v 72.85 20.81 71.07
v 72.11 23.15 70.90
v 100.00 31.73 87.68
v 98.78 31.51 89.81
v 72.11 23.15 70.90
v 70.64 22.83 72.86
v 99.19 34.05 87.46
v 100.00 31.73 87.68
v 70.64 22.83 72.86
v 71.39 20.48 73.03
v 97.98 33.83 89.60
v 99.19 34.05 87.46
v -1.66 7.82 4.06
v -1.13 5.41 4.06
v -2.68 5.06 5.94
v -3.22 7.47 5.94
v 97.98 33.83 89.60
v 98.78 31.51 89.81
v 100.00 31.73 87.68
v 99.19 34.05 87.46
vt 0.0000 0.0000
vt 0.0542 0.0000
vt 0.0375 0.1007
vt -0.0170 0.1016
vt 0.0000 0.0000
vt 0.0561 -0.0000
vt 0.0424 0.1018
vt -0.0169 0.1016
vt 0.0000 0.0000
vt 0.0542 -0.0000
vt 0.0373 0.1021
vt -0.0170 0.1016
vt 0.0000 0.0000
vt 0.0553 -0.0000
vt 0.0424 0.1036
vt -0.0149 0.1024
vt 0.0000 0.0000
vt 0.1121 -0.0000
vt 0.1136 0.0537
vt 0.0006 0.0523
vt 0.0000 0.0000
vt 0.1150 -0.0000
vt 0.1189 0.0533
vt 0.0010 0.0523
vt 0.0000 0.0000
vt 0.1121 -0.0000
vt 0.1177 0.0586
vt 0.0037 0.0577
vt 0.0000 0.0000
vt 0.1140 0.0000
vt 0.1197 0.0553
vt 0.0034 0.0536
vt 0.0000 0.0000
vt 0.1033 0.0000
vt 0.0957 0.0561
vt -0.0114 0.0543
vt 0.0000 0.0000
vt 0.1074 0.0000
vt 0.1014 0.0559
vt -0.0105 0.0545
vt 0.0000 0.0000
vt 0.1033 0.0000
vt 0.1003 0.0551
vt -0.0061 0.0567
vt 0.0000 0.0000
vt 0.1079 0.0000
vt 0.1062 0.0573
vt -0.0059 0.0559
vt 0.0000 0.0000
vt 0.0374 -0.0000
vt 0.0205 0.1090
vt -0.0217 0.1023
vt 0.0000 0.0000
vt 0.0431 -0.0000
vt 0.0464 0.1107
vt -0.0023 0.1045
vt 0.0000 0.0000
vt 0.0374 0.0000
vt 0.0211 0.1155
vt -0.0173 0.1090
vt 0.0000 0.0000
vt 0.0417 -0.0000
vt 0.0484 0.1166
vt 0.0022 0.1107
vt 0.0000 0.0000
vt 0.0560 -0.0000
vt 0.0658 0.0527
vt 0.0202 0.0509
vt 0.0000 0.0000
vt 0.0457 -0.0000
vt 0.0584 0.0494
vt 0.0231 0.0497
vt 0.0000 0.0000
vt 0.0560 0.0000
vt 0.0596 0.0525
vt 0.0137 0.0520
vt 0.0000 0.0000
vt 0.0459 0.0000
vt 0.0497 0.0518
vt 0.0133 0.0505
vt 0.0000 0.0000
vt 0.0596 0.0000
vt 0.0533 0.0517
vt -0.0036 0.0580
vt 0.0000 0.0000
vt 0.0573 0.0000
vt 0.0444 0.0487
vt -0.0121 0.0568
vt 0.0000 0.0000
vt 0.0596 -0.0000
vt 0.0472 0.0473
vt -0.0082 0.0515
vt 0.0000 0.0000
vt 0.0573 0.0000
vt 0.0431 0.0429
vt -0.0129 0.0495
vt 0.0000 0.0000
vt 0.0849 -0.0000
vt 0.0001 0.7453
vt 0.0001 0.7569
vt 0.0000 0.0000
vt 0.0849 0.0000
vt 0.0001 0.7403
vt -0.0000 0.7549
vt 0.0000 0.0000
vt 0.0849 0.0000
vt 0.0001 0.7423
vt 0.0001 0.7498
vt 0.0000 0.0000
vt 0.0849 0.0000
vt 0.0001 0.7474
vt -0.0000 0.7519
vt 0.0000 0.0000
vt 0.0849 0.0000
vt 0.0186 0.7458
vt 0.0186 0.7635
vt 0.0000 0.0000
vt 0.0849 0.0000
vt 0.0451 0.7371
vt 0.0448 0.7520
vt 0.0000 0.0000
vt 0.0849 0.0000
vt -0.0182 0.7415
vt -0.0182 0.7426
vt 0.0000 0.0000
vt 0.0849 0.0000
vt -0.0447 0.7479
vt -0.0450 0.7521
vt 0.0000 0.0000
vt 0.0849 -0.0000
vt 0.0748 0.7472
vt 0.0748 0.7531
vt 0.0000 0.0000
vt 0.0849 0.0000
vt 0.0475 0.7442
vt 0.0481 0.7505
vt 0.0000 0.0000
vt 0.0849 -0.0000
vt -0.0746 0.7329
vt -0.0746 0.7463
vt 0.0000 0.0000
vt 0.0849 0.0000
vt -0.0476 0.7404
vt -0.0470 0.7533
vt 0.0000 0.0000
vt 0.0849 0.0000
vt -0.0324 0.7396
vt -0.0324 0.7492
vt 0.0000 0.0000
vt 0.0849 0.0000
vt -0.0294 0.7434
vt -0.0293 0.7530
vt 0.0000 0.0000
vt 0.0849 0.0000
vt 0.0325 0.7466
vt 0.0325 0.7562
vt 0.0000 0.0000
vt 0.0849 -0.0000
vt 0.0293 0.7431
vt 0.0295 0.7526
vt 0.0000 0.0000
vt 0.0849 0.0000
vt 0.0849 0.0849
vt 0.0000 0.0849
vt 0.0000 0.0000
vt 0.0849 0.0000
vt 0.0849 0.0849
vt 0.0000 0.0849
vt 0.0000 0.0000
vt 0.0629 0.0000
vt 0.0000 0.6263
vt 0.0000 0.6494
vt 0.0000 0.0000
vt 0.0629 0.0000
vt 0.0014 0.6247
vt 0.0010 0.6322
vt 0.0000 0.0000
vt 0.0629 -0.0000
vt 0.0000 0.6422
vt 0.0000 0.6308
vt 0.0000 0.0000
vt 0.0629 0.0000
vt 0.0014 0.6434
vt 0.0010 0.6482
vt 0.0000 0.0000
vt 0.0629 0.0000
vt 0.1771 0.6166
vt 0.1771 0.6249
vt 0.0000 0.0000
vt 0.0629 0.0000
vt 0.0129 0.6258
vt 0.0127 0.6301
vt 0.0000 0.0000
vt 0.0629 -0.0000
vt -0.1752 0.6016
vt -0.1752 0.6061
vt 0.0000 0.0000
vt 0.0629 -0.0000
vt -0.0127 0.6421
vt -0.0129 0.6498
vt 0.0000 0.0000
vt 0.0629 0.0000
vt 0.0193 0.6314
vt 0.0193 0.6343
vt 0.0000 0.0000
vt 0.0629 -0.0000
vt -0.0186 0.6376
vt -0.0188 0.6357
vt 0.0000 0.0000
vt 0.0629 0.0000
vt -0.0190 0.6361
vt -0.0190 0.6455
vt 0.0000 0.0000
vt 0.0629 0.0000
vt 0.0188 0.6301
vt 0.0187 0.6441
vt 0.0000 0.0000
vt 0.0629 0.0000
vt -0.0340 0.6274
vt -0.0340 0.6336
vt 0.0000 0.0000
vt 0.0629 0.0000
vt -0.0808 0.6265
vt -0.0804 0.6328
vt 0.0000 0.0000
vt 0.0629 0.0000
vt 0.0341 0.6388
vt 0.0341 0.6449
vt 0.0000 0.0000
vt 0.0629 0.0000
vt 0.0809 0.6312
vt 0.0813 0.6374
vt 0.0000 0.0000
vt 0.0629 0.0000
vt 0.0629 0.0629
vt -0.0000 0.0629
vt 0.0000 0.0000
vt 0.0629 0.0000
vt 0.0629 0.0629
vt 0.0000 0.0629
vt 0.0000 0.0000
vt 0.0616 0.0000
vt 0.0000 0.8437
vt 0.0000 0.8478
vt 0.0000 0.0000
vt 0.0616 0.0000
vt -0.0000 0.8405
vt 0.0000 0.8482
vt 0.0000 0.0000
vt 0.0616 0.0000
vt 0.0000 0.8401
vt 0.0000 0.8450
vt 0.0000 0.0000
vt 0.0616 0.0000
vt -0.0000 0.8433
vt 0.0000 0.8446
vt 0.0000 0.0000
vt 0.0616 0.0000
vt -0.0050 0.8421
vt -0.0050 0.8520
vt 0.0000 0.0000
vt 0.0616 0.0000
vt 0.0442 0.8383
vt 0.0441 0.8457
vt 0.0000 0.0000
vt 0.0616 0.0000
vt 0.0051 0.8417
vt 0.0051 0.8406
vt 0.0000 0.0000
vt 0.0616 0.0000
vt -0.0441 0.8432
vt -0.0442 0.8447
vt 0.0000 0.0000
vt 0.0616 0.0000
vt 0.0766 0.8398
vt 0.0766 0.8522
vt 0.0000 0.0000
vt 0.0616 0.0000
vt 0.0415 0.8345
vt 0.0408 0.8411
vt 0.0000 0.0000
vt 0.0616 0.0000
vt -0.0762 0.8371
vt -0.0762 0.8335
vt 0.0000 0.0000
vt 0.0616 0.0000
vt -0.0406 0.8473
vt -0.0412 0.8496
vt 0.0000 0.0000
vt 0.0616 -0.0000
vt 0.1108 0.8397
vt 0.1108 0.8442
vt 0.0000 0.0000
vt 0.0616 0.0000
vt 0.0280 0.8384
vt 0.0282 0.8429
vt 0.0000 0.0000
vt 0.0616 0.0000
vt -0.1102 0.8295
vt -0.1102 0.8341
vt 0.0000 0.0000
vt 0.0616 -0.0000
vt -0.0282 0.8444
vt -0.0279 0.8489
vt 0.0000 0.0000
vt 0.0616 0.0000
vt 0.0616 0.0616
vt 0.0000 0.0616
vt 0.0000 0.0000
vt 0.0616 0.0000
vt 0.0616 0.0616
vt 0.0000 0.0616
usemtl concrete
f 1/1 2/2 3/3
f 1/1 3/3 4/4
f 5/5 6/6 7/7
f 5/5 7/7 8/8
f 9/9 10/10 11/11
f 9/9 11/11 12/12
f 13/13 14/14 15/15
f 13/13 15/15 16/16
f 17/17 18/18 19/19
f 17/17 19/19 20/20
f 21/21 22/22 23/23
f 21/21 23/23 24/24
f 25/25 26/26 27/27
f 25/25 27/27 28/28
f 29/29 30/30 31/31
f 29/29 31/31 32/32
f 33/33 34/34 35/35
f 33/33 35/35 36/36
f 37/37 38/38 39/39
f 37/37 39/39 40/40
f 41/41 42/42 43/43
f 41/41 43/43 44/44
f 45/45 46/46 47/47
f 45/45 47/47 48/48
f 49/49 50/50 51/51
f 49/49 51/51 52/52
f 53/53 54/54 55/55
f 53/53 55/55 56/56
f 57/57 58/58 59/59
f 57/57 59/59 60/60
f 61/61 62/62 63/63
f 61/61 63/63 64/64
f 65/65 66/66 67/67
f 65/65 67/67 68/68
f 69/69 70/70 71/71
f 69/69 71/71 72/72
f 73/73 74/74 75/75
f 73/73 75/75 76/76
f 77/77 78/78 79/79
f 77/77 79/79 80/80
f 81/81 82/82 83/83
f 81/81 83/83 84/84
f 85/85 86/86 87/87
f 85/85 87/87 88/88
f 89/89 90/90 91/91
f 89/89 91/91 92/92
f 93/93 94/94 95/95
f 93/93 95/95 96/96
usemtl rebar
f 97/97 98/98 99/99
f 97/97 99/99 100/100
f 101/101 102/102 103/103
f 101/101 103/103 104/104
f 105/105 106/106 107/107
f 105/105 107/107 108/108
f 109/109 110/110 111/111
f 109/109 111/111 112/112
f 113/113 114/114 115/115
f 113/113 115/115 116/116
f 117/117 118/118 119/119
f 117/117 119/119 120/120
f 121/121 122/122 123/123
f 121/121 123/123 124/124
f 125/125 126/126 127/127
f 125/125 127/127 128/128
f 129/129 130/130 131/131
f 129/129 131/131 132/132
f 133/133 134/134 135/135
f 133/133 135/135 136/136
f 137/137 138/138 139/139
f 137/137 139/139 140/140
f 141/141 142/142 143/143
f 141/141 143/143 144/144
f 145/145 146/146 147/147
f 145/145 147/147 148/148
f 149/149 150/150 151/151
f 149/149 151/151 152/152
f 153/153 154/154 155/155
f 153/153 155/155 156/156
f 157/157 158/158 159/159
f 157/157 159/159 160/160
f 161/161 162/162 163/163
f 161/161 163/163 164/164
f 165/165 166/166 167/167
f 165/165 167/167 168/168
f 169/169 170/170 171/171
f 169/169 171/171 172/172
f 173/173 174/174 175/175
f 173/173 175/175 176/176
f 177/177 178/178 179/179
f 177/177 179/179 180/180
f 181/181 182/182 183/183
f 181/181 183/183 184/184
f 185/185 186/186 187/187
f 185/185 187/187 188/188
f 189/189 190/190 191/191
f 189/189 191/191 192/192
f 193/193 194/194 195/195
f 193/193 195/195 196/196
f 197/197 198/198 199/199
f 197/197 199/199 200/200
f 201/201 202/202 203/203
f 201/201 203/203 204/204
f 205/205 206/206 207/207
f 205/205 207/207 208/208
f 209/209 210/210 211/211
f 209/209 211/211 212/212
f 213/213 214/214 215/215
f 213/213 215/215 216/216
f 217/217 218/218 219/219
f 217/217 219/219 220/220
f 221/221 222/222 223/223
f 221/221 223/223 224/224
f 225/225 226/226 227/227
f 225/225 227/227 228/228
f 229/229 230/230 231/231
f 229/229 231/231 232/232
f 233/233 234/234 235/235
f 233/233 235/235 236/236
f 237/237 238/238 239/239
f 237/237 239/239 240/240
f 241/241 242/242 243/243
f 241/241 243/243 244/244
f 245/245 246/246 247/247
f 245/245 247/247 248/248
f 249/249 250/250 251/251
f 249/249 251/251 252/252
f 253/253 254/254 255/255
f 253/253 255/255 256/256
f 257/257 258/258 259/259
f 257/257 259/259 260/260
f 261/261 262/262 263/263
f 261/261 263/263 264/264
f 265/265 266/266 267/267
f 265/265 267/267 268/268
f 269/269 270/270 271/271
f 269/269 271/271 272/272
f 273/273 274/274 275/275
f 273/273 275/275 276/276
f 277/277 278/278 279/279
f 277/277 279/279 280/280
f 281/281 282/282 283/283
f 281/281 283/283 284/284
f 285/285 286/286 287/287
f 285/285 287/287 288/288
f 289/289 290/290 291/291
f 289/289 291/291 292/292
f 293/293 294/294 295/295
f 293/293 295/295 296/296
f 297/297 298/298 299/299
f 297/297 299/299 300/300
f 301/301 302/302 303/303
f 301/301 303/303 304/304
f 305/305 306/306 307/307
f 305/305 307/307 308/308
f 309/309 310/310 311/311
f 309/309 311/311 312/312
