# S_slab_1 (Sightline generated, CENTIMETRES, +Z up)
v -87.46 -0.40 -10.10
v -93.20 -14.01 -9.82
v -93.20 -14.01 9.04
v -87.46 -0.40 8.75
v -93.20 -14.01 -9.82
v -86.68 -25.67 -9.54
v -86.68 -25.67 9.33
v -93.20 -14.01 9.04
v -86.68 -25.67 -9.54
v -89.35 -39.50 -9.43
v -89.35 -39.50 9.43
v -86.68 -25.67 9.33
v -89.35 -39.50 -9.43
v -71.46 -43.38 -9.42
v -71.46 -43.38 9.45
v -89.35 -39.50 9.43
v -71.46 -43.38 -9.42
v -55.74 -48.37 -9.52
v -55.74 -48.37 9.34
v -71.46 -43.38 9.45
v -55.74 -48.37 -9.52
v -40.78 -54.73 -9.77
v -40.78 -54.73 9.09
v -55.74 -48.37 9.34
v -40.78 -54.73 -9.77
v -23.49 -58.10 -10.10
v -23.49 -58.10 8.75
v -40.78 -54.73 9.09
v -23.49 -58.10 -10.10
v -7.11 -61.88 -10.53
v -7.11 -61.88 8.31
v -23.49 -58.10 8.75
v -7.11 -61.88 -10.53
v 7.52 -56.08 -10.60
v 7.52 -56.08 8.23
v -7.11 -61.88 8.31
v 7.52 -56.08 -10.60
v 33.77 -50.16 -10.94
v 33.77 -50.16 7.88
v 7.52 -56.08 8.23
v 33.77 -50.16 -10.94
v 58.05 -27.77 -10.53
v 58.05 -27.77 8.31
v 33.77 -50.16 7.88
v 58.05 -27.77 -10.53
v 64.42 -4.04 -9.87
v 64.42 -4.04 8.99
v 58.05 -27.77 8.31
v 64.42 -4.04 -9.87
v 90.95 14.93 -9.77
v 90.95 14.93 9.09
v 64.42 -4.04 8.99
v 90.95 14.93 -9.77
v 83.92 23.15 -9.55
v 83.92 23.15 9.31
v 90.95 14.93 9.09
v 83.92 23.15 -9.55
v 48.46 21.11 -9.39
v 48.46 21.11 9.48
v 83.92 23.15 9.31
v 48.46 21.11 -9.39
v 70.76 48.27 -9.45
v 70.76 48.27 9.42
v 48.46 21.11 9.48
v 70.76 48.27 -9.45
v 44.20 49.22 -9.62
v 44.20 49.22 9.24
v 70.76 48.27 9.42
v 44.20 49.22 -9.62
v 30.64 63.18 -10.14
v 30.64 63.18 8.70
v 44.20 49.22 9.24
v 30.64 63.18 -10.14
v 10.88 63.56 -10.52
v 10.88 63.56 8.32
v 30.64 63.18 8.70
v 10.88 63.56 -10.52
v -4.74 62.92 -10.83
v -4.74 62.92 7.99
v 10.88 63.56 8.32
v -4.74 62.92 -10.83
v -22.30 58.53 -11.05
v -22.30 58.53 7.77
v -4.74 62.92 7.99
v -22.30 58.53 -11.05
v -37.49 47.80 -10.92
v -37.49 47.80 7.90
v -22.30 58.53 7.77
v -37.49 47.80 -10.92
v -53.56 39.92 -10.95
v -53.56 39.92 7.88
v -37.49 47.80 7.90
v -53.56 39.92 -10.95
v -71.43 33.05 -11.07
v -71.43 33.05 7.75
v -53.56 39.92 7.88
v -71.43 33.05 -11.07
v -89.34 25.62 -11.17
v -89.34 25.62 7.64
v -71.43 33.05 7.75
v -89.34 25.62 -11.17
v -87.31 12.33 -10.54
v -87.31 12.33 8.29
v -89.34 25.62 7.64
v -87.31 12.33 -10.54
v -87.46 -0.40 -10.10
v -87.46 -0.40 8.75
v -87.31 12.33 8.29
v -87.46 -0.40 8.75
v -93.20 -14.01 9.04
v -57.78 -8.68 9.32
v -54.22 -0.24 9.21
v -93.20 -14.01 -9.82
v -87.46 -0.40 -10.10
v -54.22 -0.24 -8.69
v -57.78 -8.68 -8.58
v -93.20 -14.01 9.04
v -86.68 -25.67 9.33
v -53.74 -15.91 9.43
v -57.78 -8.68 9.32
v -86.68 -25.67 -9.54
v -93.20 -14.01 -9.82
v -57.78 -8.68 -8.58
v -53.74 -15.91 -8.48
v -86.68 -25.67 9.33
v -89.35 -39.50 9.43
v -55.40 -24.49 9.47
v -53.74 -15.91 9.43
v -89.35 -39.50 -9.43
v -86.68 -25.67 -9.54
v -53.74 -15.91 -8.48
v -55.40 -24.49 -8.44
v -89.35 -39.50 9.43
v -71.46 -43.38 9.45
v -44.31 -26.89 9.48
v -55.40 -24.49 9.47
v -71.46 -43.38 -9.42
v -89.35 -39.50 -9.43
v -55.40 -24.49 -8.44
v -44.31 -26.89 -8.43
v -71.46 -43.38 9.45
v -55.74 -48.37 9.34
v -34.56 -29.99 9.44
v -44.31 -26.89 9.48
v -55.74 -48.37 -9.52
v -71.46 -43.38 -9.42
v -44.31 -26.89 -8.43
v -34.56 -29.99 -8.47
v -55.74 -48.37 9.34
v -40.78 -54.73 9.09
v -25.29 -33.93 9.34
v -34.56 -29.99 9.44
v -40.78 -54.73 -9.77
v -55.74 -48.37 -9.52
v -34.56 -29.99 -8.47
v -25.29 -33.93 -8.56
v -40.78 -54.73 9.09
v -23.49 -58.10 8.75
v -14.56 -36.02 9.21
v -25.29 -33.93 9.34
v -23.49 -58.10 -10.10
v -40.78 -54.73 -9.77
v -25.29 -33.93 -8.56
v -14.56 -36.02 -8.69
v -23.49 -58.10 8.75
v -7.11 -61.88 8.31
v -4.41 -38.37 9.04
v -14.56 -36.02 9.21
v -7.11 -61.88 -10.53
v -23.49 -58.10 -10.10
v -14.56 -36.02 -8.69
v -4.41 -38.37 -8.86
v -7.11 -61.88 8.31
v 7.52 -56.08 8.23
v 4.66 -34.77 9.01
v -4.41 -38.37 9.04
v 7.52 -56.08 -10.60
v -7.11 -61.88 -10.53
v -4.41 -38.37 -8.86
v 4.66 -34.77 -8.88
v 7.52 -56.08 8.23
v 33.77 -50.16 7.88
v 20.94 -31.10 8.88
v 4.66 -34.77 9.01
v 33.77 -50.16 -10.94
v 7.52 -56.08 -10.60
v 4.66 -34.77 -8.88
v 20.94 -31.10 -9.01
v 33.77 -50.16 7.88
v 58.05 -27.77 8.31
v 35.99 -17.22 9.04
v 20.94 -31.10 8.88
v 58.05 -27.77 -10.53
v 33.77 -50.16 -10.94
v 20.94 -31.10 -9.01
v 35.99 -17.22 -8.86
v 58.05 -27.77 8.31
v 64.42 -4.04 8.99
v 39.94 -2.51 9.30
v 35.99 -17.22 9.04
v 64.42 -4.04 -9.87
v 58.05 -27.77 -10.53
v 35.99 -17.22 -8.86
v 39.94 -2.51 -8.60
v 64.42 -4.04 8.99
v 90.95 14.93 9.09
v 56.39 9.26 9.34
v 39.94 -2.51 9.30
v 90.95 14.93 -9.77
v 64.42 -4.04 -9.87
v 39.94 -2.51 -8.60
v 56.39 9.26 -8.57
v 90.95 14.93 9.09
v 83.92 23.15 9.31
v 52.03 14.36 9.43
v 56.39 9.26 9.34
v 83.92 23.15 -9.55
v 90.95 14.93 -9.77
v 56.39 9.26 -8.57
v 52.03 14.36 -8.48
v 83.92 23.15 9.31
v 48.46 21.11 9.48
v 30.05 13.09 9.49
v 52.03 14.36 9.43
v 48.46 21.11 -9.39
v 83.92 23.15 -9.55
v 52.03 14.36 -8.48
v 30.05 13.09 -8.42
v 48.46 21.11 9.48
v 70.76 48.27 9.42
v 43.87 29.92 9.47
v 30.05 13.09 9.49
v 70.76 48.27 -9.45
v 48.46 21.11 -9.39
v 30.05 13.09 -8.42
v 43.87 29.92 -8.44
v 70.76 48.27 9.42
v 44.20 49.22 9.24
v 27.41 30.52 9.40
v 43.87 29.92 9.47
v 44.20 49.22 -9.62
v 70.76 48.27 -9.45
v 43.87 29.92 -8.44
v 27.41 30.52 -8.51
v 44.20 49.22 9.24
v 30.64 63.18 8.70
v 19.00 39.17 9.19
v 27.41 30.52 9.40
v 30.64 63.18 -10.14
v 44.20 49.22 -9.62
v 27.41 30.52 -8.51
v 19.00 39.17 -8.71
v 30.64 63.18 8.70
v 10.88 63.56 8.32
v 6.75 39.41 9.04
v 19.00 39.17 9.19
v 10.88 63.56 -10.52
v 30.64 63.18 -10.14
v 19.00 39.17 -8.71
v 6.75 39.41 -8.85
v 10.88 63.56 8.32
v -4.74 62.92 7.99
v -2.94 39.01 8.92
v 6.75 39.41 9.04
v -4.74 62.92 -10.83
v 10.88 63.56 -10.52
v 6.75 39.41 -8.85
v -2.94 39.01 -8.97
v -4.74 62.92 7.99
v -22.30 58.53 7.77
v -13.82 36.29 8.83
v -2.94 39.01 8.92
v -22.30 58.53 -11.05
v -4.74 62.92 -10.83
v -2.94 39.01 -8.97
v -13.82 36.29 -9.06
v -22.30 58.53 7.77
v -37.49 47.80 7.90
v -23.24 29.64 8.89
v -13.82 36.29 8.83
v -37.49 47.80 -10.92
v -22.30 58.53 -11.05
v -13.82 36.29 -9.06
v -23.24 29.64 -9.01
v -37.49 47.80 7.90
v -53.56 39.92 7.88
v -33.21 24.75 8.88
v -23.24 29.64 8.89
v -53.56 39.92 -10.95
v -37.49 47.80 -10.92
v -23.24 29.64 -9.01
v -33.21 24.75 -9.02
v -53.56 39.92 7.88
v -71.43 33.05 7.75
v -44.29 20.49 8.83
v -33.21 24.75 8.88
v -71.43 33.05 -11.07
v -53.56 39.92 -10.95
v -33.21 24.75 -9.02
v -44.29 20.49 -9.06
v -71.43 33.05 7.75
v -89.34 25.62 7.64
v -55.39 15.89 8.79
v -44.29 20.49 8.83
v -89.34 25.62 -11.17
v -71.43 33.05 -11.07
v -44.29 20.49 -9.06
v -55.39 15.89 -9.10
v -89.34 25.62 7.64
v -87.31 12.33 8.29
v -54.13 7.64 9.04
v -55.39 15.89 8.79
v -87.31 12.33 -10.54
v -89.34 25.62 -11.17
v -55.39 15.89 -9.10
v -54.13 7.64 -8.86
v -87.31 12.33 8.29
v -87.46 -0.40 8.75
v -54.22 -0.24 9.21
v -54.13 7.64 9.04
v -87.46 -0.40 -10.10
v -87.31 12.33 -10.54
v -54.13 7.64 -8.86
v -54.22 -0.24 -8.69
v -54.22 -0.24 9.21
v -57.78 -8.68 9.32
v -27.96 -4.20 9.46
v -26.24 -0.12 9.43
v -57.78 -8.68 -8.58
v -54.22 -0.24 -8.69
v -26.24 -0.12 -8.70
v -27.96 -4.20 -8.67
v -57.78 -8.68 9.32
v -53.74 -15.91 9.43
v -26.00 -7.70 9.48
v -27.96 -4.20 9.46
v -53.74 -15.91 -8.48
v -57.78 -8.68 -8.58
v -27.96 -4.20 -8.67
v -26.00 -7.70 -8.65
v -53.74 -15.91 9.43
v -55.40 -24.49 9.47
v -26.81 -11.85 9.49
v -26.00 -7.70 9.48
v -55.40 -24.49 -8.44
v -53.74 -15.91 -8.48
v -26.00 -7.70 -8.65
v -26.81 -11.85 -8.64
v -55.40 -24.49 9.47
v -44.31 -26.89 9.48
v -21.44 -13.01 9.50
v -26.81 -11.85 9.49
v -44.31 -26.89 -8.43
v -55.40 -24.49 -8.44
v -26.81 -11.85 -8.64
v -21.44 -13.01 -8.64
v -44.31 -26.89 9.48
v -34.56 -29.99 9.44
v -16.72 -14.51 9.49
v -21.44 -13.01 9.50
v -34.56 -29.99 -8.47
v -44.31 -26.89 -8.43
v -21.44 -13.01 -8.64
v -16.72 -14.51 -8.64
v -34.56 -29.99 9.44
v -25.29 -33.93 9.34
v -12.24 -16.42 9.46
v -16.72 -14.51 9.49
v -25.29 -33.93 -8.56
v -34.56 -29.99 -8.47
v -16.72 -14.51 -8.64
v -12.24 -16.42 -8.67
v -25.29 -33.93 9.34
v -14.56 -36.02 9.21
v -7.05 -17.43 9.43
v -12.24 -16.42 9.46
v -14.56 -36.02 -8.69
v -25.29 -33.93 -8.56
v -12.24 -16.42 -8.67
v -7.05 -17.43 -8.70
v -14.56 -36.02 9.21
v -4.41 -38.37 9.04
v -2.13 -18.56 9.39
v -7.05 -17.43 9.43
v -4.41 -38.37 -8.86
v -14.56 -36.02 -8.69
v -7.05 -17.43 -8.70
v -2.13 -18.56 -8.74
v -4.41 -38.37 9.04
v 4.66 -34.77 9.01
v 2.26 -16.82 9.39
v -2.13 -18.56 9.39
v 4.66 -34.77 -8.88
v -4.41 -38.37 -8.86
v -2.13 -18.56 -8.74
v 2.26 -16.82 -8.74
v 4.66 -34.77 9.01
v 20.94 -31.10 8.88
v 10.13 -15.05 9.35
v 2.26 -16.82 9.39
v 20.94 -31.10 -9.01
v 4.66 -34.77 -8.88
v 2.26 -16.82 -8.74
v 10.13 -15.05 -8.77
v 20.94 -31.10 8.88
v 35.99 -17.22 9.04
v 17.42 -8.33 9.39
v 10.13 -15.05 9.35
v 35.99 -17.22 -8.86
v 20.94 -31.10 -9.01
v 10.13 -15.05 -8.77
v 17.42 -8.33 -8.74
v 35.99 -17.22 9.04
v 39.94 -2.51 9.30
v 19.33 -1.21 9.45
v 17.42 -8.33 9.39
v 39.94 -2.51 -8.60
v 35.99 -17.22 -8.86
v 17.42 -8.33 -8.74
v 19.33 -1.21 -8.68
v 39.94 -2.51 9.30
v 56.39 9.26 9.34
v 27.29 4.48 9.46
v 19.33 -1.21 9.45
v 56.39 9.26 -8.57
v 39.94 -2.51 -8.60
v 19.33 -1.21 -8.68
v 27.29 4.48 -8.67
v 56.39 9.26 9.34
v 52.03 14.36 9.43
v 25.18 6.95 9.48
v 27.29 4.48 9.46
v 52.03 14.36 -8.48
v 56.39 9.26 -8.57
v 27.29 4.48 -8.67
v 25.18 6.95 -8.65
v 52.03 14.36 9.43
v 30.05 13.09 9.49
v 14.54 6.33 9.50
v 25.18 6.95 9.48
v 30.05 13.09 -8.42
v 52.03 14.36 -8.48
v 25.18 6.95 -8.65
v 14.54 6.33 -8.63
v 30.05 13.09 9.49
v 43.87 29.92 9.47
v 21.23 14.48 9.49
v 14.54 6.33 9.50
v 43.87 29.92 -8.44
v 30.05 13.09 -8.42
v 14.54 6.33 -8.63
v 21.23 14.48 -8.64
v 43.87 29.92 9.47
v 27.41 30.52 9.40
v 13.26 14.77 9.48
v 21.23 14.48 9.49
v 27.41 30.52 -8.51
v 43.87 29.92 -8.44
v 21.23 14.48 -8.64
v 13.26 14.77 -8.65
v 27.41 30.52 9.40
v 19.00 39.17 9.19
v 9.19 18.95 9.43
v 13.26 14.77 9.48
v 19.00 39.17 -8.71
v 27.41 30.52 -8.51
v 13.26 14.77 -8.65
v 9.19 18.95 -8.70
v 19.00 39.17 9.19
v 6.75 39.41 9.04
v 3.26 19.07 9.39
v 9.19 18.95 9.43
v 6.75 39.41 -8.85
v 19.00 39.17 -8.71
v 9.19 18.95 -8.70
v 3.26 19.07 -8.73
v 6.75 39.41 9.04
v -2.94 39.01 8.92
v -1.42 18.88 9.36
v 3.26 19.07 9.39
v -2.94 39.01 -8.97
v 6.75 39.41 -8.85
v 3.26 19.07 -8.73
v -1.42 18.88 -8.76
v -2.94 39.01 8.92
v -13.82 36.29 8.83
v -6.69 17.56 9.34
v -1.42 18.88 9.36
v -13.82 36.29 -9.06
v -2.94 39.01 -8.97
v -1.42 18.88 -8.76
v -6.69 17.56 -8.78
v -13.82 36.29 8.83
v -23.24 29.64 8.89
v -11.25 14.34 9.36
v -6.69 17.56 9.34
v -23.24 29.64 -9.01
v -13.82 36.29 -9.06
v -6.69 17.56 -8.78
v -11.25 14.34 -8.77
v -23.24 29.64 8.89
v -33.21 24.75 8.88
v -16.07 11.98 9.35
v -11.25 14.34 9.36
v -33.21 24.75 -9.02
v -23.24 29.64 -9.01
v -11.25 14.34 -8.77
v -16.07 11.98 -8.77
v -33.21 24.75 8.88
v -44.29 20.49 8.83
v -21.43 9.91 9.34
v -16.07 11.98 9.35
v -44.29 20.49 -9.06
v -33.21 24.75 -9.02
v -16.07 11.98 -8.77
v -21.43 9.91 -8.78
v -44.29 20.49 8.83
v -55.39 15.89 8.79
v -26.80 7.69 9.33
v -21.43 9.91 9.34
v -55.39 15.89 -9.10
v -44.29 20.49 -9.06
v -21.43 9.91 -8.78
v -26.80 7.69 -8.79
v -55.39 15.89 8.79
v -54.13 7.64 9.04
v -26.19 3.70 9.39
v -26.80 7.69 9.33
v -54.13 7.64 -8.86
v -55.39 15.89 -9.10
v -26.80 7.69 -8.79
v -26.19 3.70 -8.74
v -54.13 7.64 9.04
v -54.22 -0.24 9.21
v -26.24 -0.12 9.43
v -26.19 3.70 9.39
v -54.22 -0.24 -8.69
v -54.13 7.64 -8.86
v -26.19 3.70 -8.74
v -26.24 -0.12 -8.70
v -26.24 -0.12 9.43
v -27.96 -4.20 9.46
v 0.00 0.00 9.50
v -27.96 -4.20 -8.67
v -26.24 -0.12 -8.70
v 0.00 0.00 -9.50
v -27.96 -4.20 9.46
v -26.00 -7.70 9.48
v 0.00 0.00 9.50
v -26.00 -7.70 -8.65
v -27.96 -4.20 -8.67
v 0.00 0.00 -9.50
v -26.00 -7.70 9.48
v -26.81 -11.85 9.49
v 0.00 0.00 9.50
v -26.81 -11.85 -8.64
v -26.00 -7.70 -8.65
v 0.00 0.00 -9.50
v -26.81 -11.85 9.49
v -21.44 -13.01 9.50
v 0.00 0.00 9.50
v -21.44 -13.01 -8.64
v -26.81 -11.85 -8.64
v 0.00 0.00 -9.50
v -21.44 -13.01 9.50
v -16.72 -14.51 9.49
v 0.00 0.00 9.50
v -16.72 -14.51 -8.64
v -21.44 -13.01 -8.64
v 0.00 0.00 -9.50
v -16.72 -14.51 9.49
v -12.24 -16.42 9.46
v 0.00 0.00 9.50
v -12.24 -16.42 -8.67
v -16.72 -14.51 -8.64
v 0.00 0.00 -9.50
v -12.24 -16.42 9.46
v -7.05 -17.43 9.43
v 0.00 0.00 9.50
v -7.05 -17.43 -8.70
v -12.24 -16.42 -8.67
v 0.00 0.00 -9.50
v -7.05 -17.43 9.43
v -2.13 -18.56 9.39
v 0.00 0.00 9.50
v -2.13 -18.56 -8.74
v -7.05 -17.43 -8.70
v 0.00 0.00 -9.50
v -2.13 -18.56 9.39
v 2.26 -16.82 9.39
v 0.00 0.00 9.50
v 2.26 -16.82 -8.74
v -2.13 -18.56 -8.74
v 0.00 0.00 -9.50
v 2.26 -16.82 9.39
v 10.13 -15.05 9.35
v 0.00 0.00 9.50
v 10.13 -15.05 -8.77
v 2.26 -16.82 -8.74
v 0.00 0.00 -9.50
v 10.13 -15.05 9.35
v 17.42 -8.33 9.39
v 0.00 0.00 9.50
v 17.42 -8.33 -8.74
v 10.13 -15.05 -8.77
v 0.00 0.00 -9.50
v 17.42 -8.33 9.39
v 19.33 -1.21 9.45
v 0.00 0.00 9.50
v 19.33 -1.21 -8.68
v 17.42 -8.33 -8.74
v 0.00 0.00 -9.50
v 19.33 -1.21 9.45
v 27.29 4.48 9.46
v 0.00 0.00 9.50
v 27.29 4.48 -8.67
v 19.33 -1.21 -8.68
v 0.00 0.00 -9.50
v 27.29 4.48 9.46
v 25.18 6.95 9.48
v 0.00 0.00 9.50
v 25.18 6.95 -8.65
v 27.29 4.48 -8.67
v 0.00 0.00 -9.50
v 25.18 6.95 9.48
v 14.54 6.33 9.50
v 0.00 0.00 9.50
v 14.54 6.33 -8.63
v 25.18 6.95 -8.65
v 0.00 0.00 -9.50
v 14.54 6.33 9.50
v 21.23 14.48 9.49
v 0.00 0.00 9.50
v 21.23 14.48 -8.64
v 14.54 6.33 -8.63
v 0.00 0.00 -9.50
v 21.23 14.48 9.49
v 13.26 14.77 9.48
v 0.00 0.00 9.50
v 13.26 14.77 -8.65
v 21.23 14.48 -8.64
v 0.00 0.00 -9.50
v 13.26 14.77 9.48
v 9.19 18.95 9.43
v 0.00 0.00 9.50
v 9.19 18.95 -8.70
v 13.26 14.77 -8.65
v 0.00 0.00 -9.50
v 9.19 18.95 9.43
v 3.26 19.07 9.39
v 0.00 0.00 9.50
v 3.26 19.07 -8.73
v 9.19 18.95 -8.70
v 0.00 0.00 -9.50
v 3.26 19.07 9.39
v -1.42 18.88 9.36
v 0.00 0.00 9.50
v -1.42 18.88 -8.76
v 3.26 19.07 -8.73
v 0.00 0.00 -9.50
v -1.42 18.88 9.36
v -6.69 17.56 9.34
v 0.00 0.00 9.50
v -6.69 17.56 -8.78
v -1.42 18.88 -8.76
v 0.00 0.00 -9.50
v -6.69 17.56 9.34
v -11.25 14.34 9.36
v 0.00 0.00 9.50
v -11.25 14.34 -8.77
v -6.69 17.56 -8.78
v 0.00 0.00 -9.50
v -11.25 14.34 9.36
v -16.07 11.98 9.35
v 0.00 0.00 9.50
v -16.07 11.98 -8.77
v -11.25 14.34 -8.77
v 0.00 0.00 -9.50
v -16.07 11.98 9.35
v -21.43 9.91 9.34
v 0.00 0.00 9.50
v -21.43 9.91 -8.78
v -16.07 11.98 -8.77
v 0.00 0.00 -9.50
v -21.43 9.91 9.34
v -26.80 7.69 9.33
v 0.00 0.00 9.50
v -26.80 7.69 -8.79
v -21.43 9.91 -8.78
v 0.00 0.00 -9.50
v -26.80 7.69 9.33
v -26.19 3.70 9.39
v 0.00 0.00 9.50
v -26.19 3.70 -8.74
v -26.80 7.69 -8.79
v 0.00 0.00 -9.50
v -26.19 3.70 9.39
v -26.24 -0.12 9.43
v 0.00 0.00 9.50
v -26.24 -0.12 -8.70
v -26.19 3.70 -8.74
v 0.00 0.00 -9.50
v 90.51 16.49 6.15
v 91.61 13.45 6.15
v 109.06 23.16 4.70
v 109.05 23.16 1.46
v 91.61 13.45 6.15
v 91.39 13.36 2.92
v 109.94 20.04 4.70
v 109.06 23.16 4.70
v 91.39 13.36 2.92
v 90.29 16.41 2.92
v 109.93 20.04 1.46
v 109.94 20.04 4.70
v 90.29 16.41 2.92
v 90.51 16.49 6.15
v 109.05 23.16 1.46
v 109.93 20.04 1.46
v 109.05 23.16 1.46
v 109.06 23.16 4.70
v 128.48 27.17 2.80
v 129.62 24.14 2.80
v 109.06 23.16 4.70
v 109.94 20.04 4.70
v 128.00 26.99 6.00
v 128.48 27.17 2.80
v 109.94 20.04 4.70
v 109.93 20.04 1.46
v 129.14 23.96 6.00
v 128.00 26.99 6.00
v 109.93 20.04 1.46
v 109.05 23.16 1.46
v 129.62 24.14 2.80
v 129.14 23.96 6.00
v 129.62 24.14 2.80
v 128.48 27.17 2.80
v 146.85 33.99 7.83
v 145.76 33.58 10.85
v 128.48 27.17 2.80
v 128.00 26.99 6.00
v 145.09 36.69 7.56
v 146.85 33.99 7.83
v 128.00 26.99 6.00
v 129.14 23.96 6.00
v 144.00 36.28 10.58
v 145.09 36.69 7.56
v 129.14 23.96 6.00
v 129.62 24.14 2.80
v 145.76 33.58 10.85
v 144.00 36.28 10.58
v 145.76 33.58 10.85
v 146.85 33.99 7.83
v 159.19 44.92 19.71
v 157.25 47.49 19.36
v 146.85 33.99 7.83
v 145.09 36.69 7.56
v 160.55 45.56 16.84
v 159.19 44.92 19.71
v 145.09 36.69 7.56
v 144.00 36.28 10.58
v 158.61 48.13 16.49
v 160.55 45.56 16.84
v 144.00 36.28 10.58
v 145.76 33.58 10.85
v 157.25 47.49 19.36
v 158.61 48.13 16.49
v 90.29 16.41 2.92
v 91.39 13.36 2.92
v 91.61 13.45 6.15
v 90.51 16.49 6.15
v 157.25 47.49 19.36
v 159.19 44.92 19.71
v 160.55 45.56 16.84
v 158.61 48.13 16.49
v 83.70 24.46 5.60
v 84.84 22.19 5.60
v 94.35 29.78 1.86
v 93.41 29.30 -0.45
v 84.84 22.19 5.60
v 84.15 21.85 3.18
v 95.92 27.79 1.63
v 94.35 29.78 1.86
v 84.15 21.85 3.18
v 83.01 24.12 3.18
v 94.97 27.31 -0.68
v 95.92 27.79 1.63
v 83.01 24.12 3.18
v 83.70 24.46 5.60
v 93.41 29.30 -0.45
v 94.97 27.31 -0.68
v 93.41 29.30 -0.45
v 94.35 29.78 1.86
v 99.23 37.88 -6.18
v 101.07 36.17 -6.58
v 94.35 29.78 1.86
v 95.92 27.79 1.63
v 100.72 39.08 -4.50
v 99.23 37.88 -6.18
v 95.92 27.79 1.63
v 94.97 27.31 -0.68
v 102.55 37.37 -4.90
v 100.72 39.08 -4.50
v 94.97 27.31 -0.68
v 93.41 29.30 -0.45
v 101.07 36.17 -6.58
v 102.55 37.37 -4.90
v 101.07 36.17 -6.58
v 99.23 37.88 -6.18
v 103.62 40.51 -17.75
v 105.27 41.98 -16.50
v 99.23 37.88 -6.18
v 100.72 39.08 -4.50
v 101.83 42.30 -17.50
v 103.62 40.51 -17.75
v 100.72 39.08 -4.50
v 102.55 37.37 -4.90
v 103.48 43.77 -16.25
v 101.83 42.30 -17.50
v 102.55 37.37 -4.90
v 101.07 36.17 -6.58
v 105.27 41.98 -16.50
v 103.48 43.77 -16.25
v 105.27 41.98 -16.50
v 103.62 40.51 -17.75
v 109.80 47.68 -26.61
v 108.02 49.48 -26.39
v 103.62 40.51 -17.75
v 101.83 42.30 -17.50
v 108.24 46.32 -28.08
v 109.80 47.68 -26.61
v 101.83 42.30 -17.50
v 103.48 43.77 -16.25
v 106.46 48.12 -27.86
v 108.24 46.32 -28.08
v 103.48 43.77 -16.25
v 105.27 41.98 -16.50
v 108.02 49.48 -26.39
v 106.46 48.12 -27.86
v 83.01 24.12 3.18
v 84.15 21.85 3.18
v 84.84 22.19 5.60
v 83.70 24.46 5.60
v 108.02 49.48 -26.39
v 109.80 47.68 -26.61
v 108.24 46.32 -28.08
v 106.46 48.12 -27.86
v -6.59 62.79 4.36
v -2.98 63.51 4.36
v -9.87 79.33 2.21
v -9.77 78.83 -1.44
v -2.98 63.51 4.36
v -2.89 63.05 0.70
v -6.27 80.12 2.20
v -9.87 79.33 2.21
v -2.89 63.05 0.70
v -6.50 62.33 0.70
v -6.17 79.62 -1.45
v -6.27 80.12 2.20
v -6.50 62.33 0.70
v -6.59 62.79 4.36
v -9.77 78.83 -1.44
v -6.17 79.62 -1.45
v -9.77 78.83 -1.44
v -9.87 79.33 2.21
v -13.69 95.06 -4.03
v -10.16 96.10 -4.08
v -9.87 79.33 2.21
v -6.27 80.12 2.20
v -13.78 95.53 -0.38
v -13.69 95.06 -4.03
v -6.27 80.12 2.20
v -6.17 79.62 -1.45
v -10.25 96.57 -0.43
v -13.78 95.53 -0.38
v -6.17 79.62 -1.45
v -9.77 78.83 -1.44
v -10.16 96.10 -4.08
v -10.25 96.57 -0.43
v -10.16 96.10 -4.08
v -13.69 95.06 -4.03
v -16.05 112.63 -5.88
v -16.03 112.71 -2.20
v -13.69 95.06 -4.03
v -13.78 95.53 -0.38
v -19.25 110.80 -5.82
v -16.05 112.63 -5.88
v -13.78 95.53 -0.38
v -10.25 96.57 -0.43
v -19.22 110.88 -2.13
v -19.25 110.80 -5.82
v -10.25 96.57 -0.43
v -10.16 96.10 -4.08
v -16.03 112.71 -2.20
v -19.22 110.88 -2.13
v -16.03 112.71 -2.20
v -16.05 112.63 -5.88
v -27.03 125.84 -0.91
v -29.84 123.47 -0.84
v -16.05 112.63 -5.88
v -19.25 110.80 -5.82
v -27.26 126.01 -4.58
v -27.03 125.84 -0.91
v -19.25 110.80 -5.82
v -19.22 110.88 -2.13
v -30.08 123.64 -4.51
v -27.26 126.01 -4.58
v -19.22 110.88 -2.13
v -16.03 112.71 -2.20
v -29.84 123.47 -0.84
v -30.08 123.64 -4.51
v -6.50 62.33 0.70
v -2.89 63.05 0.70
v -2.98 63.51 4.36
v -6.59 62.79 4.36
v -29.84 123.47 -0.84
v -27.03 125.84 -0.91
v -27.26 126.01 -4.58
v -30.08 123.64 -4.51
v -53.86 -49.46 4.79
v -55.47 -46.22 4.79
v -63.10 -54.05 13.95
v -65.67 -55.32 11.74
v -55.47 -46.22 4.79
v -57.63 -47.29 2.09
v -64.70 -50.79 13.93
v -63.10 -54.05 13.95
v -57.63 -47.29 2.09
v -56.02 -50.53 2.09
v -67.27 -52.07 11.72
v -64.70 -50.79 13.93
v -56.02 -50.53 2.09
v -53.86 -49.46 4.79
v -65.67 -55.32 11.74
v -67.27 -52.07 11.72
v -65.67 -55.32 11.74
v -63.10 -54.05 13.95
v -71.37 -57.95 24.24
v -73.06 -54.75 24.36
v -63.10 -54.05 13.95
v -64.70 -50.79 13.93
v -68.85 -56.70 26.52
v -71.37 -57.95 24.24
v -64.70 -50.79 13.93
v -67.27 -52.07 11.72
v -70.54 -53.49 26.63
v -68.85 -56.70 26.52
v -67.27 -52.07 11.72
v -65.67 -55.32 11.74
v -73.06 -54.75 24.36
v -70.54 -53.49 26.63
v -73.06 -54.75 24.36
v -71.37 -57.95 24.24
v -82.11 -60.67 32.96
v -80.03 -59.68 35.75
v -71.37 -57.95 24.24
v -68.85 -56.70 26.52
v -80.33 -63.82 32.76
v -82.11 -60.67 32.96
v -68.85 -56.70 26.52
v -70.54 -53.49 26.63
v -78.25 -62.83 35.55
v -80.33 -63.82 32.76
v -70.54 -53.49 26.63
v -73.06 -54.75 24.36
v -80.03 -59.68 35.75
v -78.25 -62.83 35.55
v -80.03 -59.68 35.75
v -82.11 -60.67 32.96
v -89.23 -65.22 44.83
v -87.49 -68.39 44.66
v -82.11 -60.67 32.96
v -80.33 -63.82 32.76
v -91.35 -66.24 42.07
v -89.23 -65.22 44.83
v -80.33 -63.82 32.76
v -78.25 -62.83 35.55
v -89.60 -69.41 41.90
v -91.35 -66.24 42.07
v -78.25 -62.83 35.55
v -80.03 -59.68 35.75
v -87.49 -68.39 44.66
v -89.60 -69.41 41.90
v -56.02 -50.53 2.09
v -57.63 -47.29 2.09
v -55.47 -46.22 4.79
v -53.86 -49.46 4.79
v -87.49 -68.39 44.66
v -89.23 -65.22 44.83
v -91.35 -66.24 42.07
v -89.60 -69.41 41.90
v -6.12 61.59 5.13
v -3.15 61.86 5.13
v -7.32 74.73 23.10
v -7.53 76.89 21.05
v -3.15 61.86 5.13
v -3.37 64.25 3.36
v -4.42 75.31 23.42
v -7.32 74.73 23.10
v -3.37 64.25 3.36
v -6.34 63.98 3.36
v -4.62 77.47 21.37
v -4.42 75.31 23.42
v -6.34 63.98 3.36
v -6.12 61.59 5.13
v -7.53 76.89 21.05
v -4.62 77.47 21.37
v -7.53 76.89 21.05
v -7.32 74.73 23.10
v -15.68 92.74 34.56
v -12.71 92.87 34.41
v -7.32 74.73 23.10
v -4.42 75.31 23.42
v -15.48 91.04 37.00
v -15.68 92.74 34.56
v -4.42 75.31 23.42
v -4.62 77.47 21.37
v -12.51 91.18 36.85
v -15.48 91.04 37.00
v -4.62 77.47 21.37
v -7.53 76.89 21.05
v -12.71 92.87 34.41
v -12.51 91.18 36.85
v -12.71 92.87 34.41
v -15.68 92.74 34.56
v -4.96 110.19 44.29
v -4.77 109.32 47.14
v -15.68 92.74 34.56
v -15.48 91.04 37.00
v -7.77 111.08 44.75
v -4.96 110.19 44.29
v -15.48 91.04 37.00
v -12.51 91.18 36.85
v -7.58 110.21 47.59
v -7.77 111.08 44.75
v -12.51 91.18 36.85
v -12.71 92.87 34.41
v -4.77 109.32 47.14
v -7.58 110.21 47.59
v -4.77 109.32 47.14
v -4.96 110.19 44.29
v 1.84 131.00 48.19
v -0.99 131.84 48.64
v -4.96 110.19 44.29
v -7.77 111.08 44.75
v 1.45 131.25 45.25
v 1.84 131.00 48.19
v -7.77 111.08 44.75
v -7.58 110.21 47.59
v -1.37 132.09 45.69
v 1.45 131.25 45.25
v -7.58 110.21 47.59
v -4.77 109.32 47.14
v -0.99 131.84 48.64
v -1.37 132.09 45.69
v -6.34 63.98 3.36
v -3.37 64.25 3.36
v -3.15 61.86 5.13
v -6.12 61.59 5.13
v -0.99 131.84 48.64
v 1.84 131.00 48.19
v 1.45 131.25 45.25
v -1.37 132.09 45.69
vt 0.0000 0.0000
vt 0.0739 0.0000
vt 0.0757 0.0943
vt 0.0018 0.0942
vt 0.0000 0.0000
vt 0.0668 0.0000
vt 0.0688 0.0943
vt 0.0020 0.0943
vt 0.0000 0.0000
vt 0.0704 -0.0000
vt 0.0712 0.0943
vt 0.0007 0.0943
vt 0.0000 0.0000
vt 0.0915 0.0000
vt 0.0916 0.0943
vt 0.0001 0.0943
vt 0.0000 0.0000
vt 0.0825 0.0000
vt 0.0819 0.0943
vt -0.0006 0.0943
vt 0.0000 0.0000
vt 0.0813 0.0000
vt 0.0798 0.0943
vt -0.0014 0.0943
vt 0.0000 0.0000
vt 0.0881 -0.0000
vt 0.0864 0.0942
vt -0.0018 0.0943
vt 0.0000 0.0000
vt 0.0841 0.0000
vt 0.0817 0.0941
vt -0.0024 0.0942
vt 0.0000 0.0000
vt 0.0787 0.0000
vt 0.0782 0.0942
vt -0.0004 0.0942
vt 0.0000 0.0000
vt 0.1346 0.0000
vt 0.1334 0.0941
vt -0.0012 0.0942
vt 0.0000 0.0000
vt 0.1652 0.0000
vt 0.1663 0.0942
vt 0.0012 0.0941
vt 0.0000 0.0000
vt 0.1229 0.0000
vt 0.1254 0.0942
vt 0.0025 0.0941
vt 0.0000 0.0000
vt 0.1631 0.0000
vt 0.1634 0.0943
vt 0.0003 0.0943
vt 0.0000 0.0000
vt 0.0541 0.0000
vt 0.0560 0.0943
vt 0.0019 0.0943
vt 0.0000 0.0000
vt 0.1776 0.0000
vt 0.1780 0.0943
vt 0.0004 0.0943
vt 0.0000 0.0000
vt 0.1757 -0.0000
vt 0.1755 0.0943
vt -0.0002 0.0943
vt 0.0000 0.0000
vt 0.1329 0.0000
vt 0.1322 0.0943
vt -0.0006 0.0943
vt 0.0000 0.0000
vt 0.0973 0.0000
vt 0.0948 0.0942
vt -0.0025 0.0943
vt 0.0000 0.0000
vt 0.0989 0.0000
vt 0.0971 0.0942
vt -0.0018 0.0942
vt 0.0000 0.0000
vt 0.0782 0.0000
vt 0.0763 0.0941
vt -0.0019 0.0942
vt 0.0000 0.0000
vt 0.0905 0.0000
vt 0.0893 0.0941
vt -0.0011 0.0941
vt 0.0000 0.0000
vt 0.0930 -0.0000
vt 0.0937 0.0941
vt 0.0007 0.0941
vt 0.0000 0.0000
vt 0.0895 0.0000
vt 0.0893 0.0941
vt -0.0001 0.0941
vt 0.0000 0.0000
vt 0.0958 0.0000
vt 0.0952 0.0941
vt -0.0006 0.0941
vt 0.0000 0.0000
vt 0.0969 0.0000
vt 0.0964 0.0941
vt -0.0005 0.0941
vt 0.0000 0.0000
vt 0.0673 0.0000
vt 0.0718 0.0941
vt 0.0044 0.0940
vt 0.0000 0.0000
vt 0.0636 -0.0000
vt 0.0669 0.0942
vt 0.0033 0.0941
vt 0.0000 0.0000
vt 0.0739 -0.0000
vt -0.0194 0.1529
vt -0.0652 0.1529
vt 0.0000 0.0000
vt 0.0739 0.0000
vt 0.1390 0.1531
vt 0.0932 0.1530
vt 0.0000 0.0000
vt 0.0668 -0.0000
vt 0.1046 0.1675
vt 0.0632 0.1675
vt 0.0000 0.0000
vt 0.0668 -0.0000
vt 0.0035 0.1676
vt -0.0379 0.1676
vt 0.0000 0.0000
vt 0.0704 -0.0000
vt -0.0355 0.1524
vt -0.0792 0.1524
vt 0.0000 0.0000
vt 0.0704 0.0000
vt 0.1496 0.1525
vt 0.1059 0.1525
vt 0.0000 0.0000
vt 0.0915 0.0000
vt 0.2068 0.1093
vt 0.1500 0.1093
vt 0.0000 0.0000
vt 0.0915 0.0000
vt -0.0585 0.1094
vt -0.1152 0.1094
vt 0.0000 0.0000
vt 0.0825 -0.0000
vt 0.1556 0.1197
vt 0.1044 0.1197
vt 0.0000 0.0000
vt 0.0825 -0.0000
vt -0.0219 0.1198
vt -0.0731 0.1198
vt 0.0000 0.0000
vt 0.0813 -0.0000
vt 0.1119 0.1260
vt 0.0615 0.1260
vt 0.0000 0.0000
vt 0.0813 -0.0000
vt 0.0199 0.1262
vt -0.0305 0.1262
vt 0.0000 0.0000
vt 0.0881 -0.0000
vt 0.1108 0.1169
vt 0.0561 0.1169
vt 0.0000 0.0000
vt 0.0881 0.0000
vt 0.0320 0.1171
vt -0.0226 0.1171
vt 0.0000 0.0000
vt 0.0841 0.0000
vt 0.0707 0.1176
vt 0.0186 0.1176
vt 0.0000 0.0000
vt 0.0841 -0.0000
vt 0.0656 0.1178
vt 0.0135 0.1179
vt 0.0000 0.0000
vt 0.0787 0.0000
vt 0.1046 0.1044
vt 0.0559 0.1044
vt 0.0000 0.0000
vt 0.0787 0.0000
vt 0.0228 0.1047
vt -0.0260 0.1047
vt 0.0000 0.0000
vt 0.1346 -0.0000
vt 0.0929 0.1072
vt 0.0095 0.1072
vt 0.0000 0.0000
vt 0.1346 0.0000
vt 0.1252 0.1074
vt 0.0417 0.1075
vt 0.0000 0.0000
vt 0.1652 0.0000
vt 0.1199 0.1136
vt 0.0175 0.1137
vt 0.0000 0.0000
vt 0.1652 -0.0000
vt 0.1476 0.1139
vt 0.0452 0.1139
vt 0.0000 0.0000
vt 0.1229 0.0000
vt 0.0986 0.1202
vt 0.0225 0.1202
vt 0.0000 0.0000
vt 0.1229 0.0000
vt 0.1003 0.1205
vt 0.0241 0.1204
vt 0.0000 0.0000
vt 0.1631 0.0000
vt 0.0060 0.0775
vt -0.0951 0.0775
vt 0.0000 0.0000
vt 0.1631 0.0000
vt 0.2582 0.0777
vt 0.1570 0.0777
vt 0.0000 0.0000
vt 0.0541 -0.0000
vt 0.1242 0.1498
vt 0.0907 0.1498
vt 0.0000 0.0000
vt 0.0541 0.0000
vt -0.0367 0.1499
vt -0.0702 0.1499
vt 0.0000 0.0000
vt 0.1776 -0.0000
vt 0.2718 0.0347
vt 0.1617 0.0347
vt 0.0000 0.0000
vt 0.1776 -0.0000
vt 0.0159 0.0350
vt -0.0943 0.0350
vt 0.0000 0.0000
vt 0.1757 -0.0000
vt 0.0195 0.0457
vt -0.0894 0.0457
vt 0.0000 0.0000
vt 0.1757 0.0000
vt 0.2651 0.0460
vt 0.1562 0.0460
vt 0.0000 0.0000
vt 0.1329 0.0000
vt 0.2134 0.0965
vt 0.1311 0.0965
vt 0.0000 0.0000
vt 0.1329 -0.0000
vt 0.0018 0.0967
vt -0.0805 0.0967
vt 0.0000 0.0000
vt 0.0973 0.0000
vt 0.0517 0.1254
vt -0.0086 0.1254
vt 0.0000 0.0000
vt 0.0973 -0.0000
vt 0.1060 0.1255
vt 0.0457 0.1255
vt 0.0000 0.0000
vt 0.0989 -0.0000
vt 0.1171 0.1212
vt 0.0558 0.1212
vt 0.0000 0.0000
vt 0.0989 -0.0000
vt 0.0431 0.1214
vt -0.0182 0.1215
vt 0.0000 0.0000
vt 0.0782 -0.0000
vt 0.0740 0.1199
vt 0.0255 0.1199
vt 0.0000 0.0000
vt 0.0782 -0.0000
vt 0.0528 0.1201
vt 0.0043 0.1202
vt 0.0000 0.0000
vt 0.0905 -0.0000
vt 0.0763 0.1183
vt 0.0202 0.1183
vt 0.0000 0.0000
vt 0.0905 0.0000
vt 0.0703 0.1186
vt 0.0143 0.1186
vt 0.0000 0.0000
vt 0.0930 -0.0000
vt 0.0873 0.1154
vt 0.0296 0.1154
vt 0.0000 0.0000
vt 0.0930 -0.0000
vt 0.0634 0.1157
vt 0.0057 0.1157
vt 0.0000 0.0000
vt 0.0895 0.0000
vt 0.0315 0.1130
vt -0.0240 0.1130
vt 0.0000 0.0000
vt 0.0895 0.0000
vt 0.1135 0.1133
vt 0.0580 0.1133
vt 0.0000 0.0000
vt 0.0958 -0.0000
vt -0.0084 0.1074
vt -0.0678 0.1074
vt 0.0000 0.0000
vt 0.0958 0.0000
vt 0.1636 0.1077
vt 0.1042 0.1077
vt 0.0000 0.0000
vt 0.0969 0.0000
vt -0.0412 0.1101
vt -0.1013 0.1101
vt 0.0000 0.0000
vt 0.0969 0.0000
vt 0.1983 0.1104
vt 0.1382 0.1104
vt 0.0000 0.0000
vt 0.0673 0.0000
vt 0.1156 0.1605
vt 0.0739 0.1605
vt 0.0000 0.0000
vt 0.0673 -0.0000
vt -0.0068 0.1606
vt -0.0485 0.1606
vt 0.0000 0.0000
vt 0.0637 -0.0000
vt 0.0611 0.1662
vt 0.0217 0.1662
vt 0.0000 0.0000
vt 0.0636 -0.0000
vt 0.0418 0.1663
vt 0.0024 0.1663
vt 0.0000 0.0000
vt 0.0458 -0.0000
vt -0.0328 0.1287
vt -0.0549 0.1287
vt 0.0000 0.0000
vt 0.0458 -0.0000
vt 0.1007 0.1287
vt 0.0786 0.1287
vt 0.0000 0.0000
vt 0.0414 -0.0000
vt 0.0732 0.1411
vt 0.0532 0.1411
vt 0.0000 0.0000
vt 0.0414 0.0000
vt -0.0118 0.1411
vt -0.0318 0.1411
vt 0.0000 0.0000
vt 0.0437 -0.0000
vt -0.0455 0.1284
vt -0.0667 0.1284
vt 0.0000 0.0000
vt 0.0437 0.0000
vt 0.1104 0.1284
vt 0.0892 0.1284
vt 0.0000 0.0000
vt 0.0568 0.0000
vt 0.1538 0.0921
vt 0.1263 0.0921
vt 0.0000 0.0000
vt 0.0568 0.0000
vt -0.0696 0.0921
vt -0.0970 0.0921
vt 0.0000 0.0000
vt 0.0511 -0.0000
vt 0.1127 0.1008
vt 0.0879 0.1008
vt 0.0000 0.0000
vt 0.0511 -0.0000
vt -0.0368 0.1008
vt -0.0616 0.1008
vt 0.0000 0.0000
vt 0.0504 -0.0000
vt 0.0762 0.1061
vt 0.0518 0.1061
vt 0.0000 0.0000
vt 0.0504 -0.0000
vt -0.0014 0.1061
vt -0.0258 0.1061
vt 0.0000 0.0000
vt 0.0546 0.0000
vt 0.0737 0.0984
vt 0.0473 0.0984
vt 0.0000 0.0000
vt 0.0546 0.0000
vt 0.0073 0.0984
vt -0.0191 0.0984
vt 0.0000 0.0000
vt 0.0521 -0.0000
vt 0.0409 0.0990
vt 0.0157 0.0990
vt 0.0000 0.0000
vt 0.0521 0.0000
vt 0.0364 0.0990
vt 0.0112 0.0990
vt 0.0000 0.0000
vt 0.0488 0.0000
vt 0.0707 0.0879
vt 0.0471 0.0879
vt 0.0000 0.0000
vt 0.0488 0.0000
vt 0.0017 0.0879
vt -0.0219 0.0879
vt 0.0000 0.0000
vt 0.0834 -0.0000
vt 0.0484 0.0902
vt 0.0080 0.0902
vt 0.0000 0.0000
vt 0.0834 -0.0000
vt 0.0754 0.0902
vt 0.0350 0.0902
vt 0.0000 0.0000
vt 0.1024 0.0000
vt 0.0642 0.0956
vt 0.0147 0.0957
vt 0.0000 0.0000
vt 0.1024 0.0000
vt 0.0877 0.0956
vt 0.0382 0.0956
vt 0.0000 0.0000
vt 0.0762 0.0000
vt 0.0557 0.1012
vt 0.0189 0.1012
vt 0.0000 0.0000
vt 0.0762 0.0000
vt 0.0573 0.1012
vt 0.0205 0.1012
vt 0.0000 0.0000
vt 0.1011 0.0000
vt -0.0312 0.0652
vt -0.0801 0.0652
vt 0.0000 0.0000
vt 0.1011 0.0000
vt 0.1812 0.0652
vt 0.1323 0.0652
vt 0.0000 0.0000
vt 0.0335 -0.0000
vt 0.0926 0.1262
vt 0.0764 0.1262
vt 0.0000 0.0000
vt 0.0335 0.0000
vt -0.0428 0.1262
vt -0.0590 0.1262
vt 0.0000 0.0000
vt 0.1101 -0.0000
vt 0.1895 0.0292
vt 0.1362 0.0292
vt 0.0000 0.0000
vt 0.1101 -0.0000
vt -0.0261 0.0293
vt -0.0794 0.0293
vt 0.0000 0.0000
vt 0.1089 -0.0000
vt -0.0226 0.0385
vt -0.0753 0.0385
vt 0.0000 0.0000
vt 0.1089 0.0000
vt 0.1842 0.0385
vt 0.1315 0.0385
vt 0.0000 0.0000
vt 0.0824 -0.0000
vt 0.1502 0.0812
vt 0.1104 0.0812
vt 0.0000 0.0000
vt 0.0824 -0.0000
vt -0.0280 0.0812
vt -0.0679 0.0812
vt 0.0000 0.0000
vt 0.0603 0.0000
vt 0.0220 0.1056
vt -0.0072 0.1056
vt 0.0000 0.0000
vt 0.0603 0.0000
vt 0.0675 0.1056
vt 0.0383 0.1056
vt 0.0000 0.0000
vt 0.0613 0.0000
vt 0.0767 0.1020
vt 0.0470 0.1020
vt 0.0000 0.0000
vt 0.0613 -0.0000
vt 0.0142 0.1020
vt -0.0154 0.1020
vt 0.0000 0.0000
vt 0.0485 0.0000
vt 0.0450 0.1009
vt 0.0215 0.1009
vt 0.0000 0.0000
vt 0.0485 -0.0000
vt 0.0269 0.1009
vt 0.0035 0.1009
vt 0.0000 0.0000
vt 0.0561 -0.0000
vt 0.0442 0.0995
vt 0.0170 0.0995
vt 0.0000 0.0000
vt 0.0561 0.0000
vt 0.0391 0.0995
vt 0.0119 0.0995
vt 0.0000 0.0000
vt 0.0577 -0.0000
vt 0.0528 0.0971
vt 0.0249 0.0971
vt 0.0000 0.0000
vt 0.0577 -0.0000
vt 0.0328 0.0971
vt 0.0049 0.0971
vt 0.0000 0.0000
vt 0.0555 -0.0000
vt 0.0067 0.0951
vt -0.0202 0.0951
vt 0.0000 0.0000
vt 0.0555 0.0000
vt 0.0757 0.0951
vt 0.0488 0.0951
vt 0.0000 0.0000
vt 0.0594 -0.0000
vt -0.0283 0.0904
vt -0.0571 0.0904
vt 0.0000 0.0000
vt 0.0594 -0.0000
vt 0.1164 0.0904
vt 0.0877 0.0904
vt 0.0000 0.0000
vt 0.0601 -0.0000
vt -0.0562 0.0927
vt -0.0853 0.0927
vt 0.0000 0.0000
vt 0.0601 -0.0000
vt 0.1454 0.0926
vt 0.1163 0.0926
vt 0.0000 0.0000
vt 0.0417 -0.0000
vt 0.0823 0.1351
vt 0.0621 0.1351
vt 0.0000 0.0000
vt 0.0417 -0.0000
vt -0.0204 0.1351
vt -0.0406 0.1351
vt 0.0000 0.0000
vt 0.0394 -0.0000
vt 0.0373 0.1399
vt 0.0182 0.1399
vt 0.0000 0.0000
vt 0.0394 -0.0000
vt 0.0213 0.1399
vt 0.0022 0.1399
vt 0.0000 0.0000
vt 0.0222 0.0000
vt -0.0515 0.1207
vt 0.0000 0.0000
vt 0.0222 -0.0000
vt 0.0737 0.1207
vt 0.0000 0.0000
vt 0.0200 -0.0000
vt 0.0499 0.1323
vt 0.0000 0.0000
vt 0.0200 0.0000
vt -0.0298 0.1324
vt 0.0000 0.0000
vt 0.0211 -0.0000
vt -0.0625 0.1203
vt 0.0000 0.0000
vt 0.0211 -0.0000
vt 0.0837 0.1204
vt 0.0000 0.0000
vt 0.0275 0.0000
vt 0.1184 0.0863
vt 0.0000 0.0000
vt 0.0275 0.0000
vt -0.0910 0.0864
vt 0.0000 0.0000
vt 0.0247 -0.0000
vt 0.0824 0.0945
vt 0.0000 0.0000
vt 0.0247 -0.0000
vt -0.0577 0.0946
vt 0.0000 0.0000
vt 0.0244 0.0000
vt 0.0486 0.0995
vt 0.0000 0.0000
vt 0.0244 0.0000
vt -0.0242 0.0996
vt 0.0000 0.0000
vt 0.0264 0.0000
vt 0.0443 0.0923
vt 0.0000 0.0000
vt 0.0264 0.0000
vt -0.0179 0.0924
vt 0.0000 0.0000
vt 0.0252 0.0000
vt 0.0147 0.0928
vt 0.0000 0.0000
vt 0.0252 -0.0000
vt 0.0105 0.0929
vt 0.0000 0.0000
vt 0.0236 -0.0000
vt 0.0441 0.0824
vt 0.0000 0.0000
vt 0.0236 -0.0000
vt -0.0205 0.0824
vt 0.0000 0.0000
vt 0.0404 0.0000
vt 0.0075 0.0845
vt 0.0000 0.0000
vt 0.0404 0.0000
vt 0.0328 0.0846
vt 0.0000 0.0000
vt 0.0495 0.0000
vt 0.0138 0.0897
vt 0.0000 0.0000
vt 0.0495 -0.0000
vt 0.0358 0.0897
vt 0.0000 0.0000
vt 0.0368 -0.0000
vt 0.0177 0.0949
vt 0.0000 0.0000
vt 0.0368 0.0000
vt 0.0192 0.0950
vt 0.0000 0.0000
vt 0.0489 -0.0000
vt -0.0751 0.0611
vt 0.0000 0.0000
vt 0.0489 -0.0000
vt 0.1240 0.0613
vt 0.0000 0.0000
vt 0.0162 0.0000
vt 0.0716 0.1183
vt 0.0000 0.0000
vt 0.0162 -0.0000
vt -0.0553 0.1184
vt 0.0000 0.0000
vt 0.0533 0.0000
vt 0.1277 0.0274
vt 0.0000 0.0000
vt 0.0533 -0.0000
vt -0.0744 0.0278
vt 0.0000 0.0000
vt 0.0527 -0.0000
vt -0.0706 0.0361
vt 0.0000 0.0000
vt 0.0527 0.0000
vt 0.1233 0.0364
vt 0.0000 0.0000
vt 0.0399 -0.0000
vt 0.1035 0.0762
vt 0.0000 0.0000
vt 0.0399 0.0000
vt -0.0636 0.0763
vt 0.0000 0.0000
vt 0.0292 0.0000
vt -0.0068 0.0990
vt 0.0000 0.0000
vt 0.0292 -0.0000
vt 0.0359 0.0991
vt 0.0000 0.0000
vt 0.0297 0.0000
vt 0.0441 0.0956
vt 0.0000 0.0000
vt 0.0297 0.0000
vt -0.0145 0.0957
vt 0.0000 0.0000
vt 0.0235 -0.0000
vt 0.0202 0.0946
vt 0.0000 0.0000
vt 0.0235 -0.0000
vt 0.0032 0.0947
vt 0.0000 0.0000
vt 0.0271 -0.0000
vt 0.0160 0.0933
vt 0.0000 0.0000
vt 0.0271 0.0000
vt 0.0111 0.0934
vt 0.0000 0.0000
vt 0.0279 -0.0000
vt 0.0233 0.0910
vt 0.0000 0.0000
vt 0.0279 -0.0000
vt 0.0046 0.0911
vt 0.0000 0.0000
vt 0.0268 0.0000
vt -0.0189 0.0891
vt 0.0000 0.0000
vt 0.0268 0.0000
vt 0.0458 0.0892
vt 0.0000 0.0000
vt 0.0287 0.0000
vt -0.0535 0.0847
vt 0.0000 0.0000
vt 0.0287 0.0000
vt 0.0822 0.0848
vt 0.0000 0.0000
vt 0.0291 -0.0000
vt -0.0800 0.0868
vt 0.0000 0.0000
vt 0.0291 0.0000
vt 0.1091 0.0869
vt 0.0000 0.0000
vt 0.0202 0.0000
vt 0.0582 0.1267
vt 0.0000 0.0000
vt 0.0202 -0.0000
vt -0.0380 0.1268
vt 0.0000 0.0000
vt 0.0191 -0.0000
vt 0.0170 0.1312
vt 0.0000 0.0000
vt 0.0191 0.0000
vt 0.0021 0.1312
vt 0.0000 0.0000
vt 0.0810 -0.0000
vt 0.0001 0.4878
vt 0.0001 0.5062
vt 0.0000 0.0000
vt 0.0810 0.0000
vt 0.0003 0.4819
vt -0.0001 0.5007
vt 0.0000 0.0000
vt 0.0810 0.0000
vt 0.0001 0.4874
vt 0.0001 0.4950
vt 0.0000 0.0000
vt 0.0810 -0.0000
vt 0.0003 0.4932
vt -0.0001 0.5006
vt 0.0000 0.0000
vt 0.0810 -0.0000
vt 0.0352 0.4898
vt 0.0352 0.5147
vt 0.0000 0.0000
vt 0.0810 -0.0000
vt 0.0359 0.4764
vt 0.0347 0.4967
vt 0.0000 0.0000
vt 0.0810 0.0000
vt -0.0341 0.4831
vt -0.0341 0.4837
vt 0.0000 0.0000
vt 0.0810 -0.0000
vt -0.0344 0.4963
vt -0.0356 0.5020
vt 0.0000 0.0000
vt 0.0810 -0.0000
vt 0.0786 0.4991
vt 0.0786 0.5027
vt 0.0000 0.0000
vt 0.0810 0.0000
vt 0.0430 0.4849
vt 0.0469 0.5035
vt 0.0000 0.0000
vt 0.0810 0.0000
vt -0.0764 0.4638
vt -0.0764 0.4867
vt 0.0000 0.0000
vt 0.0810 0.0000
vt -0.0451 0.4863
vt -0.0413 0.4941
vt 0.0000 0.0000
vt 0.0810 0.0000
vt -0.0577 0.4823
vt -0.0577 0.4955
vt 0.0000 0.0000
vt 0.0810 -0.0000
vt 0.0365 0.4940
vt 0.0358 0.5069
vt 0.0000 0.0000
vt 0.0810 0.0000
vt 0.0582 0.4859
vt 0.0582 0.4990
vt 0.0000 0.0000
vt 0.0810 -0.0000
vt -0.0356 0.4784
vt -0.0363 0.4916
vt 0.0000 0.0000
vt 0.0810 -0.0000
vt 0.0810 0.0810
vt 0.0000 0.0810
vt 0.0000 0.0000
vt 0.0810 0.0000
vt 0.0810 0.0810
vt 0.0000 0.0810
vt 0.0000 0.0000
vt 0.0635 0.0000
vt 0.0008 0.3056
vt 0.0008 0.3106
vt 0.0000 0.0000
vt 0.0635 0.0000
vt 0.0011 0.3196
vt -0.0006 0.3184
vt 0.0000 0.0000
vt 0.0635 0.0000
vt 0.0008 0.3122
vt 0.0008 0.3318
vt 0.0000 0.0000
vt 0.0635 0.0000
vt 0.0011 0.2987
vt -0.0006 0.3242
vt 0.0000 0.0000
vt 0.0635 0.0000
vt -0.0358 0.2873
vt -0.0358 0.2972
vt 0.0000 0.0000
vt 0.0635 -0.0000
vt -0.0699 0.3096
vt -0.0655 0.3034
vt 0.0000 0.0000
vt 0.0635 0.0000
vt 0.0417 0.3255
vt 0.0417 0.3404
vt 0.0000 0.0000
vt 0.0635 0.0000
vt 0.0664 0.2941
vt 0.0708 0.3244
vt 0.0000 0.0000
vt 0.0635 0.0000
vt -0.0167 0.2994
vt -0.0167 0.3057
vt 0.0000 0.0000
vt 0.0635 0.0000
vt -0.0968 0.2886
vt -0.0959 0.3014
vt 0.0000 0.0000
vt 0.0635 0.0000
vt 0.0168 0.3175
vt 0.0168 0.3355
vt 0.0000 0.0000
vt 0.0635 0.0000
vt 0.0973 0.2979
vt 0.0982 0.3116
vt 0.0000 0.0000
vt 0.0635 0.0000
vt -0.0320 0.3034
vt -0.0320 0.3162
vt 0.0000 0.0000
vt 0.0635 -0.0000
vt -0.0044 0.3117
vt -0.0044 0.3241
vt 0.0000 0.0000
vt 0.0635 0.0000
vt 0.0323 0.3109
vt 0.0323 0.3234
vt 0.0000 0.0000
vt 0.0635 0.0000
vt 0.0044 0.3060
vt 0.0045 0.3186
vt 0.0000 0.0000
vt 0.0635 0.0000
vt 0.0635 0.0635
vt -0.0000 0.0635
vt 0.0000 0.0000
vt 0.0635 0.0000
vt 0.0635 0.0635
vt -0.0000 0.0635
vt 0.0000 0.0000
vt 0.0920 0.0000
vt 0.0000 0.4153
vt 0.0000 0.4336
vt 0.0000 0.0000
vt 0.0920 0.0000
vt 0.0000 0.4172
vt -0.0000 0.4348
vt 0.0000 0.0000
vt 0.0920 -0.0000
vt 0.0000 0.4161
vt 0.0000 0.4367
vt 0.0000 0.0000
vt 0.0920 0.0000
vt 0.0000 0.4142
vt -0.0000 0.4355
vt 0.0000 0.0000
vt 0.0920 0.0000
vt -0.0058 0.4130
vt -0.0058 0.4370
vt 0.0000 0.0000
vt 0.0920 -0.0000
vt -0.0086 0.4118
vt -0.0087 0.4335
vt 0.0000 0.0000
vt 0.0920 0.0000
vt 0.0058 0.4184
vt 0.0058 0.4332
vt 0.0000 0.0000
vt 0.0920 0.0000
vt 0.0089 0.4194
vt 0.0089 0.4366
vt 0.0000 0.0000
vt 0.0920 -0.0000
vt 0.0233 0.4309
vt 0.0233 0.4422
vt 0.0000 0.0000
vt 0.0920 -0.0000
vt 0.0093 0.4110
vt 0.0117 0.4456
vt 0.0000 0.0000
vt 0.0920 -0.0000
vt -0.0209 0.3995
vt -0.0209 0.4273
vt 0.0000 0.0000
vt 0.0920 -0.0000
vt -0.0111 0.4207
vt -0.0088 0.4243
vt 0.0000 0.0000
vt 0.0920 0.0000
vt -0.0370 0.4183
vt -0.0370 0.4376
vt 0.0000 0.0000
vt 0.0920 0.0000
vt 0.0774 0.4211
vt 0.0760 0.4404
vt 0.0000 0.0000
vt 0.0920 0.0000
vt 0.0373 0.4097
vt 0.0373 0.4293
vt 0.0000 0.0000
vt 0.0920 -0.0000
vt -0.0745 0.3962
vt -0.0759 0.4161
vt 0.0000 0.0000
vt 0.0920 0.0000
vt 0.0920 0.0920
vt 0.0000 0.0920
vt 0.0000 0.0000
vt 0.0920 -0.0000
vt 0.0920 0.0920
vt -0.0000 0.0920
vt 0.0000 0.0000
vt 0.0906 0.0000
vt 0.0000 0.3348
vt 0.0000 0.3726
vt 0.0000 0.0000
vt 0.0906 0.0000
vt 0.0009 0.3328
vt 0.0007 0.3564
vt 0.0000 0.0000
vt 0.0906 0.0000
vt 0.0000 0.3496
vt 0.0000 0.3557
vt 0.0000 0.0000
vt 0.0906 0.0000
vt 0.0009 0.3508
vt 0.0007 0.3723
vt 0.0000 0.0000
vt 0.0906 0.0000
vt 0.0659 0.3324
vt 0.0659 0.3599
vt 0.0000 0.0000
vt 0.0906 0.0000
vt 0.0023 0.3400
vt 0.0024 0.3443
vt 0.0000 0.0000
vt 0.0906 0.0000
vt -0.0659 0.3385
vt -0.0659 0.3567
vt 0.0000 0.0000
vt 0.0906 -0.0000
vt -0.0023 0.3443
vt -0.0022 0.3833
vt 0.0000 0.0000
vt 0.0906 -0.0000
vt 0.0186 0.3337
vt 0.0186 0.3555
vt 0.0000 0.0000
vt 0.0906 0.0000
vt -0.0731 0.3226
vt -0.0738 0.3447
vt 0.0000 0.0000
vt 0.0906 0.0000
vt -0.0186 0.3489
vt -0.0186 0.3718
vt 0.0000 0.0000
vt 0.0906 0.0000
vt 0.0756 0.3447
vt 0.0749 0.3684
vt 0.0000 0.0000
vt 0.0906 0.0000
vt -0.0043 0.3405
vt -0.0043 0.3631
vt 0.0000 0.0000
vt 0.0906 -0.0000
vt -0.0053 0.3416
vt -0.0053 0.3642
vt 0.0000 0.0000
vt 0.0906 0.0000
vt 0.0043 0.3431
vt 0.0043 0.3655
vt 0.0000 0.0000
vt 0.0906 0.0000
vt 0.0053 0.3419
vt 0.0053 0.3644
vt 0.0000 0.0000
vt 0.0906 0.0000
vt 0.0906 0.0906
vt 0.0000 0.0906
vt 0.0000 0.0000
vt 0.0906 -0.0000
vt 0.0906 0.0906
vt -0.0000 0.0906
vt 0.0000 0.0000
vt 0.0745 0.0000
vt 0.0004 0.5524
vt 0.0004 0.5531
vt 0.0000 0.0000
vt 0.0745 0.0000
vt 0.0010 0.5637
vt -0.0004 0.5623
vt 0.0000 0.0000
vt 0.0745 0.0000
vt 0.0004 0.5547
vt 0.0004 0.5733
vt 0.0000 0.0000
vt 0.0745 0.0000
vt 0.0010 0.5435
vt -0.0004 0.5643
vt 0.0000 0.0000
vt 0.0745 0.0000
vt -0.0681 0.5504
vt -0.0681 0.5324
vt 0.0000 0.0000
vt 0.0745 -0.0000
vt -0.0811 0.5627
vt -0.0844 0.5669
vt 0.0000 0.0000
vt 0.0745 0.0000
vt 0.0697 0.5492
vt 0.0697 0.5844
vt 0.0000 0.0000
vt 0.0745 0.0000
vt 0.0862 0.5316
vt 0.0829 0.5469
vt 0.0000 0.0000
vt 0.0745 0.0000
vt -0.1999 0.4914
vt -0.1999 0.5194
vt 0.0000 0.0000
vt 0.0745 0.0000
vt -0.0389 0.5545
vt -0.0308 0.5662
vt 0.0000 0.0000
vt 0.0745 0.0000
vt 0.2047 0.5397
vt 0.2047 0.5327
vt 0.0000 0.0000
vt 0.0745 -0.0000
vt 0.0343 0.5502
vt 0.0424 0.5585
vt 0.0000 0.0000
vt 0.0745 0.0000
vt 0.1235 0.5486
vt 0.1235 0.5586
vt 0.0000 0.0000
vt 0.0745 0.0000
vt 0.0094 0.5458
vt 0.0096 0.5557
vt 0.0000 0.0000
vt 0.0745 -0.0000
vt -0.1217 0.5308
vt -0.1217 0.5411
vt 0.0000 0.0000
vt 0.0745 -0.0000
vt -0.0096 0.5610
vt -0.0093 0.5707
vt 0.0000 0.0000
vt 0.0745 0.0000
vt 0.0745 0.0745
vt 0.0000 0.0745
vt 0.0000 0.0000
vt 0.0745 0.0000
vt 0.0745 0.0745
vt -0.0000 0.0745
usemtl concrete
f 1/1 2/2 3/3
f 1/1 3/3 4/4
f 5/5 6/6 7/7
f 5/5 7/7 8/8
f 9/9 10/10 11/11
f 9/9 11/11 12/12
f 13/13 14/14 15/15
f 13/13 15/15 16/16
f 17/17 18/18 19/19
f 17/17 19/19 20/20
f 21/21 22/22 23/23
f 21/21 23/23 24/24
f 25/25 26/26 27/27
f 25/25 27/27 28/28
f 29/29 30/30 31/31
f 29/29 31/31 32/32
f 33/33 34/34 35/35
f 33/33 35/35 36/36
f 37/37 38/38 39/39
f 37/37 39/39 40/40
f 41/41 42/42 43/43
f 41/41 43/43 44/44
f 45/45 46/46 47/47
f 45/45 47/47 48/48
f 49/49 50/50 51/51
f 49/49 51/51 52/52
f 53/53 54/54 55/55
f 53/53 55/55 56/56
f 57/57 58/58 59/59
f 57/57 59/59 60/60
f 61/61 62/62 63/63
f 61/61 63/63 64/64
f 65/65 66/66 67/67
f 65/65 67/67 68/68
f 69/69 70/70 71/71
f 69/69 71/71 72/72
f 73/73 74/74 75/75
f 73/73 75/75 76/76
f 77/77 78/78 79/79
f 77/77 79/79 80/80
f 81/81 82/82 83/83
f 81/81 83/83 84/84
f 85/85 86/86 87/87
f 85/85 87/87 88/88
f 89/89 90/90 91/91
f 89/89 91/91 92/92
f 93/93 94/94 95/95
f 93/93 95/95 96/96
f 97/97 98/98 99/99
f 97/97 99/99 100/100
f 101/101 102/102 103/103
f 101/101 103/103 104/104
f 105/105 106/106 107/107
f 105/105 107/107 108/108
f 109/109 110/110 111/111
f 109/109 111/111 112/112
f 113/113 114/114 115/115
f 113/113 115/115 116/116
f 117/117 118/118 119/119
f 117/117 119/119 120/120
f 121/121 122/122 123/123
f 121/121 123/123 124/124
f 125/125 126/126 127/127
f 125/125 127/127 128/128
f 129/129 130/130 131/131
f 129/129 131/131 132/132
f 133/133 134/134 135/135
f 133/133 135/135 136/136
f 137/137 138/138 139/139
f 137/137 139/139 140/140
f 141/141 142/142 143/143
f 141/141 143/143 144/144
f 145/145 146/146 147/147
f 145/145 147/147 148/148
f 149/149 150/150 151/151
f 149/149 151/151 152/152
f 153/153 154/154 155/155
f 153/153 155/155 156/156
f 157/157 158/158 159/159
f 157/157 159/159 160/160
f 161/161 162/162 163/163
f 161/161 163/163 164/164
f 165/165 166/166 167/167
f 165/165 167/167 168/168
f 169/169 170/170 171/171
f 169/169 171/171 172/172
f 173/173 174/174 175/175
f 173/173 175/175 176/176
f 177/177 178/178 179/179
f 177/177 179/179 180/180
f 181/181 182/182 183/183
f 181/181 183/183 184/184
f 185/185 186/186 187/187
f 185/185 187/187 188/188
f 189/189 190/190 191/191
f 189/189 191/191 192/192
f 193/193 194/194 195/195
f 193/193 195/195 196/196
f 197/197 198/198 199/199
f 197/197 199/199 200/200
f 201/201 202/202 203/203
f 201/201 203/203 204/204
f 205/205 206/206 207/207
f 205/205 207/207 208/208
f 209/209 210/210 211/211
f 209/209 211/211 212/212
f 213/213 214/214 215/215
f 213/213 215/215 216/216
f 217/217 218/218 219/219
f 217/217 219/219 220/220
f 221/221 222/222 223/223
f 221/221 223/223 224/224
f 225/225 226/226 227/227
f 225/225 227/227 228/228
f 229/229 230/230 231/231
f 229/229 231/231 232/232
f 233/233 234/234 235/235
f 233/233 235/235 236/236
f 237/237 238/238 239/239
f 237/237 239/239 240/240
f 241/241 242/242 243/243
f 241/241 243/243 244/244
f 245/245 246/246 247/247
f 245/245 247/247 248/248
f 249/249 250/250 251/251
f 249/249 251/251 252/252
f 253/253 254/254 255/255
f 253/253 255/255 256/256
f 257/257 258/258 259/259
f 257/257 259/259 260/260
f 261/261 262/262 263/263
f 261/261 263/263 264/264
f 265/265 266/266 267/267
f 265/265 267/267 268/268
f 269/269 270/270 271/271
f 269/269 271/271 272/272
f 273/273 274/274 275/275
f 273/273 275/275 276/276
f 277/277 278/278 279/279
f 277/277 279/279 280/280
f 281/281 282/282 283/283
f 281/281 283/283 284/284
f 285/285 286/286 287/287
f 285/285 287/287 288/288
f 289/289 290/290 291/291
f 289/289 291/291 292/292
f 293/293 294/294 295/295
f 293/293 295/295 296/296
f 297/297 298/298 299/299
f 297/297 299/299 300/300
f 301/301 302/302 303/303
f 301/301 303/303 304/304
f 305/305 306/306 307/307
f 305/305 307/307 308/308
f 309/309 310/310 311/311
f 309/309 311/311 312/312
f 313/313 314/314 315/315
f 313/313 315/315 316/316
f 317/317 318/318 319/319
f 317/317 319/319 320/320
f 321/321 322/322 323/323
f 321/321 323/323 324/324
f 325/325 326/326 327/327
f 325/325 327/327 328/328
f 329/329 330/330 331/331
f 329/329 331/331 332/332
f 333/333 334/334 335/335
f 333/333 335/335 336/336
f 337/337 338/338 339/339
f 337/337 339/339 340/340
f 341/341 342/342 343/343
f 341/341 343/343 344/344
f 345/345 346/346 347/347
f 345/345 347/347 348/348
f 349/349 350/350 351/351
f 349/349 351/351 352/352
f 353/353 354/354 355/355
f 353/353 355/355 356/356
f 357/357 358/358 359/359
f 357/357 359/359 360/360
f 361/361 362/362 363/363
f 361/361 363/363 364/364
f 365/365 366/366 367/367
f 365/365 367/367 368/368
f 369/369 370/370 371/371
f 369/369 371/371 372/372
f 373/373 374/374 375/375
f 373/373 375/375 376/376
f 377/377 378/378 379/379
f 377/377 379/379 380/380
f 381/381 382/382 383/383
f 381/381 383/383 384/384
f 385/385 386/386 387/387
f 385/385 387/387 388/388
f 389/389 390/390 391/391
f 389/389 391/391 392/392
f 393/393 394/394 395/395
f 393/393 395/395 396/396
f 397/397 398/398 399/399
f 397/397 399/399 400/400
f 401/401 402/402 403/403
f 401/401 403/403 404/404
f 405/405 406/406 407/407
f 405/405 407/407 408/408
f 409/409 410/410 411/411
f 409/409 411/411 412/412
f 413/413 414/414 415/415
f 413/413 415/415 416/416
f 417/417 418/418 419/419
f 417/417 419/419 420/420
f 421/421 422/422 423/423
f 421/421 423/423 424/424
f 425/425 426/426 427/427
f 425/425 427/427 428/428
f 429/429 430/430 431/431
f 429/429 431/431 432/432
f 433/433 434/434 435/435
f 433/433 435/435 436/436
f 437/437 438/438 439/439
f 437/437 439/439 440/440
f 441/441 442/442 443/443
f 441/441 443/443 444/444
f 445/445 446/446 447/447
f 445/445 447/447 448/448
f 449/449 450/450 451/451
f 449/449 451/451 452/452
f 453/453 454/454 455/455
f 453/453 455/455 456/456
f 457/457 458/458 459/459
f 457/457 459/459 460/460
f 461/461 462/462 463/463
f 461/461 463/463 464/464
f 465/465 466/466 467/467
f 465/465 467/467 468/468
f 469/469 470/470 471/471
f 469/469 471/471 472/472
f 473/473 474/474 475/475
f 473/473 475/475 476/476
f 477/477 478/478 479/479
f 477/477 479/479 480/480
f 481/481 482/482 483/483
f 481/481 483/483 484/484
f 485/485 486/486 487/487
f 485/485 487/487 488/488
f 489/489 490/490 491/491
f 489/489 491/491 492/492
f 493/493 494/494 495/495
f 493/493 495/495 496/496
f 497/497 498/498 499/499
f 497/497 499/499 500/500
f 501/501 502/502 503/503
f 501/501 503/503 504/504
f 505/505 506/506 507/507
f 505/505 507/507 508/508
f 509/509 510/510 511/511
f 509/509 511/511 512/512
f 513/513 514/514 515/515
f 513/513 515/515 516/516
f 517/517 518/518 519/519
f 517/517 519/519 520/520
f 521/521 522/522 523/523
f 521/521 523/523 524/524
f 525/525 526/526 527/527
f 525/525 527/527 528/528
f 529/529 530/530 531/531
f 529/529 531/531 532/532
f 533/533 534/534 535/535
f 533/533 535/535 536/536
f 537/537 538/538 539/539
f 537/537 539/539 540/540
f 541/541 542/542 543/543
f 544/544 545/545 546/546
f 547/547 548/548 549/549
f 550/550 551/551 552/552
f 553/553 554/554 555/555
f 556/556 557/557 558/558
f 559/559 560/560 561/561
f 562/562 563/563 564/564
f 565/565 566/566 567/567
f 568/568 569/569 570/570
f 571/571 572/572 573/573
f 574/574 575/575 576/576
f 577/577 578/578 579/579
f 580/580 581/581 582/582
f 583/583 584/584 585/585
f 586/586 587/587 588/588
f 589/589 590/590 591/591
f 592/592 593/593 594/594
f 595/595 596/596 597/597
f 598/598 599/599 600/600
f 601/601 602/602 603/603
f 604/604 605/605 606/606
f 607/607 608/608 609/609
f 610/610 611/611 612/612
f 613/613 614/614 615/615
f 616/616 617/617 618/618
f 619/619 620/620 621/621
f 622/622 623/623 624/624
f 625/625 626/626 627/627
f 628/628 629/629 630/630
f 631/631 632/632 633/633
f 634/634 635/635 636/636
f 637/637 638/638 639/639
f 640/640 641/641 642/642
f 643/643 644/644 645/645
f 646/646 647/647 648/648
f 649/649 650/650 651/651
f 652/652 653/653 654/654
f 655/655 656/656 657/657
f 658/658 659/659 660/660
f 661/661 662/662 663/663
f 664/664 665/665 666/666
f 667/667 668/668 669/669
f 670/670 671/671 672/672
f 673/673 674/674 675/675
f 676/676 677/677 678/678
f 679/679 680/680 681/681
f 682/682 683/683 684/684
f 685/685 686/686 687/687
f 688/688 689/689 690/690
f 691/691 692/692 693/693
f 694/694 695/695 696/696
f 697/697 698/698 699/699
f 700/700 701/701 702/702
usemtl rebar
f 703/703 704/704 705/705
f 703/703 705/705 706/706
f 707/707 708/708 709/709
f 707/707 709/709 710/710
f 711/711 712/712 713/713
f 711/711 713/713 714/714
f 715/715 716/716 717/717
f 715/715 717/717 718/718
f 719/719 720/720 721/721
f 719/719 721/721 722/722
f 723/723 724/724 725/725
f 723/723 725/725 726/726
f 727/727 728/728 729/729
f 727/727 729/729 730/730
f 731/731 732/732 733/733
f 731/731 733/733 734/734
f 735/735 736/736 737/737
f 735/735 737/737 738/738
f 739/739 740/740 741/741
f 739/739 741/741 742/742
f 743/743 744/744 745/745
f 743/743 745/745 746/746
f 747/747 748/748 749/749
f 747/747 749/749 750/750
f 751/751 752/752 753/753
f 751/751 753/753 754/754
f 755/755 756/756 757/757
f 755/755 757/757 758/758
f 759/759 760/760 761/761
f 759/759 761/761 762/762
f 763/763 764/764 765/765
f 763/763 765/765 766/766
f 767/767 768/768 769/769
f 767/767 769/769 770/770
f 771/771 772/772 773/773
f 771/771 773/773 774/774
f 775/775 776/776 777/777
f 775/775 777/777 778/778
f 779/779 780/780 781/781
f 779/779 781/781 782/782
f 783/783 784/784 785/785
f 783/783 785/785 786/786
f 787/787 788/788 789/789
f 787/787 789/789 790/790
f 791/791 792/792 793/793
f 791/791 793/793 794/794
f 795/795 796/796 797/797
f 795/795 797/797 798/798
f 799/799 800/800 801/801
f 799/799 801/801 802/802
f 803/803 804/804 805/805
f 803/803 805/805 806/806
f 807/807 808/808 809/809
f 807/807 809/809 810/810
f 811/811 812/812 813/813
f 811/811 813/813 814/814
f 815/815 816/816 817/817
f 815/815 817/817 818/818
f 819/819 820/820 821/821
f 819/819 821/821 822/822
f 823/823 824/824 825/825
f 823/823 825/825 826/826
f 827/827 828/828 829/829
f 827/827 829/829 830/830
f 831/831 832/832 833/833
f 831/831 833/833 834/834
f 835/835 836/836 837/837
f 835/835 837/837 838/838
f 839/839 840/840 841/841
f 839/839 841/841 842/842
f 843/843 844/844 845/845
f 843/843 845/845 846/846
f 847/847 848/848 849/849
f 847/847 849/849 850/850
f 851/851 852/852 853/853
f 851/851 853/853 854/854
f 855/855 856/856 857/857
f 855/855 857/857 858/858
f 859/859 860/860 861/861
f 859/859 861/861 862/862
f 863/863 864/864 865/865
f 863/863 865/865 866/866
f 867/867 868/868 869/869
f 867/867 869/869 870/870
f 871/871 872/872 873/873
f 871/871 873/873 874/874
f 875/875 876/876 877/877
f 875/875 877/877 878/878
f 879/879 880/880 881/881
f 879/879 881/881 882/882
f 883/883 884/884 885/885
f 883/883 885/885 886/886
f 887/887 888/888 889/889
f 887/887 889/889 890/890
f 891/891 892/892 893/893
f 891/891 893/893 894/894
f 895/895 896/896 897/897
f 895/895 897/897 898/898
f 899/899 900/900 901/901
f 899/899 901/901 902/902
f 903/903 904/904 905/905
f 903/903 905/905 906/906
f 907/907 908/908 909/909
f 907/907 909/909 910/910
f 911/911 912/912 913/913
f 911/911 913/913 914/914
f 915/915 916/916 917/917
f 915/915 917/917 918/918
f 919/919 920/920 921/921
f 919/919 921/921 922/922
f 923/923 924/924 925/925
f 923/923 925/925 926/926
f 927/927 928/928 929/929
f 927/927 929/929 930/930
f 931/931 932/932 933/933
f 931/931 933/933 934/934
f 935/935 936/936 937/937
f 935/935 937/937 938/938
f 939/939 940/940 941/941
f 939/939 941/941 942/942
f 943/943 944/944 945/945
f 943/943 945/945 946/946
f 947/947 948/948 949/949
f 947/947 949/949 950/950
f 951/951 952/952 953/953
f 951/951 953/953 954/954
f 955/955 956/956 957/957
f 955/955 957/957 958/958
f 959/959 960/960 961/961
f 959/959 961/961 962/962
f 963/963 964/964 965/965
f 963/963 965/965 966/966
f 967/967 968/968 969/969
f 967/967 969/969 970/970
f 971/971 972/972 973/973
f 971/971 973/973 974/974
f 975/975 976/976 977/977
f 975/975 977/977 978/978
f 979/979 980/980 981/981
f 979/979 981/981 982/982
f 983/983 984/984 985/985
f 983/983 985/985 986/986
f 987/987 988/988 989/989
f 987/987 989/989 990/990
f 991/991 992/992 993/993
f 991/991 993/993 994/994
f 995/995 996/996 997/997
f 995/995 997/997 998/998
f 999/999 1000/1000 1001/1001
f 999/999 1001/1001 1002/1002
f 1003/1003 1004/1004 1005/1005
f 1003/1003 1005/1005 1006/1006
f 1007/1007 1008/1008 1009/1009
f 1007/1007 1009/1009 1010/1010
f 1011/1011 1012/1012 1013/1013
f 1011/1011 1013/1013 1014/1014
f 1015/1015 1016/1016 1017/1017
f 1015/1015 1017/1017 1018/1018
f 1019/1019 1020/1020 1021/1021
f 1019/1019 1021/1021 1022/1022
f 1023/1023 1024/1024 1025/1025
f 1023/1023 1025/1025 1026/1026
f 1027/1027 1028/1028 1029/1029
f 1027/1027 1029/1029 1030/1030
f 1031/1031 1032/1032 1033/1033
f 1031/1031 1033/1033 1034/1034
f 1035/1035 1036/1036 1037/1037
f 1035/1035 1037/1037 1038/1038
f 1039/1039 1040/1040 1041/1041
f 1039/1039 1041/1041 1042/1042
f 1043/1043 1044/1044 1045/1045
f 1043/1043 1045/1045 1046/1046
f 1047/1047 1048/1048 1049/1049
f 1047/1047 1049/1049 1050/1050
f 1051/1051 1052/1052 1053/1053
f 1051/1051 1053/1053 1054/1054
f 1055/1055 1056/1056 1057/1057
f 1055/1055 1057/1057 1058/1058
f 1059/1059 1060/1060 1061/1061
f 1059/1059 1061/1061 1062/1062
