# S_slab_4 (Sightline generated, CENTIMETRES, +Z up)
v -121.24 -16.70 -11.17
v -108.50 -39.99 -11.17
v -108.50 -39.99 13.31
v -121.24 -16.70 13.31
v -108.50 -39.99 -11.17
v -100.61 -69.09 -10.72
v -100.61 -69.09 13.78
v -108.50 -39.99 13.31
v -100.61 -69.09 -10.72
v -65.45 -74.13 -10.79
v -65.45 -74.13 13.71
v -100.61 -69.09 13.78
v -65.45 -74.13 -10.79
v -26.63 -77.89 -10.73
v -26.63 -77.89 13.76
v -65.45 -74.13 13.71
v -26.63 -77.89 -10.73
v 12.81 -75.58 -10.69
v 12.81 -75.58 13.81
v -26.63 -77.89 13.76
v 12.81 -75.58 -10.69
v 49.98 -76.46 -10.39
v 49.98 -76.46 14.12
v 12.81 -75.58 13.81
v 49.98 -76.46 -10.39
v 89.33 -80.28 -9.79
v 89.33 -80.28 14.73
v 49.98 -76.46 14.12
v 89.33 -80.28 -9.79
v 137.55 -88.83 -8.63
v 137.55 -88.83 15.94
v 89.33 -80.28 14.73
v 137.55 -88.83 -8.63
v 121.58 -57.18 -10.10
v 121.58 -57.18 14.42
v 137.55 -88.83 15.94
v 121.58 -57.18 -10.10
v 156.53 -49.11 -9.70
v 156.53 -49.11 14.83
v 121.58 -57.18 14.42
v 156.53 -49.11 -9.70
v 162.77 -28.18 -10.08
v 162.77 -28.18 14.44
v 156.53 -49.11 14.83
v 162.77 -28.18 -10.08
v 136.51 -6.30 -10.86
v 136.51 -6.30 13.63
v 162.77 -28.18 14.44
v 136.51 -6.30 -10.86
v 179.41 12.40 -10.23
v 179.41 12.40 14.29
v 136.51 -6.30 13.63
v 179.41 12.40 -10.23
v 175.86 30.63 -10.29
v 175.86 30.63 14.23
v 179.41 12.40 14.29
v 175.86 30.63 -10.29
v 155.31 36.23 -10.60
v 155.31 36.23 13.90
v 175.86 30.63 14.23
v 155.31 36.23 -10.60
v 146.39 44.24 -10.66
v 146.39 44.24 13.84
v 155.31 36.23 13.90
v 146.39 44.24 -10.66
v 131.67 50.52 -10.77
v 131.67 50.52 13.73
v 146.39 44.24 13.84
v 131.67 50.52 -10.77
v 113.37 54.57 -10.91
v 113.37 54.57 13.59
v 131.67 50.52 13.73
v 113.37 54.57 -10.91
v 111.19 66.77 -10.68
v 111.19 66.77 13.82
v 113.37 54.57 13.59
v 111.19 66.77 -10.68
v 100.01 74.94 -10.57
v 100.01 74.94 13.93
v 111.19 66.77 13.82
v 100.01 74.94 -10.57
v 86.30 81.16 -10.49
v 86.30 81.16 14.02
v 100.01 74.94 13.93
v 86.30 81.16 -10.49
v 36.39 47.15 -11.50
v 36.39 47.15 12.98
v 86.30 81.16 14.02
v 36.39 47.15 -11.50
v 37.37 76.28 -10.79
v 37.37 76.28 13.71
v 36.39 47.15 12.98
v 37.37 76.28 -10.79
v 17.85 82.40 -10.57
v 17.85 82.40 13.93
v 37.37 76.28 13.71
v 17.85 82.40 -10.57
v -4.39 91.39 -10.17
v -4.39 91.39 14.35
v 17.85 82.40 13.93
v -4.39 91.39 -10.17
v -25.48 83.64 -10.34
v -25.48 83.64 14.18
v -4.39 91.39 14.35
v -25.48 83.64 -10.34
v -45.10 81.48 -10.26
v -45.10 81.48 14.26
v -25.48 83.64 14.18
v -45.10 81.48 -10.26
v -80.27 100.96 -9.04
v -80.27 100.96 15.51
v -45.10 81.48 14.26
v -80.27 100.96 -9.04
v -99.30 89.42 -9.28
v -99.30 89.42 15.27
v -80.27 100.96 15.51
v -99.30 89.42 -9.28
v -80.39 53.08 -10.79
v -80.39 53.08 13.71
v -99.30 89.42 15.27
v -80.39 53.08 -10.79
v -116.63 56.87 -10.19
v -116.63 56.87 14.33
v -80.39 53.08 13.71
v -116.63 56.87 -10.19
v -162.15 57.97 -9.31
v -162.15 57.97 15.23
v -116.63 56.87 14.33
v -162.15 57.97 -9.31
v -178.91 45.80 -9.32
v -178.91 45.80 15.23
v -162.15 57.97 15.23
v -178.91 45.80 -9.32
v -172.39 30.10 -9.85
v -172.39 30.10 14.68
v -178.91 45.80 15.23
v -172.39 30.10 -9.85
v -192.56 7.18 -9.80
v -192.56 7.18 14.73
v -172.39 30.10 14.68
v -192.56 7.18 -9.80
v -121.24 -16.70 -11.17
v -121.24 -16.70 13.31
v -192.56 7.18 14.73
v -121.24 -16.70 13.31
v -108.50 -39.99 13.31
v -67.27 -24.79 12.81
v -75.17 -10.36 12.81
v -108.50 -39.99 -11.17
v -121.24 -16.70 -11.17
v -75.17 -10.36 -11.68
v -67.27 -24.79 -11.68
v -108.50 -39.99 13.31
v -100.61 -69.09 13.78
v -62.38 -42.84 12.99
v -67.27 -24.79 12.81
v -100.61 -69.09 -10.72
v -108.50 -39.99 -11.17
v -67.27 -24.79 -11.68
v -62.38 -42.84 -11.50
v -100.61 -69.09 13.78
v -65.45 -74.13 13.71
v -40.58 -45.96 12.96
v -62.38 -42.84 12.99
v -65.45 -74.13 -10.79
v -100.61 -69.09 -10.72
v -62.38 -42.84 -11.50
v -40.58 -45.96 -11.53
v -65.45 -74.13 13.71
v -26.63 -77.89 13.76
v -16.51 -48.29 12.99
v -40.58 -45.96 12.96
v -26.63 -77.89 -10.73
v -65.45 -74.13 -10.79
v -40.58 -45.96 -11.53
v -16.51 -48.29 -11.51
v -26.63 -77.89 13.76
v 12.81 -75.58 13.81
v 7.94 -46.86 13.00
v -16.51 -48.29 12.99
v 12.81 -75.58 -10.69
v -26.63 -77.89 -10.73
v -16.51 -48.29 -11.51
v 7.94 -46.86 -11.49
v 12.81 -75.58 13.81
v 49.98 -76.46 14.12
v 30.99 -47.41 13.12
v 7.94 -46.86 13.00
v 49.98 -76.46 -10.39
v 12.81 -75.58 -10.69
v 7.94 -46.86 -11.49
v 30.99 -47.41 -11.38
v 49.98 -76.46 14.12
v 89.33 -80.28 14.73
v 55.38 -49.77 13.36
v 30.99 -47.41 13.12
v 89.33 -80.28 -9.79
v 49.98 -76.46 -10.39
v 30.99 -47.41 -11.38
v 55.38 -49.77 -11.15
v 89.33 -80.28 14.73
v 137.55 -88.83 15.94
v 85.28 -55.07 13.82
v 55.38 -49.77 13.36
v 137.55 -88.83 -8.63
v 89.33 -80.28 -9.79
v 55.38 -49.77 -11.15
v 85.28 -55.07 -10.70
v 137.55 -88.83 15.94
v 121.58 -57.18 14.42
v 75.38 -35.45 13.24
v 85.28 -55.07 13.82
v 121.58 -57.18 -10.10
v 137.55 -88.83 -8.63
v 85.28 -55.07 -10.70
v 75.38 -35.45 -11.26
v 121.58 -57.18 14.42
v 156.53 -49.11 14.83
v 97.05 -30.45 13.40
v 75.38 -35.45 13.24
v 156.53 -49.11 -9.70
v 121.58 -57.18 -10.10
v 75.38 -35.45 -11.26
v 97.05 -30.45 -11.11
v 156.53 -49.11 14.83
v 162.77 -28.18 14.44
v 100.92 -17.47 13.25
v 97.05 -30.45 13.40
v 162.77 -28.18 -10.08
v 156.53 -49.11 -9.70
v 97.05 -30.45 -11.11
v 100.92 -17.47 -11.26
v 162.77 -28.18 14.44
v 136.51 -6.30 13.63
v 84.63 -3.90 12.94
v 100.92 -17.47 13.25
v 136.51 -6.30 -10.86
v 162.77 -28.18 -10.08
v 100.92 -17.47 -11.26
v 84.63 -3.90 -11.56
v 136.51 -6.30 13.63
v 179.41 12.40 14.29
v 111.23 7.69 13.19
v 84.63 -3.90 12.94
v 179.41 12.40 -10.23
v 136.51 -6.30 -10.86
v 84.63 -3.90 -11.56
v 111.23 7.69 -11.31
v 179.41 12.40 14.29
v 175.86 30.63 14.23
v 109.04 18.99 13.16
v 111.23 7.69 13.19
v 175.86 30.63 -10.29
v 179.41 12.40 -10.23
v 111.23 7.69 -11.31
v 109.04 18.99 -11.34
v 175.86 30.63 14.23
v 155.31 36.23 13.90
v 96.29 22.46 13.04
v 109.04 18.99 13.16
v 155.31 36.23 -10.60
v 175.86 30.63 -10.29
v 109.04 18.99 -11.34
v 96.29 22.46 -11.46
v 155.31 36.23 13.90
v 146.39 44.24 13.84
v 90.76 27.43 13.02
v 96.29 22.46 13.04
v 146.39 44.24 -10.66
v 155.31 36.23 -10.60
v 96.29 22.46 -11.46
v 90.76 27.43 -11.48
v 146.39 44.24 13.84
v 131.67 50.52 13.73
v 81.64 31.32 12.97
v 90.76 27.43 13.02
v 131.67 50.52 -10.77
v 146.39 44.24 -10.66
v 90.76 27.43 -11.48
v 81.64 31.32 -11.52
v 131.67 50.52 13.73
v 113.37 54.57 13.59
v 70.29 33.83 12.92
v 81.64 31.32 12.97
v 113.37 54.57 -10.91
v 131.67 50.52 -10.77
v 81.64 31.32 -11.52
v 70.29 33.83 -11.57
v 113.37 54.57 13.59
v 111.19 66.77 13.82
v 68.94 41.40 13.01
v 70.29 33.83 12.92
v 111.19 66.77 -10.68
v 113.37 54.57 -10.91
v 70.29 33.83 -11.57
v 68.94 41.40 -11.49
v 111.19 66.77 13.82
v 100.01 74.94 13.93
v 62.00 46.47 13.05
v 68.94 41.40 13.01
v 100.01 74.94 -10.57
v 111.19 66.77 -10.68
v 68.94 41.40 -11.49
v 62.00 46.47 -11.45
v 100.01 74.94 13.93
v 86.30 81.16 14.02
v 53.51 50.32 13.08
v 62.00 46.47 13.05
v 86.30 81.16 -10.49
v 100.01 74.94 -10.57
v 62.00 46.47 -11.45
v 53.51 50.32 -11.41
v 86.30 81.16 14.02
v 36.39 47.15 12.98
v 22.56 29.23 12.68
v 53.51 50.32 13.08
v 36.39 47.15 -11.50
v 86.30 81.16 -10.49
v 53.51 50.32 -11.41
v 22.56 29.23 -11.80
v 36.39 47.15 12.98
v 37.37 76.28 13.71
v 23.17 47.29 12.97
v 22.56 29.23 12.68
v 37.37 76.28 -10.79
v 36.39 47.15 -11.50
v 22.56 29.23 -11.80
v 23.17 47.29 -11.53
v 37.37 76.28 13.71
v 17.85 82.40 13.93
v 11.07 51.09 13.05
v 23.17 47.29 12.97
v 17.85 82.40 -10.57
v 37.37 76.28 -10.79
v 23.17 47.29 -11.53
v 11.07 51.09 -11.45
v 17.85 82.40 13.93
v -4.39 91.39 14.35
v -2.72 56.66 13.21
v 11.07 51.09 13.05
v -4.39 91.39 -10.17
v 17.85 82.40 -10.57
v 11.07 51.09 -11.45
v -2.72 56.66 -11.29
v -4.39 91.39 14.35
v -25.48 83.64 14.18
v -15.80 51.86 13.14
v -2.72 56.66 13.21
v -25.48 83.64 -10.34
v -4.39 91.39 -10.17
v -2.72 56.66 -11.29
v -15.80 51.86 -11.35
v -25.48 83.64 14.18
v -45.10 81.48 14.26
v -27.96 50.52 13.17
v -15.80 51.86 13.14
v -45.10 81.48 -10.26
v -25.48 83.64 -10.34
v -15.80 51.86 -11.35
v -27.96 50.52 -11.32
v -45.10 81.48 14.26
v -80.27 100.96 15.51
v -49.77 62.60 13.66
v -27.96 50.52 13.17
v -80.27 100.96 -9.04
v -45.10 81.48 -10.26
v -27.96 50.52 -11.32
v -49.77 62.60 -10.86
v -80.27 100.96 15.51
v -99.30 89.42 15.27
v -61.57 55.44 13.56
v -49.77 62.60 13.66
v -99.30 89.42 -9.28
v -80.27 100.96 -9.04
v -49.77 62.60 -10.86
v -61.57 55.44 -10.95
v -99.30 89.42 15.27
v -80.39 53.08 13.71
v -49.84 32.91 12.96
v -61.57 55.44 13.56
v -80.39 53.08 -10.79
v -99.30 89.42 -9.28
v -61.57 55.44 -10.95
v -49.84 32.91 -11.53
v -80.39 53.08 13.71
v -116.63 56.87 14.33
v -72.31 35.26 13.20
v -49.84 32.91 12.96
v -116.63 56.87 -10.19
v -80.39 53.08 -10.79
v -49.84 32.91 -11.53
v -72.31 35.26 -11.30
v -116.63 56.87 14.33
v -162.15 57.97 15.23
v -100.53 35.94 13.55
v -72.31 35.26 13.20
v -162.15 57.97 -9.31
v -116.63 56.87 -10.19
v -72.31 35.26 -11.30
v -100.53 35.94 -10.96
v -162.15 57.97 15.23
v -178.91 45.80 15.23
v -110.92 28.40 13.55
v -100.53 35.94 13.55
v -178.91 45.80 -9.32
v -162.15 57.97 -9.31
v -100.53 35.94 -10.96
v -110.92 28.40 -10.96
v -178.91 45.80 15.23
v -172.39 30.10 14.68
v -106.88 18.66 13.34
v -110.92 28.40 13.55
v -172.39 30.10 -9.85
v -178.91 45.80 -9.32
v -110.92 28.40 -10.96
v -106.88 18.66 -11.17
v -172.39 30.10 14.68
v -192.56 7.18 14.73
v -119.38 4.45 13.36
v -106.88 18.66 13.34
v -192.56 7.18 -9.80
v -172.39 30.10 -9.85
v -106.88 18.66 -11.17
v -119.38 4.45 -11.15
v -192.56 7.18 14.73
v -121.24 -16.70 13.31
v -75.17 -10.36 12.81
v -119.38 4.45 13.36
v -121.24 -16.70 -11.17
v -192.56 7.18 -9.80
v -119.38 4.45 -11.15
v -75.17 -10.36 -11.68
v -75.17 -10.36 12.81
v -67.27 -24.79 12.81
v -32.55 -12.00 12.57
v -36.37 -5.01 12.57
v -67.27 -24.79 -11.68
v -75.17 -10.36 -11.68
v -36.37 -5.01 -10.63
v -32.55 -12.00 -10.63
v -67.27 -24.79 12.81
v -62.38 -42.84 12.99
v -30.18 -20.73 12.62
v -32.55 -12.00 12.57
v -62.38 -42.84 -11.50
v -67.27 -24.79 -11.68
v -32.55 -12.00 -10.63
v -30.18 -20.73 -10.59
v -62.38 -42.84 12.99
v -40.58 -45.96 12.96
v -19.64 -22.24 12.61
v -30.18 -20.73 12.62
v -40.58 -45.96 -11.53
v -62.38 -42.84 -11.50
v -30.18 -20.73 -10.59
v -19.64 -22.24 -10.60
v -40.58 -45.96 12.96
v -16.51 -48.29 12.99
v -7.99 -23.37 12.61
v -19.64 -22.24 12.61
v -16.51 -48.29 -11.51
v -40.58 -45.96 -11.53
v -19.64 -22.24 -10.60
v -7.99 -23.37 -10.59
v -16.51 -48.29 12.99
v 7.94 -46.86 13.00
v 3.84 -22.68 12.62
v -7.99 -23.37 12.61
v 7.94 -46.86 -11.49
v -16.51 -48.29 -11.51
v -7.99 -23.37 -10.59
v 3.84 -22.68 -10.59
v 7.94 -46.86 13.00
v 30.99 -47.41 13.12
v 14.99 -22.94 12.65
v 3.84 -22.68 12.62
v 30.99 -47.41 -11.38
v 7.94 -46.86 -11.49
v 3.84 -22.68 -10.59
v 14.99 -22.94 -10.56
v 30.99 -47.41 13.12
v 55.38 -49.77 13.36
v 26.80 -24.08 12.70
v 14.99 -22.94 12.65
v 55.38 -49.77 -11.15
v 30.99 -47.41 -11.38
v 14.99 -22.94 -10.56
v 26.80 -24.08 -10.51
v 55.38 -49.77 13.36
v 85.28 -55.07 13.82
v 41.27 -26.65 12.81
v 26.80 -24.08 12.70
v 85.28 -55.07 -10.70
v 55.38 -49.77 -11.15
v 26.80 -24.08 -10.51
v 41.27 -26.65 -10.40
v 85.28 -55.07 13.82
v 75.38 -35.45 13.24
v 36.47 -17.16 12.67
v 41.27 -26.65 12.81
v 75.38 -35.45 -11.26
v 85.28 -55.07 -10.70
v 41.27 -26.65 -10.40
v 36.47 -17.16 -10.53
v 75.38 -35.45 13.24
v 97.05 -30.45 13.40
v 46.96 -14.73 12.71
v 36.47 -17.16 12.67
v 97.05 -30.45 -11.11
v 75.38 -35.45 -11.26
v 36.47 -17.16 -10.53
v 46.96 -14.73 -10.50
v 97.05 -30.45 13.40
v 100.92 -17.47 13.25
v 48.83 -8.45 12.67
v 46.96 -14.73 12.71
v 100.92 -17.47 -11.26
v 97.05 -30.45 -11.11
v 46.96 -14.73 -10.50
v 48.83 -8.45 -10.53
v 100.92 -17.47 13.25
v 84.63 -3.90 12.94
v 40.95 -1.89 12.60
v 48.83 -8.45 12.67
v 84.63 -3.90 -11.56
v 100.92 -17.47 -11.26
v 48.83 -8.45 -10.53
v 40.95 -1.89 -10.60
v 84.63 -3.90 12.94
v 111.23 7.69 13.19
v 53.82 3.72 12.66
v 40.95 -1.89 12.60
v 111.23 7.69 -11.31
v 84.63 -3.90 -11.56
v 40.95 -1.89 -10.60
v 53.82 3.72 -10.55
v 111.23 7.69 13.19
v 109.04 18.99 13.16
v 52.76 9.19 12.66
v 53.82 3.72 12.66
v 109.04 18.99 -11.34
v 111.23 7.69 -11.31
v 53.82 3.72 -10.55
v 52.76 9.19 -10.55
v 109.04 18.99 13.16
v 96.29 22.46 13.04
v 46.59 10.87 12.63
v 52.76 9.19 12.66
v 96.29 22.46 -11.46
v 109.04 18.99 -11.34
v 52.76 9.19 -10.55
v 46.59 10.87 -10.58
v 96.29 22.46 13.04
v 90.76 27.43 13.02
v 43.92 13.27 12.62
v 46.59 10.87 12.63
v 90.76 27.43 -11.48
v 96.29 22.46 -11.46
v 46.59 10.87 -10.58
v 43.92 13.27 -10.58
v 90.76 27.43 13.02
v 81.64 31.32 12.97
v 39.50 15.16 12.61
v 43.92 13.27 12.62
v 81.64 31.32 -11.52
v 90.76 27.43 -11.48
v 43.92 13.27 -10.58
v 39.50 15.16 -10.59
v 81.64 31.32 12.97
v 70.29 33.83 12.92
v 34.01 16.37 12.60
v 39.50 15.16 12.61
v 70.29 33.83 -11.57
v 81.64 31.32 -11.52
v 39.50 15.16 -10.59
v 34.01 16.37 -10.61
v 70.29 33.83 12.92
v 68.94 41.40 13.01
v 33.36 20.03 12.62
v 34.01 16.37 12.60
v 68.94 41.40 -11.49
v 70.29 33.83 -11.57
v 34.01 16.37 -10.61
v 33.36 20.03 -10.59
v 68.94 41.40 13.01
v 62.00 46.47 13.05
v 30.00 22.48 12.63
v 33.36 20.03 12.62
v 62.00 46.47 -11.45
v 68.94 41.40 -11.49
v 33.36 20.03 -10.59
v 30.00 22.48 -10.58
v 62.00 46.47 13.05
v 53.51 50.32 13.08
v 25.89 24.35 12.64
v 30.00 22.48 12.63
v 53.51 50.32 -11.41
v 62.00 46.47 -11.45
v 30.00 22.48 -10.58
v 25.89 24.35 -10.57
v 53.51 50.32 13.08
v 22.56 29.23 12.68
v 10.92 14.14 12.54
v 25.89 24.35 12.64
v 22.56 29.23 -11.80
v 53.51 50.32 -11.41
v 25.89 24.35 -10.57
v 10.92 14.14 -10.66
v 22.56 29.23 12.68
v 23.17 47.29 12.97
v 11.21 22.88 12.61
v 10.92 14.14 12.54
v 23.17 47.29 -11.53
v 22.56 29.23 -11.80
v 10.92 14.14 -10.66
v 11.21 22.88 -10.60
v 23.17 47.29 12.97
v 11.07 51.09 13.05
v 5.36 24.72 12.63
v 11.21 22.88 12.61
v 11.07 51.09 -11.45
v 23.17 47.29 -11.53
v 11.21 22.88 -10.60
v 5.36 24.72 -10.58
v 11.07 51.09 13.05
v -2.72 56.66 13.21
v -1.32 27.42 12.67
v 5.36 24.72 12.63
v -2.72 56.66 -11.29
v 11.07 51.09 -11.45
v 5.36 24.72 -10.58
v -1.32 27.42 -10.54
v -2.72 56.66 13.21
v -15.80 51.86 13.14
v -7.64 25.09 12.65
v -1.32 27.42 12.67
v -15.80 51.86 -11.35
v -2.72 56.66 -11.29
v -1.32 27.42 -10.54
v -7.64 25.09 -10.56
v -15.80 51.86 13.14
v -27.96 50.52 13.17
v -13.53 24.44 12.66
v -7.64 25.09 12.65
v -27.96 50.52 -11.32
v -15.80 51.86 -11.35
v -7.64 25.09 -10.56
v -13.53 24.44 -10.55
v -27.96 50.52 13.17
v -49.77 62.60 13.66
v -24.08 30.29 12.77
v -13.53 24.44 12.66
v -49.77 62.60 -10.86
v -27.96 50.52 -11.32
v -13.53 24.44 -10.55
v -24.08 30.29 -10.44
v -49.77 62.60 13.66
v -61.57 55.44 13.56
v -29.79 26.83 12.75
v -24.08 30.29 12.77
v -61.57 55.44 -10.95
v -49.77 62.60 -10.86
v -24.08 30.29 -10.44
v -29.79 26.83 -10.46
v -61.57 55.44 13.56
v -49.84 32.91 12.96
v -24.12 15.92 12.61
v -29.79 26.83 12.75
v -49.84 32.91 -11.53
v -61.57 55.44 -10.95
v -29.79 26.83 -10.46
v -24.12 15.92 -10.60
v -49.84 32.91 12.96
v -72.31 35.26 13.20
v -34.99 17.06 12.66
v -24.12 15.92 12.61
v -72.31 35.26 -11.30
v -49.84 32.91 -11.53
v -24.12 15.92 -10.60
v -34.99 17.06 -10.54
v -72.31 35.26 13.20
v -100.53 35.94 13.55
v -48.64 17.39 12.75
v -34.99 17.06 12.66
v -100.53 35.94 -10.96
v -72.31 35.26 -11.30
v -34.99 17.06 -10.54
v -48.64 17.39 -10.46
v -100.53 35.94 13.55
v -110.92 28.40 13.55
v -53.67 13.74 12.75
v -48.64 17.39 12.75
v -110.92 28.40 -10.96
v -100.53 35.94 -10.96
v -48.64 17.39 -10.46
v -53.67 13.74 -10.46
v -110.92 28.40 13.55
v -106.88 18.66 13.34
v -51.72 9.03 12.70
v -53.67 13.74 12.75
v -106.88 18.66 -11.17
v -110.92 28.40 -10.96
v -53.67 13.74 -10.46
v -51.72 9.03 -10.51
v -106.88 18.66 13.34
v -119.38 4.45 13.36
v -57.77 2.15 12.70
v -51.72 9.03 12.70
v -119.38 4.45 -11.15
v -106.88 18.66 -11.17
v -51.72 9.03 -10.51
v -57.77 2.15 -10.51
v -119.38 4.45 13.36
v -75.17 -10.36 12.81
v -36.37 -5.01 12.57
v -57.77 2.15 12.70
v -75.17 -10.36 -11.68
v -119.38 4.45 -11.15
v -57.77 2.15 -10.51
v -36.37 -5.01 -10.63
v -36.37 -5.01 12.57
v -32.55 -12.00 12.57
v 0.00 0.00 12.50
v -32.55 -12.00 -10.63
v -36.37 -5.01 -10.63
v 0.00 0.00 -12.50
v -32.55 -12.00 12.57
v -30.18 -20.73 12.62
v 0.00 0.00 12.50
v -30.18 -20.73 -10.59
v -32.55 -12.00 -10.63
v 0.00 0.00 -12.50
v -30.18 -20.73 12.62
v -19.64 -22.24 12.61
v 0.00 0.00 12.50
v -19.64 -22.24 -10.60
v -30.18 -20.73 -10.59
v 0.00 0.00 -12.50
v -19.64 -22.24 12.61
v -7.99 -23.37 12.61
v 0.00 0.00 12.50
v -7.99 -23.37 -10.59
v -19.64 -22.24 -10.60
v 0.00 0.00 -12.50
v -7.99 -23.37 12.61
v 3.84 -22.68 12.62
v 0.00 0.00 12.50
v 3.84 -22.68 -10.59
v -7.99 -23.37 -10.59
v 0.00 0.00 -12.50
v 3.84 -22.68 12.62
v 14.99 -22.94 12.65
v 0.00 0.00 12.50
v 14.99 -22.94 -10.56
v 3.84 -22.68 -10.59
v 0.00 0.00 -12.50
v 14.99 -22.94 12.65
v 26.80 -24.08 12.70
v 0.00 0.00 12.50
v 26.80 -24.08 -10.51
v 14.99 -22.94 -10.56
v 0.00 0.00 -12.50
v 26.80 -24.08 12.70
v 41.27 -26.65 12.81
v 0.00 0.00 12.50
v 41.27 -26.65 -10.40
v 26.80 -24.08 -10.51
v 0.00 0.00 -12.50
v 41.27 -26.65 12.81
v 36.47 -17.16 12.67
v 0.00 0.00 12.50
v 36.47 -17.16 -10.53
v 41.27 -26.65 -10.40
v 0.00 0.00 -12.50
v 36.47 -17.16 12.67
v 46.96 -14.73 12.71
v 0.00 0.00 12.50
v 46.96 -14.73 -10.50
v 36.47 -17.16 -10.53
v 0.00 0.00 -12.50
v 46.96 -14.73 12.71
v 48.83 -8.45 12.67
v 0.00 0.00 12.50
v 48.83 -8.45 -10.53
v 46.96 -14.73 -10.50
v 0.00 0.00 -12.50
v 48.83 -8.45 12.67
v 40.95 -1.89 12.60
v 0.00 0.00 12.50
v 40.95 -1.89 -10.60
v 48.83 -8.45 -10.53
v 0.00 0.00 -12.50
v 40.95 -1.89 12.60
v 53.82 3.72 12.66
v 0.00 0.00 12.50
v 53.82 3.72 -10.55
v 40.95 -1.89 -10.60
v 0.00 0.00 -12.50
v 53.82 3.72 12.66
v 52.76 9.19 12.66
v 0.00 0.00 12.50
v 52.76 9.19 -10.55
v 53.82 3.72 -10.55
v 0.00 0.00 -12.50
v 52.76 9.19 12.66
v 46.59 10.87 12.63
v 0.00 0.00 12.50
v 46.59 10.87 -10.58
v 52.76 9.19 -10.55
v 0.00 0.00 -12.50
v 46.59 10.87 12.63
v 43.92 13.27 12.62
v 0.00 0.00 12.50
v 43.92 13.27 -10.58
v 46.59 10.87 -10.58
v 0.00 0.00 -12.50
v 43.92 13.27 12.62
v 39.50 15.16 12.61
v 0.00 0.00 12.50
v 39.50 15.16 -10.59
v 43.92 13.27 -10.58
v 0.00 0.00 -12.50
v 39.50 15.16 12.61
v 34.01 16.37 12.60
v 0.00 0.00 12.50
v 34.01 16.37 -10.61
v 39.50 15.16 -10.59
v 0.00 0.00 -12.50
v 34.01 16.37 12.60
v 33.36 20.03 12.62
v 0.00 0.00 12.50
v 33.36 20.03 -10.59
v 34.01 16.37 -10.61
v 0.00 0.00 -12.50
v 33.36 20.03 12.62
v 30.00 22.48 12.63
v 0.00 0.00 12.50
v 30.00 22.48 -10.58
v 33.36 20.03 -10.59
v 0.00 0.00 -12.50
v 30.00 22.48 12.63
v 25.89 24.35 12.64
v 0.00 0.00 12.50
v 25.89 24.35 -10.57
v 30.00 22.48 -10.58
v 0.00 0.00 -12.50
v 25.89 24.35 12.64
v 10.92 14.14 12.54
v 0.00 0.00 12.50
v 10.92 14.14 -10.66
v 25.89 24.35 -10.57
v 0.00 0.00 -12.50
v 10.92 14.14 12.54
v 11.21 22.88 12.61
v 0.00 0.00 12.50
v 11.21 22.88 -10.60
v 10.92 14.14 -10.66
v 0.00 0.00 -12.50
v 11.21 22.88 12.61
v 5.36 24.72 12.63
v 0.00 0.00 12.50
v 5.36 24.72 -10.58
v 11.21 22.88 -10.60
v 0.00 0.00 -12.50
v 5.36 24.72 12.63
v -1.32 27.42 12.67
v 0.00 0.00 12.50
v -1.32 27.42 -10.54
v 5.36 24.72 -10.58
v 0.00 0.00 -12.50
v -1.32 27.42 12.67
v -7.64 25.09 12.65
v 0.00 0.00 12.50
v -7.64 25.09 -10.56
v -1.32 27.42 -10.54
v 0.00 0.00 -12.50
v -7.64 25.09 12.65
v -13.53 24.44 12.66
v 0.00 0.00 12.50
v -13.53 24.44 -10.55
v -7.64 25.09 -10.56
v 0.00 0.00 -12.50
v -13.53 24.44 12.66
v -24.08 30.29 12.77
v 0.00 0.00 12.50
v -24.08 30.29 -10.44
v -13.53 24.44 -10.55
v 0.00 0.00 -12.50
v -24.08 30.29 12.77
v -29.79 26.83 12.75
v 0.00 0.00 12.50
v -29.79 26.83 -10.46
v -24.08 30.29 -10.44
v 0.00 0.00 -12.50
v -29.79 26.83 12.75
v -24.12 15.92 12.61
v 0.00 0.00 12.50
v -24.12 15.92 -10.60
v -29.79 26.83 -10.46
v 0.00 0.00 -12.50
v -24.12 15.92 12.61
v -34.99 17.06 12.66
v 0.00 0.00 12.50
v -34.99 17.06 -10.54
v -24.12 15.92 -10.60
v 0.00 0.00 -12.50
v -34.99 17.06 12.66
v -48.64 17.39 12.75
v 0.00 0.00 12.50
v -48.64 17.39 -10.46
v -34.99 17.06 -10.54
v 0.00 0.00 -12.50
v -48.64 17.39 12.75
v -53.67 13.74 12.75
v 0.00 0.00 12.50
v -53.67 13.74 -10.46
v -48.64 17.39 -10.46
v 0.00 0.00 -12.50
v -53.67 13.74 12.75
v -51.72 9.03 12.70
v 0.00 0.00 12.50
v -51.72 9.03 -10.51
v -53.67 13.74 -10.46
v 0.00 0.00 -12.50
v -51.72 9.03 12.70
v -57.77 2.15 12.70
v 0.00 0.00 12.50
v -57.77 2.15 -10.51
v -51.72 9.03 -10.51
v 0.00 0.00 -12.50
v -57.77 2.15 12.70
v -36.37 -5.01 12.57
v 0.00 0.00 12.50
v -36.37 -5.01 -10.63
v -57.77 2.15 -10.51
v 0.00 0.00 -12.50
v 112.57 65.33 2.46
v 112.57 68.29 2.69
v 122.33 63.38 27.68
v 119.52 63.30 28.65
v 112.57 68.29 2.69
v 109.80 68.21 3.76
v 122.35 66.34 27.97
v 122.33 63.38 27.68
v 109.80 68.21 3.76
v 109.80 65.25 3.53
v 119.54 66.26 28.94
v 122.35 66.34 27.97
v 109.80 65.25 3.53
v 112.57 65.33 2.46
v 119.52 63.30 28.65
v 119.54 66.26 28.94
v 119.52 63.30 28.65
v 122.33 63.38 27.68
v 127.46 60.25 54.07
v 127.49 63.21 54.38
v 122.33 63.38 27.68
v 122.35 66.34 27.97
v 130.41 60.27 53.63
v 127.46 60.25 54.07
v 122.35 66.34 27.97
v 119.54 66.26 28.94
v 130.43 63.23 53.94
v 130.41 60.27 53.63
v 119.54 66.26 28.94
v 119.52 63.30 28.65
v 127.49 63.21 54.38
v 130.43 63.23 53.94
v 127.49 63.21 54.38
v 127.46 60.25 54.07
v 127.35 60.67 81.49
v 130.28 60.69 80.98
v 127.46 60.25 54.07
v 130.41 60.27 53.63
v 127.29 57.74 80.96
v 127.35 60.67 81.49
v 130.41 60.27 53.63
v 130.43 63.23 53.94
v 130.22 57.77 80.46
v 127.29 57.74 80.96
v 130.43 63.23 53.94
v 127.49 63.21 54.38
v 130.28 60.69 80.98
v 130.22 57.77 80.46
v 130.28 60.69 80.98
v 127.35 60.67 81.49
v 139.30 53.88 105.45
v 139.19 51.01 104.69
v 127.35 60.67 81.49
v 127.29 57.74 80.96
v 136.49 53.72 106.44
v 139.30 53.88 105.45
v 127.29 57.74 80.96
v 130.22 57.77 80.46
v 136.39 50.85 105.68
v 136.49 53.72 106.44
v 130.22 57.77 80.46
v 130.28 60.69 80.98
v 139.19 51.01 104.69
v 136.39 50.85 105.68
v 109.80 65.25 3.53
v 109.80 68.21 3.76
v 112.57 68.29 2.69
v 112.57 65.33 2.46
v 139.19 51.01 104.69
v 139.30 53.88 105.45
v 136.49 53.72 106.44
v 136.39 50.85 105.68
v -6.16 90.78 -6.40
v -2.56 91.78 -6.40
v -12.93 115.21 -4.91
v -13.08 115.74 -8.61
v -2.56 91.78 -6.40
v -2.61 91.99 -10.13
v -9.24 115.84 -4.97
v -12.93 115.21 -4.91
v -2.61 91.99 -10.13
v -6.22 90.99 -10.13
v -9.39 116.38 -8.67
v -9.24 115.84 -4.97
v -6.22 90.99 -10.13
v -6.16 90.78 -6.40
v -13.08 115.74 -8.61
v -9.39 116.38 -8.67
v -13.08 115.74 -8.61
v -12.93 115.21 -4.91
v -14.64 140.75 -2.63
v -10.90 140.58 -2.81
v -12.93 115.21 -4.91
v -9.24 115.84 -4.97
v -14.49 140.26 1.07
v -14.64 140.75 -2.63
v -9.24 115.84 -4.97
v -9.39 116.38 -8.67
v -10.75 140.09 0.90
v -14.49 140.26 1.07
v -9.39 116.38 -8.67
v -13.08 115.74 -8.61
v -10.90 140.58 -2.81
v -10.75 140.09 0.90
v -10.90 140.58 -2.81
v -14.64 140.75 -2.63
v -6.79 165.14 -2.34
v -6.61 165.13 1.40
v -14.64 140.75 -2.63
v -14.49 140.26 1.07
v -10.47 165.76 -2.16
v -6.79 165.14 -2.34
v -14.49 140.26 1.07
v -10.75 140.09 0.90
v -10.30 165.76 1.57
v -10.47 165.76 -2.16
v -10.75 140.09 0.90
v -10.90 140.58 -2.81
v -6.61 165.13 1.40
v -10.30 165.76 1.57
v -6.61 165.13 1.40
v -6.79 165.14 -2.34
v -2.33 190.17 0.57
v -6.01 190.81 0.74
v -6.79 165.14 -2.34
v -10.47 165.76 -2.16
v -2.52 190.08 -3.17
v -2.33 190.17 0.57
v -10.47 165.76 -2.16
v -10.30 165.76 1.57
v -6.20 190.72 -2.99
v -2.52 190.08 -3.17
v -10.30 165.76 1.57
v -6.61 165.13 1.40
v -6.01 190.81 0.74
v -6.20 190.72 -2.99
v -6.22 90.99 -10.13
v -2.61 91.99 -10.13
v -2.56 91.78 -6.40
v -6.16 90.78 -6.40
v -6.01 190.81 0.74
v -2.33 190.17 0.57
v -2.52 190.08 -3.17
v -6.20 190.72 -2.99
v -64.39 -75.19 6.62
v -66.95 -74.09 6.62
v -71.54 -91.86 -1.26
v -71.08 -90.78 -3.78
v -66.95 -74.09 6.62
v -66.51 -73.08 4.07
v -73.99 -90.55 -1.15
v -71.54 -91.86 -1.26
v -66.51 -73.08 4.07
v -63.96 -74.17 4.07
v -73.53 -89.47 -3.67
v -73.99 -90.55 -1.15
v -63.96 -74.17 4.07
v -64.39 -75.19 6.62
v -71.08 -90.78 -3.78
v -73.53 -89.47 -3.67
v -71.08 -90.78 -3.78
v -71.54 -91.86 -1.26
v -81.41 -105.40 -12.58
v -83.17 -103.33 -12.01
v -71.54 -91.86 -1.26
v -73.99 -90.55 -1.15
v -82.21 -106.72 -10.26
v -81.41 -105.40 -12.58
v -73.99 -90.55 -1.15
v -73.53 -89.47 -3.67
v -83.97 -104.64 -9.69
v -82.21 -106.72 -10.26
v -73.53 -89.47 -3.67
v -71.08 -90.78 -3.78
v -83.17 -103.33 -12.01
v -83.97 -104.64 -9.69
v -83.17 -103.33 -12.01
v -81.41 -105.40 -12.58
v -98.98 -106.12 -21.90
v -100.09 -107.63 -19.85
v -81.41 -105.40 -12.58
v -82.21 -106.72 -10.26
v -98.05 -108.45 -23.11
v -98.98 -106.12 -21.90
v -82.21 -106.72 -10.26
v -83.97 -104.64 -9.69
v -99.17 -109.96 -21.06
v -98.05 -108.45 -23.11
v -83.97 -104.64 -9.69
v -83.17 -103.33 -12.01
v -100.09 -107.63 -19.85
v -99.17 -109.96 -21.06
v -100.09 -107.63 -19.85
v -98.98 -106.12 -21.90
v -117.01 -107.44 -29.61
v -116.28 -109.77 -30.93
v -98.98 -106.12 -21.90
v -98.05 -108.45 -23.11
v -115.83 -105.93 -31.63
v -117.01 -107.44 -29.61
v -98.05 -108.45 -23.11
v -99.17 -109.96 -21.06
v -115.10 -108.27 -32.95
v -115.83 -105.93 -31.63
v -99.17 -109.96 -21.06
v -100.09 -107.63 -19.85
v -116.28 -109.77 -30.93
v -115.10 -108.27 -32.95
v -63.96 -74.17 4.07
v -66.51 -73.08 4.07
v -66.95 -74.09 6.62
v -64.39 -75.19 6.62
v -116.28 -109.77 -30.93
v -117.01 -107.44 -29.61
v -115.83 -105.93 -31.63
v -115.10 -108.27 -32.95
v 137.99 -87.36 -6.43
v 136.25 -89.65 -6.43
v 157.53 -102.16 3.50
v 158.26 -102.71 0.77
v 136.25 -89.65 -6.43
v 137.12 -90.30 -9.10
v 155.74 -104.41 3.48
v 157.53 -102.16 3.50
v 137.12 -90.30 -9.10
v 138.85 -88.01 -9.10
v 156.47 -104.96 0.75
v 155.74 -104.41 3.48
v 138.85 -88.01 -9.10
v 137.99 -87.36 -6.43
v 158.26 -102.71 0.77
v 156.47 -104.96 0.75
v 158.26 -102.71 0.77
v 157.53 -102.16 3.50
v 177.56 -118.84 7.42
v 176.00 -121.26 7.49
v 157.53 -102.16 3.50
v 155.74 -104.41 3.48
v 177.08 -118.45 10.23
v 177.56 -118.84 7.42
v 155.74 -104.41 3.48
v 156.47 -104.96 0.75
v 175.52 -120.87 10.30
v 177.08 -118.45 10.23
v 156.47 -104.96 0.75
v 158.26 -102.71 0.77
v 176.00 -121.26 7.49
v 175.52 -120.87 10.30
v 176.00 -121.26 7.49
v 177.56 -118.84 7.42
v 199.54 -132.42 11.92
v 199.54 -132.34 14.79
v 177.56 -118.84 7.42
v 177.08 -118.45 10.23
v 200.39 -129.67 11.84
v 199.54 -132.42 11.92
v 177.08 -118.45 10.23
v 175.52 -120.87 10.30
v 200.40 -129.59 14.71
v 200.39 -129.67 11.84
v 175.52 -120.87 10.30
v 176.00 -121.26 7.49
v 199.54 -132.34 14.79
v 200.40 -129.59 14.71
v 199.54 -132.34 14.79
v 199.54 -132.42 11.92
v 225.65 -136.52 10.63
v 226.09 -133.67 10.55
v 199.54 -132.42 11.92
v 200.39 -129.67 11.84
v 225.19 -136.52 7.79
v 225.65 -136.52 10.63
v 200.39 -129.67 11.84
v 200.40 -129.59 14.71
v 225.63 -133.68 7.71
v 225.19 -136.52 7.79
v 200.40 -129.59 14.71
v 199.54 -132.34 14.79
v 226.09 -133.67 10.55
v 225.63 -133.68 7.71
v 138.85 -88.01 -9.10
v 137.12 -90.30 -9.10
v 136.25 -89.65 -6.43
v 137.99 -87.36 -6.43
v 226.09 -133.67 10.55
v 225.65 -136.52 10.63
v 225.19 -136.52 7.79
v 225.63 -133.68 7.71
v -162.69 55.92 -5.13
v -160.03 57.99 -5.13
v -170.95 66.53 10.47
v -172.85 68.97 9.11
v -160.03 57.99 -5.13
v -161.61 60.02 -7.33
v -168.33 68.66 10.66
v -170.95 66.53 10.47
v -161.61 60.02 -7.33
v -164.27 57.95 -7.33
v -170.24 71.11 9.30
v -168.33 68.66 10.66
v -164.27 57.95 -7.33
v -162.69 55.92 -5.13
v -172.85 68.97 9.11
v -170.24 71.11 9.30
v -172.85 68.97 9.11
v -170.95 66.53 10.47
v -176.36 69.45 30.10
v -173.79 71.62 30.42
v -170.95 66.53 10.47
v -168.33 68.66 10.66
v -174.36 66.93 31.13
v -176.36 69.45 30.10
v -168.33 68.66 10.66
v -170.24 71.11 9.30
v -171.79 69.10 31.44
v -174.36 66.93 31.13
v -170.24 71.11 9.30
v -172.85 68.97 9.11
v -173.79 71.62 30.42
v -171.79 69.10 31.44
v -173.79 71.62 30.42
v -176.36 69.45 30.10
v -181.14 78.36 48.47
v -179.30 75.95 49.97
v -176.36 69.45 30.10
v -174.36 66.93 31.13
v -183.88 76.39 48.70
v -181.14 78.36 48.47
v -174.36 66.93 31.13
v -171.79 69.10 31.44
v -182.04 73.99 50.20
v -183.88 76.39 48.70
v -171.79 69.10 31.44
v -173.79 71.62 30.42
v -179.30 75.95 49.97
v -182.04 73.99 50.20
v -179.30 75.95 49.97
v -181.14 78.36 48.47
v -180.54 85.48 68.48
v -183.36 83.75 69.18
v -181.14 78.36 48.47
v -183.88 76.39 48.70
v -182.40 87.94 67.09
v -180.54 85.48 68.48
v -183.88 76.39 48.70
v -182.04 73.99 50.20
v -185.22 86.21 67.79
v -182.40 87.94 67.09
v -182.04 73.99 50.20
v -179.30 75.95 49.97
v -183.36 83.75 69.18
v -185.22 86.21 67.79
v -164.27 57.95 -7.33
v -161.61 60.02 -7.33
v -160.03 57.99 -5.13
v -162.69 55.92 -5.13
v -183.36 83.75 69.18
v -180.54 85.48 68.48
v -182.40 87.94 67.09
v -185.22 86.21 67.79
v 154.43 37.26 1.94
v 155.40 34.88 1.94
v 165.41 41.72 6.01
v 166.56 42.19 3.77
v 155.40 34.88 1.94
v 156.18 35.20 -0.48
v 166.41 39.36 6.03
v 165.41 41.72 6.01
v 156.18 35.20 -0.48
v 155.21 37.58 -0.48
v 167.56 39.83 3.79
v 166.41 39.36 6.03
v 155.21 37.58 -0.48
v 154.43 37.26 1.94
v 166.56 42.19 3.77
v 167.56 39.83 3.79
v 166.56 42.19 3.77
v 165.41 41.72 6.01
v 175.62 46.33 11.86
v 176.99 44.17 12.11
v 165.41 41.72 6.01
v 166.41 39.36 6.03
v 174.06 45.56 13.75
v 175.62 46.33 11.86
v 166.41 39.36 6.03
v 167.56 39.83 3.79
v 175.43 43.41 14.00
v 174.06 45.56 13.75
v 167.56 39.83 3.79
v 166.56 42.19 3.77
v 176.99 44.17 12.11
v 175.43 43.41 14.00
v 176.99 44.17 12.11
v 175.62 46.33 11.86
v 182.59 51.33 20.69
v 181.07 50.59 22.62
v 175.62 46.33 11.86
v 174.06 45.56 13.75
v 181.54 53.67 20.76
v 182.59 51.33 20.69
v 174.06 45.56 13.75
v 175.43 43.41 14.00
v 180.02 52.93 22.70
v 181.54 53.67 20.76
v 175.43 43.41 14.00
v 176.99 44.17 12.11
v 181.07 50.59 22.62
v 180.02 52.93 22.70
v 181.07 50.59 22.62
v 182.59 51.33 20.69
v 191.55 50.13 29.27
v 191.21 52.59 29.94
v 182.59 51.33 20.69
v 181.54 53.67 20.76
v 192.89 50.88 27.21
v 191.55 50.13 29.27
v 181.54 53.67 20.76
v 180.02 52.93 22.70
v 192.55 53.34 27.88
v 192.89 50.88 27.21
v 180.02 52.93 22.70
v 181.07 50.59 22.62
v 191.21 52.59 29.94
v 192.55 53.34 27.88
v 155.21 37.58 -0.48
v 156.18 35.20 -0.48
v 155.40 34.88 1.94
v 154.43 37.26 1.94
v 191.21 52.59 29.94
v 191.55 50.13 29.27
v 192.89 50.88 27.21
v 192.55 53.34 27.88
v -120.92 -18.39 2.93
v -120.13 -15.40 2.93
v -134.12 -14.88 10.40
v -135.64 -14.48 7.74
v -120.13 -15.40 2.93
v -121.57 -15.02 0.21
v -133.54 -11.85 10.53
v -134.12 -14.88 10.40
v -121.57 -15.02 0.21
v -122.36 -18.01 0.21
v -135.06 -11.44 7.86
v -133.54 -11.85 10.53
v -122.36 -18.01 0.21
v -120.92 -18.39 2.93
v -135.64 -14.48 7.74
v -135.06 -11.44 7.86
v -135.64 -14.48 7.74
v -134.12 -14.88 10.40
v -149.04 -13.55 16.11
v -148.44 -10.52 16.23
v -134.12 -14.88 10.40
v -133.54 -11.85 10.53
v -147.40 -13.98 18.70
v -149.04 -13.55 16.11
v -133.54 -11.85 10.53
v -135.06 -11.44 7.86
v -146.80 -10.94 18.81
v -147.40 -13.98 18.70
v -135.06 -11.44 7.86
v -135.64 -14.48 7.74
v -148.44 -10.52 16.23
v -146.80 -10.94 18.81
v -148.44 -10.52 16.23
v -149.04 -13.55 16.11
v -160.93 -6.99 25.01
v -159.53 -7.37 27.74
v -149.04 -13.55 16.11
v -147.40 -13.98 18.70
v -161.40 -10.04 24.82
v -160.93 -6.99 25.01
v -147.40 -13.98 18.70
v -146.80 -10.94 18.81
v -160.00 -10.43 27.56
v -161.40 -10.04 24.82
v -146.80 -10.94 18.81
v -148.44 -10.52 16.23
v -159.53 -7.37 27.74
v -160.00 -10.43 27.56
v -159.53 -7.37 27.74
v -160.93 -6.99 25.01
v -174.58 -7.61 33.51
v -174.67 -10.68 33.13
v -160.93 -6.99 25.01
v -161.40 -10.04 24.82
v -175.68 -7.22 30.64
v -174.58 -7.61 33.51
v -161.40 -10.04 24.82
v -160.00 -10.43 27.56
v -175.77 -10.29 30.26
v -175.68 -7.22 30.64
v -160.00 -10.43 27.56
v -159.53 -7.37 27.74
v -174.67 -10.68 33.13
v -175.77 -10.29 30.26
v -122.36 -18.01 0.21
v -121.57 -15.02 0.21
v -120.13 -15.40 2.93
v -120.92 -18.39 2.93
v -174.67 -10.68 33.13
v -174.58 -7.61 33.51
v -175.68 -7.22 30.64
v -175.77 -10.29 30.26
vt 0.0000 0.0000
vt 0.1327 -0.0000
vt 0.1327 0.1224
vt 0.0000 0.1224
vt 0.0000 0.0000
vt 0.1508 0.0000
vt 0.1526 0.1225
vt 0.0018 0.1224
vt 0.0000 0.0000
vt 0.1776 -0.0000
vt 0.1774 0.1225
vt -0.0003 0.1225
vt 0.0000 0.0000
vt 0.1950 -0.0000
vt 0.1952 0.1225
vt 0.0002 0.1225
vt 0.0000 0.0000
vt 0.1976 0.0000
vt 0.1977 0.1225
vt 0.0001 0.1225
vt 0.0000 0.0000
vt 0.1859 0.0000
vt 0.1869 0.1225
vt 0.0010 0.1225
vt 0.0000 0.0000
vt 0.1977 -0.0000
vt 0.1995 0.1226
vt 0.0019 0.1225
vt 0.0000 0.0000
vt 0.2450 0.0000
vt 0.2479 0.1228
vt 0.0029 0.1226
vt 0.0000 0.0000
vt 0.1774 -0.0000
vt 0.1723 0.1225
vt -0.0051 0.1227
vt 0.0000 0.0000
vt 0.1793 0.0000
vt 0.1807 0.1226
vt 0.0014 0.1226
vt 0.0000 0.0000
vt 0.1092 0.0000
vt 0.1071 0.1226
vt -0.0021 0.1226
vt 0.0000 0.0000
vt 0.1710 0.0000
vt 0.1682 0.1224
vt -0.0028 0.1226
vt 0.0000 0.0000
vt 0.2340 0.0000
vt 0.2357 0.1226
vt 0.0017 0.1225
vt 0.0000 0.0000
vt 0.0929 0.0000
vt 0.0925 0.1226
vt -0.0004 0.1226
vt 0.0000 0.0000
vt 0.1066 0.0000
vt 0.1047 0.1225
vt -0.0018 0.1226
vt 0.0000 0.0000
vt 0.0600 0.0000
vt 0.0594 0.1225
vt -0.0006 0.1225
vt 0.0000 0.0000
vt 0.0800 0.0000
vt 0.0791 0.1225
vt -0.0009 0.1225
vt 0.0000 0.0000
vt 0.0937 0.0000
vt 0.0928 0.1225
vt -0.0009 0.1225
vt 0.0000 0.0000
vt 0.0620 0.0000
vt 0.0642 0.1225
vt 0.0022 0.1224
vt 0.0000 0.0000
vt 0.0692 0.0000
vt 0.0702 0.1225
vt 0.0010 0.1225
vt 0.0000 0.0000
vt 0.0753 0.0000
vt 0.0760 0.1225
vt 0.0007 0.1225
vt 0.0000 0.0000
vt 0.3020 -0.0000
vt 0.3000 0.1224
vt -0.0021 0.1225
vt 0.0000 0.0000
vt 0.1458 0.0000
vt 0.1488 0.1225
vt 0.0030 0.1223
vt 0.0000 0.0000
vt 0.1022 -0.0000
vt 0.1035 0.1225
vt 0.0013 0.1225
vt 0.0000 0.0000
vt 0.1200 0.0000
vt 0.1220 0.1226
vt 0.0021 0.1225
vt 0.0000 0.0000
vt 0.1123 -0.0000
vt 0.1114 0.1226
vt -0.0009 0.1226
vt 0.0000 0.0000
vt 0.0987 -0.0000
vt 0.0992 0.1226
vt 0.0005 0.1226
vt 0.0000 0.0000
vt 0.2011 0.0000
vt 0.2048 0.1227
vt 0.0037 0.1225
vt 0.0000 0.0000
vt 0.1113 0.0000
vt 0.1100 0.1227
vt -0.0013 0.1228
vt 0.0000 0.0000
vt 0.2050 0.0000
vt 0.2005 0.1224
vt -0.0045 0.1226
vt 0.0000 0.0000
vt 0.1822 0.0000
vt 0.1842 0.1226
vt 0.0020 0.1225
vt 0.0000 0.0000
vt 0.2277 -0.0000
vt 0.2301 0.1227
vt 0.0024 0.1226
vt 0.0000 0.0000
vt 0.1036 -0.0000
vt 0.1035 0.1227
vt -0.0000 0.1227
vt 0.0000 0.0000
vt 0.0851 0.0000
vt 0.0812 0.1226
vt -0.0038 0.1227
vt 0.0000 0.0000
vt 0.1526 -0.0000
vt 0.1528 0.1226
vt 0.0002 0.1226
vt 0.0000 0.0000
vt 0.3761 0.0000
vt 0.3738 0.1224
vt -0.0022 0.1226
vt 0.0000 0.0000
vt 0.1327 0.0000
vt 0.1650 0.2173
vt 0.0828 0.2173
vt 0.0000 0.0000
vt 0.1327 -0.0000
vt 0.0500 0.2173
vt -0.0323 0.2173
vt 0.0000 0.0000
vt 0.1508 -0.0000
vt 0.0740 0.2189
vt -0.0194 0.2189
vt 0.0000 0.0000
vt 0.1508 -0.0000
vt 0.1702 0.2189
vt 0.0767 0.2189
vt 0.0000 0.0000
vt 0.1776 -0.0000
vt 0.2807 0.1571
vt 0.1706 0.1571
vt 0.0000 0.0000
vt 0.1776 -0.0000
vt 0.0070 0.1571
vt -0.1031 0.1571
vt 0.0000 0.0000
vt 0.1950 0.0000
vt 0.2311 0.1522
vt 0.1102 0.1522
vt 0.0000 0.0000
vt 0.1950 0.0000
vt 0.0848 0.1522
vt -0.0361 0.1522
vt 0.0000 0.0000
vt 0.1976 -0.0000
vt 0.1816 0.1448
vt 0.0592 0.1448
vt 0.0000 0.0000
vt 0.1976 0.0000
vt 0.1384 0.1448
vt 0.0159 0.1448
vt 0.0000 0.0000
vt 0.1859 -0.0000
vt 0.0875 0.1431
vt -0.0278 0.1430
vt 0.0000 0.0000
vt 0.1859 -0.0000
vt 0.2137 0.1430
vt 0.0984 0.1431
vt 0.0000 0.0000
vt 0.1977 0.0000
vt 0.0139 0.1355
vt -0.1086 0.1355
vt 0.0000 0.0000
vt 0.1977 0.0000
vt 0.3063 0.1355
vt 0.1837 0.1355
vt 0.0000 0.0000
vt 0.2450 0.0000
vt -0.0420 0.1206
vt -0.1939 0.1206
vt 0.0000 0.0000
vt 0.2450 0.0000
vt 0.4388 0.1206
vt 0.2870 0.1206
vt 0.0000 0.0000
vt 0.1774 -0.0000
vt 0.3786 0.1573
vt 0.2686 0.1573
vt 0.0000 0.0000
vt 0.1774 0.0000
vt -0.0912 0.1572
vt -0.2012 0.1573
vt 0.0000 0.0000
vt 0.1793 -0.0000
vt -0.0895 0.1579
vt -0.2007 0.1579
vt 0.0000 0.0000
vt 0.1793 -0.0000
vt 0.3800 0.1579
vt 0.2688 0.1579
vt 0.0000 0.0000
vt 0.1092 0.0000
vt 0.0722 0.3117
vt 0.0045 0.3117
vt 0.0000 0.0000
vt 0.1092 -0.0000
vt 0.1048 0.3117
vt 0.0370 0.3117
vt 0.0000 0.0000
vt 0.1710 0.0000
vt 0.3779 0.1568
vt 0.2719 0.1568
vt 0.0000 0.0000
vt 0.1710 -0.0000
vt -0.1010 0.1568
vt -0.2070 0.1568
vt 0.0000 0.0000
vt 0.2340 0.0000
vt -0.0879 0.1146
vt -0.2330 0.1146
vt 0.0000 0.0000
vt 0.2340 -0.0000
vt 0.4670 0.1146
vt 0.3220 0.1146
vt 0.0000 0.0000
vt 0.0929 0.0000
vt 0.0996 0.3391
vt 0.0420 0.3391
vt 0.0000 0.0000
vt 0.0929 -0.0000
vt 0.0509 0.3391
vt -0.0067 0.3391
vt 0.0000 0.0000
vt 0.1066 -0.0000
vt 0.3732 0.1440
vt 0.3071 0.1440
vt 0.0000 0.0000
vt 0.1066 0.0000
vt -0.2006 0.1440
vt -0.2666 0.1440
vt 0.0000 0.0000
vt 0.0600 0.0000
vt 0.2107 0.2484
vt 0.1736 0.2484
vt 0.0000 0.0000
vt 0.0600 -0.0000
vt -0.1136 0.2484
vt -0.1508 0.2484
vt 0.0000 0.0000
vt 0.0800 0.0000
vt 0.2725 0.1864
vt 0.2229 0.1864
vt 0.0000 0.0000
vt 0.0800 -0.0000
vt -0.1429 0.1864
vt -0.1925 0.1864
vt 0.0000 0.0000
vt 0.0937 0.0000
vt 0.2817 0.1478
vt 0.2236 0.1478
vt 0.0000 0.0000
vt 0.0937 0.0000
vt -0.1298 0.1478
vt -0.1879 0.1478
vt 0.0000 0.0000
vt 0.0620 0.0000
vt -0.0257 0.2303
vt -0.0641 0.2303
vt 0.0000 0.0000
vt 0.0620 -0.0000
vt 0.1261 0.2303
vt 0.0877 0.2303
vt 0.0000 0.0000
vt 0.0692 -0.0000
vt 0.1385 0.2272
vt 0.0956 0.2272
vt 0.0000 0.0000
vt 0.0692 0.0000
vt -0.0264 0.2272
vt -0.0693 0.2272
vt 0.0000 0.0000
vt 0.0753 -0.0000
vt 0.1608 0.2083
vt 0.1142 0.2083
vt 0.0000 0.0000
vt 0.0753 -0.0000
vt -0.0389 0.2083
vt -0.0856 0.2083
vt 0.0000 0.0000
vt 0.3020 0.0000
vt 0.4096 0.0351
vt 0.2224 0.0351
vt 0.0000 0.0000
vt 0.3020 0.0000
vt 0.0796 0.0351
vt -0.1076 0.0351
vt 0.0000 0.0000
vt 0.1458 -0.0000
vt -0.0015 0.0661
vt -0.0918 0.0661
vt 0.0000 0.0000
vt 0.1458 0.0000
vt 0.2376 0.0661
vt 0.1473 0.0661
vt 0.0000 0.0000
vt 0.1022 -0.0000
vt 0.0877 0.1596
vt 0.0243 0.1596
vt 0.0000 0.0000
vt 0.1022 -0.0000
vt 0.0779 0.1596
vt 0.0145 0.1596
vt 0.0000 0.0000
vt 0.1200 0.0000
vt 0.0471 0.1579
vt -0.0273 0.1579
vt 0.0000 0.0000
vt 0.1200 -0.0000
vt 0.1472 0.1579
vt 0.0729 0.1579
vt 0.0000 0.0000
vt 0.1123 -0.0000
vt 0.1217 0.1659
vt 0.0521 0.1660
vt 0.0000 0.0000
vt 0.1123 0.0000
vt 0.0603 0.1659
vt -0.0094 0.1659
vt 0.0000 0.0000
vt 0.0987 -0.0000
vt 0.0304 0.1633
vt -0.0308 0.1633
vt 0.0000 0.0000
vt 0.0987 -0.0000
vt 0.1295 0.1633
vt 0.0683 0.1633
vt 0.0000 0.0000
vt 0.2011 -0.0000
vt -0.0254 0.0939
vt -0.1501 0.0939
vt 0.0000 0.0000
vt 0.2011 0.0000
vt 0.3512 0.0939
vt 0.2265 0.0939
vt 0.0000 0.0000
vt 0.1113 -0.0000
vt 0.0382 0.2433
vt -0.0308 0.2433
vt 0.0000 0.0000
vt 0.1113 -0.0000
vt 0.1421 0.2433
vt 0.0731 0.2433
vt 0.0000 0.0000
vt 0.2050 0.0000
vt 0.3650 0.0890
vt 0.2380 0.0890
vt 0.0000 0.0000
vt 0.2050 -0.0000
vt -0.0330 0.0889
vt -0.1600 0.0890
vt 0.0000 0.0000
vt 0.1822 -0.0000
vt -0.0495 0.0844
vt -0.1624 0.0844
vt 0.0000 0.0000
vt 0.1822 -0.0000
vt 0.3447 0.0844
vt 0.2317 0.0844
vt 0.0000 0.0000
vt 0.2277 -0.0000
vt -0.0831 0.1027
vt -0.2242 0.1026
vt 0.0000 0.0000
vt 0.2277 0.0000
vt 0.4519 0.1026
vt 0.3108 0.1027
vt 0.0000 0.0000
vt 0.1036 -0.0000
vt -0.1204 0.2703
vt -0.1846 0.2703
vt 0.0000 0.0000
vt 0.1036 -0.0000
vt 0.2881 0.2703
vt 0.2239 0.2703
vt 0.0000 0.0000
vt 0.0851 -0.0000
vt 0.2636 0.2806
vt 0.2109 0.2806
vt 0.0000 0.0000
vt 0.0851 -0.0000
vt -0.1258 0.2806
vt -0.1785 0.2806
vt 0.0000 0.0000
vt 0.1526 -0.0000
vt -0.0788 0.2838
vt -0.1734 0.2838
vt 0.0000 0.0000
vt 0.1526 0.0000
vt 0.3261 0.2838
vt 0.2314 0.2838
vt 0.0000 0.0000
vt 0.3761 0.0000
vt 0.5845 0.1032
vt 0.3513 0.1032
vt 0.0000 0.0000
vt 0.3761 -0.0000
vt 0.0248 0.1032
vt -0.2084 0.1033
vt 0.0000 0.0000
vt 0.0823 -0.0000
vt 0.1095 0.1830
vt 0.0697 0.1830
vt 0.0000 0.0000
vt 0.0823 -0.0000
vt 0.0126 0.1831
vt -0.0272 0.1831
vt 0.0000 0.0000
vt 0.0935 -0.0000
vt 0.0289 0.1843
vt -0.0163 0.1843
vt 0.0000 0.0000
vt 0.0935 -0.0000
vt 0.1098 0.1844
vt 0.0645 0.1844
vt 0.0000 0.0000
vt 0.1101 -0.0000
vt 0.1969 0.1323
vt 0.1437 0.1323
vt 0.0000 0.0000
vt 0.1101 0.0000
vt -0.0335 0.1324
vt -0.0868 0.1324
vt 0.0000 0.0000
vt 0.1209 -0.0000
vt 0.1513 0.1282
vt 0.0928 0.1282
vt 0.0000 0.0000
vt 0.1209 0.0000
vt 0.0281 0.1282
vt -0.0304 0.1282
vt 0.0000 0.0000
vt 0.1225 -0.0000
vt 0.1091 0.1219
vt 0.0498 0.1219
vt 0.0000 0.0000
vt 0.1225 -0.0000
vt 0.0727 0.1220
vt 0.0134 0.1220
vt 0.0000 0.0000
vt 0.1153 0.0000
vt 0.0324 0.1204
vt -0.0234 0.1204
vt 0.0000 0.0000
vt 0.1153 -0.0000
vt 0.1386 0.1205
vt 0.0828 0.1205
vt 0.0000 0.0000
vt 0.1225 0.0000
vt -0.0321 0.1141
vt -0.0914 0.1141
vt 0.0000 0.0000
vt 0.1225 -0.0000
vt 0.2139 0.1142
vt 0.1546 0.1141
vt 0.0000 0.0000
vt 0.1519 0.0000
vt -0.0897 0.1015
vt -0.1632 0.1015
vt 0.0000 0.0000
vt 0.1519 0.0000
vt 0.3149 0.1017
vt 0.2415 0.1016
vt 0.0000 0.0000
vt 0.1099 0.0000
vt 0.2793 0.1324
vt 0.2261 0.1324
vt 0.0000 0.0000
vt 0.1099 0.0000
vt -0.1160 0.1326
vt -0.1692 0.1327
vt 0.0000 0.0000
vt 0.1112 0.0000
vt -0.1152 0.1329
vt -0.1690 0.1329
vt 0.0000 0.0000
vt 0.1112 -0.0000
vt 0.2801 0.1330
vt 0.2263 0.1330
vt 0.0000 0.0000
vt 0.0677 -0.0000
vt 0.0365 0.2625
vt 0.0037 0.2625
vt 0.0000 0.0000
vt 0.0677 0.0000
vt 0.0641 0.2625
vt 0.0313 0.2625
vt 0.0000 0.0000
vt 0.1060 0.0000
vt 0.2803 0.1321
vt 0.2290 0.1321
vt 0.0000 0.0000
vt 0.1060 0.0000
vt -0.1229 0.1322
vt -0.1742 0.1323
vt 0.0000 0.0000
vt 0.1451 -0.0000
vt -0.1260 0.0965
vt -0.1962 0.0965
vt 0.0000 0.0000
vt 0.1451 0.0000
vt 0.3412 0.0967
vt 0.2710 0.0967
vt 0.0000 0.0000
vt 0.0576 0.0000
vt 0.0632 0.2856
vt 0.0354 0.2856
vt 0.0000 0.0000
vt 0.0576 -0.0000
vt 0.0222 0.2856
vt -0.0056 0.2856
vt 0.0000 0.0000
vt 0.0661 -0.0000
vt 0.2906 0.1213
vt 0.2586 0.1213
vt 0.0000 0.0000
vt 0.0661 0.0000
vt -0.1925 0.1214
vt -0.2245 0.1214
vt 0.0000 0.0000
vt 0.0372 0.0000
vt 0.1641 0.2092
vt 0.1461 0.2092
vt 0.0000 0.0000
vt 0.0372 0.0000
vt -0.1090 0.2092
vt -0.1269 0.2092
vt 0.0000 0.0000
vt 0.0496 0.0000
vt 0.2117 0.1570
vt 0.1877 0.1570
vt 0.0000 0.0000
vt 0.0496 0.0000
vt -0.1381 0.1571
vt -0.1621 0.1571
vt 0.0000 0.0000
vt 0.0581 -0.0000
vt 0.2164 0.1244
vt 0.1882 0.1244
vt 0.0000 0.0000
vt 0.0581 0.0000
vt -0.1301 0.1246
vt -0.1582 0.1246
vt 0.0000 0.0000
vt 0.0384 -0.0000
vt -0.0354 0.1940
vt -0.0540 0.1940
vt 0.0000 0.0000
vt 0.0384 -0.0000
vt 0.0923 0.1940
vt 0.0737 0.1940
vt 0.0000 0.0000
vt 0.0429 0.0000
vt 0.1013 0.1913
vt 0.0805 0.1913
vt 0.0000 0.0000
vt 0.0429 -0.0000
vt -0.0376 0.1913
vt -0.0584 0.1913
vt 0.0000 0.0000
vt 0.0467 -0.0000
vt 0.1187 0.1753
vt 0.0961 0.1753
vt 0.0000 0.0000
vt 0.0467 -0.0000
vt -0.0495 0.1754
vt -0.0721 0.1754
vt 0.0000 0.0000
vt 0.1872 0.0000
vt 0.2778 0.0295
vt 0.1873 0.0295
vt 0.0000 0.0000
vt 0.1872 -0.0000
vt 0.0001 0.0302
vt -0.0905 0.0303
vt 0.0000 0.0000
vt 0.0904 0.0000
vt -0.0336 0.0557
vt -0.0773 0.0557
vt 0.0000 0.0000
vt 0.0904 0.0000
vt 0.1676 0.0561
vt 0.1239 0.0561
vt 0.0000 0.0000
vt 0.0634 -0.0000
vt 0.0512 0.1344
vt 0.0205 0.1344
vt 0.0000 0.0000
vt 0.0634 -0.0000
vt 0.0428 0.1344
vt 0.0122 0.1344
vt 0.0000 0.0000
vt 0.0744 -0.0000
vt 0.0131 0.1330
vt -0.0229 0.1330
vt 0.0000 0.0000
vt 0.0744 0.0000
vt 0.0972 0.1330
vt 0.0612 0.1330
vt 0.0000 0.0000
vt 0.0697 0.0000
vt 0.0775 0.1397
vt 0.0438 0.1397
vt 0.0000 0.0000
vt 0.0697 -0.0000
vt 0.0259 0.1397
vt -0.0078 0.1397
vt 0.0000 0.0000
vt 0.0612 0.0000
vt 0.0037 0.1375
vt -0.0259 0.1375
vt 0.0000 0.0000
vt 0.0612 0.0000
vt 0.0871 0.1375
vt 0.0575 0.1375
vt 0.0000 0.0000
vt 0.1247 0.0000
vt -0.0660 0.0791
vt -0.1263 0.0791
vt 0.0000 0.0000
vt 0.1247 -0.0000
vt 0.2509 0.0793
vt 0.1906 0.0793
vt 0.0000 0.0000
vt 0.0690 -0.0000
vt 0.0074 0.2048
vt -0.0260 0.2048
vt 0.0000 0.0000
vt 0.0690 0.0000
vt 0.0950 0.2047
vt 0.0617 0.2047
vt 0.0000 0.0000
vt 0.1270 0.0000
vt 0.2617 0.0749
vt 0.2003 0.0749
vt 0.0000 0.0000
vt 0.1270 0.0000
vt -0.0731 0.0752
vt -0.1346 0.0753
vt 0.0000 0.0000
vt 0.1130 -0.0000
vt -0.0821 0.0711
vt -0.1368 0.0711
vt 0.0000 0.0000
vt 0.1130 0.0000
vt 0.2497 0.0713
vt 0.1950 0.0713
vt 0.0000 0.0000
vt 0.1412 -0.0000
vt -0.1205 0.0864
vt -0.1888 0.0864
vt 0.0000 0.0000
vt 0.1412 0.0000
vt 0.3299 0.0866
vt 0.2616 0.0866
vt 0.0000 0.0000
vt 0.0642 -0.0000
vt -0.1244 0.2275
vt -0.1554 0.2275
vt 0.0000 0.0000
vt 0.0642 0.0000
vt 0.2197 0.2275
vt 0.1886 0.2275
vt 0.0000 0.0000
vt 0.0527 0.0000
vt 0.2030 0.2363
vt 0.1775 0.2363
vt 0.0000 0.0000
vt 0.0527 -0.0000
vt -0.1246 0.2364
vt -0.1501 0.2364
vt 0.0000 0.0000
vt 0.0946 -0.0000
vt -0.1002 0.2389
vt -0.1460 0.2389
vt 0.0000 0.0000
vt 0.0946 0.0000
vt 0.2407 0.2389
vt 0.1949 0.2389
vt 0.0000 0.0000
vt 0.2331 0.0000
vt 0.4086 0.0869
vt 0.2958 0.0869
vt 0.0000 0.0000
vt 0.2331 -0.0000
vt -0.0626 0.0872
vt -0.1754 0.0872
vt 0.0000 0.0000
vt 0.0398 -0.0000
vt 0.0653 0.1716
vt 0.0000 0.0000
vt 0.0398 -0.0000
vt -0.0255 0.1718
vt 0.0000 0.0000
vt 0.0452 -0.0000
vt -0.0153 0.1728
vt 0.0000 0.0000
vt 0.0452 0.0000
vt 0.0606 0.1730
vt 0.0000 0.0000
vt 0.0533 -0.0000
vt 0.1347 0.1240
vt 0.0000 0.0000
vt 0.0533 0.0000
vt -0.0814 0.1244
vt 0.0000 0.0000
vt 0.0585 -0.0000
vt 0.0870 0.1201
vt 0.0000 0.0000
vt 0.0585 -0.0000
vt -0.0285 0.1205
vt 0.0000 0.0000
vt 0.0593 0.0000
vt 0.0467 0.1143
vt 0.0000 0.0000
vt 0.0593 -0.0000
vt 0.0126 0.1147
vt 0.0000 0.0000
vt 0.0558 0.0000
vt -0.0219 0.1129
vt 0.0000 0.0000
vt 0.0558 0.0000
vt 0.0777 0.1133
vt 0.0000 0.0000
vt 0.0593 -0.0000
vt -0.0857 0.1069
vt 0.0000 0.0000
vt 0.0593 -0.0000
vt 0.1450 0.1073
vt 0.0000 0.0000
vt 0.0735 0.0000
vt -0.1530 0.0952
vt 0.0000 0.0000
vt 0.0735 0.0000
vt 0.2265 0.0956
vt 0.0000 0.0000
vt 0.0532 -0.0000
vt 0.2119 0.1242
vt 0.0000 0.0000
vt 0.0532 0.0000
vt -0.1589 0.1244
vt 0.0000 0.0000
vt 0.0538 -0.0000
vt -0.1584 0.1246
vt 0.0000 0.0000
vt 0.0538 0.0000
vt 0.2122 0.1250
vt 0.0000 0.0000
vt 0.0328 -0.0000
vt 0.0034 0.2461
vt 0.0000 0.0000
vt 0.0328 0.0000
vt 0.0293 0.2463
vt 0.0000 0.0000
vt 0.0513 -0.0000
vt 0.2146 0.1238
vt 0.0000 0.0000
vt 0.0513 0.0000
vt -0.1634 0.1241
vt 0.0000 0.0000
vt 0.0702 0.0000
vt -0.1839 0.0905
vt 0.0000 0.0000
vt 0.0702 0.0000
vt 0.2542 0.0909
vt 0.0000 0.0000
vt 0.0279 0.0000
vt 0.0331 0.2677
vt 0.0000 0.0000
vt 0.0279 0.0000
vt -0.0053 0.2679
vt 0.0000 0.0000
vt 0.0320 -0.0000
vt 0.2424 0.1137
vt 0.0000 0.0000
vt 0.0320 0.0000
vt -0.2105 0.1140
vt 0.0000 0.0000
vt 0.0180 0.0000
vt 0.1370 0.1961
vt 0.0000 0.0000
vt 0.0180 -0.0000
vt -0.1190 0.1963
vt 0.0000 0.0000
vt 0.0240 0.0000
vt 0.1759 0.1472
vt 0.0000 0.0000
vt 0.0240 0.0000
vt -0.1520 0.1475
vt 0.0000 0.0000
vt 0.0281 -0.0000
vt 0.1765 0.1167
vt 0.0000 0.0000
vt 0.0281 -0.0000
vt -0.1484 0.1170
vt 0.0000 0.0000
vt 0.0186 -0.0000
vt -0.0506 0.1818
vt 0.0000 0.0000
vt 0.0186 -0.0000
vt 0.0692 0.1821
vt 0.0000 0.0000
vt 0.0208 0.0000
vt 0.0755 0.1793
vt 0.0000 0.0000
vt 0.0208 -0.0000
vt -0.0547 0.1796
vt 0.0000 0.0000
vt 0.0226 0.0000
vt 0.0901 0.1644
vt 0.0000 0.0000
vt 0.0226 0.0000
vt -0.0676 0.1647
vt 0.0000 0.0000
vt 0.0906 0.0000
vt 0.1755 0.0277
vt 0.0000 0.0000
vt 0.0906 -0.0000
vt -0.0850 0.0290
vt 0.0000 0.0000
vt 0.0437 -0.0000
vt -0.0725 0.0522
vt 0.0000 0.0000
vt 0.0437 -0.0000
vt 0.1163 0.0529
vt 0.0000 0.0000
vt 0.0307 -0.0000
vt 0.0192 0.1260
vt 0.0000 0.0000
vt 0.0307 -0.0000
vt 0.0115 0.1263
vt 0.0000 0.0000
vt 0.0360 0.0000
vt -0.0215 0.1246
vt 0.0000 0.0000
vt 0.0360 0.0000
vt 0.0575 0.1250
vt 0.0000 0.0000
vt 0.0337 0.0000
vt 0.0411 0.1309
vt 0.0000 0.0000
vt 0.0337 0.0000
vt -0.0074 0.1313
vt 0.0000 0.0000
vt 0.0296 -0.0000
vt -0.0243 0.1289
vt 0.0000 0.0000
vt 0.0296 -0.0000
vt 0.0539 0.1293
vt 0.0000 0.0000
vt 0.0603 -0.0000
vt -0.1184 0.0741
vt 0.0000 0.0000
vt 0.0603 -0.0000
vt 0.1788 0.0746
vt 0.0000 0.0000
vt 0.0334 0.0000
vt -0.0244 0.1919
vt 0.0000 0.0000
vt 0.0334 0.0000
vt 0.0578 0.1922
vt 0.0000 0.0000
vt 0.0615 -0.0000
vt 0.1877 0.0702
vt 0.0000 0.0000
vt 0.0615 -0.0000
vt -0.1264 0.0707
vt 0.0000 0.0000
vt 0.0547 0.0000
vt -0.1282 0.0666
vt 0.0000 0.0000
vt 0.0547 0.0000
vt 0.1829 0.0672
vt 0.0000 0.0000
vt 0.0683 0.0000
vt -0.1770 0.0810
vt 0.0000 0.0000
vt 0.0683 -0.0000
vt 0.2453 0.0815
vt 0.0000 0.0000
vt 0.0311 -0.0000
vt -0.1457 0.2133
vt 0.0000 0.0000
vt 0.0311 0.0000
vt 0.1768 0.2135
vt 0.0000 0.0000
vt 0.0255 0.0000
vt 0.1663 0.2215
vt 0.0000 0.0000
vt 0.0255 0.0000
vt -0.1409 0.2217
vt 0.0000 0.0000
vt 0.0458 0.0000
vt -0.1369 0.2240
vt 0.0000 0.0000
vt 0.0458 -0.0000
vt 0.1827 0.2242
vt 0.0000 0.0000
vt 0.1128 0.0000
vt 0.2773 0.0815
vt 0.0000 0.0000
vt 0.1128 0.0000
vt -0.1645 0.0819
vt 0.0000 0.0000
vt 0.0744 0.0000
vt 0.0000 0.6737
vt 0.0000 0.6793
vt 0.0000 0.0000
vt 0.0744 0.0000
vt 0.0000 0.6752
vt -0.0000 0.6818
vt 0.0000 0.0000
vt 0.0744 0.0000
vt 0.0000 0.6727
vt 0.0000 0.6833
vt 0.0000 0.0000
vt 0.0744 0.0000
vt 0.0000 0.6712
vt -0.0000 0.6808
vt 0.0000 0.0000
vt 0.0744 -0.0000
vt -0.0223 0.6655
vt -0.0223 0.6729
vt 0.0000 0.0000
vt 0.0744 0.0000
vt -0.0137 0.6797
vt -0.0136 0.6764
vt 0.0000 0.0000
vt 0.0744 -0.0000
vt 0.0236 0.6801
vt 0.0236 0.6890
vt 0.0000 0.0000
vt 0.0744 0.0000
vt 0.0136 0.6666
vt 0.0137 0.6858
vt 0.0000 0.0000
vt 0.0744 0.0000
vt -0.0076 0.6766
vt -0.0076 0.6717
vt 0.0000 0.0000
vt 0.0744 0.0000
vt -0.1034 0.6634
vt -0.1033 0.6777
vt 0.0000 0.0000
vt 0.0744 0.0000
vt 0.0078 0.6699
vt 0.0078 0.6907
vt 0.0000 0.0000
vt 0.0744 0.0000
vt 0.1033 0.6670
vt 0.1034 0.6691
vt 0.0000 0.0000
vt 0.0744 0.0000
vt -0.1176 0.6593
vt -0.1176 0.6676
vt 0.0000 0.0000
vt 0.0744 -0.0000
vt 0.0567 0.6804
vt 0.0556 0.6885
vt 0.0000 0.0000
vt 0.0744 -0.0000
vt 0.1188 0.6661
vt 0.1188 0.6743
vt 0.0000 0.0000
vt 0.0744 -0.0000
vt -0.0553 0.6612
vt -0.0564 0.6693
vt 0.0000 0.0000
vt 0.0744 0.0000
vt 0.0744 0.0744
vt 0.0000 0.0744
vt 0.0000 0.0000
vt 0.0744 -0.0000
vt 0.0744 0.0744
vt 0.0000 0.0744
vt 0.0000 0.0000
vt 0.0935 0.0000
vt 0.0002 0.6283
vt 0.0002 0.6500
vt 0.0000 0.0000
vt 0.0935 -0.0000
vt 0.0006 0.6188
vt -0.0002 0.6417
vt 0.0000 0.0000
vt 0.0935 0.0000
vt 0.0002 0.6269
vt 0.0002 0.6323
vt 0.0000 0.0000
vt 0.0935 0.0000
vt 0.0006 0.6365
vt -0.0002 0.6407
vt 0.0000 0.0000
vt 0.0935 0.0000
vt 0.0572 0.6345
vt 0.0572 0.6373
vt 0.0000 0.0000
vt 0.0935 -0.0000
vt 0.0654 0.6349
vt 0.0651 0.6391
vt 0.0000 0.0000
vt 0.0935 -0.0000
vt -0.0571 0.6155
vt -0.0571 0.6399
vt 0.0000 0.0000
vt 0.0935 -0.0000
vt -0.0629 0.6138
vt -0.0632 0.6370
vt 0.0000 0.0000
vt 0.0935 -0.0000
vt -0.0735 0.6115
vt -0.0735 0.6278
vt 0.0000 0.0000
vt 0.0935 0.0000
vt -0.0655 0.6237
vt -0.0640 0.6373
vt 0.0000 0.0000
vt 0.0935 -0.0000
vt 0.0742 0.6349
vt 0.0742 0.6461
vt 0.0000 0.0000
vt 0.0935 -0.0000
vt 0.0648 0.6246
vt 0.0662 0.6386
vt 0.0000 0.0000
vt 0.0935 -0.0000
vt 0.0164 0.6284
vt 0.0164 0.6420
vt 0.0000 0.0000
vt 0.0935 -0.0000
vt -0.0023 0.6262
vt -0.0024 0.6398
vt 0.0000 0.0000
vt 0.0935 0.0000
vt -0.0163 0.6263
vt -0.0163 0.6400
vt 0.0000 0.0000
vt 0.0935 -0.0000
vt 0.0024 0.6289
vt 0.0023 0.6426
vt 0.0000 0.0000
vt 0.0935 0.0000
vt 0.0935 0.0935
vt -0.0000 0.0935
vt 0.0000 0.0000
vt 0.0935 0.0000
vt 0.0935 0.0935
vt 0.0000 0.0935
vt 0.0000 0.0000
vt 0.0695 0.0000
vt 0.0002 0.4896
vt 0.0002 0.4973
vt 0.0000 0.0000
vt 0.0695 0.0000
vt -0.0001 0.4832
vt 0.0001 0.4993
vt 0.0000 0.0000
vt 0.0695 0.0000
vt 0.0002 0.4810
vt 0.0002 0.4928
vt 0.0000 0.0000
vt 0.0695 -0.0000
vt -0.0001 0.4875
vt 0.0001 0.4908
vt 0.0000 0.0000
vt 0.0695 0.0000
vt -0.0136 0.4938
vt -0.0136 0.4817
vt 0.0000 0.0000
vt 0.0695 0.0000
vt 0.0513 0.5022
vt 0.0468 0.5033
vt 0.0000 0.0000
vt 0.0695 0.0000
vt 0.0145 0.4773
vt 0.0145 0.5071
vt 0.0000 0.0000
vt 0.0695 0.0000
vt -0.0411 0.4642
vt -0.0456 0.4824
vt 0.0000 0.0000
vt 0.0695 0.0000
vt -0.1482 0.4422
vt -0.1482 0.4549
vt 0.0000 0.0000
vt 0.0695 0.0000
vt -0.0637 0.4893
vt -0.0594 0.4941
vt 0.0000 0.0000
vt 0.0695 0.0000
vt 0.1534 0.4804
vt 0.1534 0.4883
vt 0.0000 0.0000
vt 0.0695 -0.0000
vt 0.0603 0.4735
vt 0.0646 0.4883
vt 0.0000 0.0000
vt 0.0695 0.0000
vt 0.0137 0.4833
vt 0.0137 0.4931
vt 0.0000 0.0000
vt 0.0695 -0.0000
vt -0.0388 0.4800
vt -0.0389 0.4898
vt 0.0000 0.0000
vt 0.0695 0.0000
vt -0.0137 0.4869
vt -0.0137 0.4966
vt 0.0000 0.0000
vt 0.0695 0.0000
vt 0.0391 0.4875
vt 0.0390 0.4972
vt 0.0000 0.0000
vt 0.0695 0.0000
vt 0.0695 0.0695
vt -0.0000 0.0695
vt 0.0000 0.0000
vt 0.0695 0.0000
vt 0.0695 0.0695
vt 0.0000 0.0695
vt 0.0000 0.0000
vt 0.0720 0.0000
vt 0.0000 0.6572
vt 0.0000 0.6605
vt 0.0000 0.0000
vt 0.0720 -0.0000
vt 0.0000 0.6556
vt 0.0001 0.6650
vt 0.0000 0.0000
vt 0.0720 -0.0000
vt 0.0000 0.6511
vt 0.0000 0.6634
vt 0.0000 0.0000
vt 0.0720 0.0000
vt 0.0000 0.6527
vt 0.0001 0.6589
vt 0.0000 0.0000
vt 0.0720 0.0000
vt -0.0412 0.6456
vt -0.0412 0.6622
vt 0.0000 0.0000
vt 0.0720 0.0000
vt 0.0146 0.6541
vt 0.0154 0.6590
vt 0.0000 0.0000
vt 0.0720 0.0000
vt 0.0416 0.6602
vt 0.0416 0.6592
vt 0.0000 0.0000
vt 0.0720 -0.0000
vt -0.0150 0.6539
vt -0.0143 0.6647
vt 0.0000 0.0000
vt 0.0720 -0.0000
vt 0.0824 0.6516
vt 0.0824 0.6706
vt 0.0000 0.0000
vt 0.0720 0.0000
vt -0.0245 0.6369
vt -0.0284 0.6548
vt 0.0000 0.0000
vt 0.0720 -0.0000
vt -0.0797 0.6468
vt -0.0797 0.6430
vt 0.0000 0.0000
vt 0.0720 0.0000
vt 0.0299 0.6704
vt 0.0260 0.6677
vt 0.0000 0.0000
vt 0.0720 0.0000
vt 0.1053 0.6568
vt 0.1053 0.6645
vt 0.0000 0.0000
vt 0.0720 -0.0000
vt 0.0950 0.6467
vt 0.0967 0.6544
vt 0.0000 0.0000
vt 0.0720 -0.0000
vt -0.1044 0.6346
vt -0.1044 0.6426
vt 0.0000 0.0000
vt 0.0720 0.0000
vt -0.0959 0.6476
vt -0.0942 0.6558
vt 0.0000 0.0000
vt 0.0720 0.0000
vt 0.0720 0.0720
vt 0.0000 0.0720
vt 0.0000 0.0000
vt 0.0720 0.0000
vt 0.0720 0.0720
vt 0.0000 0.0720
vt 0.0000 0.0000
vt 0.0845 0.0000
vt 0.0001 0.5092
vt 0.0001 0.5457
vt 0.0000 0.0000
vt 0.0845 -0.0000
vt 0.0011 0.5130
vt 0.0025 0.5218
vt 0.0000 0.0000
vt 0.0845 0.0000
vt 0.0001 0.5377
vt 0.0001 0.5265
vt 0.0000 0.0000
vt 0.0845 0.0000
vt 0.0011 0.5329
vt 0.0025 0.5507
vt 0.0000 0.0000
vt 0.0845 -0.0000
vt 0.1529 0.5029
vt 0.1529 0.5150
vt 0.0000 0.0000
vt 0.0845 0.0000
vt -0.0307 0.5158
vt -0.0311 0.5134
vt 0.0000 0.0000
vt 0.0845 0.0000
vt -0.1524 0.4974
vt -0.1524 0.5131
vt 0.0000 0.0000
vt 0.0845 0.0000
vt 0.0311 0.5285
vt 0.0308 0.5563
vt 0.0000 0.0000
vt 0.0845 -0.0000
vt -0.0101 0.5087
vt -0.0101 0.5193
vt 0.0000 0.0000
vt 0.0845 0.0000
vt -0.0994 0.5144
vt -0.0971 0.5151
vt 0.0000 0.0000
vt 0.0845 -0.0000
vt 0.0114 0.5369
vt 0.0114 0.5527
vt 0.0000 0.0000
vt 0.0845 -0.0000
vt 0.0981 0.5129
vt 0.1004 0.5389
vt 0.0000 0.0000
vt 0.0845 -0.0000
vt -0.0192 0.5143
vt -0.0192 0.5277
vt 0.0000 0.0000
vt 0.0845 -0.0000
vt -0.0828 0.5111
vt -0.0823 0.5248
vt 0.0000 0.0000
vt 0.0845 -0.0000
vt 0.0192 0.5308
vt 0.0192 0.5439
vt 0.0000 0.0000
vt 0.0845 0.0000
vt 0.0833 0.5215
vt 0.0838 0.5348
vt 0.0000 0.0000
vt 0.0845 0.0000
vt 0.0845 0.0845
vt 0.0000 0.0845
vt 0.0000 0.0000
vt 0.0845 -0.0000
vt 0.0845 0.0845
vt -0.0000 0.0845
vt 0.0000 0.0000
vt 0.0642 0.0000
vt 0.0000 0.3073
vt 0.0000 0.3304
vt 0.0000 0.0000
vt 0.0642 0.0000
vt 0.0004 0.3077
vt 0.0006 0.3196
vt 0.0000 0.0000
vt 0.0642 -0.0000
vt 0.0000 0.3188
vt 0.0000 0.3205
vt 0.0000 0.0000
vt 0.0642 0.0000
vt 0.0004 0.3181
vt 0.0006 0.3314
vt 0.0000 0.0000
vt 0.0642 0.0000
vt 0.0561 0.3100
vt 0.0561 0.3327
vt 0.0000 0.0000
vt 0.0642 0.0000
vt -0.0029 0.2993
vt -0.0057 0.3158
vt 0.0000 0.0000
vt 0.0642 -0.0000
vt -0.0543 0.3062
vt -0.0543 0.3082
vt 0.0000 0.0000
vt 0.0642 0.0000
vt 0.0068 0.3264
vt 0.0040 0.3345
vt 0.0000 0.0000
vt 0.0642 0.0000
vt 0.0547 0.3014
vt 0.0547 0.3197
vt 0.0000 0.0000
vt 0.0642 -0.0000
vt 0.0196 0.3175
vt 0.0198 0.3071
vt 0.0000 0.0000
vt 0.0642 0.0000
vt -0.0535 0.3150
vt -0.0535 0.3224
vt 0.0000 0.0000
vt 0.0642 0.0000
vt -0.0198 0.3084
vt -0.0195 0.3417
vt 0.0000 0.0000
vt 0.0642 -0.0000
vt 0.0270 0.3028
vt 0.0270 0.3154
vt 0.0000 0.0000
vt 0.0642 0.0000
vt -0.1102 0.2774
vt -0.1121 0.2906
vt 0.0000 0.0000
vt 0.0642 0.0000
vt -0.0268 0.3206
vt -0.0268 0.3326
vt 0.0000 0.0000
vt 0.0642 0.0000
vt 0.1163 0.3059
vt 0.1144 0.3193
vt 0.0000 0.0000
vt 0.0642 0.0000
vt 0.0642 0.0642
vt 0.0000 0.0642
vt 0.0000 0.0000
vt 0.0642 0.0000
vt 0.0642 0.0642
vt 0.0000 0.0642
vt 0.0000 0.0000
vt 0.0774 0.0000
vt 0.0001 0.3818
vt 0.0001 0.3993
vt 0.0000 0.0000
vt 0.0774 0.0000
vt -0.0001 0.3879
vt 0.0001 0.3968
vt 0.0000 0.0000
vt 0.0774 0.0000
vt 0.0001 0.3905
vt 0.0001 0.4029
vt 0.0000 0.0000
vt 0.0774 0.0000
vt -0.0001 0.3845
vt 0.0001 0.4053
vt 0.0000 0.0000
vt 0.0774 0.0000
vt 0.0127 0.3879
vt 0.0127 0.3963
vt 0.0000 0.0000
vt 0.0774 0.0000
vt -0.0317 0.3833
vt -0.0317 0.3994
vt 0.0000 0.0000
vt 0.0774 0.0000
vt -0.0126 0.3841
vt -0.0126 0.4054
vt 0.0000 0.0000
vt 0.0774 -0.0000
vt 0.0317 0.3864
vt 0.0317 0.4002
vt 0.0000 0.0000
vt 0.0774 0.0000
vt -0.0342 0.3833
vt -0.0342 0.4060
vt 0.0000 0.0000
vt 0.0774 -0.0000
vt 0.0062 0.3811
vt 0.0058 0.4059
vt 0.0000 0.0000
vt 0.0774 0.0000
vt 0.0343 0.3861
vt 0.0343 0.3931
vt 0.0000 0.0000
vt 0.0774 0.0000
vt -0.0055 0.3914
vt -0.0058 0.3961
vt 0.0000 0.0000
vt 0.0774 0.0000
vt 0.0422 0.3934
vt 0.0422 0.4080
vt 0.0000 0.0000
vt 0.0774 0.0000
vt 0.0529 0.3836
vt 0.0541 0.3986
vt 0.0000 0.0000
vt 0.0774 0.0000
vt -0.0418 0.3743
vt -0.0418 0.3896
vt 0.0000 0.0000
vt 0.0774 0.0000
vt -0.0533 0.3813
vt -0.0522 0.3966
vt 0.0000 0.0000
vt 0.0774 0.0000
vt 0.0774 0.0774
vt -0.0000 0.0774
vt 0.0000 0.0000
vt 0.0774 0.0000
vt 0.0774 0.0774
vt -0.0000 0.0774
usemtl concrete
f 1/1 2/2 3/3
f 1/1 3/3 4/4
f 5/5 6/6 7/7
f 5/5 7/7 8/8
f 9/9 10/10 11/11
f 9/9 11/11 12/12
f 13/13 14/14 15/15
f 13/13 15/15 16/16
f 17/17 18/18 19/19
f 17/17 19/19 20/20
f 21/21 22/22 23/23
f 21/21 23/23 24/24
f 25/25 26/26 27/27
f 25/25 27/27 28/28
f 29/29 30/30 31/31
f 29/29 31/31 32/32
f 33/33 34/34 35/35
f 33/33 35/35 36/36
f 37/37 38/38 39/39
f 37/37 39/39 40/40
f 41/41 42/42 43/43
f 41/41 43/43 44/44
f 45/45 46/46 47/47
f 45/45 47/47 48/48
f 49/49 50/50 51/51
f 49/49 51/51 52/52
f 53/53 54/54 55/55
f 53/53 55/55 56/56
f 57/57 58/58 59/59
f 57/57 59/59 60/60
f 61/61 62/62 63/63
f 61/61 63/63 64/64
f 65/65 66/66 67/67
f 65/65 67/67 68/68
f 69/69 70/70 71/71
f 69/69 71/71 72/72
f 73/73 74/74 75/75
f 73/73 75/75 76/76
f 77/77 78/78 79/79
f 77/77 79/79 80/80
f 81/81 82/82 83/83
f 81/81 83/83 84/84
f 85/85 86/86 87/87
f 85/85 87/87 88/88
f 89/89 90/90 91/91
f 89/89 91/91 92/92
f 93/93 94/94 95/95
f 93/93 95/95 96/96
f 97/97 98/98 99/99
f 97/97 99/99 100/100
f 101/101 102/102 103/103
f 101/101 103/103 104/104
f 105/105 106/106 107/107
f 105/105 107/107 108/108
f 109/109 110/110 111/111
f 109/109 111/111 112/112
f 113/113 114/114 115/115
f 113/113 115/115 116/116
f 117/117 118/118 119/119
f 117/117 119/119 120/120
f 121/121 122/122 123/123
f 121/121 123/123 124/124
f 125/125 126/126 127/127
f 125/125 127/127 128/128
f 129/129 130/130 131/131
f 129/129 131/131 132/132
f 133/133 134/134 135/135
f 133/133 135/135 136/136
f 137/137 138/138 139/139
f 137/137 139/139 140/140
f 141/141 142/142 143/143
f 141/141 143/143 144/144
f 145/145 146/146 147/147
f 145/145 147/147 148/148
f 149/149 150/150 151/151
f 149/149 151/151 152/152
f 153/153 154/154 155/155
f 153/153 155/155 156/156
f 157/157 158/158 159/159
f 157/157 159/159 160/160
f 161/161 162/162 163/163
f 161/161 163/163 164/164
f 165/165 166/166 167/167
f 165/165 167/167 168/168
f 169/169 170/170 171/171
f 169/169 171/171 172/172
f 173/173 174/174 175/175
f 173/173 175/175 176/176
f 177/177 178/178 179/179
f 177/177 179/179 180/180
f 181/181 182/182 183/183
f 181/181 183/183 184/184
f 185/185 186/186 187/187
f 185/185 187/187 188/188
f 189/189 190/190 191/191
f 189/189 191/191 192/192
f 193/193 194/194 195/195
f 193/193 195/195 196/196
f 197/197 198/198 199/199
f 197/197 199/199 200/200
f 201/201 202/202 203/203
f 201/201 203/203 204/204
f 205/205 206/206 207/207
f 205/205 207/207 208/208
f 209/209 210/210 211/211
f 209/209 211/211 212/212
f 213/213 214/214 215/215
f 213/213 215/215 216/216
f 217/217 218/218 219/219
f 217/217 219/219 220/220
f 221/221 222/222 223/223
f 221/221 223/223 224/224
f 225/225 226/226 227/227
f 225/225 227/227 228/228
f 229/229 230/230 231/231
f 229/229 231/231 232/232
f 233/233 234/234 235/235
f 233/233 235/235 236/236
f 237/237 238/238 239/239
f 237/237 239/239 240/240
f 241/241 242/242 243/243
f 241/241 243/243 244/244
f 245/245 246/246 247/247
f 245/245 247/247 248/248
f 249/249 250/250 251/251
f 249/249 251/251 252/252
f 253/253 254/254 255/255
f 253/253 255/255 256/256
f 257/257 258/258 259/259
f 257/257 259/259 260/260
f 261/261 262/262 263/263
f 261/261 263/263 264/264
f 265/265 266/266 267/267
f 265/265 267/267 268/268
f 269/269 270/270 271/271
f 269/269 271/271 272/272
f 273/273 274/274 275/275
f 273/273 275/275 276/276
f 277/277 278/278 279/279
f 277/277 279/279 280/280
f 281/281 282/282 283/283
f 281/281 283/283 284/284
f 285/285 286/286 287/287
f 285/285 287/287 288/288
f 289/289 290/290 291/291
f 289/289 291/291 292/292
f 293/293 294/294 295/295
f 293/293 295/295 296/296
f 297/297 298/298 299/299
f 297/297 299/299 300/300
f 301/301 302/302 303/303
f 301/301 303/303 304/304
f 305/305 306/306 307/307
f 305/305 307/307 308/308
f 309/309 310/310 311/311
f 309/309 311/311 312/312
f 313/313 314/314 315/315
f 313/313 315/315 316/316
f 317/317 318/318 319/319
f 317/317 319/319 320/320
f 321/321 322/322 323/323
f 321/321 323/323 324/324
f 325/325 326/326 327/327
f 325/325 327/327 328/328
f 329/329 330/330 331/331
f 329/329 331/331 332/332
f 333/333 334/334 335/335
f 333/333 335/335 336/336
f 337/337 338/338 339/339
f 337/337 339/339 340/340
f 341/341 342/342 343/343
f 341/341 343/343 344/344
f 345/345 346/346 347/347
f 345/345 347/347 348/348
f 349/349 350/350 351/351
f 349/349 351/351 352/352
f 353/353 354/354 355/355
f 353/353 355/355 356/356
f 357/357 358/358 359/359
f 357/357 359/359 360/360
f 361/361 362/362 363/363
f 361/361 363/363 364/364
f 365/365 366/366 367/367
f 365/365 367/367 368/368
f 369/369 370/370 371/371
f 369/369 371/371 372/372
f 373/373 374/374 375/375
f 373/373 375/375 376/376
f 377/377 378/378 379/379
f 377/377 379/379 380/380
f 381/381 382/382 383/383
f 381/381 383/383 384/384
f 385/385 386/386 387/387
f 385/385 387/387 388/388
f 389/389 390/390 391/391
f 389/389 391/391 392/392
f 393/393 394/394 395/395
f 393/393 395/395 396/396
f 397/397 398/398 399/399
f 397/397 399/399 400/400
f 401/401 402/402 403/403
f 401/401 403/403 404/404
f 405/405 406/406 407/407
f 405/405 407/407 408/408
f 409/409 410/410 411/411
f 409/409 411/411 412/412
f 413/413 414/414 415/415
f 413/413 415/415 416/416
f 417/417 418/418 419/419
f 417/417 419/419 420/420
f 421/421 422/422 423/423
f 421/421 423/423 424/424
f 425/425 426/426 427/427
f 425/425 427/427 428/428
f 429/429 430/430 431/431
f 429/429 431/431 432/432
f 433/433 434/434 435/435
f 433/433 435/435 436/436
f 437/437 438/438 439/439
f 437/437 439/439 440/440
f 441/441 442/442 443/443
f 441/441 443/443 444/444
f 445/445 446/446 447/447
f 445/445 447/447 448/448
f 449/449 450/450 451/451
f 449/449 451/451 452/452
f 453/453 454/454 455/455
f 453/453 455/455 456/456
f 457/457 458/458 459/459
f 457/457 459/459 460/460
f 461/461 462/462 463/463
f 461/461 463/463 464/464
f 465/465 466/466 467/467
f 465/465 467/467 468/468
f 469/469 470/470 471/471
f 469/469 471/471 472/472
f 473/473 474/474 475/475
f 473/473 475/475 476/476
f 477/477 478/478 479/479
f 477/477 479/479 480/480
f 481/481 482/482 483/483
f 481/481 483/483 484/484
f 485/485 486/486 487/487
f 485/485 487/487 488/488
f 489/489 490/490 491/491
f 489/489 491/491 492/492
f 493/493 494/494 495/495
f 493/493 495/495 496/496
f 497/497 498/498 499/499
f 497/497 499/499 500/500
f 501/501 502/502 503/503
f 501/501 503/503 504/504
f 505/505 506/506 507/507
f 505/505 507/507 508/508
f 509/509 510/510 511/511
f 509/509 511/511 512/512
f 513/513 514/514 515/515
f 513/513 515/515 516/516
f 517/517 518/518 519/519
f 517/517 519/519 520/520
f 521/521 522/522 523/523
f 521/521 523/523 524/524
f 525/525 526/526 527/527
f 525/525 527/527 528/528
f 529/529 530/530 531/531
f 529/529 531/531 532/532
f 533/533 534/534 535/535
f 533/533 535/535 536/536
f 537/537 538/538 539/539
f 537/537 539/539 540/540
f 541/541 542/542 543/543
f 541/541 543/543 544/544
f 545/545 546/546 547/547
f 545/545 547/547 548/548
f 549/549 550/550 551/551
f 549/549 551/551 552/552
f 553/553 554/554 555/555
f 553/553 555/555 556/556
f 557/557 558/558 559/559
f 557/557 559/559 560/560
f 561/561 562/562 563/563
f 561/561 563/563 564/564
f 565/565 566/566 567/567
f 565/565 567/567 568/568
f 569/569 570/570 571/571
f 569/569 571/571 572/572
f 573/573 574/574 575/575
f 573/573 575/575 576/576
f 577/577 578/578 579/579
f 577/577 579/579 580/580
f 581/581 582/582 583/583
f 581/581 583/583 584/584
f 585/585 586/586 587/587
f 585/585 587/587 588/588
f 589/589 590/590 591/591
f 589/589 591/591 592/592
f 593/593 594/594 595/595
f 593/593 595/595 596/596
f 597/597 598/598 599/599
f 597/597 599/599 600/600
f 601/601 602/602 603/603
f 601/601 603/603 604/604
f 605/605 606/606 607/607
f 605/605 607/607 608/608
f 609/609 610/610 611/611
f 609/609 611/611 612/612
f 613/613 614/614 615/615
f 613/613 615/615 616/616
f 617/617 618/618 619/619
f 617/617 619/619 620/620
f 621/621 622/622 623/623
f 621/621 623/623 624/624
f 625/625 626/626 627/627
f 625/625 627/627 628/628
f 629/629 630/630 631/631
f 629/629 631/631 632/632
f 633/633 634/634 635/635
f 633/633 635/635 636/636
f 637/637 638/638 639/639
f 637/637 639/639 640/640
f 641/641 642/642 643/643
f 641/641 643/643 644/644
f 645/645 646/646 647/647
f 645/645 647/647 648/648
f 649/649 650/650 651/651
f 649/649 651/651 652/652
f 653/653 654/654 655/655
f 653/653 655/655 656/656
f 657/657 658/658 659/659
f 657/657 659/659 660/660
f 661/661 662/662 663/663
f 661/661 663/663 664/664
f 665/665 666/666 667/667
f 665/665 667/667 668/668
f 669/669 670/670 671/671
f 669/669 671/671 672/672
f 673/673 674/674 675/675
f 673/673 675/675 676/676
f 677/677 678/678 679/679
f 677/677 679/679 680/680
f 681/681 682/682 683/683
f 681/681 683/683 684/684
f 685/685 686/686 687/687
f 685/685 687/687 688/688
f 689/689 690/690 691/691
f 689/689 691/691 692/692
f 693/693 694/694 695/695
f 693/693 695/695 696/696
f 697/697 698/698 699/699
f 697/697 699/699 700/700
f 701/701 702/702 703/703
f 701/701 703/703 704/704
f 705/705 706/706 707/707
f 705/705 707/707 708/708
f 709/709 710/710 711/711
f 709/709 711/711 712/712
f 713/713 714/714 715/715
f 713/713 715/715 716/716
f 717/717 718/718 719/719
f 717/717 719/719 720/720
f 721/721 722/722 723/723
f 724/724 725/725 726/726
f 727/727 728/728 729/729
f 730/730 731/731 732/732
f 733/733 734/734 735/735
f 736/736 737/737 738/738
f 739/739 740/740 741/741
f 742/742 743/743 744/744
f 745/745 746/746 747/747
f 748/748 749/749 750/750
f 751/751 752/752 753/753
f 754/754 755/755 756/756
f 757/757 758/758 759/759
f 760/760 761/761 762/762
f 763/763 764/764 765/765
f 766/766 767/767 768/768
f 769/769 770/770 771/771
f 772/772 773/773 774/774
f 775/775 776/776 777/777
f 778/778 779/779 780/780
f 781/781 782/782 783/783
f 784/784 785/785 786/786
f 787/787 788/788 789/789
f 790/790 791/791 792/792
f 793/793 794/794 795/795
f 796/796 797/797 798/798
f 799/799 800/800 801/801
f 802/802 803/803 804/804
f 805/805 806/806 807/807
f 808/808 809/809 810/810
f 811/811 812/812 813/813
f 814/814 815/815 816/816
f 817/817 818/818 819/819
f 820/820 821/821 822/822
f 823/823 824/824 825/825
f 826/826 827/827 828/828
f 829/829 830/830 831/831
f 832/832 833/833 834/834
f 835/835 836/836 837/837
f 838/838 839/839 840/840
f 841/841 842/842 843/843
f 844/844 845/845 846/846
f 847/847 848/848 849/849
f 850/850 851/851 852/852
f 853/853 854/854 855/855
f 856/856 857/857 858/858
f 859/859 860/860 861/861
f 862/862 863/863 864/864
f 865/865 866/866 867/867
f 868/868 869/869 870/870
f 871/871 872/872 873/873
f 874/874 875/875 876/876
f 877/877 878/878 879/879
f 880/880 881/881 882/882
f 883/883 884/884 885/885
f 886/886 887/887 888/888
f 889/889 890/890 891/891
f 892/892 893/893 894/894
f 895/895 896/896 897/897
f 898/898 899/899 900/900
f 901/901 902/902 903/903
f 904/904 905/905 906/906
f 907/907 908/908 909/909
f 910/910 911/911 912/912
f 913/913 914/914 915/915
f 916/916 917/917 918/918
f 919/919 920/920 921/921
f 922/922 923/923 924/924
f 925/925 926/926 927/927
f 928/928 929/929 930/930
f 931/931 932/932 933/933
f 934/934 935/935 936/936
usemtl rebar
f 937/937 938/938 939/939
f 937/937 939/939 940/940
f 941/941 942/942 943/943
f 941/941 943/943 944/944
f 945/945 946/946 947/947
f 945/945 947/947 948/948
f 949/949 950/950 951/951
f 949/949 951/951 952/952
f 953/953 954/954 955/955
f 953/953 955/955 956/956
f 957/957 958/958 959/959
f 957/957 959/959 960/960
f 961/961 962/962 963/963
f 961/961 963/963 964/964
f 965/965 966/966 967/967
f 965/965 967/967 968/968
f 969/969 970/970 971/971
f 969/969 971/971 972/972
f 973/973 974/974 975/975
f 973/973 975/975 976/976
f 977/977 978/978 979/979
f 977/977 979/979 980/980
f 981/981 982/982 983/983
f 981/981 983/983 984/984
f 985/985 986/986 987/987
f 985/985 987/987 988/988
f 989/989 990/990 991/991
f 989/989 991/991 992/992
f 993/993 994/994 995/995
f 993/993 995/995 996/996
f 997/997 998/998 999/999
f 997/997 999/999 1000/1000
f 1001/1001 1002/1002 1003/1003
f 1001/1001 1003/1003 1004/1004
f 1005/1005 1006/1006 1007/1007
f 1005/1005 1007/1007 1008/1008
f 1009/1009 1010/1010 1011/1011
f 1009/1009 1011/1011 1012/1012
f 1013/1013 1014/1014 1015/1015
f 1013/1013 1015/1015 1016/1016
f 1017/1017 1018/1018 1019/1019
f 1017/1017 1019/1019 1020/1020
f 1021/1021 1022/1022 1023/1023
f 1021/1021 1023/1023 1024/1024
f 1025/1025 1026/1026 1027/1027
f 1025/1025 1027/1027 1028/1028
f 1029/1029 1030/1030 1031/1031
f 1029/1029 1031/1031 1032/1032
f 1033/1033 1034/1034 1035/1035
f 1033/1033 1035/1035 1036/1036
f 1037/1037 1038/1038 1039/1039
f 1037/1037 1039/1039 1040/1040
f 1041/1041 1042/1042 1043/1043
f 1041/1041 1043/1043 1044/1044
f 1045/1045 1046/1046 1047/1047
f 1045/1045 1047/1047 1048/1048
f 1049/1049 1050/1050 1051/1051
f 1049/1049 1051/1051 1052/1052
f 1053/1053 1054/1054 1055/1055
f 1053/1053 1055/1055 1056/1056
f 1057/1057 1058/1058 1059/1059
f 1057/1057 1059/1059 1060/1060
f 1061/1061 1062/1062 1063/1063
f 1061/1061 1063/1063 1064/1064
f 1065/1065 1066/1066 1067/1067
f 1065/1065 1067/1067 1068/1068
f 1069/1069 1070/1070 1071/1071
f 1069/1069 1071/1071 1072/1072
f 1073/1073 1074/1074 1075/1075
f 1073/1073 1075/1075 1076/1076
f 1077/1077 1078/1078 1079/1079
f 1077/1077 1079/1079 1080/1080
f 1081/1081 1082/1082 1083/1083
f 1081/1081 1083/1083 1084/1084
f 1085/1085 1086/1086 1087/1087
f 1085/1085 1087/1087 1088/1088
f 1089/1089 1090/1090 1091/1091
f 1089/1089 1091/1091 1092/1092
f 1093/1093 1094/1094 1095/1095
f 1093/1093 1095/1095 1096/1096
f 1097/1097 1098/1098 1099/1099
f 1097/1097 1099/1099 1100/1100
f 1101/1101 1102/1102 1103/1103
f 1101/1101 1103/1103 1104/1104
f 1105/1105 1106/1106 1107/1107
f 1105/1105 1107/1107 1108/1108
f 1109/1109 1110/1110 1111/1111
f 1109/1109 1111/1111 1112/1112
f 1113/1113 1114/1114 1115/1115
f 1113/1113 1115/1115 1116/1116
f 1117/1117 1118/1118 1119/1119
f 1117/1117 1119/1119 1120/1120
f 1121/1121 1122/1122 1123/1123
f 1121/1121 1123/1123 1124/1124
f 1125/1125 1126/1126 1127/1127
f 1125/1125 1127/1127 1128/1128
f 1129/1129 1130/1130 1131/1131
f 1129/1129 1131/1131 1132/1132
f 1133/1133 1134/1134 1135/1135
f 1133/1133 1135/1135 1136/1136
f 1137/1137 1138/1138 1139/1139
f 1137/1137 1139/1139 1140/1140
f 1141/1141 1142/1142 1143/1143
f 1141/1141 1143/1143 1144/1144
f 1145/1145 1146/1146 1147/1147
f 1145/1145 1147/1147 1148/1148
f 1149/1149 1150/1150 1151/1151
f 1149/1149 1151/1151 1152/1152
f 1153/1153 1154/1154 1155/1155
f 1153/1153 1155/1155 1156/1156
f 1157/1157 1158/1158 1159/1159
f 1157/1157 1159/1159 1160/1160
f 1161/1161 1162/1162 1163/1163
f 1161/1161 1163/1163 1164/1164
f 1165/1165 1166/1166 1167/1167
f 1165/1165 1167/1167 1168/1168
f 1169/1169 1170/1170 1171/1171
f 1169/1169 1171/1171 1172/1172
f 1173/1173 1174/1174 1175/1175
f 1173/1173 1175/1175 1176/1176
f 1177/1177 1178/1178 1179/1179
f 1177/1177 1179/1179 1180/1180
f 1181/1181 1182/1182 1183/1183
f 1181/1181 1183/1183 1184/1184
f 1185/1185 1186/1186 1187/1187
f 1185/1185 1187/1187 1188/1188
f 1189/1189 1190/1190 1191/1191
f 1189/1189 1191/1191 1192/1192
f 1193/1193 1194/1194 1195/1195
f 1193/1193 1195/1195 1196/1196
f 1197/1197 1198/1198 1199/1199
f 1197/1197 1199/1199 1200/1200
f 1201/1201 1202/1202 1203/1203
f 1201/1201 1203/1203 1204/1204
f 1205/1205 1206/1206 1207/1207
f 1205/1205 1207/1207 1208/1208
f 1209/1209 1210/1210 1211/1211
f 1209/1209 1211/1211 1212/1212
f 1213/1213 1214/1214 1215/1215
f 1213/1213 1215/1215 1216/1216
f 1217/1217 1218/1218 1219/1219
f 1217/1217 1219/1219 1220/1220
f 1221/1221 1222/1222 1223/1223
f 1221/1221 1223/1223 1224/1224
f 1225/1225 1226/1226 1227/1227
f 1225/1225 1227/1227 1228/1228
f 1229/1229 1230/1230 1231/1231
f 1229/1229 1231/1231 1232/1232
f 1233/1233 1234/1234 1235/1235
f 1233/1233 1235/1235 1236/1236
f 1237/1237 1238/1238 1239/1239
f 1237/1237 1239/1239 1240/1240
f 1241/1241 1242/1242 1243/1243
f 1241/1241 1243/1243 1244/1244
f 1245/1245 1246/1246 1247/1247
f 1245/1245 1247/1247 1248/1248
f 1249/1249 1250/1250 1251/1251
f 1249/1249 1251/1251 1252/1252
f 1253/1253 1254/1254 1255/1255
f 1253/1253 1255/1255 1256/1256
f 1257/1257 1258/1258 1259/1259
f 1257/1257 1259/1259 1260/1260
f 1261/1261 1262/1262 1263/1263
f 1261/1261 1263/1263 1264/1264
f 1265/1265 1266/1266 1267/1267
f 1265/1265 1267/1267 1268/1268
f 1269/1269 1270/1270 1271/1271
f 1269/1269 1271/1271 1272/1272
f 1273/1273 1274/1274 1275/1275
f 1273/1273 1275/1275 1276/1276
f 1277/1277 1278/1278 1279/1279
f 1277/1277 1279/1279 1280/1280
f 1281/1281 1282/1282 1283/1283
f 1281/1281 1283/1283 1284/1284
f 1285/1285 1286/1286 1287/1287
f 1285/1285 1287/1287 1288/1288
f 1289/1289 1290/1290 1291/1291
f 1289/1289 1291/1291 1292/1292
f 1293/1293 1294/1294 1295/1295
f 1293/1293 1295/1295 1296/1296
f 1297/1297 1298/1298 1299/1299
f 1297/1297 1299/1299 1300/1300
f 1301/1301 1302/1302 1303/1303
f 1301/1301 1303/1303 1304/1304
f 1305/1305 1306/1306 1307/1307
f 1305/1305 1307/1307 1308/1308
f 1309/1309 1310/1310 1311/1311
f 1309/1309 1311/1311 1312/1312
f 1313/1313 1314/1314 1315/1315
f 1313/1313 1315/1315 1316/1316
f 1317/1317 1318/1318 1319/1319
f 1317/1317 1319/1319 1320/1320
f 1321/1321 1322/1322 1323/1323
f 1321/1321 1323/1323 1324/1324
f 1325/1325 1326/1326 1327/1327
f 1325/1325 1327/1327 1328/1328
f 1329/1329 1330/1330 1331/1331
f 1329/1329 1331/1331 1332/1332
f 1333/1333 1334/1334 1335/1335
f 1333/1333 1335/1335 1336/1336
f 1337/1337 1338/1338 1339/1339
f 1337/1337 1339/1339 1340/1340
f 1341/1341 1342/1342 1343/1343
f 1341/1341 1343/1343 1344/1344
f 1345/1345 1346/1346 1347/1347
f 1345/1345 1347/1347 1348/1348
f 1349/1349 1350/1350 1351/1351
f 1349/1349 1351/1351 1352/1352
f 1353/1353 1354/1354 1355/1355
f 1353/1353 1355/1355 1356/1356
f 1357/1357 1358/1358 1359/1359
f 1357/1357 1359/1359 1360/1360
f 1361/1361 1362/1362 1363/1363
f 1361/1361 1363/1363 1364/1364
f 1365/1365 1366/1366 1367/1367
f 1365/1365 1367/1367 1368/1368
f 1369/1369 1370/1370 1371/1371
f 1369/1369 1371/1371 1372/1372
f 1373/1373 1374/1374 1375/1375
f 1373/1373 1375/1375 1376/1376
f 1377/1377 1378/1378 1379/1379
f 1377/1377 1379/1379 1380/1380
f 1381/1381 1382/1382 1383/1383
f 1381/1381 1383/1383 1384/1384
f 1385/1385 1386/1386 1387/1387
f 1385/1385 1387/1387 1388/1388
f 1389/1389 1390/1390 1391/1391
f 1389/1389 1391/1391 1392/1392
f 1393/1393 1394/1394 1395/1395
f 1393/1393 1395/1395 1396/1396
f 1397/1397 1398/1398 1399/1399
f 1397/1397 1399/1399 1400/1400
f 1401/1401 1402/1402 1403/1403
f 1401/1401 1403/1403 1404/1404
f 1405/1405 1406/1406 1407/1407
f 1405/1405 1407/1407 1408/1408
f 1409/1409 1410/1410 1411/1411
f 1409/1409 1411/1411 1412/1412
f 1413/1413 1414/1414 1415/1415
f 1413/1413 1415/1415 1416/1416
f 1417/1417 1418/1418 1419/1419
f 1417/1417 1419/1419 1420/1420
f 1421/1421 1422/1422 1423/1423
f 1421/1421 1423/1423 1424/1424
f 1425/1425 1426/1426 1427/1427
f 1425/1425 1427/1427 1428/1428
f 1429/1429 1430/1430 1431/1431
f 1429/1429 1431/1431 1432/1432
f 1433/1433 1434/1434 1435/1435
f 1433/1433 1435/1435 1436/1436
f 1437/1437 1438/1438 1439/1439
f 1437/1437 1439/1439 1440/1440
