# S_slab_5 (Sightline generated, CENTIMETRES, +Z up)
v -100.14 -16.47 -6.84
v -83.16 -36.20 -6.93
v -83.16 -36.20 10.78
v -100.14 -16.47 10.87
v -83.16 -36.20 -6.93
v -73.64 -58.94 -6.63
v -73.64 -58.94 11.08
v -83.16 -36.20 10.78
v -73.64 -58.94 -6.63
v -60.77 -66.68 -6.81
v -60.77 -66.68 10.90
v -73.64 -58.94 11.08
v -60.77 -66.68 -6.81
v -50.10 -81.79 -6.68
v -50.10 -81.79 11.03
v -60.77 -66.68 10.90
v -50.10 -81.79 -6.68
v -22.47 -64.88 -7.76
v -22.47 -64.88 9.92
v -50.10 -81.79 11.03
v -22.47 -64.88 -7.76
v -6.20 -57.45 -8.14
v -6.20 -57.45 9.52
v -22.47 -64.88 9.92
v -6.20 -57.45 -8.14
v 7.98 -74.50 -8.00
v 7.98 -74.50 9.67
v -6.20 -57.45 9.52
v 7.98 -74.50 -8.00
v 30.40 -61.15 -8.33
v 30.40 -61.15 9.33
v 7.98 -74.50 9.67
v 30.40 -61.15 -8.33
v 55.29 -51.37 -8.33
v 55.29 -51.37 9.33
v 30.40 -61.15 9.33
v 55.29 -51.37 -8.33
v 73.48 -36.25 -8.13
v 73.48 -36.25 9.53
v 55.29 -51.37 9.33
v 73.48 -36.25 -8.13
v 103.14 -26.62 -7.45
v 103.14 -26.62 10.24
v 73.48 -36.25 9.53
v 103.14 -26.62 -7.45
v 132.89 -14.72 -6.33
v 132.89 -14.72 11.39
v 103.14 -26.62 10.24
v 132.89 -14.72 -6.33
v 100.73 0.45 -7.13
v 100.73 0.45 10.56
v 132.89 -14.72 11.39
v 100.73 0.45 -7.13
v 87.67 15.82 -7.23
v 87.67 15.82 10.46
v 100.73 0.45 10.56
v 87.67 15.82 -7.23
v 61.86 29.80 -7.64
v 61.86 29.80 10.04
v 87.67 15.82 10.46
v 61.86 29.80 -7.64
v 38.27 42.74 -7.90
v 38.27 42.74 9.77
v 61.86 29.80 10.04
v 38.27 42.74 -7.90
v 17.37 57.83 -7.98
v 17.37 57.83 9.69
v 38.27 42.74 9.77
v 17.37 57.83 -7.98
v -3.98 68.28 -8.07
v -3.98 68.28 9.60
v 17.37 57.83 9.69
v -3.98 68.28 -8.07
v -20.13 63.06 -8.28
v -20.13 63.06 9.38
v -3.98 68.28 9.60
v -20.13 63.06 -8.28
v -35.37 55.32 -8.39
v -35.37 55.32 9.26
v -20.13 63.06 9.38
v -35.37 55.32 -8.39
v -45.48 43.67 -8.43
v -45.48 43.67 9.23
v -35.37 55.32 9.26
v -45.48 43.67 -8.43
v -70.32 45.03 -8.19
v -70.32 45.03 9.47
v -45.48 43.67 9.23
v -70.32 45.03 -8.19
v -70.32 31.11 -8.16
v -70.32 31.11 9.50
v -70.32 45.03 9.47
v -70.32 31.11 -8.16
v -114.82 35.34 -7.22
v -114.82 35.34 10.47
v -70.32 31.11 9.50
v -114.82 35.34 -7.22
v -127.44 26.80 -6.73
v -127.44 26.80 10.98
v -114.82 35.34 10.47
v -127.44 26.80 -6.73
v -111.96 4.96 -6.88
v -111.96 4.96 10.83
v -127.44 26.80 10.98
v -111.96 4.96 -6.88
v -100.14 -16.47 -6.84
v -100.14 -16.47 10.87
v -111.96 4.96 10.83
v -100.14 -16.47 10.87
v -83.16 -36.20 10.78
v -51.56 -22.44 9.68
v -62.08 -10.21 9.72
v -83.16 -36.20 -6.93
v -100.14 -16.47 -6.84
v -62.08 -10.21 -7.36
v -51.56 -22.44 -7.40
v -83.16 -36.20 10.78
v -73.64 -58.94 11.08
v -45.66 -36.54 9.80
v -51.56 -22.44 9.68
v -73.64 -58.94 -6.63
v -83.16 -36.20 -6.93
v -51.56 -22.44 -7.40
v -45.66 -36.54 -7.28
v -73.64 -58.94 11.08
v -60.77 -66.68 10.90
v -37.68 -41.34 9.73
v -45.66 -36.54 9.80
v -60.77 -66.68 -6.81
v -73.64 -58.94 -6.63
v -45.66 -36.54 -7.28
v -37.68 -41.34 -7.35
v -60.77 -66.68 10.90
v -50.10 -81.79 11.03
v -31.06 -50.71 9.78
v -37.68 -41.34 9.73
v -50.10 -81.79 -6.68
v -60.77 -66.68 -6.81
v -37.68 -41.34 -7.35
v -31.06 -50.71 -7.30
v -50.10 -81.79 11.03
v -22.47 -64.88 9.92
v -13.93 -40.23 9.35
v -31.06 -50.71 9.78
v -22.47 -64.88 -7.76
v -50.10 -81.79 -6.68
v -31.06 -50.71 -7.30
v -13.93 -40.23 -7.72
v -22.47 -64.88 9.92
v -6.20 -57.45 9.52
v -3.84 -35.62 9.20
v -13.93 -40.23 9.35
v -6.20 -57.45 -8.14
v -22.47 -64.88 -7.76
v -13.93 -40.23 -7.72
v -3.84 -35.62 -7.86
v -6.20 -57.45 9.52
v 7.98 -74.50 9.67
v 4.95 -46.19 9.26
v -3.84 -35.62 9.20
v 7.98 -74.50 -8.00
v -6.20 -57.45 -8.14
v -3.84 -35.62 -7.86
v 4.95 -46.19 -7.81
v 7.98 -74.50 9.67
v 30.40 -61.15 9.33
v 18.85 -37.92 9.12
v 4.95 -46.19 9.26
v 30.40 -61.15 -8.33
v 7.98 -74.50 -8.00
v 4.95 -46.19 -7.81
v 18.85 -37.92 -7.94
v 30.40 -61.15 9.33
v 55.29 -51.37 9.33
v 34.28 -31.85 9.13
v 18.85 -37.92 9.12
v 55.29 -51.37 -8.33
v 30.40 -61.15 -8.33
v 18.85 -37.92 -7.94
v 34.28 -31.85 -7.94
v 55.29 -51.37 9.33
v 73.48 -36.25 9.53
v 45.56 -22.47 9.21
v 34.28 -31.85 9.13
v 73.48 -36.25 -8.13
v 55.29 -51.37 -8.33
v 34.28 -31.85 -7.94
v 45.56 -22.47 -7.86
v 73.48 -36.25 9.53
v 103.14 -26.62 10.24
v 63.95 -16.50 9.48
v 45.56 -22.47 9.21
v 103.14 -26.62 -7.45
v 73.48 -36.25 -8.13
v 45.56 -22.47 -7.86
v 63.95 -16.50 -7.60
v 103.14 -26.62 10.24
v 132.89 -14.72 11.39
v 82.39 -9.13 9.92
v 63.95 -16.50 9.48
v 132.89 -14.72 -6.33
v 103.14 -26.62 -7.45
v 63.95 -16.50 -7.60
v 82.39 -9.13 -7.17
v 132.89 -14.72 11.39
v 100.73 0.45 10.56
v 62.45 0.28 9.60
v 82.39 -9.13 9.92
v 100.73 0.45 -7.13
v 132.89 -14.72 -6.33
v 82.39 -9.13 -7.17
v 62.45 0.28 -7.48
v 100.73 0.45 10.56
v 87.67 15.82 10.46
v 54.36 9.81 9.56
v 62.45 0.28 9.60
v 87.67 15.82 -7.23
v 100.73 0.45 -7.13
v 62.45 0.28 -7.48
v 54.36 9.81 -7.52
v 87.67 15.82 10.46
v 61.86 29.80 10.04
v 38.35 18.48 9.40
v 54.36 9.81 9.56
v 61.86 29.80 -7.64
v 87.67 15.82 -7.23
v 54.36 9.81 -7.52
v 38.35 18.48 -7.67
v 61.86 29.80 10.04
v 38.27 42.74 9.77
v 23.73 26.50 9.29
v 38.35 18.48 9.40
v 38.27 42.74 -7.90
v 61.86 29.80 -7.64
v 38.35 18.48 -7.67
v 23.73 26.50 -7.77
v 38.27 42.74 9.77
v 17.37 57.83 9.69
v 10.77 35.86 9.26
v 23.73 26.50 9.29
v 17.37 57.83 -7.98
v 38.27 42.74 -7.90
v 23.73 26.50 -7.77
v 10.77 35.86 -7.80
v 17.37 57.83 9.69
v -3.98 68.28 9.60
v -2.47 42.33 9.23
v 10.77 35.86 9.26
v -3.98 68.28 -8.07
v 17.37 57.83 -7.98
v 10.77 35.86 -7.80
v -2.47 42.33 -7.84
v -3.98 68.28 9.60
v -20.13 63.06 9.38
v -12.48 39.10 9.15
v -2.47 42.33 9.23
v -20.13 63.06 -8.28
v -3.98 68.28 -8.07
v -2.47 42.33 -7.84
v -12.48 39.10 -7.92
v -20.13 63.06 9.38
v -35.37 55.32 9.26
v -21.93 34.30 9.10
v -12.48 39.10 9.15
v -35.37 55.32 -8.39
v -20.13 63.06 -8.28
v -12.48 39.10 -7.92
v -21.93 34.30 -7.96
v -35.37 55.32 9.26
v -45.48 43.67 9.23
v -28.20 27.08 9.09
v -21.93 34.30 9.10
v -45.48 43.67 -8.43
v -35.37 55.32 -8.39
v -21.93 34.30 -7.96
v -28.20 27.08 -7.98
v -45.48 43.67 9.23
v -70.32 45.03 9.47
v -43.60 27.92 9.18
v -28.20 27.08 9.09
v -70.32 45.03 -8.19
v -45.48 43.67 -8.43
v -28.20 27.08 -7.98
v -43.60 27.92 -7.88
v -70.32 45.03 9.47
v -70.32 31.11 9.50
v -43.60 19.29 9.19
v -43.60 27.92 9.18
v -70.32 31.11 -8.16
v -70.32 45.03 -8.19
v -43.60 27.92 -7.88
v -43.60 19.29 -7.87
v -70.32 31.11 9.50
v -114.82 35.34 10.47
v -71.19 21.91 9.57
v -43.60 19.29 9.19
v -114.82 35.34 -7.22
v -70.32 31.11 -8.16
v -43.60 19.29 -7.87
v -71.19 21.91 -7.51
v -114.82 35.34 10.47
v -127.44 26.80 10.98
v -79.01 16.61 9.76
v -71.19 21.91 9.57
v -127.44 26.80 -6.73
v -114.82 35.34 -7.22
v -71.19 21.91 -7.51
v -79.01 16.61 -7.32
v -127.44 26.80 10.98
v -111.96 4.96 10.83
v -69.41 3.08 9.70
v -79.01 16.61 9.76
v -111.96 4.96 -6.88
v -127.44 26.80 -6.73
v -79.01 16.61 -7.32
v -69.41 3.08 -7.38
v -111.96 4.96 10.83
v -100.14 -16.47 10.87
v -62.08 -10.21 9.72
v -69.41 3.08 9.70
v -100.14 -16.47 -6.84
v -111.96 4.96 -6.88
v -69.41 3.08 -7.38
v -62.08 -10.21 -7.36
v -62.08 -10.21 9.72
v -51.56 -22.44 9.68
v -24.95 -10.86 9.16
v -30.04 -4.94 9.17
v -51.56 -22.44 -7.40
v -62.08 -10.21 -7.36
v -30.04 -4.94 -8.37
v -24.95 -10.86 -8.38
v -51.56 -22.44 9.68
v -45.66 -36.54 9.80
v -22.09 -17.68 9.19
v -24.95 -10.86 9.16
v -45.66 -36.54 -7.28
v -51.56 -22.44 -7.40
v -24.95 -10.86 -8.38
v -22.09 -17.68 -8.35
v -45.66 -36.54 9.80
v -37.68 -41.34 9.73
v -18.23 -20.00 9.17
v -22.09 -17.68 9.19
v -37.68 -41.34 -7.35
v -45.66 -36.54 -7.28
v -22.09 -17.68 -8.35
v -18.23 -20.00 -8.37
v -37.68 -41.34 9.73
v -31.06 -50.71 9.78
v -15.03 -24.54 9.18
v -18.23 -20.00 9.17
v -31.06 -50.71 -7.30
v -37.68 -41.34 -7.35
v -18.23 -20.00 -8.37
v -15.03 -24.54 -8.36
v -31.06 -50.71 9.78
v -13.93 -40.23 9.35
v -6.74 -19.46 9.08
v -15.03 -24.54 9.18
v -13.93 -40.23 -7.72
v -31.06 -50.71 -7.30
v -15.03 -24.54 -8.36
v -6.74 -19.46 -8.46
v -13.93 -40.23 9.35
v -3.84 -35.62 9.20
v -1.86 -17.23 9.05
v -6.74 -19.46 9.08
v -3.84 -35.62 -7.86
v -13.93 -40.23 -7.72
v -6.74 -19.46 -8.46
v -1.86 -17.23 -8.49
v -3.84 -35.62 9.20
v 4.95 -46.19 9.26
v 2.40 -22.35 9.06
v -1.86 -17.23 9.05
v 4.95 -46.19 -7.81
v -3.84 -35.62 -7.86
v -1.86 -17.23 -8.49
v 2.40 -22.35 -8.48
v 4.95 -46.19 9.26
v 18.85 -37.92 9.12
v 9.12 -18.35 9.03
v 2.40 -22.35 9.06
v 18.85 -37.92 -7.94
v 4.95 -46.19 -7.81
v 2.40 -22.35 -8.48
v 9.12 -18.35 -8.51
v 18.85 -37.92 9.12
v 34.28 -31.85 9.13
v 16.59 -15.41 9.03
v 9.12 -18.35 9.03
v 34.28 -31.85 -7.94
v 18.85 -37.92 -7.94
v 9.12 -18.35 -8.51
v 16.59 -15.41 -8.51
v 34.28 -31.85 9.13
v 45.56 -22.47 9.21
v 22.04 -10.87 9.05
v 16.59 -15.41 9.03
v 45.56 -22.47 -7.86
v 34.28 -31.85 -7.94
v 16.59 -15.41 -8.51
v 22.04 -10.87 -8.49
v 45.56 -22.47 9.21
v 63.95 -16.50 9.48
v 30.94 -7.99 9.11
v 22.04 -10.87 9.05
v 63.95 -16.50 -7.60
v 45.56 -22.47 -7.86
v 22.04 -10.87 -8.49
v 30.94 -7.99 -8.43
v 63.95 -16.50 9.48
v 82.39 -9.13 9.92
v 39.87 -4.42 9.21
v 30.94 -7.99 9.11
v 82.39 -9.13 -7.17
v 63.95 -16.50 -7.60
v 30.94 -7.99 -8.43
v 39.87 -4.42 -8.33
v 82.39 -9.13 9.92
v 62.45 0.28 9.60
v 30.22 0.14 9.14
v 39.87 -4.42 9.21
v 62.45 0.28 -7.48
v 82.39 -9.13 -7.17
v 39.87 -4.42 -8.33
v 30.22 0.14 -8.40
v 62.45 0.28 9.60
v 54.36 9.81 9.56
v 26.30 4.74 9.13
v 30.22 0.14 9.14
v 54.36 9.81 -7.52
v 62.45 0.28 -7.48
v 30.22 0.14 -8.40
v 26.30 4.74 -8.41
v 54.36 9.81 9.56
v 38.35 18.48 9.40
v 18.56 8.94 9.09
v 26.30 4.74 9.13
v 38.35 18.48 -7.67
v 54.36 9.81 -7.52
v 26.30 4.74 -8.41
v 18.56 8.94 -8.44
v 38.35 18.48 9.40
v 23.73 26.50 9.29
v 11.48 12.82 9.07
v 18.56 8.94 9.09
v 23.73 26.50 -7.77
v 38.35 18.48 -7.67
v 18.56 8.94 -8.44
v 11.48 12.82 -8.47
v 23.73 26.50 9.29
v 10.77 35.86 9.26
v 5.21 17.35 9.06
v 11.48 12.82 9.07
v 10.77 35.86 -7.80
v 23.73 26.50 -7.77
v 11.48 12.82 -8.47
v 5.21 17.35 -8.48
v 10.77 35.86 9.26
v -2.47 42.33 9.23
v -1.19 20.48 9.05
v 5.21 17.35 9.06
v -2.47 42.33 -7.84
v 10.77 35.86 -7.80
v 5.21 17.35 -8.48
v -1.19 20.48 -8.48
v -2.47 42.33 9.23
v -12.48 39.10 9.15
v -6.04 18.92 9.03
v -1.19 20.48 9.05
v -12.48 39.10 -7.92
v -2.47 42.33 -7.84
v -1.19 20.48 -8.48
v -6.04 18.92 -8.50
v -12.48 39.10 9.15
v -21.93 34.30 9.10
v -10.61 16.60 9.02
v -6.04 18.92 9.03
v -21.93 34.30 -7.96
v -12.48 39.10 -7.92
v -6.04 18.92 -8.50
v -10.61 16.60 -8.51
v -21.93 34.30 9.10
v -28.20 27.08 9.09
v -13.64 13.10 9.02
v -10.61 16.60 9.02
v -28.20 27.08 -7.98
v -21.93 34.30 -7.96
v -10.61 16.60 -8.51
v -13.64 13.10 -8.52
v -28.20 27.08 9.09
v -43.60 27.92 9.18
v -21.10 13.51 9.04
v -13.64 13.10 9.02
v -43.60 27.92 -7.88
v -28.20 27.08 -7.98
v -13.64 13.10 -8.52
v -21.10 13.51 -8.49
v -43.60 27.92 9.18
v -43.60 19.29 9.19
v -21.10 9.33 9.05
v -21.10 13.51 9.04
v -43.60 19.29 -7.87
v -43.60 27.92 -7.88
v -21.10 13.51 -8.49
v -21.10 9.33 -8.49
v -43.60 19.29 9.19
v -71.19 21.91 9.57
v -34.45 10.60 9.13
v -21.10 9.33 9.05
v -71.19 21.91 -7.51
v -43.60 19.29 -7.87
v -21.10 9.33 -8.49
v -34.45 10.60 -8.41
v -71.19 21.91 9.57
v -79.01 16.61 9.76
v -38.23 8.04 9.18
v -34.45 10.60 9.13
v -79.01 16.61 -7.32
v -71.19 21.91 -7.51
v -34.45 10.60 -8.41
v -38.23 8.04 -8.36
v -79.01 16.61 9.76
v -69.41 3.08 9.70
v -33.59 1.49 9.16
v -38.23 8.04 9.18
v -69.41 3.08 -7.38
v -79.01 16.61 -7.32
v -38.23 8.04 -8.36
v -33.59 1.49 -8.38
v -69.41 3.08 9.70
v -62.08 -10.21 9.72
v -30.04 -4.94 9.17
v -33.59 1.49 9.16
v -62.08 -10.21 -7.36
v -69.41 3.08 -7.38
v -33.59 1.49 -8.38
v -30.04 -4.94 -8.37
v -30.04 -4.94 9.17
v -24.95 -10.86 9.16
v 0.00 0.00 9.00
v -24.95 -10.86 -8.38
v -30.04 -4.94 -8.37
v 0.00 0.00 -9.00
v -24.95 -10.86 9.16
v -22.09 -17.68 9.19
v 0.00 0.00 9.00
v -22.09 -17.68 -8.35
v -24.95 -10.86 -8.38
v 0.00 0.00 -9.00
v -22.09 -17.68 9.19
v -18.23 -20.00 9.17
v 0.00 0.00 9.00
v -18.23 -20.00 -8.37
v -22.09 -17.68 -8.35
v 0.00 0.00 -9.00
v -18.23 -20.00 9.17
v -15.03 -24.54 9.18
v 0.00 0.00 9.00
v -15.03 -24.54 -8.36
v -18.23 -20.00 -8.37
v 0.00 0.00 -9.00
v -15.03 -24.54 9.18
v -6.74 -19.46 9.08
v 0.00 0.00 9.00
v -6.74 -19.46 -8.46
v -15.03 -24.54 -8.36
v 0.00 0.00 -9.00
v -6.74 -19.46 9.08
v -1.86 -17.23 9.05
v 0.00 0.00 9.00
v -1.86 -17.23 -8.49
v -6.74 -19.46 -8.46
v 0.00 0.00 -9.00
v -1.86 -17.23 9.05
v 2.40 -22.35 9.06
v 0.00 0.00 9.00
v 2.40 -22.35 -8.48
v -1.86 -17.23 -8.49
v 0.00 0.00 -9.00
v 2.40 -22.35 9.06
v 9.12 -18.35 9.03
v 0.00 0.00 9.00
v 9.12 -18.35 -8.51
v 2.40 -22.35 -8.48
v 0.00 0.00 -9.00
v 9.12 -18.35 9.03
v 16.59 -15.41 9.03
v 0.00 0.00 9.00
v 16.59 -15.41 -8.51
v 9.12 -18.35 -8.51
v 0.00 0.00 -9.00
v 16.59 -15.41 9.03
v 22.04 -10.87 9.05
v 0.00 0.00 9.00
v 22.04 -10.87 -8.49
v 16.59 -15.41 -8.51
v 0.00 0.00 -9.00
v 22.04 -10.87 9.05
v 30.94 -7.99 9.11
v 0.00 0.00 9.00
v 30.94 -7.99 -8.43
v 22.04 -10.87 -8.49
v 0.00 0.00 -9.00
v 30.94 -7.99 9.11
v 39.87 -4.42 9.21
v 0.00 0.00 9.00
v 39.87 -4.42 -8.33
v 30.94 -7.99 -8.43
v 0.00 0.00 -9.00
v 39.87 -4.42 9.21
v 30.22 0.14 9.14
v 0.00 0.00 9.00
v 30.22 0.14 -8.40
v 39.87 -4.42 -8.33
v 0.00 0.00 -9.00
v 30.22 0.14 9.14
v 26.30 4.74 9.13
v 0.00 0.00 9.00
v 26.30 4.74 -8.41
v 30.22 0.14 -8.40
v 0.00 0.00 -9.00
v 26.30 4.74 9.13
v 18.56 8.94 9.09
v 0.00 0.00 9.00
v 18.56 8.94 -8.44
v 26.30 4.74 -8.41
v 0.00 0.00 -9.00
v 18.56 8.94 9.09
v 11.48 12.82 9.07
v 0.00 0.00 9.00
v 11.48 12.82 -8.47
v 18.56 8.94 -8.44
v 0.00 0.00 -9.00
v 11.48 12.82 9.07
v 5.21 17.35 9.06
v 0.00 0.00 9.00
v 5.21 17.35 -8.48
v 11.48 12.82 -8.47
v 0.00 0.00 -9.00
v 5.21 17.35 9.06
v -1.19 20.48 9.05
v 0.00 0.00 9.00
v -1.19 20.48 -8.48
v 5.21 17.35 -8.48
v 0.00 0.00 -9.00
v -1.19 20.48 9.05
v -6.04 18.92 9.03
v 0.00 0.00 9.00
v -6.04 18.92 -8.50
v -1.19 20.48 -8.48
v 0.00 0.00 -9.00
v -6.04 18.92 9.03
v -10.61 16.60 9.02
v 0.00 0.00 9.00
v -10.61 16.60 -8.51
v -6.04 18.92 -8.50
v 0.00 0.00 -9.00
v -10.61 16.60 9.02
v -13.64 13.10 9.02
v 0.00 0.00 9.00
v -13.64 13.10 -8.52
v -10.61 16.60 -8.51
v 0.00 0.00 -9.00
v -13.64 13.10 9.02
v -21.10 13.51 9.04
v 0.00 0.00 9.00
v -21.10 13.51 -8.49
v -13.64 13.10 -8.52
v 0.00 0.00 -9.00
v -21.10 13.51 9.04
v -21.10 9.33 9.05
v 0.00 0.00 9.00
v -21.10 9.33 -8.49
v -21.10 13.51 -8.49
v 0.00 0.00 -9.00
v -21.10 9.33 9.05
v -34.45 10.60 9.13
v 0.00 0.00 9.00
v -34.45 10.60 -8.41
v -21.10 9.33 -8.49
v 0.00 0.00 -9.00
v -34.45 10.60 9.13
v -38.23 8.04 9.18
v 0.00 0.00 9.00
v -38.23 8.04 -8.36
v -34.45 10.60 -8.41
v 0.00 0.00 -9.00
v -38.23 8.04 9.18
v -33.59 1.49 9.16
v 0.00 0.00 9.00
v -33.59 1.49 -8.38
v -38.23 8.04 -8.36
v 0.00 0.00 -9.00
v -33.59 1.49 9.16
v -30.04 -4.94 9.17
v 0.00 0.00 9.00
v -30.04 -4.94 -8.37
v -33.59 1.49 -8.38
v 0.00 0.00 -9.00
vt 0.0000 0.0000
vt 0.1301 -0.0000
vt 0.1298 0.0885
vt -0.0003 0.0885
vt 0.0000 0.0000
vt 0.1233 0.0000
vt 0.1243 0.0885
vt 0.0011 0.0885
vt 0.0000 0.0000
vt 0.0751 0.0000
vt 0.0740 0.0885
vt -0.0010 0.0885
vt 0.0000 0.0000
vt 0.0925 0.0000
vt 0.0931 0.0885
vt 0.0006 0.0885
vt 0.0000 0.0000
vt 0.1620 0.0000
vt 0.1591 0.0883
vt -0.0030 0.0885
vt 0.0000 0.0000
vt 0.0895 0.0000
vt 0.0876 0.0883
vt -0.0019 0.0884
vt 0.0000 0.0000
vt 0.1109 0.0000
vt 0.1114 0.0883
vt 0.0006 0.0883
vt 0.0000 0.0000
vt 0.1304 0.0000
vt 0.1293 0.0883
vt -0.0011 0.0883
vt 0.0000 0.0000
vt 0.1337 0.0000
vt 0.1337 0.0883
vt 0.0000 0.0883
vt 0.0000 0.0000
vt 0.1183 0.0000
vt 0.1190 0.0883
vt 0.0008 0.0883
vt 0.0000 0.0000
vt 0.1560 0.0000
vt 0.1579 0.0884
vt 0.0019 0.0883
vt 0.0000 0.0000
vt 0.1603 0.0000
vt 0.1634 0.0885
vt 0.0031 0.0884
vt 0.0000 0.0000
vt 0.1779 0.0000
vt 0.1759 0.0885
vt -0.0020 0.0886
vt 0.0000 0.0000
vt 0.1008 0.0000
vt 0.1004 0.0885
vt -0.0004 0.0885
vt 0.0000 0.0000
vt 0.1468 0.0000
vt 0.1456 0.0884
vt -0.0012 0.0885
vt 0.0000 0.0000
vt 0.1345 0.0000
vt 0.1337 0.0884
vt -0.0009 0.0884
vt 0.0000 0.0000
vt 0.1289 0.0000
vt 0.1286 0.0883
vt -0.0003 0.0884
vt 0.0000 0.0000
vt 0.1188 0.0000
vt 0.1185 0.0883
vt -0.0003 0.0883
vt 0.0000 0.0000
vt 0.0849 0.0000
vt 0.0838 0.0883
vt -0.0011 0.0883
vt 0.0000 0.0000
vt 0.0855 0.0000
vt 0.0849 0.0883
vt -0.0006 0.0883
vt 0.0000 0.0000
vt 0.0771 0.0000
vt 0.0769 0.0883
vt -0.0002 0.0883
vt 0.0000 0.0000
vt 0.1244 0.0000
vt 0.1252 0.0883
vt 0.0009 0.0883
vt 0.0000 0.0000
vt 0.0696 0.0000
vt 0.0698 0.0883
vt 0.0002 0.0883
vt 0.0000 0.0000
vt 0.2236 0.0000
vt 0.2254 0.0884
vt 0.0019 0.0883
vt 0.0000 0.0000
vt 0.0762 -0.0000
vt 0.0791 0.0885
vt 0.0029 0.0884
vt 0.0000 0.0000
vt 0.1338 0.0000
vt 0.1333 0.0885
vt -0.0005 0.0885
vt 0.0000 0.0000
vt 0.1224 -0.0000
vt 0.1225 0.0885
vt 0.0001 0.0885
vt 0.0000 0.0000
vt 0.1301 0.0000
vt 0.1811 0.1647
vt 0.1004 0.1647
vt 0.0000 0.0000
vt 0.1301 -0.0000
vt 0.0297 0.1646
vt -0.0510 0.1646
vt 0.0000 0.0000
vt 0.1233 -0.0000
vt 0.0739 0.1724
vt -0.0025 0.1724
vt 0.0000 0.0000
vt 0.1233 -0.0000
vt 0.1257 0.1723
vt 0.0493 0.1723
vt 0.0000 0.0000
vt 0.0751 -0.0000
vt 0.1088 0.1682
vt 0.0623 0.1682
vt 0.0000 0.0000
vt 0.0751 -0.0000
vt 0.0129 0.1681
vt -0.0337 0.1681
vt 0.0000 0.0000
vt 0.0925 0.0000
vt 0.0204 0.1675
vt -0.0369 0.1675
vt 0.0000 0.0000
vt 0.0925 0.0000
vt 0.1294 0.1674
vt 0.0720 0.1674
vt 0.0000 0.0000
vt 0.1620 0.0000
vt 0.2628 0.0828
vt 0.1624 0.0829
vt 0.0000 0.0000
vt 0.1620 0.0000
vt -0.0003 0.0829
vt -0.1007 0.0829
vt 0.0000 0.0000
vt 0.0895 0.0000
vt 0.1455 0.0944
vt 0.0901 0.0944
vt 0.0000 0.0000
vt 0.0895 -0.0000
vt -0.0005 0.0944
vt -0.0560 0.0944
vt 0.0000 0.0000
vt 0.1109 -0.0000
vt -0.0077 0.0789
vt -0.0764 0.0789
vt 0.0000 0.0000
vt 0.1109 0.0000
vt 0.1872 0.0789
vt 0.1185 0.0789
vt 0.0000 0.0000
vt 0.1304 0.0000
vt 0.1402 0.1294
vt 0.0594 0.1294
vt 0.0000 0.0000
vt 0.1304 0.0000
vt 0.0711 0.1294
vt -0.0098 0.1294
vt 0.0000 0.0000
vt 0.1337 0.0000
vt 0.0717 0.1293
vt -0.0113 0.1293
vt 0.0000 0.0000
vt 0.1337 -0.0000
vt 0.1450 0.1293
vt 0.0621 0.1293
vt 0.0000 0.0000
vt 0.1183 -0.0000
vt 0.0549 0.1422
vt -0.0184 0.1422
vt 0.0000 0.0000
vt 0.1183 0.0000
vt 0.1366 0.1422
vt 0.0633 0.1422
vt 0.0000 0.0000
vt 0.1560 -0.0000
vt -0.0148 0.1086
vt -0.1115 0.1086
vt 0.0000 0.0000
vt 0.1560 -0.0000
vt 0.2675 0.1087
vt 0.1708 0.1087
vt 0.0000 0.0000
vt 0.1603 -0.0000
vt -0.0639 0.1197
vt -0.1632 0.1197
vt 0.0000 0.0000
vt 0.1603 -0.0000
vt 0.3234 0.1198
vt 0.2241 0.1198
vt 0.0000 0.0000
vt 0.1779 0.0000
vt 0.3506 0.0825
vt 0.2404 0.0825
vt 0.0000 0.0000
vt 0.1779 -0.0000
vt -0.0625 0.0825
vt -0.1727 0.0825
vt 0.0000 0.0000
vt 0.1008 0.0000
vt 0.1858 0.1464
vt 0.1233 0.1464
vt 0.0000 0.0000
vt 0.1008 -0.0000
vt -0.0225 0.1464
vt -0.0850 0.1464
vt 0.0000 0.0000
vt 0.1468 -0.0000
vt 0.2232 0.1058
vt 0.1322 0.1058
vt 0.0000 0.0000
vt 0.1468 -0.0000
vt 0.0146 0.1058
vt -0.0764 0.1058
vt 0.0000 0.0000
vt 0.1345 -0.0000
vt 0.1593 0.1062
vt 0.0758 0.1062
vt 0.0000 0.0000
vt 0.1345 0.0000
vt 0.0587 0.1062
vt -0.0247 0.1062
vt 0.0000 0.0000
vt 0.1289 -0.0000
vt 0.0913 0.1084
vt 0.0114 0.1084
vt 0.0000 0.0000
vt 0.1289 -0.0000
vt 0.1175 0.1084
vt 0.0376 0.1084
vt 0.0000 0.0000
vt 0.1188 0.0000
vt 0.0550 0.1132
vt -0.0187 0.1132
vt 0.0000 0.0000
vt 0.1188 -0.0000
vt 0.1375 0.1132
vt 0.0638 0.1132
vt 0.0000 0.0000
vt 0.0849 -0.0000
vt 0.0853 0.1258
vt 0.0327 0.1258
vt 0.0000 0.0000
vt 0.0849 -0.0000
vt 0.0522 0.1258
vt -0.0004 0.1258
vt 0.0000 0.0000
vt 0.0855 0.0000
vt 0.0732 0.1242
vt 0.0202 0.1242
vt 0.0000 0.0000
vt 0.0855 0.0000
vt 0.0653 0.1242
vt 0.0123 0.1242
vt 0.0000 0.0000
vt 0.0771 0.0000
vt 0.0831 0.1197
vt 0.0353 0.1197
vt 0.0000 0.0000
vt 0.0771 0.0000
vt 0.0418 0.1197
vt -0.0060 0.1197
vt 0.0000 0.0000
vt 0.1244 -0.0000
vt -0.0137 0.0781
vt -0.0908 0.0781
vt 0.0000 0.0000
vt 0.1244 0.0000
vt 0.2152 0.0782
vt 0.1381 0.0782
vt 0.0000 0.0000
vt 0.0696 0.0000
vt 0.1287 0.1336
vt 0.0856 0.1336
vt 0.0000 0.0000
vt 0.0696 -0.0000
vt -0.0160 0.1336
vt -0.0591 0.1336
vt 0.0000 0.0000
vt 0.2236 0.0000
vt -0.0000 0.0462
vt -0.1386 0.0462
vt 0.0000 0.0000
vt 0.2236 -0.0000
vt 0.3621 0.0464
vt 0.2235 0.0463
vt 0.0000 0.0000
vt 0.0762 0.0000
vt -0.0958 0.1779
vt -0.1431 0.1779
vt 0.0000 0.0000
vt 0.0762 -0.0000
vt 0.2192 0.1779
vt 0.1720 0.1779
vt 0.0000 0.0000
vt 0.1338 -0.0000
vt 0.2646 0.1682
vt 0.1816 0.1682
vt 0.0000 0.0000
vt 0.1338 0.0000
vt -0.0477 0.1681
vt -0.1307 0.1681
vt 0.0000 0.0000
vt 0.1224 0.0000
vt 0.1869 0.1818
vt 0.1110 0.1818
vt 0.0000 0.0000
vt 0.1224 -0.0000
vt 0.0114 0.1817
vt -0.0645 0.1817
vt 0.0000 0.0000
vt 0.0807 -0.0000
vt 0.1236 0.1386
vt 0.0846 0.1386
vt 0.0000 0.0000
vt 0.0807 0.0000
vt -0.0039 0.1387
vt -0.0429 0.1387
vt 0.0000 0.0000
vt 0.0764 0.0000
vt 0.0349 0.1451
vt -0.0021 0.1451
vt 0.0000 0.0000
vt 0.0764 0.0000
vt 0.0785 0.1452
vt 0.0415 0.1452
vt 0.0000 0.0000
vt 0.0466 0.0000
vt 0.0749 0.1416
vt 0.0524 0.1416
vt 0.0000 0.0000
vt 0.0466 -0.0000
vt -0.0059 0.1416
vt -0.0284 0.1416
vt 0.0000 0.0000
vt 0.0573 -0.0000
vt -0.0033 0.1410
vt -0.0311 0.1410
vt 0.0000 0.0000
vt 0.0573 0.0000
vt 0.0884 0.1411
vt 0.0607 0.1411
vt 0.0000 0.0000
vt 0.1004 -0.0000
vt 0.1853 0.0698
vt 0.1367 0.0698
vt 0.0000 0.0000
vt 0.1004 0.0000
vt -0.0363 0.0698
vt -0.0849 0.0698
vt 0.0000 0.0000
vt 0.0555 -0.0000
vt 0.1027 0.0795
vt 0.0758 0.0795
vt 0.0000 0.0000
vt 0.0555 0.0000
vt -0.0204 0.0795
vt -0.0472 0.0795
vt 0.0000 0.0000
vt 0.0687 -0.0000
vt -0.0311 0.0664
vt -0.0643 0.0664
vt 0.0000 0.0000
vt 0.0687 0.0000
vt 0.1331 0.0665
vt 0.0998 0.0665
vt 0.0000 0.0000
vt 0.0809 0.0000
vt 0.0891 0.1090
vt 0.0500 0.1090
vt 0.0000 0.0000
vt 0.0809 0.0000
vt 0.0309 0.1090
vt -0.0083 0.1090
vt 0.0000 0.0000
vt 0.0829 0.0000
vt 0.0306 0.1089
vt -0.0095 0.1089
vt 0.0000 0.0000
vt 0.0829 -0.0000
vt 0.0924 0.1089
vt 0.0523 0.1089
vt 0.0000 0.0000
vt 0.0733 -0.0000
vt 0.0200 0.1198
vt -0.0155 0.1198
vt 0.0000 0.0000
vt 0.0733 0.0000
vt 0.0888 0.1198
vt 0.0533 0.1198
vt 0.0000 0.0000
vt 0.0967 -0.0000
vt -0.0471 0.0915
vt -0.0939 0.0915
vt 0.0000 0.0000
vt 0.0967 -0.0000
vt 0.1906 0.0915
vt 0.1439 0.0915
vt 0.0000 0.0000
vt 0.0993 -0.0000
vt -0.0894 0.1008
vt -0.1374 0.1008
vt 0.0000 0.0000
vt 0.0993 0.0000
vt 0.2368 0.1008
vt 0.1888 0.1008
vt 0.0000 0.0000
vt 0.1103 0.0000
vt 0.2557 0.0694
vt 0.2024 0.0694
vt 0.0000 0.0000
vt 0.1103 0.0000
vt -0.0922 0.0695
vt -0.1455 0.0695
vt 0.0000 0.0000
vt 0.0625 0.0000
vt 0.1341 0.1233
vt 0.1038 0.1233
vt 0.0000 0.0000
vt 0.0625 -0.0000
vt -0.0413 0.1233
vt -0.0716 0.1233
vt 0.0000 0.0000
vt 0.0910 0.0000
vt 0.1553 0.0891
vt 0.1113 0.0891
vt 0.0000 0.0000
vt 0.0910 0.0000
vt -0.0203 0.0891
vt -0.0644 0.0891
vt 0.0000 0.0000
vt 0.0834 -0.0000
vt 0.1042 0.0894
vt 0.0639 0.0894
vt 0.0000 0.0000
vt 0.0834 -0.0000
vt 0.0196 0.0895
vt -0.0208 0.0895
vt 0.0000 0.0000
vt 0.0799 0.0000
vt 0.0483 0.0913
vt 0.0096 0.0913
vt 0.0000 0.0000
vt 0.0799 -0.0000
vt 0.0703 0.0914
vt 0.0316 0.0914
vt 0.0000 0.0000
vt 0.0737 -0.0000
vt 0.0199 0.0953
vt -0.0157 0.0953
vt 0.0000 0.0000
vt 0.0737 0.0000
vt 0.0894 0.0954
vt 0.0537 0.0954
vt 0.0000 0.0000
vt 0.0526 0.0000
vt 0.0530 0.1059
vt 0.0275 0.1059
vt 0.0000 0.0000
vt 0.0526 -0.0000
vt 0.0251 0.1060
vt -0.0004 0.1060
vt 0.0000 0.0000
vt 0.0530 0.0000
vt 0.0426 0.1045
vt 0.0170 0.1045
vt 0.0000 0.0000
vt 0.0530 0.0000
vt 0.0360 0.1046
vt 0.0104 0.1046
vt 0.0000 0.0000
vt 0.0478 -0.0000
vt 0.0529 0.1008
vt 0.0297 0.1008
vt 0.0000 0.0000
vt 0.0478 0.0000
vt 0.0181 0.1008
vt -0.0051 0.1008
vt 0.0000 0.0000
vt 0.0771 0.0000
vt -0.0392 0.0658
vt -0.0765 0.0658
vt 0.0000 0.0000
vt 0.0771 -0.0000
vt 0.1536 0.0658
vt 0.1163 0.0658
vt 0.0000 0.0000
vt 0.0432 0.0000
vt 0.0929 0.1125
vt 0.0720 0.1125
vt 0.0000 0.0000
vt 0.0432 0.0000
vt -0.0289 0.1126
vt -0.0498 0.1126
vt 0.0000 0.0000
vt 0.1386 0.0000
vt -0.0497 0.0389
vt -0.1167 0.0389
vt 0.0000 0.0000
vt 0.1386 0.0000
vt 0.2553 0.0389
vt 0.1883 0.0390
vt 0.0000 0.0000
vt 0.0472 -0.0000
vt -0.0976 0.1498
vt -0.1204 0.1498
vt 0.0000 0.0000
vt 0.0472 -0.0000
vt 0.1677 0.1498
vt 0.1449 0.1498
vt 0.0000 0.0000
vt 0.0830 0.0000
vt 0.1930 0.1416
vt 0.1529 0.1416
vt 0.0000 0.0000
vt 0.0830 -0.0000
vt -0.0699 0.1416
vt -0.1101 0.1416
vt 0.0000 0.0000
vt 0.0759 0.0000
vt 0.1302 0.1530
vt 0.0935 0.1530
vt 0.0000 0.0000
vt 0.0759 -0.0000
vt -0.0176 0.1531
vt -0.0543 0.1531
vt 0.0000 0.0000
vt 0.0390 -0.0000
vt 0.0793 0.1300
vt 0.0000 0.0000
vt 0.0390 -0.0000
vt -0.0402 0.1300
vt 0.0000 0.0000
vt 0.0370 0.0000
vt -0.0019 0.1360
vt 0.0000 0.0000
vt 0.0370 0.0000
vt 0.0389 0.1361
vt 0.0000 0.0000
vt 0.0225 0.0000
vt 0.0491 0.1327
vt 0.0000 0.0000
vt 0.0225 -0.0000
vt -0.0266 0.1327
vt 0.0000 0.0000
vt 0.0277 0.0000
vt -0.0291 0.1322
vt 0.0000 0.0000
vt 0.0277 -0.0000
vt 0.0569 0.1322
vt 0.0000 0.0000
vt 0.0486 0.0000
vt 0.1281 0.0654
vt 0.0000 0.0000
vt 0.0486 0.0000
vt -0.0796 0.0654
vt 0.0000 0.0000
vt 0.0268 0.0000
vt 0.0711 0.0745
vt 0.0000 0.0000
vt 0.0268 0.0000
vt -0.0443 0.0746
vt 0.0000 0.0000
vt 0.0333 -0.0000
vt -0.0603 0.0623
vt 0.0000 0.0000
vt 0.0333 -0.0000
vt 0.0936 0.0623
vt 0.0000 0.0000
vt 0.0391 -0.0000
vt 0.0469 0.1021
vt 0.0000 0.0000
vt 0.0391 -0.0000
vt -0.0077 0.1022
vt 0.0000 0.0000
vt 0.0401 0.0000
vt -0.0089 0.1021
vt 0.0000 0.0000
vt 0.0401 -0.0000
vt 0.0490 0.1021
vt 0.0000 0.0000
vt 0.0355 -0.0000
vt -0.0145 0.1123
vt 0.0000 0.0000
vt 0.0355 0.0000
vt 0.0500 0.1123
vt 0.0000 0.0000
vt 0.0468 -0.0000
vt -0.0880 0.0857
vt 0.0000 0.0000
vt 0.0468 0.0000
vt 0.1348 0.0858
vt 0.0000 0.0000
vt 0.0481 -0.0000
vt -0.1288 0.0945
vt 0.0000 0.0000
vt 0.0481 -0.0000
vt 0.1769 0.0945
vt 0.0000 0.0000
vt 0.0533 -0.0000
vt 0.1897 0.0651
vt 0.0000 0.0000
vt 0.0533 0.0000
vt -0.1364 0.0651
vt 0.0000 0.0000
vt 0.0302 0.0000
vt 0.0973 0.1156
vt 0.0000 0.0000
vt 0.0302 0.0000
vt -0.0671 0.1156
vt 0.0000 0.0000
vt 0.0440 -0.0000
vt 0.1043 0.0835
vt 0.0000 0.0000
vt 0.0440 -0.0000
vt -0.0603 0.0835
vt 0.0000 0.0000
vt 0.0404 0.0000
vt 0.0599 0.0838
vt 0.0000 0.0000
vt 0.0404 0.0000
vt -0.0195 0.0839
vt 0.0000 0.0000
vt 0.0387 0.0000
vt 0.0090 0.0856
vt 0.0000 0.0000
vt 0.0387 -0.0000
vt 0.0297 0.0856
vt 0.0000 0.0000
vt 0.0356 0.0000
vt -0.0147 0.0894
vt 0.0000 0.0000
vt 0.0356 0.0000
vt 0.0504 0.0894
vt 0.0000 0.0000
vt 0.0255 -0.0000
vt 0.0258 0.0993
vt 0.0000 0.0000
vt 0.0255 0.0000
vt -0.0004 0.0993
vt 0.0000 0.0000
vt 0.0256 0.0000
vt 0.0159 0.0980
vt 0.0000 0.0000
vt 0.0256 0.0000
vt 0.0097 0.0980
vt 0.0000 0.0000
vt 0.0231 -0.0000
vt 0.0279 0.0945
vt 0.0000 0.0000
vt 0.0231 0.0000
vt -0.0048 0.0945
vt 0.0000 0.0000
vt 0.0373 0.0000
vt -0.0717 0.0617
vt 0.0000 0.0000
vt 0.0373 0.0000
vt 0.1090 0.0617
vt 0.0000 0.0000
vt 0.0209 0.0000
vt 0.0675 0.1055
vt 0.0000 0.0000
vt 0.0209 0.0000
vt -0.0467 0.1055
vt 0.0000 0.0000
vt 0.0671 -0.0000
vt -0.1094 0.0365
vt 0.0000 0.0000
vt 0.0671 -0.0000
vt 0.1765 0.0365
vt 0.0000 0.0000
vt 0.0229 0.0000
vt -0.1129 0.1404
vt 0.0000 0.0000
vt 0.0229 -0.0000
vt 0.1358 0.1405
vt 0.0000 0.0000
vt 0.0401 -0.0000
vt 0.1433 0.1327
vt 0.0000 0.0000
vt 0.0401 -0.0000
vt -0.1032 0.1327
vt 0.0000 0.0000
vt 0.0367 0.0000
vt 0.0876 0.1435
vt 0.0000 0.0000
vt 0.0367 -0.0000
vt -0.0509 0.1435
usemtl concrete
f 1/1 2/2 3/3
f 1/1 3/3 4/4
f 5/5 6/6 7/7
f 5/5 7/7 8/8
f 9/9 10/10 11/11
f 9/9 11/11 12/12
f 13/13 14/14 15/15
f 13/13 15/15 16/16
f 17/17 18/18 19/19
f 17/17 19/19 20/20
f 21/21 22/22 23/23
f 21/21 23/23 24/24
f 25/25 26/26 27/27
f 25/25 27/27 28/28
f 29/29 30/30 31/31
f 29/29 31/31 32/32
f 33/33 34/34 35/35
f 33/33 35/35 36/36
f 37/37 38/38 39/39
f 37/37 39/39 40/40
f 41/41 42/42 43/43
f 41/41 43/43 44/44
f 45/45 46/46 47/47
f 45/45 47/47 48/48
f 49/49 50/50 51/51
f 49/49 51/51 52/52
f 53/53 54/54 55/55
f 53/53 55/55 56/56
f 57/57 58/58 59/59
f 57/57 59/59 60/60
f 61/61 62/62 63/63
f 61/61 63/63 64/64
f 65/65 66/66 67/67
f 65/65 67/67 68/68
f 69/69 70/70 71/71
f 69/69 71/71 72/72
f 73/73 74/74 75/75
f 73/73 75/75 76/76
f 77/77 78/78 79/79
f 77/77 79/79 80/80
f 81/81 82/82 83/83
f 81/81 83/83 84/84
f 85/85 86/86 87/87
f 85/85 87/87 88/88
f 89/89 90/90 91/91
f 89/89 91/91 92/92
f 93/93 94/94 95/95
f 93/93 95/95 96/96
f 97/97 98/98 99/99
f 97/97 99/99 100/100
f 101/101 102/102 103/103
f 101/101 103/103 104/104
f 105/105 106/106 107/107
f 105/105 107/107 108/108
f 109/109 110/110 111/111
f 109/109 111/111 112/112
f 113/113 114/114 115/115
f 113/113 115/115 116/116
f 117/117 118/118 119/119
f 117/117 119/119 120/120
f 121/121 122/122 123/123
f 121/121 123/123 124/124
f 125/125 126/126 127/127
f 125/125 127/127 128/128
f 129/129 130/130 131/131
f 129/129 131/131 132/132
f 133/133 134/134 135/135
f 133/133 135/135 136/136
f 137/137 138/138 139/139
f 137/137 139/139 140/140
f 141/141 142/142 143/143
f 141/141 143/143 144/144
f 145/145 146/146 147/147
f 145/145 147/147 148/148
f 149/149 150/150 151/151
f 149/149 151/151 152/152
f 153/153 154/154 155/155
f 153/153 155/155 156/156
f 157/157 158/158 159/159
f 157/157 159/159 160/160
f 161/161 162/162 163/163
f 161/161 163/163 164/164
f 165/165 166/166 167/167
f 165/165 167/167 168/168
f 169/169 170/170 171/171
f 169/169 171/171 172/172
f 173/173 174/174 175/175
f 173/173 175/175 176/176
f 177/177 178/178 179/179
f 177/177 179/179 180/180
f 181/181 182/182 183/183
f 181/181 183/183 184/184
f 185/185 186/186 187/187
f 185/185 187/187 188/188
f 189/189 190/190 191/191
f 189/189 191/191 192/192
f 193/193 194/194 195/195
f 193/193 195/195 196/196
f 197/197 198/198 199/199
f 197/197 199/199 200/200
f 201/201 202/202 203/203
f 201/201 203/203 204/204
f 205/205 206/206 207/207
f 205/205 207/207 208/208
f 209/209 210/210 211/211
f 209/209 211/211 212/212
f 213/213 214/214 215/215
f 213/213 215/215 216/216
f 217/217 218/218 219/219
f 217/217 219/219 220/220
f 221/221 222/222 223/223
f 221/221 223/223 224/224
f 225/225 226/226 227/227
f 225/225 227/227 228/228
f 229/229 230/230 231/231
f 229/229 231/231 232/232
f 233/233 234/234 235/235
f 233/233 235/235 236/236
f 237/237 238/238 239/239
f 237/237 239/239 240/240
f 241/241 242/242 243/243
f 241/241 243/243 244/244
f 245/245 246/246 247/247
f 245/245 247/247 248/248
f 249/249 250/250 251/251
f 249/249 251/251 252/252
f 253/253 254/254 255/255
f 253/253 255/255 256/256
f 257/257 258/258 259/259
f 257/257 259/259 260/260
f 261/261 262/262 263/263
f 261/261 263/263 264/264
f 265/265 266/266 267/267
f 265/265 267/267 268/268
f 269/269 270/270 271/271
f 269/269 271/271 272/272
f 273/273 274/274 275/275
f 273/273 275/275 276/276
f 277/277 278/278 279/279
f 277/277 279/279 280/280
f 281/281 282/282 283/283
f 281/281 283/283 284/284
f 285/285 286/286 287/287
f 285/285 287/287 288/288
f 289/289 290/290 291/291
f 289/289 291/291 292/292
f 293/293 294/294 295/295
f 293/293 295/295 296/296
f 297/297 298/298 299/299
f 297/297 299/299 300/300
f 301/301 302/302 303/303
f 301/301 303/303 304/304
f 305/305 306/306 307/307
f 305/305 307/307 308/308
f 309/309 310/310 311/311
f 309/309 311/311 312/312
f 313/313 314/314 315/315
f 313/313 315/315 316/316
f 317/317 318/318 319/319
f 317/317 319/319 320/320
f 321/321 322/322 323/323
f 321/321 323/323 324/324
f 325/325 326/326 327/327
f 325/325 327/327 328/328
f 329/329 330/330 331/331
f 329/329 331/331 332/332
f 333/333 334/334 335/335
f 333/333 335/335 336/336
f 337/337 338/338 339/339
f 337/337 339/339 340/340
f 341/341 342/342 343/343
f 341/341 343/343 344/344
f 345/345 346/346 347/347
f 345/345 347/347 348/348
f 349/349 350/350 351/351
f 349/349 351/351 352/352
f 353/353 354/354 355/355
f 353/353 355/355 356/356
f 357/357 358/358 359/359
f 357/357 359/359 360/360
f 361/361 362/362 363/363
f 361/361 363/363 364/364
f 365/365 366/366 367/367
f 365/365 367/367 368/368
f 369/369 370/370 371/371
f 369/369 371/371 372/372
f 373/373 374/374 375/375
f 373/373 375/375 376/376
f 377/377 378/378 379/379
f 377/377 379/379 380/380
f 381/381 382/382 383/383
f 381/381 383/383 384/384
f 385/385 386/386 387/387
f 385/385 387/387 388/388
f 389/389 390/390 391/391
f 389/389 391/391 392/392
f 393/393 394/394 395/395
f 393/393 395/395 396/396
f 397/397 398/398 399/399
f 397/397 399/399 400/400
f 401/401 402/402 403/403
f 401/401 403/403 404/404
f 405/405 406/406 407/407
f 405/405 407/407 408/408
f 409/409 410/410 411/411
f 409/409 411/411 412/412
f 413/413 414/414 415/415
f 413/413 415/415 416/416
f 417/417 418/418 419/419
f 417/417 419/419 420/420
f 421/421 422/422 423/423
f 421/421 423/423 424/424
f 425/425 426/426 427/427
f 425/425 427/427 428/428
f 429/429 430/430 431/431
f 429/429 431/431 432/432
f 433/433 434/434 435/435
f 433/433 435/435 436/436
f 437/437 438/438 439/439
f 437/437 439/439 440/440
f 441/441 442/442 443/443
f 441/441 443/443 444/444
f 445/445 446/446 447/447
f 445/445 447/447 448/448
f 449/449 450/450 451/451
f 449/449 451/451 452/452
f 453/453 454/454 455/455
f 453/453 455/455 456/456
f 457/457 458/458 459/459
f 457/457 459/459 460/460
f 461/461 462/462 463/463
f 461/461 463/463 464/464
f 465/465 466/466 467/467
f 465/465 467/467 468/468
f 469/469 470/470 471/471
f 469/469 471/471 472/472
f 473/473 474/474 475/475
f 473/473 475/475 476/476
f 477/477 478/478 479/479
f 477/477 479/479 480/480
f 481/481 482/482 483/483
f 481/481 483/483 484/484
f 485/485 486/486 487/487
f 485/485 487/487 488/488
f 489/489 490/490 491/491
f 489/489 491/491 492/492
f 493/493 494/494 495/495
f 493/493 495/495 496/496
f 497/497 498/498 499/499
f 497/497 499/499 500/500
f 501/501 502/502 503/503
f 501/501 503/503 504/504
f 505/505 506/506 507/507
f 505/505 507/507 508/508
f 509/509 510/510 511/511
f 509/509 511/511 512/512
f 513/513 514/514 515/515
f 513/513 515/515 516/516
f 517/517 518/518 519/519
f 517/517 519/519 520/520
f 521/521 522/522 523/523
f 521/521 523/523 524/524
f 525/525 526/526 527/527
f 525/525 527/527 528/528
f 529/529 530/530 531/531
f 529/529 531/531 532/532
f 533/533 534/534 535/535
f 533/533 535/535 536/536
f 537/537 538/538 539/539
f 537/537 539/539 540/540
f 541/541 542/542 543/543
f 544/544 545/545 546/546
f 547/547 548/548 549/549
f 550/550 551/551 552/552
f 553/553 554/554 555/555
f 556/556 557/557 558/558
f 559/559 560/560 561/561
f 562/562 563/563 564/564
f 565/565 566/566 567/567
f 568/568 569/569 570/570
f 571/571 572/572 573/573
f 574/574 575/575 576/576
f 577/577 578/578 579/579
f 580/580 581/581 582/582
f 583/583 584/584 585/585
f 586/586 587/587 588/588
f 589/589 590/590 591/591
f 592/592 593/593 594/594
f 595/595 596/596 597/597
f 598/598 599/599 600/600
f 601/601 602/602 603/603
f 604/604 605/605 606/606
f 607/607 608/608 609/609
f 610/610 611/611 612/612
f 613/613 614/614 615/615
f 616/616 617/617 618/618
f 619/619 620/620 621/621
f 622/622 623/623 624/624
f 625/625 626/626 627/627
f 628/628 629/629 630/630
f 631/631 632/632 633/633
f 634/634 635/635 636/636
f 637/637 638/638 639/639
f 640/640 641/641 642/642
f 643/643 644/644 645/645
f 646/646 647/647 648/648
f 649/649 650/650 651/651
f 652/652 653/653 654/654
f 655/655 656/656 657/657
f 658/658 659/659 660/660
f 661/661 662/662 663/663
f 664/664 665/665 666/666
f 667/667 668/668 669/669
f 670/670 671/671 672/672
f 673/673 674/674 675/675
f 676/676 677/677 678/678
f 679/679 680/680 681/681
f 682/682 683/683 684/684
f 685/685 686/686 687/687
f 688/688 689/689 690/690
f 691/691 692/692 693/693
f 694/694 695/695 696/696
f 697/697 698/698 699/699
f 700/700 701/701 702/702
