# S_slab_2 (Sightline generated, CENTIMETRES, +Z up)
v -97.90 -10.25 -9.06
v -88.09 -27.02 -9.23
v -88.09 -27.02 11.67
v -97.90 -10.25 11.84
v -88.09 -27.02 -9.23
v -78.46 -43.42 -9.33
v -78.46 -43.42 11.56
v -88.09 -27.02 11.67
v -78.46 -43.42 -9.33
v -68.74 -59.19 -9.39
v -68.74 -59.19 11.50
v -78.46 -43.42 11.56
v -68.74 -59.19 -9.39
v -61.52 -77.26 -9.33
v -61.52 -77.26 11.57
v -68.74 -59.19 11.50
v -61.52 -77.26 -9.33
v -53.98 -96.11 -9.20
v -53.98 -96.11 11.70
v -61.52 -77.26 11.57
v -53.98 -96.11 -9.20
v -21.35 -87.31 -9.72
v -21.35 -87.31 11.17
v -53.98 -96.11 11.70
v -21.35 -87.31 -9.72
v 16.01 -53.65 -10.15
v 16.01 -53.65 10.72
v -21.35 -87.31 11.17
v 16.01 -53.65 -10.15
v 53.80 -37.30 -9.93
v 53.80 -37.30 10.95
v 16.01 -53.65 10.72
v 53.80 -37.30 -9.93
v 76.45 -14.10 -9.60
v 76.45 -14.10 11.28
v 53.80 -37.30 10.95
v 76.45 -14.10 -9.60
v 107.41 3.38 -8.83
v 107.41 3.38 12.08
v 76.45 -14.10 11.28
v 107.41 3.38 -8.83
v 87.70 23.66 -9.26
v 87.70 23.66 11.64
v 107.41 3.38 12.08
v 87.70 23.66 -9.26
v 98.70 59.90 -8.68
v 98.70 59.90 12.24
v 87.70 23.66 11.64
v 98.70 59.90 -8.68
v 75.33 84.34 -8.96
v 75.33 84.34 11.95
v 98.70 59.90 12.24
v 75.33 84.34 -8.96
v 49.85 99.42 -9.21
v 49.85 99.42 11.69
v 75.33 84.34 11.95
v 49.85 99.42 -9.21
v 17.26 84.89 -9.78
v 17.26 84.89 11.10
v 49.85 99.42 11.69
v 17.26 84.89 -9.78
v -15.70 69.56 -10.01
v -15.70 69.56 10.86
v 17.26 84.89 11.10
v -15.70 69.56 -10.01
v -49.53 55.24 -9.89
v -49.53 55.24 10.99
v -15.70 69.56 10.86
v -49.53 55.24 -9.89
v -82.03 39.17 -9.44
v -82.03 39.17 11.45
v -49.53 55.24 10.99
v -82.03 39.17 -9.44
v -123.20 25.46 -8.39
v -123.20 25.46 12.54
v -82.03 39.17 11.45
v -123.20 25.46 -8.39
v -103.89 6.64 -8.95
v -103.89 6.64 11.96
v -123.20 25.46 12.54
v -103.89 6.64 -8.95
v -97.90 -10.25 -9.06
v -97.90 -10.25 11.84
v -103.89 6.64 11.96
v -97.90 -10.25 11.84
v -88.09 -27.02 11.67
v -54.61 -16.75 10.95
v -60.70 -6.35 11.01
v -88.09 -27.02 -9.23
v -97.90 -10.25 -9.06
v -60.70 -6.35 -9.23
v -54.61 -16.75 -9.30
v -88.09 -27.02 11.67
v -78.46 -43.42 11.56
v -48.65 -26.92 10.91
v -54.61 -16.75 10.95
v -78.46 -43.42 -9.33
v -88.09 -27.02 -9.23
v -54.61 -16.75 -9.30
v -48.65 -26.92 -9.34
v -78.46 -43.42 11.56
v -68.74 -59.19 11.50
v -42.62 -36.70 10.88
v -48.65 -26.92 10.91
v -68.74 -59.19 -9.39
v -78.46 -43.42 -9.33
v -48.65 -26.92 -9.34
v -42.62 -36.70 -9.36
v -68.74 -59.19 11.50
v -61.52 -77.26 11.57
v -38.14 -47.90 10.91
v -42.62 -36.70 10.88
v -61.52 -77.26 -9.33
v -68.74 -59.19 -9.39
v -42.62 -36.70 -9.36
v -38.14 -47.90 -9.33
v -61.52 -77.26 11.57
v -53.98 -96.11 11.70
v -33.46 -59.59 10.96
v -38.14 -47.90 10.91
v -53.98 -96.11 -9.20
v -61.52 -77.26 -9.33
v -38.14 -47.90 -9.33
v -33.46 -59.59 -9.28
v -53.98 -96.11 11.70
v -21.35 -87.31 11.17
v -13.24 -54.13 10.76
v -33.46 -59.59 10.96
v -21.35 -87.31 -9.72
v -53.98 -96.11 -9.20
v -33.46 -59.59 -9.28
v -13.24 -54.13 -9.48
v -21.35 -87.31 11.17
v 16.01 -53.65 10.72
v 9.93 -33.26 10.59
v -13.24 -54.13 10.76
v 16.01 -53.65 -10.15
v -21.35 -87.31 -9.72
v -13.24 -54.13 -9.48
v 9.93 -33.26 -9.65
v 16.01 -53.65 10.72
v 53.80 -37.30 10.95
v 33.36 -23.12 10.67
v 9.93 -33.26 10.59
v 53.80 -37.30 -9.93
v 16.01 -53.65 -10.15
v 9.93 -33.26 -9.65
v 33.36 -23.12 -9.56
v 53.80 -37.30 10.95
v 76.45 -14.10 11.28
v 47.40 -8.74 10.80
v 33.36 -23.12 10.67
v 76.45 -14.10 -9.60
v 53.80 -37.30 -9.93
v 33.36 -23.12 -9.56
v 47.40 -8.74 -9.44
v 76.45 -14.10 11.28
v 107.41 3.38 12.08
v 66.59 2.09 11.11
v 47.40 -8.74 10.80
v 107.41 3.38 -8.83
v 76.45 -14.10 -9.60
v 47.40 -8.74 -9.44
v 66.59 2.09 -9.14
v 107.41 3.38 12.08
v 87.70 23.66 11.64
v 54.37 14.67 10.94
v 66.59 2.09 11.11
v 87.70 23.66 -9.26
v 107.41 3.38 -8.83
v 66.59 2.09 -9.14
v 54.37 14.67 -9.31
v 87.70 23.66 11.64
v 98.70 59.90 12.24
v 61.19 37.14 11.17
v 54.37 14.67 10.94
v 98.70 59.90 -8.68
v 87.70 23.66 -9.26
v 54.37 14.67 -9.31
v 61.19 37.14 -9.08
v 98.70 59.90 12.24
v 75.33 84.34 11.95
v 46.70 52.29 11.06
v 61.19 37.14 11.17
v 75.33 84.34 -8.96
v 98.70 59.90 -8.68
v 61.19 37.14 -9.08
v 46.70 52.29 -9.19
v 75.33 84.34 11.95
v 49.85 99.42 11.69
v 30.91 61.64 10.96
v 46.70 52.29 11.06
v 49.85 99.42 -9.21
v 75.33 84.34 -8.96
v 46.70 52.29 -9.19
v 30.91 61.64 -9.29
v 49.85 99.42 11.69
v 17.26 84.89 11.10
v 10.70 52.63 10.73
v 30.91 61.64 10.96
v 17.26 84.89 -9.78
v 49.85 99.42 -9.21
v 30.91 61.64 -9.29
v 10.70 52.63 -9.51
v 17.26 84.89 11.10
v -15.70 69.56 10.86
v -9.73 43.13 10.64
v 10.70 52.63 10.73
v -15.70 69.56 -10.01
v 17.26 84.89 -9.78
v 10.70 52.63 -9.51
v -9.73 43.13 -9.60
v -15.70 69.56 10.86
v -49.53 55.24 10.99
v -30.71 34.25 10.69
v -9.73 43.13 10.64
v -49.53 55.24 -9.89
v -15.70 69.56 -10.01
v -9.73 43.13 -9.60
v -30.71 34.25 -9.55
v -49.53 55.24 10.99
v -82.03 39.17 11.45
v -50.86 24.28 10.87
v -30.71 34.25 10.69
v -82.03 39.17 -9.44
v -49.53 55.24 -9.89
v -30.71 34.25 -9.55
v -50.86 24.28 -9.38
v -82.03 39.17 11.45
v -123.20 25.46 12.54
v -76.38 15.78 11.28
v -50.86 24.28 10.87
v -123.20 25.46 -8.39
v -82.03 39.17 -9.44
v -50.86 24.28 -9.38
v -76.38 15.78 -8.97
v -123.20 25.46 12.54
v -103.89 6.64 11.96
v -64.41 4.11 11.06
v -76.38 15.78 11.28
v -103.89 6.64 -8.95
v -123.20 25.46 -8.39
v -76.38 15.78 -8.97
v -64.41 4.11 -9.19
v -103.89 6.64 11.96
v -97.90 -10.25 11.84
v -60.70 -6.35 11.01
v -64.41 4.11 11.06
v -97.90 -10.25 -9.06
v -103.89 6.64 -8.95
v -64.41 4.11 -9.19
v -60.70 -6.35 -9.23
v -60.70 -6.35 11.01
v -54.61 -16.75 10.95
v -26.43 -8.11 10.61
v -29.37 -3.07 10.62
v -54.61 -16.75 -9.30
v -60.70 -6.35 -9.23
v -29.37 -3.07 -9.07
v -26.43 -8.11 -9.08
v -54.61 -16.75 10.95
v -48.65 -26.92 10.91
v -23.54 -13.02 10.60
v -26.43 -8.11 10.61
v -48.65 -26.92 -9.34
v -54.61 -16.75 -9.30
v -26.43 -8.11 -9.08
v -23.54 -13.02 -9.09
v -48.65 -26.92 10.91
v -42.62 -36.70 10.88
v -20.62 -17.76 10.59
v -23.54 -13.02 10.60
v -42.62 -36.70 -9.36
v -48.65 -26.92 -9.34
v -23.54 -13.02 -9.09
v -20.62 -17.76 -9.10
v -42.62 -36.70 10.88
v -38.14 -47.90 10.91
v -18.46 -23.18 10.60
v -20.62 -17.76 10.59
v -38.14 -47.90 -9.33
v -42.62 -36.70 -9.36
v -20.62 -17.76 -9.10
v -18.46 -23.18 -9.09
v -38.14 -47.90 10.91
v -33.46 -59.59 10.96
v -16.19 -28.83 10.61
v -18.46 -23.18 10.60
v -33.46 -59.59 -9.28
v -38.14 -47.90 -9.33
v -18.46 -23.18 -9.09
v -16.19 -28.83 -9.08
v -33.46 -59.59 10.96
v -13.24 -54.13 10.76
v -6.41 -26.19 10.56
v -16.19 -28.83 10.61
v -13.24 -54.13 -9.48
v -33.46 -59.59 -9.28
v -16.19 -28.83 -9.08
v -6.41 -26.19 -9.13
v -13.24 -54.13 10.76
v 9.93 -33.26 10.59
v 4.80 -16.10 10.52
v -6.41 -26.19 10.56
v 9.93 -33.26 -9.65
v -13.24 -54.13 -9.48
v -6.41 -26.19 -9.13
v 4.80 -16.10 -9.17
v 9.93 -33.26 10.59
v 33.36 -23.12 10.67
v 16.14 -11.19 10.54
v 4.80 -16.10 10.52
v 33.36 -23.12 -9.56
v 9.93 -33.26 -9.65
v 4.80 -16.10 -9.17
v 16.14 -11.19 -9.15
v 33.36 -23.12 10.67
v 47.40 -8.74 10.80
v 22.93 -4.23 10.57
v 16.14 -11.19 10.54
v 47.40 -8.74 -9.44
v 33.36 -23.12 -9.56
v 16.14 -11.19 -9.15
v 22.93 -4.23 -9.12
v 47.40 -8.74 10.80
v 66.59 2.09 11.11
v 32.22 1.01 10.64
v 22.93 -4.23 10.57
v 66.59 2.09 -9.14
v 47.40 -8.74 -9.44
v 22.93 -4.23 -9.12
v 32.22 1.01 -9.05
v 66.59 2.09 11.11
v 54.37 14.67 10.94
v 26.31 7.10 10.60
v 32.22 1.01 10.64
v 54.37 14.67 -9.31
v 66.59 2.09 -9.14
v 32.22 1.01 -9.05
v 26.31 7.10 -9.09
v 54.37 14.67 10.94
v 61.19 37.14 11.17
v 29.61 17.97 10.66
v 26.31 7.10 10.60
v 61.19 37.14 -9.08
v 54.37 14.67 -9.31
v 26.31 7.10 -9.09
v 29.61 17.97 -9.03
v 61.19 37.14 11.17
v 46.70 52.29 11.06
v 22.60 25.30 10.63
v 29.61 17.97 10.66
v 46.70 52.29 -9.19
v 61.19 37.14 -9.08
v 29.61 17.97 -9.03
v 22.60 25.30 -9.06
v 46.70 52.29 11.06
v 30.91 61.64 10.96
v 14.95 29.83 10.61
v 22.60 25.30 10.63
v 30.91 61.64 -9.29
v 46.70 52.29 -9.19
v 22.60 25.30 -9.06
v 14.95 29.83 -9.08
v 30.91 61.64 10.96
v 10.70 52.63 10.73
v 5.18 25.47 10.55
v 14.95 29.83 10.61
v 10.70 52.63 -9.51
v 30.91 61.64 -9.29
v 14.95 29.83 -9.08
v 5.18 25.47 -9.13
v 10.70 52.63 10.73
v -9.73 43.13 10.64
v -4.71 20.87 10.53
v 5.18 25.47 10.55
v -9.73 43.13 -9.60
v 10.70 52.63 -9.51
v 5.18 25.47 -9.13
v -4.71 20.87 -9.15
v -9.73 43.13 10.64
v -30.71 34.25 10.69
v -14.86 16.57 10.54
v -4.71 20.87 10.53
v -30.71 34.25 -9.55
v -9.73 43.13 -9.60
v -4.71 20.87 -9.15
v -14.86 16.57 -9.14
v -30.71 34.25 10.69
v -50.86 24.28 10.87
v -24.61 11.75 10.59
v -14.86 16.57 10.54
v -50.86 24.28 -9.38
v -30.71 34.25 -9.55
v -14.86 16.57 -9.14
v -24.61 11.75 -9.10
v -50.86 24.28 10.87
v -76.38 15.78 11.28
v -36.96 7.64 10.68
v -24.61 11.75 10.59
v -76.38 15.78 -8.97
v -50.86 24.28 -9.38
v -24.61 11.75 -9.10
v -36.96 7.64 -9.01
v -76.38 15.78 11.28
v -64.41 4.11 11.06
v -31.17 1.99 10.63
v -36.96 7.64 10.68
v -64.41 4.11 -9.19
v -76.38 15.78 -8.97
v -36.96 7.64 -9.01
v -31.17 1.99 -9.06
v -64.41 4.11 11.06
v -60.70 -6.35 11.01
v -29.37 -3.07 10.62
v -31.17 1.99 10.63
v -60.70 -6.35 -9.23
v -64.41 4.11 -9.19
v -31.17 1.99 -9.06
v -29.37 -3.07 -9.07
v -29.37 -3.07 10.62
v -26.43 -8.11 10.61
v 0.00 0.00 10.50
v -26.43 -8.11 -9.08
v -29.37 -3.07 -9.07
v 0.00 0.00 -10.50
v -26.43 -8.11 10.61
v -23.54 -13.02 10.60
v 0.00 0.00 10.50
v -23.54 -13.02 -9.09
v -26.43 -8.11 -9.08
v 0.00 0.00 -10.50
v -23.54 -13.02 10.60
v -20.62 -17.76 10.59
v 0.00 0.00 10.50
v -20.62 -17.76 -9.10
v -23.54 -13.02 -9.09
v 0.00 0.00 -10.50
v -20.62 -17.76 10.59
v -18.46 -23.18 10.60
v 0.00 0.00 10.50
v -18.46 -23.18 -9.09
v -20.62 -17.76 -9.10
v 0.00 0.00 -10.50
v -18.46 -23.18 10.60
v -16.19 -28.83 10.61
v 0.00 0.00 10.50
v -16.19 -28.83 -9.08
v -18.46 -23.18 -9.09
v 0.00 0.00 -10.50
v -16.19 -28.83 10.61
v -6.41 -26.19 10.56
v 0.00 0.00 10.50
v -6.41 -26.19 -9.13
v -16.19 -28.83 -9.08
v 0.00 0.00 -10.50
v -6.41 -26.19 10.56
v 4.80 -16.10 10.52
v 0.00 0.00 10.50
v 4.80 -16.10 -9.17
v -6.41 -26.19 -9.13
v 0.00 0.00 -10.50
v 4.80 -16.10 10.52
v 16.14 -11.19 10.54
v 0.00 0.00 10.50
v 16.14 -11.19 -9.15
v 4.80 -16.10 -9.17
v 0.00 0.00 -10.50
v 16.14 -11.19 10.54
v 22.93 -4.23 10.57
v 0.00 0.00 10.50
v 22.93 -4.23 -9.12
v 16.14 -11.19 -9.15
v 0.00 0.00 -10.50
v 22.93 -4.23 10.57
v 32.22 1.01 10.64
v 0.00 0.00 10.50
v 32.22 1.01 -9.05
v 22.93 -4.23 -9.12
v 0.00 0.00 -10.50
v 32.22 1.01 10.64
v 26.31 7.10 10.60
v 0.00 0.00 10.50
v 26.31 7.10 -9.09
v 32.22 1.01 -9.05
v 0.00 0.00 -10.50
v 26.31 7.10 10.60
v 29.61 17.97 10.66
v 0.00 0.00 10.50
v 29.61 17.97 -9.03
v 26.31 7.10 -9.09
v 0.00 0.00 -10.50
v 29.61 17.97 10.66
v 22.60 25.30 10.63
v 0.00 0.00 10.50
v 22.60 25.30 -9.06
v 29.61 17.97 -9.03
v 0.00 0.00 -10.50
v 22.60 25.30 10.63
v 14.95 29.83 10.61
v 0.00 0.00 10.50
v 14.95 29.83 -9.08
v 22.60 25.30 -9.06
v 0.00 0.00 -10.50
v 14.95 29.83 10.61
v 5.18 25.47 10.55
v 0.00 0.00 10.50
v 5.18 25.47 -9.13
v 14.95 29.83 -9.08
v 0.00 0.00 -10.50
v 5.18 25.47 10.55
v -4.71 20.87 10.53
v 0.00 0.00 10.50
v -4.71 20.87 -9.15
v 5.18 25.47 -9.13
v 0.00 0.00 -10.50
v -4.71 20.87 10.53
v -14.86 16.57 10.54
v 0.00 0.00 10.50
v -14.86 16.57 -9.14
v -4.71 20.87 -9.15
v 0.00 0.00 -10.50
v -14.86 16.57 10.54
v -24.61 11.75 10.59
v 0.00 0.00 10.50
v -24.61 11.75 -9.10
v -14.86 16.57 -9.14
v 0.00 0.00 -10.50
v -24.61 11.75 10.59
v -36.96 7.64 10.68
v 0.00 0.00 10.50
v -36.96 7.64 -9.01
v -24.61 11.75 -9.10
v 0.00 0.00 -10.50
v -36.96 7.64 10.68
v -31.17 1.99 10.63
v 0.00 0.00 10.50
v -31.17 1.99 -9.06
v -36.96 7.64 -9.01
v 0.00 0.00 -10.50
v -31.17 1.99 10.63
v -29.37 -3.07 10.62
v 0.00 0.00 10.50
v -29.37 -3.07 -9.07
v -31.17 1.99 -9.06
v 0.00 0.00 -10.50
v -77.95 -44.66 2.07
v -79.11 -42.23 2.07
v -101.21 -55.77 0.69
v -100.90 -55.62 -1.98
v -79.11 -42.23 2.07
v -78.98 -42.17 -0.62
v -102.41 -53.36 0.68
v -101.21 -55.77 0.69
v -78.98 -42.17 -0.62
v -77.82 -44.60 -0.62
v -102.09 -53.21 -1.98
v -102.41 -53.36 0.68
v -77.82 -44.60 -0.62
v -77.95 -44.66 2.07
v -100.90 -55.62 -1.98
v -102.09 -53.21 -1.98
v -100.90 -55.62 -1.98
v -101.21 -55.77 0.69
v -123.03 -66.99 -7.27
v -124.22 -64.58 -7.28
v -101.21 -55.77 0.69
v -102.41 -53.36 0.68
v -123.86 -67.39 -4.76
v -123.03 -66.99 -7.27
v -102.41 -53.36 0.68
v -102.09 -53.21 -1.98
v -125.05 -64.99 -4.76
v -123.86 -67.39 -4.76
v -102.09 -53.21 -1.98
v -100.90 -55.62 -1.98
v -124.22 -64.58 -7.28
v -125.05 -64.99 -4.76
v -124.22 -64.58 -7.28
v -123.03 -66.99 -7.27
v -144.59 -74.23 -19.55
v -145.61 -74.74 -17.12
v -123.03 -66.99 -7.27
v -123.86 -67.39 -4.76
v -143.32 -76.60 -19.51
v -144.59 -74.23 -19.55
v -123.86 -67.39 -4.76
v -125.05 -64.99 -4.76
v -144.35 -77.10 -17.08
v -143.32 -76.60 -19.51
v -125.05 -64.99 -4.76
v -124.22 -64.58 -7.28
v -145.61 -74.74 -17.12
v -144.35 -77.10 -17.08
v -145.61 -74.74 -17.12
v -144.59 -74.23 -19.55
v -165.97 -87.26 -26.62
v -164.60 -89.57 -26.51
v -144.59 -74.23 -19.55
v -143.32 -76.60 -19.51
v -165.07 -86.84 -29.11
v -165.97 -87.26 -26.62
v -143.32 -76.60 -19.51
v -144.35 -77.10 -17.08
v -163.70 -89.15 -29.01
v -165.07 -86.84 -29.11
v -144.35 -77.10 -17.08
v -145.61 -74.74 -17.12
v -164.60 -89.57 -26.51
v -163.70 -89.15 -29.01
v -77.82 -44.60 -0.62
v -78.98 -42.17 -0.62
v -79.11 -42.23 2.07
v -77.95 -44.66 2.07
v -164.60 -89.57 -26.51
v -165.97 -87.26 -26.62
v -165.07 -86.84 -29.11
v -163.70 -89.15 -29.01
v 17.28 -54.49 7.66
v 14.52 -53.37 7.66
v 9.29 -73.76 3.42
v 9.50 -73.25 0.48
v 14.52 -53.37 7.66
v 14.74 -52.81 4.73
v 7.37 -71.49 3.68
v 9.29 -73.76 3.42
v 14.74 -52.81 4.73
v 17.51 -53.93 4.73
v 7.58 -70.97 0.75
v 7.37 -71.49 3.68
v 17.51 -53.93 4.73
v 17.28 -54.49 7.66
v 9.50 -73.25 0.48
v 7.58 -70.97 0.75
v 9.50 -73.25 0.48
v 9.29 -73.76 3.42
v -12.00 -77.48 -1.48
v -11.62 -74.56 -0.94
v 9.29 -73.76 3.42
v 7.37 -71.49 3.68
v -11.79 -78.04 1.45
v -12.00 -77.48 -1.48
v 7.37 -71.49 3.68
v 7.58 -70.97 0.75
v -11.41 -75.13 1.98
v -11.79 -78.04 1.45
v 7.58 -70.97 0.75
v 9.50 -73.25 0.48
v -11.62 -74.56 -0.94
v -11.41 -75.13 1.98
v -11.62 -74.56 -0.94
v -12.00 -77.48 -1.48
v -29.00 -66.45 4.52
v -29.18 -66.97 7.46
v -12.00 -77.48 -1.48
v -11.79 -78.04 1.45
v -30.34 -69.06 3.98
v -29.00 -66.45 4.52
v -11.79 -78.04 1.45
v -11.41 -75.13 1.98
v -30.52 -69.58 6.92
v -30.34 -69.06 3.98
v -11.41 -75.13 1.98
v -11.62 -74.56 -0.94
v -29.18 -66.97 7.46
v -30.52 -69.58 6.92
v -29.18 -66.97 7.46
v -29.00 -66.45 4.52
v -47.14 -57.09 2.93
v -48.44 -59.72 2.39
v -29.00 -66.45 4.52
v -30.34 -69.06 3.98
v -46.31 -56.91 0.07
v -47.14 -57.09 2.93
v -30.34 -69.06 3.98
v -30.52 -69.58 6.92
v -47.61 -59.54 -0.48
v -46.31 -56.91 0.07
v -30.52 -69.58 6.92
v -29.18 -66.97 7.46
v -48.44 -59.72 2.39
v -47.61 -59.54 -0.48
v 17.51 -53.93 4.73
v 14.74 -52.81 4.73
v 14.52 -53.37 7.66
v 17.28 -54.49 7.66
v -48.44 -59.72 2.39
v -47.14 -57.09 2.93
v -46.31 -56.91 0.07
v -47.61 -59.54 -0.48
v -77.08 -44.17 2.88
v -78.61 -41.85 2.88
v -96.56 -57.00 17.42
v -97.95 -57.91 15.18
v -78.61 -41.85 2.88
v -79.84 -42.66 0.52
v -97.93 -54.58 17.28
v -96.56 -57.00 17.42
v -79.84 -42.66 0.52
v -78.31 -44.98 0.52
v -99.32 -55.49 15.04
v -97.93 -54.58 17.28
v -78.31 -44.98 0.52
v -77.08 -44.17 2.88
v -97.95 -57.91 15.18
v -99.32 -55.49 15.04
v -97.95 -57.91 15.18
v -96.56 -57.00 17.42
v -117.64 -65.37 33.42
v -118.95 -62.92 33.22
v -96.56 -57.00 17.42
v -97.93 -54.58 17.28
v -115.81 -64.26 35.19
v -117.64 -65.37 33.42
v -97.93 -54.58 17.28
v -99.32 -55.49 15.04
v -117.11 -61.80 35.00
v -115.81 -64.26 35.19
v -99.32 -55.49 15.04
v -97.95 -57.91 15.18
v -118.95 -62.92 33.22
v -117.11 -61.80 35.00
v -118.95 -62.92 33.22
v -117.64 -65.37 33.42
v -131.63 -69.25 57.31
v -129.25 -67.94 57.93
v -117.64 -65.37 33.42
v -115.81 -64.26 35.19
v -130.42 -71.70 57.85
v -131.63 -69.25 57.31
v -115.81 -64.26 35.19
v -117.11 -61.80 35.00
v -128.05 -70.39 58.47
v -130.42 -71.70 57.85
v -117.11 -61.80 35.00
v -118.95 -62.92 33.22
v -129.25 -67.94 57.93
v -128.05 -70.39 58.47
v -129.25 -67.94 57.93
v -131.63 -69.25 57.31
v -131.48 -58.24 82.83
v -130.44 -60.62 83.85
v -131.63 -69.25 57.31
v -130.42 -71.70 57.85
v -134.05 -59.30 83.00
v -131.48 -58.24 82.83
v -130.42 -71.70 57.85
v -128.05 -70.39 58.47
v -133.01 -61.68 84.01
v -134.05 -59.30 83.00
v -128.05 -70.39 58.47
v -129.25 -67.94 57.93
v -130.44 -60.62 83.85
v -133.01 -61.68 84.01
v -78.31 -44.98 0.52
v -79.84 -42.66 0.52
v -78.61 -41.85 2.88
v -77.08 -44.17 2.88
v -130.44 -60.62 83.85
v -131.48 -58.24 82.83
v -134.05 -59.30 83.00
v -133.01 -61.68 84.01
v 74.21 85.22 1.64
v 75.85 83.02 1.64
v 84.50 92.85 5.20
v 84.98 93.21 2.53
v 75.85 83.02 1.64
v 76.44 83.46 -1.00
v 85.92 90.51 5.15
v 84.50 92.85 5.20
v 76.44 83.46 -1.00
v 74.80 85.66 -1.00
v 86.40 90.86 2.47
v 85.92 90.51 5.15
v 74.80 85.66 -1.00
v 74.21 85.22 1.64
v 84.98 93.21 2.53
v 86.40 90.86 2.47
v 84.98 93.21 2.53
v 84.50 92.85 5.20
v 96.44 98.64 4.63
v 97.72 96.22 4.53
v 84.50 92.85 5.20
v 85.92 90.51 5.15
v 96.50 98.57 7.37
v 96.44 98.64 4.63
v 85.92 90.51 5.15
v 86.40 90.86 2.47
v 97.79 96.15 7.28
v 96.50 98.57 7.37
v 86.40 90.86 2.47
v 84.98 93.21 2.53
v 97.72 96.22 4.53
v 97.79 96.15 7.28
v 97.72 96.22 4.53
v 96.44 98.64 4.63
v 108.65 102.68 2.19
v 109.15 102.85 4.88
v 96.44 98.64 4.63
v 96.50 98.57 7.37
v 107.24 105.03 2.31
v 108.65 102.68 2.19
v 96.50 98.57 7.37
v 97.79 96.15 7.28
v 107.74 105.20 5.00
v 107.24 105.03 2.31
v 97.79 96.15 7.28
v 97.72 96.22 4.53
v 109.15 102.85 4.88
v 107.74 105.20 5.00
v 109.15 102.85 4.88
v 108.65 102.68 2.19
v 120.01 109.73 2.26
v 118.57 112.06 2.38
v 108.65 102.68 2.19
v 107.24 105.03 2.31
v 119.48 109.55 -0.43
v 120.01 109.73 2.26
v 107.24 105.03 2.31
v 107.74 105.20 5.00
v 118.04 111.88 -0.30
v 119.48 109.55 -0.43
v 107.74 105.20 5.00
v 109.15 102.85 4.88
v 118.57 112.06 2.38
v 118.04 111.88 -0.30
v 74.80 85.66 -1.00
v 76.44 83.46 -1.00
v 75.85 83.02 1.64
v 74.21 85.22 1.64
v 118.57 112.06 2.38
v 120.01 109.73 2.26
v 119.48 109.55 -0.43
v 118.04 111.88 -0.30
vt 0.0000 0.0000
vt 0.0972 0.0000
vt 0.0963 0.1045
vt -0.0009 0.1045
vt 0.0000 0.0000
vt 0.0951 0.0000
vt 0.0945 0.1045
vt -0.0006 0.1045
vt 0.0000 0.0000
vt 0.0926 0.0000
vt 0.0923 0.1045
vt -0.0003 0.1045
vt 0.0000 0.0000
vt 0.0973 0.0000
vt 0.0976 0.1045
vt 0.0004 0.1045
vt 0.0000 0.0000
vt 0.1015 0.0000
vt 0.1022 0.1045
vt 0.0007 0.1045
vt 0.0000 0.0000
vt 0.1690 0.0000
vt 0.1674 0.1044
vt -0.0016 0.1045
vt 0.0000 0.0000
vt 0.2515 0.0000
vt 0.2506 0.1043
vt -0.0009 0.1044
vt 0.0000 0.0000
vt 0.2059 0.0000
vt 0.2064 0.1044
vt 0.0005 0.1044
vt 0.0000 0.0000
vt 0.1621 0.0000
vt 0.1632 0.1044
vt 0.0011 0.1044
vt 0.0000 0.0000
vt 0.1778 0.0000
vt 0.1801 0.1045
vt 0.0023 0.1044
vt 0.0000 0.0000
vt 0.1414 0.0000
vt 0.1399 0.1045
vt -0.0016 0.1045
vt 0.0000 0.0000
vt 0.1893 0.0000
vt 0.1909 0.1046
vt 0.0016 0.1045
vt 0.0000 0.0000
vt 0.1691 -0.0000
vt 0.1683 0.1045
vt -0.0009 0.1046
vt 0.0000 0.0000
vt 0.1480 0.0000
vt 0.1471 0.1045
vt -0.0009 0.1045
vt 0.0000 0.0000
vt 0.1784 0.0000
vt 0.1768 0.1044
vt -0.0016 0.1045
vt 0.0000 0.0000
vt 0.1818 -0.0000
vt 0.1811 0.1044
vt -0.0007 0.1044
vt 0.0000 0.0000
vt 0.1837 0.0000
vt 0.1840 0.1044
vt 0.0004 0.1044
vt 0.0000 0.0000
vt 0.1813 0.0000
vt 0.1826 0.1045
vt 0.0013 0.1044
vt 0.0000 0.0000
vt 0.2170 0.0000
vt 0.2196 0.1046
vt 0.0025 0.1044
vt 0.0000 0.0000
vt 0.1348 0.0000
vt 0.1326 0.1045
vt -0.0022 0.1046
vt 0.0000 0.0000
vt 0.0896 0.0000
vt 0.0889 0.1045
vt -0.0007 0.1045
vt 0.0000 0.0000
vt 0.0972 0.0000
vt 0.1374 0.1704
vt 0.0772 0.1704
vt 0.0000 0.0000
vt 0.0972 -0.0000
vt 0.0200 0.1704
vt -0.0402 0.1704
vt 0.0000 0.0000
vt 0.0951 -0.0000
vt 0.0994 0.1704
vt 0.0405 0.1704
vt 0.0000 0.0000
vt 0.0951 -0.0000
vt 0.0546 0.1703
vt -0.0043 0.1703
vt 0.0000 0.0000
vt 0.0926 0.0000
vt 0.0655 0.1702
vt 0.0080 0.1702
vt 0.0000 0.0000
vt 0.0926 0.0000
vt 0.0846 0.1702
vt 0.0272 0.1702
vt 0.0000 0.0000
vt 0.0973 -0.0000
vt 0.0043 0.1630
vt -0.0560 0.1630
vt 0.0000 0.0000
vt 0.0973 0.0000
vt 0.1533 0.1630
vt 0.0929 0.1630
vt 0.0000 0.0000
vt 0.1015 -0.0000
vt -0.0299 0.1631
vt -0.0929 0.1631
vt 0.0000 0.0000
vt 0.1015 -0.0000
vt 0.1944 0.1631
vt 0.1314 0.1631
vt 0.0000 0.0000
vt 0.1690 0.0000
vt 0.2513 0.1496
vt 0.1466 0.1496
vt 0.0000 0.0000
vt 0.1690 0.0000
vt 0.0224 0.1496
vt -0.0823 0.1496
vt 0.0000 0.0000
vt 0.2515 -0.0000
vt 0.2971 0.0961
vt 0.1412 0.0961
vt 0.0000 0.0000
vt 0.2515 -0.0000
vt 0.1103 0.0961
vt -0.0456 0.0961
vt 0.0000 0.0000
vt 0.2059 -0.0000
vt 0.1402 0.1056
vt 0.0126 0.1056
vt 0.0000 0.0000
vt 0.2059 0.0000
vt 0.1933 0.1057
vt 0.0657 0.1057
vt 0.0000 0.0000
vt 0.1621 0.0000
vt 0.0798 0.1227
vt -0.0207 0.1226
vt 0.0000 0.0000
vt 0.1621 -0.0000
vt 0.1828 0.1227
vt 0.0823 0.1227
vt 0.0000 0.0000
vt 0.1778 0.0000
vt -0.0031 0.0947
vt -0.1134 0.0947
vt 0.0000 0.0000
vt 0.1778 0.0000
vt 0.2911 0.0948
vt 0.1809 0.0948
vt 0.0000 0.0000
vt 0.1414 0.0000
vt 0.2254 0.1509
vt 0.1377 0.1509
vt 0.0000 0.0000
vt 0.1414 -0.0000
vt 0.0038 0.1508
vt -0.0839 0.1508
vt 0.0000 0.0000
vt 0.1893 0.0000
vt 0.0259 0.1464
vt -0.0915 0.1464
vt 0.0000 0.0000
vt 0.1893 0.0000
vt 0.2808 0.1464
vt 0.1634 0.1464
vt 0.0000 0.0000
vt 0.1691 -0.0000
vt 0.1522 0.2142
vt 0.0474 0.2142
vt 0.0000 0.0000
vt 0.1691 -0.0000
vt 0.1218 0.2142
vt 0.0169 0.2142
vt 0.0000 0.0000
vt 0.1480 0.0000
vt 0.1334 0.2108
vt 0.0416 0.2108
vt 0.0000 0.0000
vt 0.1480 0.0000
vt 0.1065 0.2108
vt 0.0147 0.2108
vt 0.0000 0.0000
vt 0.1784 -0.0000
vt 0.2741 0.1339
vt 0.1635 0.1339
vt 0.0000 0.0000
vt 0.1784 -0.0000
vt 0.0150 0.1339
vt -0.0956 0.1340
vt 0.0000 0.0000
vt 0.1818 -0.0000
vt 0.2104 0.1324
vt 0.0977 0.1324
vt 0.0000 0.0000
vt 0.1818 0.0000
vt 0.0840 0.1324
vt -0.0287 0.1324
vt 0.0000 0.0000
vt 0.1837 -0.0000
vt 0.1379 0.1333
vt 0.0240 0.1333
vt 0.0000 0.0000
vt 0.1837 0.0000
vt 0.1596 0.1334
vt 0.0458 0.1334
vt 0.0000 0.0000
vt 0.1813 -0.0000
vt 0.0745 0.1358
vt -0.0378 0.1358
vt 0.0000 0.0000
vt 0.1813 0.0000
vt 0.2191 0.1358
vt 0.1067 0.1358
vt 0.0000 0.0000
vt 0.2170 -0.0000
vt 0.0101 0.1199
vt -0.1244 0.1199
vt 0.0000 0.0000
vt 0.2170 -0.0000
vt 0.3413 0.1199
vt 0.2068 0.1199
vt 0.0000 0.0000
vt 0.1348 -0.0000
vt 0.2850 0.1288
vt 0.2014 0.1288
vt 0.0000 0.0000
vt 0.1348 0.0000
vt -0.0665 0.1288
vt -0.1501 0.1288
vt 0.0000 0.0000
vt 0.0896 0.0000
vt 0.1335 0.1819
vt 0.0779 0.1819
vt 0.0000 0.0000
vt 0.0896 -0.0000
vt 0.0117 0.1818
vt -0.0439 0.1818
vt 0.0000 0.0000
vt 0.0602 0.0000
vt 0.0941 0.1435
vt 0.0650 0.1435
vt 0.0000 0.0000
vt 0.0602 0.0000
vt -0.0047 0.1435
vt -0.0339 0.1435
vt 0.0000 0.0000
vt 0.0589 -0.0000
vt 0.0626 0.1434
vt 0.0341 0.1434
vt 0.0000 0.0000
vt 0.0589 -0.0000
vt 0.0249 0.1434
vt -0.0037 0.1434
vt 0.0000 0.0000
vt 0.0574 -0.0000
vt 0.0346 0.1433
vt 0.0068 0.1433
vt 0.0000 0.0000
vt 0.0574 -0.0000
vt 0.0507 0.1433
vt 0.0229 0.1433
vt 0.0000 0.0000
vt 0.0603 -0.0000
vt -0.0180 0.1373
vt -0.0471 0.1373
vt 0.0000 0.0000
vt 0.0603 0.0000
vt 0.1075 0.1373
vt 0.0783 0.1373
vt 0.0000 0.0000
vt 0.0629 -0.0000
vt -0.0477 0.1373
vt -0.0782 0.1373
vt 0.0000 0.0000
vt 0.0629 0.0000
vt 0.1411 0.1373
vt 0.1107 0.1373
vt 0.0000 0.0000
vt 0.1047 -0.0000
vt 0.1741 0.1260
vt 0.1234 0.1260
vt 0.0000 0.0000
vt 0.1047 0.0000
vt -0.0186 0.1260
vt -0.0693 0.1260
vt 0.0000 0.0000
vt 0.1559 -0.0000
vt 0.1943 0.0809
vt 0.1189 0.0809
vt 0.0000 0.0000
vt 0.1559 0.0000
vt 0.0370 0.0810
vt -0.0384 0.0810
vt 0.0000 0.0000
vt 0.1276 -0.0000
vt 0.0723 0.0890
vt 0.0106 0.0890
vt 0.0000 0.0000
vt 0.1276 -0.0000
vt 0.1170 0.0890
vt 0.0553 0.0890
vt 0.0000 0.0000
vt 0.1005 0.0000
vt 0.0312 0.1033
vt -0.0174 0.1033
vt 0.0000 0.0000
vt 0.1005 0.0000
vt 0.1179 0.1033
vt 0.0693 0.1033
vt 0.0000 0.0000
vt 0.1102 -0.0000
vt -0.0421 0.0798
vt -0.0954 0.0798
vt 0.0000 0.0000
vt 0.1102 0.0000
vt 0.2056 0.0798
vt 0.1523 0.0798
vt 0.0000 0.0000
vt 0.0877 -0.0000
vt 0.1583 0.1270
vt 0.1159 0.1270
vt 0.0000 0.0000
vt 0.0877 -0.0000
vt -0.0282 0.1270
vt -0.0706 0.1270
vt 0.0000 0.0000
vt 0.1174 -0.0000
vt -0.0202 0.1233
vt -0.0770 0.1233
vt 0.0000 0.0000
vt 0.1174 -0.0000
vt 0.1944 0.1233
vt 0.1376 0.1233
vt 0.0000 0.0000
vt 0.1048 -0.0000
vt 0.0906 0.1804
vt 0.0399 0.1804
vt 0.0000 0.0000
vt 0.1048 -0.0000
vt 0.0650 0.1804
vt 0.0143 0.1804
vt 0.0000 0.0000
vt 0.0918 -0.0000
vt 0.0794 0.1775
vt 0.0350 0.1775
vt 0.0000 0.0000
vt 0.0918 0.0000
vt 0.0568 0.1775
vt 0.0124 0.1775
vt 0.0000 0.0000
vt 0.1106 0.0000
vt 0.1912 0.1128
vt 0.1377 0.1128
vt 0.0000 0.0000
vt 0.1106 -0.0000
vt -0.0270 0.1128
vt -0.0805 0.1128
vt 0.0000 0.0000
vt 0.1127 -0.0000
vt 0.1368 0.1115
vt 0.0823 0.1115
vt 0.0000 0.0000
vt 0.1127 -0.0000
vt 0.0304 0.1115
vt -0.0241 0.1115
vt 0.0000 0.0000
vt 0.1139 0.0000
vt 0.0754 0.1123
vt 0.0202 0.1123
vt 0.0000 0.0000
vt 0.1139 -0.0000
vt 0.0936 0.1123
vt 0.0385 0.1123
vt 0.0000 0.0000
vt 0.1124 -0.0000
vt 0.0225 0.1144
vt -0.0319 0.1144
vt 0.0000 0.0000
vt 0.1124 -0.0000
vt 0.1442 0.1144
vt 0.0898 0.1144
vt 0.0000 0.0000
vt 0.1345 0.0000
vt -0.0396 0.1009
vt -0.1047 0.1009
vt 0.0000 0.0000
vt 0.1345 0.0000
vt 0.2392 0.1010
vt 0.1741 0.1010
vt 0.0000 0.0000
vt 0.0836 0.0000
vt 0.2100 0.1084
vt 0.1696 0.1084
vt 0.0000 0.0000
vt 0.0836 -0.0000
vt -0.0860 0.1085
vt -0.1264 0.1085
vt 0.0000 0.0000
vt 0.0555 0.0000
vt 0.0925 0.1531
vt 0.0656 0.1531
vt 0.0000 0.0000
vt 0.0555 -0.0000
vt -0.0100 0.1531
vt -0.0369 0.1531
vt 0.0000 0.0000
vt 0.0291 -0.0000
vt 0.0609 0.1345
vt 0.0000 0.0000
vt 0.0291 0.0000
vt -0.0318 0.1347
vt 0.0000 0.0000
vt 0.0285 0.0000
vt 0.0319 0.1345
vt 0.0000 0.0000
vt 0.0285 -0.0000
vt -0.0034 0.1346
vt 0.0000 0.0000
vt 0.0278 -0.0000
vt 0.0063 0.1344
vt 0.0000 0.0000
vt 0.0278 -0.0000
vt 0.0214 0.1345
vt 0.0000 0.0000
vt 0.0292 -0.0000
vt -0.0442 0.1287
vt 0.0000 0.0000
vt 0.0292 0.0000
vt 0.0734 0.1289
vt 0.0000 0.0000
vt 0.0305 -0.0000
vt -0.0733 0.1287
vt 0.0000 0.0000
vt 0.0305 -0.0000
vt 0.1038 0.1289
vt 0.0000 0.0000
vt 0.0507 0.0000
vt 0.1157 0.1181
vt 0.0000 0.0000
vt 0.0507 -0.0000
vt -0.0650 0.1183
vt 0.0000 0.0000
vt 0.0754 0.0000
vt 0.1115 0.0759
vt 0.0000 0.0000
vt 0.0754 0.0000
vt -0.0360 0.0761
vt 0.0000 0.0000
vt 0.0618 -0.0000
vt 0.0099 0.0834
vt 0.0000 0.0000
vt 0.0618 -0.0000
vt 0.0518 0.0837
vt 0.0000 0.0000
vt 0.0486 0.0000
vt -0.0163 0.0968
vt 0.0000 0.0000
vt 0.0486 0.0000
vt 0.0650 0.0971
vt 0.0000 0.0000
vt 0.0533 0.0000
vt -0.0895 0.0748
vt 0.0000 0.0000
vt 0.0533 -0.0000
vt 0.1428 0.0750
vt 0.0000 0.0000
vt 0.0424 -0.0000
vt 0.1086 0.1191
vt 0.0000 0.0000
vt 0.0424 0.0000
vt -0.0662 0.1193
vt 0.0000 0.0000
vt 0.0568 -0.0000
vt -0.0722 0.1156
vt 0.0000 0.0000
vt 0.0568 0.0000
vt 0.1290 0.1158
vt 0.0000 0.0000
vt 0.0507 0.0000
vt 0.0374 0.1691
vt 0.0000 0.0000
vt 0.0507 -0.0000
vt 0.0133 0.1693
vt 0.0000 0.0000
vt 0.0444 -0.0000
vt 0.0328 0.1664
vt 0.0000 0.0000
vt 0.0444 0.0000
vt 0.0116 0.1666
vt 0.0000 0.0000
vt 0.0535 -0.0000
vt 0.1290 0.1057
vt 0.0000 0.0000
vt 0.0535 -0.0000
vt -0.0756 0.1059
vt 0.0000 0.0000
vt 0.0545 0.0000
vt 0.0772 0.1045
vt 0.0000 0.0000
vt 0.0545 0.0000
vt -0.0226 0.1048
vt 0.0000 0.0000
vt 0.0551 0.0000
vt 0.0190 0.1053
vt 0.0000 0.0000
vt 0.0551 0.0000
vt 0.0361 0.1055
vt 0.0000 0.0000
vt 0.0544 -0.0000
vt -0.0299 0.1072
vt 0.0000 0.0000
vt 0.0544 0.0000
vt 0.0843 0.1074
vt 0.0000 0.0000
vt 0.0651 0.0000
vt -0.0982 0.0946
vt 0.0000 0.0000
vt 0.0651 -0.0000
vt 0.1633 0.0948
vt 0.0000 0.0000
vt 0.0404 0.0000
vt 0.1590 0.1017
vt 0.0000 0.0000
vt 0.0404 -0.0000
vt -0.1186 0.1019
vt 0.0000 0.0000
vt 0.0269 0.0000
vt 0.0615 0.1435
vt 0.0000 0.0000
vt 0.0269 0.0000
vt -0.0346 0.1437
vt 0.0000 0.0000
vt 0.0672 0.0000
vt 0.0000 0.6420
vt 0.0000 0.6437
vt 0.0000 0.0000
vt 0.0672 -0.0000
vt 0.0001 0.6430
vt 0.0001 0.6490
vt 0.0000 0.0000
vt 0.0672 0.0000
vt 0.0000 0.6378
vt 0.0000 0.6499
vt 0.0000 0.0000
vt 0.0672 0.0000
vt 0.0001 0.6368
vt 0.0001 0.6447
vt 0.0000 0.0000
vt 0.0672 0.0000
vt -0.0496 0.6305
vt -0.0496 0.6365
vt 0.0000 0.0000
vt 0.0672 0.0000
vt -0.0090 0.6473
vt -0.0091 0.6446
vt 0.0000 0.0000
vt 0.0672 0.0000
vt 0.0513 0.6453
vt 0.0513 0.6532
vt 0.0000 0.0000
vt 0.0672 -0.0000
vt 0.0091 0.6325
vt 0.0090 0.6489
vt 0.0000 0.0000
vt 0.0672 -0.0000
vt -0.0096 0.6381
vt -0.0096 0.6412
vt 0.0000 0.0000
vt 0.0672 -0.0000
vt -0.0921 0.6292
vt -0.0923 0.6396
vt 0.0000 0.0000
vt 0.0672 -0.0000
vt 0.0096 0.6415
vt 0.0096 0.6523
vt 0.0000 0.0000
vt 0.0672 0.0000
vt 0.0925 0.6372
vt 0.0923 0.6409
vt 0.0000 0.0000
vt 0.0672 0.0000
vt -0.0380 0.6385
vt -0.0380 0.6454
vt 0.0000 0.0000
vt 0.0672 -0.0000
vt 0.0325 0.6427
vt 0.0323 0.6497
vt 0.0000 0.0000
vt 0.0672 0.0000
vt 0.0381 0.6390
vt 0.0381 0.6460
vt 0.0000 0.0000
vt 0.0672 -0.0000
vt -0.0322 0.6354
vt -0.0324 0.6424
vt 0.0000 0.0000
vt 0.0672 0.0000
vt 0.0672 0.0672
vt 0.0000 0.0672
vt 0.0000 0.0000
vt 0.0672 0.0000
vt 0.0672 0.0672
vt 0.0000 0.0672
vt 0.0000 0.0000
vt 0.0747 -0.0000
vt 0.0045 0.5272
vt 0.0045 0.5385
vt 0.0000 0.0000
vt 0.0747 0.0000
vt 0.0003 0.4932
vt -0.0002 0.5369
vt 0.0000 0.0000
vt 0.0747 0.0000
vt 0.0045 0.4924
vt 0.0045 0.5025
vt 0.0000 0.0000
vt 0.0747 0.0000
vt 0.0003 0.5287
vt -0.0002 0.5029
vt 0.0000 0.0000
vt 0.0747 0.0000
vt 0.0076 0.5451
vt 0.0076 0.5302
vt 0.0000 0.0000
vt 0.0747 0.0000
vt 0.2522 0.4720
vt 0.2600 0.4893
vt 0.0000 0.0000
vt 0.0747 0.0000
vt -0.0068 0.4755
vt -0.0068 0.5094
vt 0.0000 0.0000
vt 0.0747 -0.0000
vt -0.2359 0.4234
vt -0.2281 0.4303
vt 0.0000 0.0000
vt 0.0747 0.0000
vt -0.1668 0.4650
vt -0.1668 0.4951
vt 0.0000 0.0000
vt 0.0747 0.0000
vt 0.0608 0.5136
vt 0.0640 0.5244
vt 0.0000 0.0000
vt 0.0747 -0.0000
vt 0.1709 0.4979
vt 0.1709 0.4901
vt 0.0000 0.0000
vt 0.0747 -0.0000
vt -0.0634 0.4985
vt -0.0601 0.5090
vt 0.0000 0.0000
vt 0.0747 0.0000
vt 0.1269 0.5036
vt 0.1269 0.5145
vt 0.0000 0.0000
vt 0.0747 0.0000
vt 0.0047 0.5009
vt 0.0049 0.5117
vt 0.0000 0.0000
vt 0.0747 0.0000
vt -0.1246 0.4845
vt -0.1246 0.4957
vt 0.0000 0.0000
vt 0.0747 -0.0000
vt -0.0049 0.5186
vt -0.0047 0.5290
vt 0.0000 0.0000
vt 0.0747 0.0000
vt 0.0747 0.0747
vt 0.0000 0.0747
vt 0.0000 0.0000
vt 0.0747 0.0000
vt 0.0747 0.0747
vt 0.0000 0.0747
vt 0.0000 0.0000
vt 0.0696 0.0000
vt 0.0001 0.6835
vt 0.0001 0.6962
vt 0.0000 0.0000
vt 0.0696 0.0000
vt 0.0004 0.6777
vt -0.0001 0.6904
vt 0.0000 0.0000
vt 0.0696 0.0000
vt 0.0001 0.6834
vt 0.0001 0.6846
vt 0.0000 0.0000
vt 0.0696 0.0000
vt 0.0004 0.6892
vt -0.0001 0.6904
vt 0.0000 0.0000
vt 0.0696 0.0000
vt 0.0583 0.6907
vt 0.0583 0.7009
vt 0.0000 0.0000
vt 0.0696 0.0000
vt 0.0570 0.6740
vt 0.0575 0.6918
vt 0.0000 0.0000
vt 0.0696 0.0000
vt -0.0563 0.6714
vt -0.0563 0.6751
vt 0.0000 0.0000
vt 0.0696 -0.0000
vt -0.0575 0.6882
vt -0.0569 0.6843
vt 0.0000 0.0000
vt 0.0696 0.0000
vt 0.0339 0.6945
vt 0.0339 0.6800
vt 0.0000 0.0000
vt 0.0696 0.0000
vt 0.1141 0.6945
vt 0.1101 0.6900
vt 0.0000 0.0000
vt 0.0696 0.0000
vt -0.0333 0.6713
vt -0.0333 0.6986
vt 0.0000 0.0000
vt 0.0696 0.0000
vt -0.1027 0.6553
vt -0.1067 0.6738
vt 0.0000 0.0000
vt 0.0696 0.0000
vt -0.2055 0.6344
vt -0.2055 0.6419
vt 0.0000 0.0000
vt 0.0696 -0.0000
vt -0.1193 0.6776
vt -0.1155 0.6853
vt 0.0000 0.0000
vt 0.0696 0.0000
vt 0.2088 0.6681
vt 0.2088 0.6753
vt 0.0000 0.0000
vt 0.0696 0.0000
vt 0.1166 0.6688
vt 0.1204 0.6753
vt 0.0000 0.0000
vt 0.0696 -0.0000
vt 0.0696 0.0696
vt -0.0000 0.0696
vt 0.0000 0.0000
vt 0.0696 -0.0000
vt 0.0696 0.0696
vt 0.0000 0.0696
vt 0.0000 0.0000
vt 0.0686 -0.0000
vt 0.0002 0.3253
vt 0.0002 0.3357
vt 0.0000 0.0000
vt 0.0686 0.0000
vt -0.0001 0.3190
vt 0.0002 0.3392
vt 0.0000 0.0000
vt 0.0686 -0.0000
vt 0.0002 0.3152
vt 0.0002 0.3328
vt 0.0000 0.0000
vt 0.0686 0.0000
vt -0.0001 0.3215
vt 0.0002 0.3292
vt 0.0000 0.0000
vt 0.0686 0.0000
vt -0.0164 0.3140
vt -0.0164 0.3309
vt 0.0000 0.0000
vt 0.0686 0.0000
vt 0.0320 0.3282
vt 0.0311 0.3306
vt 0.0000 0.0000
vt 0.0686 0.0000
vt 0.0182 0.3254
vt 0.0182 0.3368
vt 0.0000 0.0000
vt 0.0686 0.0000
vt -0.0310 0.3095
vt -0.0319 0.3347
vt 0.0000 0.0000
vt 0.0686 -0.0000
vt 0.0127 0.3154
vt 0.0127 0.3303
vt 0.0000 0.0000
vt 0.0686 0.0000
vt -0.0554 0.3070
vt -0.0561 0.3224
vt 0.0000 0.0000
vt 0.0686 -0.0000
vt -0.0126 0.3245
vt -0.0126 0.3375
vt 0.0000 0.0000
vt 0.0686 -0.0000
vt 0.0572 0.3234
vt 0.0566 0.3364
vt 0.0000 0.0000
vt 0.0686 -0.0000
vt 0.0036 0.3211
vt 0.0036 0.3351
vt 0.0000 0.0000
vt 0.0686 -0.0000
vt 0.0049 0.3203
vt 0.0049 0.3344
vt 0.0000 0.0000
vt 0.0686 0.0000
vt -0.0036 0.3193
vt -0.0036 0.3334
vt 0.0000 0.0000
vt 0.0686 -0.0000
vt -0.0049 0.3200
vt -0.0049 0.3341
vt 0.0000 0.0000
vt 0.0686 -0.0000
vt 0.0686 0.0686
vt -0.0000 0.0686
vt 0.0000 0.0000
vt 0.0686 -0.0000
vt 0.0686 0.0686
vt 0.0000 0.0686
usemtl concrete
f 1/1 2/2 3/3
f 1/1 3/3 4/4
f 5/5 6/6 7/7
f 5/5 7/7 8/8
f 9/9 10/10 11/11
f 9/9 11/11 12/12
f 13/13 14/14 15/15
f 13/13 15/15 16/16
f 17/17 18/18 19/19
f 17/17 19/19 20/20
f 21/21 22/22 23/23
f 21/21 23/23 24/24
f 25/25 26/26 27/27
f 25/25 27/27 28/28
f 29/29 30/30 31/31
f 29/29 31/31 32/32
f 33/33 34/34 35/35
f 33/33 35/35 36/36
f 37/37 38/38 39/39
f 37/37 39/39 40/40
f 41/41 42/42 43/43
f 41/41 43/43 44/44
f 45/45 46/46 47/47
f 45/45 47/47 48/48
f 49/49 50/50 51/51
f 49/49 51/51 52/52
f 53/53 54/54 55/55
f 53/53 55/55 56/56
f 57/57 58/58 59/59
f 57/57 59/59 60/60
f 61/61 62/62 63/63
f 61/61 63/63 64/64
f 65/65 66/66 67/67
f 65/65 67/67 68/68
f 69/69 70/70 71/71
f 69/69 71/71 72/72
f 73/73 74/74 75/75
f 73/73 75/75 76/76
f 77/77 78/78 79/79
f 77/77 79/79 80/80
f 81/81 82/82 83/83
f 81/81 83/83 84/84
f 85/85 86/86 87/87
f 85/85 87/87 88/88
f 89/89 90/90 91/91
f 89/89 91/91 92/92
f 93/93 94/94 95/95
f 93/93 95/95 96/96
f 97/97 98/98 99/99
f 97/97 99/99 100/100
f 101/101 102/102 103/103
f 101/101 103/103 104/104
f 105/105 106/106 107/107
f 105/105 107/107 108/108
f 109/109 110/110 111/111
f 109/109 111/111 112/112
f 113/113 114/114 115/115
f 113/113 115/115 116/116
f 117/117 118/118 119/119
f 117/117 119/119 120/120
f 121/121 122/122 123/123
f 121/121 123/123 124/124
f 125/125 126/126 127/127
f 125/125 127/127 128/128
f 129/129 130/130 131/131
f 129/129 131/131 132/132
f 133/133 134/134 135/135
f 133/133 135/135 136/136
f 137/137 138/138 139/139
f 137/137 139/139 140/140
f 141/141 142/142 143/143
f 141/141 143/143 144/144
f 145/145 146/146 147/147
f 145/145 147/147 148/148
f 149/149 150/150 151/151
f 149/149 151/151 152/152
f 153/153 154/154 155/155
f 153/153 155/155 156/156
f 157/157 158/158 159/159
f 157/157 159/159 160/160
f 161/161 162/162 163/163
f 161/161 163/163 164/164
f 165/165 166/166 167/167
f 165/165 167/167 168/168
f 169/169 170/170 171/171
f 169/169 171/171 172/172
f 173/173 174/174 175/175
f 173/173 175/175 176/176
f 177/177 178/178 179/179
f 177/177 179/179 180/180
f 181/181 182/182 183/183
f 181/181 183/183 184/184
f 185/185 186/186 187/187
f 185/185 187/187 188/188
f 189/189 190/190 191/191
f 189/189 191/191 192/192
f 193/193 194/194 195/195
f 193/193 195/195 196/196
f 197/197 198/198 199/199
f 197/197 199/199 200/200
f 201/201 202/202 203/203
f 201/201 203/203 204/204
f 205/205 206/206 207/207
f 205/205 207/207 208/208
f 209/209 210/210 211/211
f 209/209 211/211 212/212
f 213/213 214/214 215/215
f 213/213 215/215 216/216
f 217/217 218/218 219/219
f 217/217 219/219 220/220
f 221/221 222/222 223/223
f 221/221 223/223 224/224
f 225/225 226/226 227/227
f 225/225 227/227 228/228
f 229/229 230/230 231/231
f 229/229 231/231 232/232
f 233/233 234/234 235/235
f 233/233 235/235 236/236
f 237/237 238/238 239/239
f 237/237 239/239 240/240
f 241/241 242/242 243/243
f 241/241 243/243 244/244
f 245/245 246/246 247/247
f 245/245 247/247 248/248
f 249/249 250/250 251/251
f 249/249 251/251 252/252
f 253/253 254/254 255/255
f 253/253 255/255 256/256
f 257/257 258/258 259/259
f 257/257 259/259 260/260
f 261/261 262/262 263/263
f 261/261 263/263 264/264
f 265/265 266/266 267/267
f 265/265 267/267 268/268
f 269/269 270/270 271/271
f 269/269 271/271 272/272
f 273/273 274/274 275/275
f 273/273 275/275 276/276
f 277/277 278/278 279/279
f 277/277 279/279 280/280
f 281/281 282/282 283/283
f 281/281 283/283 284/284
f 285/285 286/286 287/287
f 285/285 287/287 288/288
f 289/289 290/290 291/291
f 289/289 291/291 292/292
f 293/293 294/294 295/295
f 293/293 295/295 296/296
f 297/297 298/298 299/299
f 297/297 299/299 300/300
f 301/301 302/302 303/303
f 301/301 303/303 304/304
f 305/305 306/306 307/307
f 305/305 307/307 308/308
f 309/309 310/310 311/311
f 309/309 311/311 312/312
f 313/313 314/314 315/315
f 313/313 315/315 316/316
f 317/317 318/318 319/319
f 317/317 319/319 320/320
f 321/321 322/322 323/323
f 321/321 323/323 324/324
f 325/325 326/326 327/327
f 325/325 327/327 328/328
f 329/329 330/330 331/331
f 329/329 331/331 332/332
f 333/333 334/334 335/335
f 333/333 335/335 336/336
f 337/337 338/338 339/339
f 337/337 339/339 340/340
f 341/341 342/342 343/343
f 341/341 343/343 344/344
f 345/345 346/346 347/347
f 345/345 347/347 348/348
f 349/349 350/350 351/351
f 349/349 351/351 352/352
f 353/353 354/354 355/355
f 353/353 355/355 356/356
f 357/357 358/358 359/359
f 357/357 359/359 360/360
f 361/361 362/362 363/363
f 361/361 363/363 364/364
f 365/365 366/366 367/367
f 365/365 367/367 368/368
f 369/369 370/370 371/371
f 369/369 371/371 372/372
f 373/373 374/374 375/375
f 373/373 375/375 376/376
f 377/377 378/378 379/379
f 377/377 379/379 380/380
f 381/381 382/382 383/383
f 381/381 383/383 384/384
f 385/385 386/386 387/387
f 385/385 387/387 388/388
f 389/389 390/390 391/391
f 389/389 391/391 392/392
f 393/393 394/394 395/395
f 393/393 395/395 396/396
f 397/397 398/398 399/399
f 397/397 399/399 400/400
f 401/401 402/402 403/403
f 401/401 403/403 404/404
f 405/405 406/406 407/407
f 405/405 407/407 408/408
f 409/409 410/410 411/411
f 409/409 411/411 412/412
f 413/413 414/414 415/415
f 413/413 415/415 416/416
f 417/417 418/418 419/419
f 417/417 419/419 420/420
f 421/421 422/422 423/423
f 424/424 425/425 426/426
f 427/427 428/428 429/429
f 430/430 431/431 432/432
f 433/433 434/434 435/435
f 436/436 437/437 438/438
f 439/439 440/440 441/441
f 442/442 443/443 444/444
f 445/445 446/446 447/447
f 448/448 449/449 450/450
f 451/451 452/452 453/453
f 454/454 455/455 456/456
f 457/457 458/458 459/459
f 460/460 461/461 462/462
f 463/463 464/464 465/465
f 466/466 467/467 468/468
f 469/469 470/470 471/471
f 472/472 473/473 474/474
f 475/475 476/476 477/477
f 478/478 479/479 480/480
f 481/481 482/482 483/483
f 484/484 485/485 486/486
f 487/487 488/488 489/489
f 490/490 491/491 492/492
f 493/493 494/494 495/495
f 496/496 497/497 498/498
f 499/499 500/500 501/501
f 502/502 503/503 504/504
f 505/505 506/506 507/507
f 508/508 509/509 510/510
f 511/511 512/512 513/513
f 514/514 515/515 516/516
f 517/517 518/518 519/519
f 520/520 521/521 522/522
f 523/523 524/524 525/525
f 526/526 527/527 528/528
f 529/529 530/530 531/531
f 532/532 533/533 534/534
f 535/535 536/536 537/537
f 538/538 539/539 540/540
f 541/541 542/542 543/543
f 544/544 545/545 546/546
usemtl rebar
f 547/547 548/548 549/549
f 547/547 549/549 550/550
f 551/551 552/552 553/553
f 551/551 553/553 554/554
f 555/555 556/556 557/557
f 555/555 557/557 558/558
f 559/559 560/560 561/561
f 559/559 561/561 562/562
f 563/563 564/564 565/565
f 563/563 565/565 566/566
f 567/567 568/568 569/569
f 567/567 569/569 570/570
f 571/571 572/572 573/573
f 571/571 573/573 574/574
f 575/575 576/576 577/577
f 575/575 577/577 578/578
f 579/579 580/580 581/581
f 579/579 581/581 582/582
f 583/583 584/584 585/585
f 583/583 585/585 586/586
f 587/587 588/588 589/589
f 587/587 589/589 590/590
f 591/591 592/592 593/593
f 591/591 593/593 594/594
f 595/595 596/596 597/597
f 595/595 597/597 598/598
f 599/599 600/600 601/601
f 599/599 601/601 602/602
f 603/603 604/604 605/605
f 603/603 605/605 606/606
f 607/607 608/608 609/609
f 607/607 609/609 610/610
f 611/611 612/612 613/613
f 611/611 613/613 614/614
f 615/615 616/616 617/617
f 615/615 617/617 618/618
f 619/619 620/620 621/621
f 619/619 621/621 622/622
f 623/623 624/624 625/625
f 623/623 625/625 626/626
f 627/627 628/628 629/629
f 627/627 629/629 630/630
f 631/631 632/632 633/633
f 631/631 633/633 634/634
f 635/635 636/636 637/637
f 635/635 637/637 638/638
f 639/639 640/640 641/641
f 639/639 641/641 642/642
f 643/643 644/644 645/645
f 643/643 645/645 646/646
f 647/647 648/648 649/649
f 647/647 649/649 650/650
f 651/651 652/652 653/653
f 651/651 653/653 654/654
f 655/655 656/656 657/657
f 655/655 657/657 658/658
f 659/659 660/660 661/661
f 659/659 661/661 662/662
f 663/663 664/664 665/665
f 663/663 665/665 666/666
f 667/667 668/668 669/669
f 667/667 669/669 670/670
f 671/671 672/672 673/673
f 671/671 673/673 674/674
f 675/675 676/676 677/677
f 675/675 677/677 678/678
f 679/679 680/680 681/681
f 679/679 681/681 682/682
f 683/683 684/684 685/685
f 683/683 685/685 686/686
f 687/687 688/688 689/689
f 687/687 689/689 690/690
f 691/691 692/692 693/693
f 691/691 693/693 694/694
f 695/695 696/696 697/697
f 695/695 697/697 698/698
f 699/699 700/700 701/701
f 699/699 701/701 702/702
f 703/703 704/704 705/705
f 703/703 705/705 706/706
f 707/707 708/708 709/709
f 707/707 709/709 710/710
f 711/711 712/712 713/713
f 711/711 713/713 714/714
f 715/715 716/716 717/717
f 715/715 717/717 718/718
f 719/719 720/720 721/721
f 719/719 721/721 722/722
f 723/723 724/724 725/725
f 723/723 725/725 726/726
f 727/727 728/728 729/729
f 727/727 729/729 730/730
f 731/731 732/732 733/733
f 731/731 733/733 734/734
f 735/735 736/736 737/737
f 735/735 737/737 738/738
f 739/739 740/740 741/741
f 739/739 741/741 742/742
f 743/743 744/744 745/745
f 743/743 745/745 746/746
f 747/747 748/748 749/749
f 747/747 749/749 750/750
f 751/751 752/752 753/753
f 751/751 753/753 754/754
f 755/755 756/756 757/757
f 755/755 757/757 758/758
f 759/759 760/760 761/761
f 759/759 761/761 762/762
f 763/763 764/764 765/765
f 763/763 765/765 766/766
f 767/767 768/768 769/769
f 767/767 769/769 770/770
f 771/771 772/772 773/773
f 771/771 773/773 774/774
f 775/775 776/776 777/777
f 775/775 777/777 778/778
f 779/779 780/780 781/781
f 779/779 781/781 782/782
f 783/783 784/784 785/785
f 783/783 785/785 786/786
f 787/787 788/788 789/789
f 787/787 789/789 790/790
f 791/791 792/792 793/793
f 791/791 793/793 794/794
f 795/795 796/796 797/797
f 795/795 797/797 798/798
f 799/799 800/800 801/801
f 799/799 801/801 802/802
f 803/803 804/804 805/805
f 803/803 805/805 806/806
f 807/807 808/808 809/809
f 807/807 809/809 810/810
f 811/811 812/812 813/813
f 811/811 813/813 814/814
f 815/815 816/816 817/817
f 815/815 817/817 818/818
f 819/819 820/820 821/821
f 819/819 821/821 822/822
f 823/823 824/824 825/825
f 823/823 825/825 826/826
f 827/827 828/828 829/829
f 827/827 829/829 830/830
f 831/831 832/832 833/833
f 831/831 833/833 834/834
