# S_slab_3 (Sightline generated, CENTIMETRES, +Z up)
v -111.72 -28.48 -11.36
v -76.40 -75.32 -9.70
v -76.40 -75.32 11.84
v -111.72 -28.48 10.14
v -76.40 -75.32 -9.70
v -35.87 -110.87 -8.57
v -35.87 -110.87 13.01
v -76.40 -75.32 11.84
v -35.87 -110.87 -8.57
v -2.12 -151.42 -7.66
v -2.12 -151.42 13.95
v -35.87 -110.87 13.01
v -2.12 -151.42 -7.66
v 33.08 -107.05 -9.36
v 33.08 -107.05 12.20
v -2.12 -151.42 13.95
v 33.08 -107.05 -9.36
v 68.37 -57.05 -10.72
v 68.37 -57.05 10.79
v 33.08 -107.05 12.20
v 68.37 -57.05 -10.72
v 107.98 -7.34 -11.71
v 107.98 -7.34 9.78
v 68.37 -57.05 10.79
v 107.98 -7.34 -11.71
v 147.18 45.50 -12.15
v 147.18 45.50 9.32
v 107.98 -7.34 9.78
v 147.18 45.50 -12.15
v 117.55 65.19 -10.76
v 117.55 65.19 10.75
v 147.18 45.50 9.32
v 117.55 65.19 -10.76
v 104.58 95.86 -9.63
v 104.58 95.86 11.92
v 117.55 65.19 10.75
v 104.58 95.86 -9.63
v 62.31 93.72 -9.11
v 62.31 93.72 12.46
v 104.58 95.86 11.92
v 62.31 93.72 -9.11
v 46.68 122.44 -8.25
v 46.68 122.44 13.34
v 62.31 93.72 12.46
v 46.68 122.44 -8.25
v 25.08 140.20 -7.77
v 25.08 140.20 13.84
v 46.68 122.44 13.34
v 25.08 140.20 -7.77
v 2.66 111.92 -8.73
v 2.66 111.92 12.85
v 25.08 140.20 13.84
v 2.66 111.92 -8.73
v -19.59 106.22 -9.14
v -19.59 106.22 12.43
v 2.66 111.92 12.85
v -19.59 106.22 -9.14
v -38.44 80.33 -9.88
v -38.44 80.33 11.67
v -19.59 106.22 12.43
v -38.44 80.33 -9.88
v -75.83 81.93 -10.74
v -75.83 81.93 10.78
v -38.44 80.33 11.67
v -75.83 81.93 -10.74
v -91.25 54.10 -11.36
v -91.25 54.10 10.14
v -75.83 81.93 10.78
v -91.25 54.10 -11.36
v -115.53 35.31 -12.14
v -115.53 35.31 9.34
v -91.25 54.10 10.14
v -115.53 35.31 -12.14
v -140.16 16.29 -12.93
v -140.16 16.29 8.52
v -115.53 35.31 9.34
v -140.16 16.29 -12.93
v -111.72 -28.48 -11.36
v -111.72 -28.48 10.14
v -140.16 16.29 8.52
v -111.72 -28.48 10.14
v -76.40 -75.32 11.84
v -47.37 -46.70 11.63
v -69.26 -17.66 10.98
v -76.40 -75.32 -9.70
v -111.72 -28.48 -11.36
v -69.26 -17.66 -10.86
v -47.37 -46.70 -10.22
v -76.40 -75.32 11.84
v -35.87 -110.87 13.01
v -22.24 -68.74 12.08
v -47.37 -46.70 11.63
v -35.87 -110.87 -8.57
v -76.40 -75.32 -9.70
v -47.37 -46.70 -10.22
v -22.24 -68.74 -9.79
v -35.87 -110.87 13.01
v -2.12 -151.42 13.95
v -1.32 -93.88 12.44
v -22.24 -68.74 12.08
v -2.12 -151.42 -7.66
v -35.87 -110.87 -8.57
v -22.24 -68.74 -9.79
v -1.32 -93.88 -9.44
v -2.12 -151.42 13.95
v 33.08 -107.05 12.20
v 20.51 -66.37 11.77
v -1.32 -93.88 12.44
v 33.08 -107.05 -9.36
v -2.12 -151.42 -7.66
v -1.32 -93.88 -9.44
v 20.51 -66.37 -10.09
v 33.08 -107.05 12.20
v 68.37 -57.05 10.79
v 42.39 -35.37 11.23
v 20.51 -66.37 11.77
v 68.37 -57.05 -10.72
v 33.08 -107.05 -9.36
v 20.51 -66.37 -10.09
v 42.39 -35.37 -10.62
v 68.37 -57.05 10.79
v 107.98 -7.34 9.78
v 66.95 -4.55 10.84
v 42.39 -35.37 11.23
v 107.98 -7.34 -11.71
v 68.37 -57.05 -10.72
v 42.39 -35.37 -10.62
v 66.95 -4.55 -10.99
v 107.98 -7.34 9.78
v 147.18 45.50 9.32
v 91.25 28.21 10.66
v 66.95 -4.55 10.84
v 147.18 45.50 -12.15
v 107.98 -7.34 -11.71
v 66.95 -4.55 -10.99
v 91.25 28.21 -11.17
v 147.18 45.50 9.32
v 117.55 65.19 10.75
v 72.88 40.42 11.21
v 91.25 28.21 10.66
v 117.55 65.19 -10.76
v 147.18 45.50 -12.15
v 91.25 28.21 -11.17
v 72.88 40.42 -10.63
v 117.55 65.19 10.75
v 104.58 95.86 11.92
v 64.84 59.43 11.66
v 72.88 40.42 11.21
v 104.58 95.86 -9.63
v 117.55 65.19 -10.76
v 72.88 40.42 -10.63
v 64.84 59.43 -10.20
v 104.58 95.86 11.92
v 62.31 93.72 12.46
v 38.63 58.11 11.87
v 64.84 59.43 11.66
v 62.31 93.72 -9.11
v 104.58 95.86 -9.63
v 64.84 59.43 -10.20
v 38.63 58.11 -9.99
v 62.31 93.72 12.46
v 46.68 122.44 13.34
v 28.94 75.91 12.21
v 38.63 58.11 11.87
v 46.68 122.44 -8.25
v 62.31 93.72 -9.11
v 38.63 58.11 -9.99
v 28.94 75.91 -9.67
v 46.68 122.44 13.34
v 25.08 140.20 13.84
v 15.55 86.93 12.40
v 28.94 75.91 12.21
v 25.08 140.20 -7.77
v 46.68 122.44 -8.25
v 28.94 75.91 -9.67
v 15.55 86.93 -9.48
v 25.08 140.20 13.84
v 2.66 111.92 12.85
v 1.65 69.39 12.02
v 15.55 86.93 12.40
v 2.66 111.92 -8.73
v 25.08 140.20 -7.77
v 15.55 86.93 -9.48
v 1.65 69.39 -9.85
v 2.66 111.92 12.85
v -19.59 106.22 12.43
v -12.15 65.85 11.86
v 1.65 69.39 12.02
v -19.59 106.22 -9.14
v 2.66 111.92 -8.73
v 1.65 69.39 -9.85
v -12.15 65.85 -10.01
v -19.59 106.22 12.43
v -38.44 80.33 11.67
v -23.83 49.80 11.56
v -12.15 65.85 11.86
v -38.44 80.33 -9.88
v -19.59 106.22 -9.14
v -12.15 65.85 -10.01
v -23.83 49.80 -10.29
v -38.44 80.33 11.67
v -75.83 81.93 10.78
v -47.02 50.80 11.22
v -23.83 49.80 11.56
v -75.83 81.93 -10.74
v -38.44 80.33 -9.88
v -23.83 49.80 -10.29
v -47.02 50.80 -10.62
v -75.83 81.93 10.78
v -91.25 54.10 10.14
v -56.58 33.54 10.98
v -47.02 50.80 11.22
v -91.25 54.10 -11.36
v -75.83 81.93 -10.74
v -47.02 50.80 -10.62
v -56.58 33.54 -10.86
v -91.25 54.10 10.14
v -115.53 35.31 9.34
v -71.63 21.89 10.67
v -56.58 33.54 10.98
v -115.53 35.31 -12.14
v -91.25 54.10 -11.36
v -56.58 33.54 -10.86
v -71.63 21.89 -11.16
v -115.53 35.31 9.34
v -140.16 16.29 8.52
v -86.90 10.10 10.36
v -71.63 21.89 10.67
v -140.16 16.29 -12.93
v -115.53 35.31 -12.14
v -71.63 21.89 -11.16
v -86.90 10.10 -11.46
v -140.16 16.29 8.52
v -111.72 -28.48 10.14
v -69.26 -17.66 10.98
v -86.90 10.10 10.36
v -111.72 -28.48 -11.36
v -140.16 16.29 -12.93
v -86.90 10.10 -11.46
v -69.26 -17.66 -10.86
v -69.26 -17.66 10.98
v -47.37 -46.70 11.63
v -22.92 -22.60 11.53
v -33.51 -8.54 11.38
v -47.37 -46.70 -10.22
v -69.26 -17.66 -10.86
v -33.51 -8.54 -9.97
v -22.92 -22.60 -9.82
v -47.37 -46.70 11.63
v -22.24 -68.74 12.08
v -10.76 -33.26 11.64
v -22.92 -22.60 11.53
v -22.24 -68.74 -9.79
v -47.37 -46.70 -10.22
v -22.92 -22.60 -9.82
v -10.76 -33.26 -9.71
v -22.24 -68.74 12.08
v -1.32 -93.88 12.44
v -0.64 -45.43 11.72
v -10.76 -33.26 11.64
v -1.32 -93.88 -9.44
v -22.24 -68.74 -9.79
v -10.76 -33.26 -9.71
v -0.64 -45.43 -9.63
v -1.32 -93.88 12.44
v 20.51 -66.37 11.77
v 9.93 -32.12 11.56
v -0.64 -45.43 11.72
v 20.51 -66.37 -10.09
v -1.32 -93.88 -9.44
v -0.64 -45.43 -9.63
v 9.93 -32.12 -9.78
v 20.51 -66.37 11.77
v 42.39 -35.37 11.23
v 20.51 -17.11 11.44
v 9.93 -32.12 11.56
v 42.39 -35.37 -10.62
v 20.51 -66.37 -10.09
v 9.93 -32.12 -9.78
v 20.51 -17.11 -9.91
v 42.39 -35.37 11.23
v 66.95 -4.55 10.84
v 32.39 -2.20 11.34
v 20.51 -17.11 11.44
v 66.95 -4.55 -10.99
v 42.39 -35.37 -10.62
v 20.51 -17.11 -9.91
v 32.39 -2.20 -10.00
v 66.95 -4.55 10.84
v 91.25 28.21 10.66
v 44.15 13.65 11.30
v 32.39 -2.20 11.34
v 91.25 28.21 -11.17
v 66.95 -4.55 -10.99
v 32.39 -2.20 -10.00
v 44.15 13.65 -10.04
v 91.25 28.21 10.66
v 72.88 40.42 11.21
v 35.26 19.56 11.43
v 44.15 13.65 11.30
v 72.88 40.42 -10.63
v 91.25 28.21 -11.17
v 44.15 13.65 -10.04
v 35.26 19.56 -9.91
v 72.88 40.42 11.21
v 64.84 59.43 11.66
v 31.37 28.76 11.54
v 35.26 19.56 11.43
v 64.84 59.43 -10.20
v 72.88 40.42 -10.63
v 35.26 19.56 -9.91
v 31.37 28.76 -9.81
v 64.84 59.43 11.66
v 38.63 58.11 11.87
v 18.69 28.12 11.59
v 31.37 28.76 11.54
v 38.63 58.11 -9.99
v 64.84 59.43 -10.20
v 31.37 28.76 -9.81
v 18.69 28.12 -9.76
v 38.63 58.11 11.87
v 28.94 75.91 12.21
v 14.00 36.73 11.67
v 18.69 28.12 11.59
v 28.94 75.91 -9.67
v 38.63 58.11 -9.99
v 18.69 28.12 -9.76
v 14.00 36.73 -9.69
v 28.94 75.91 12.21
v 15.55 86.93 12.40
v 7.52 42.06 11.71
v 14.00 36.73 11.67
v 15.55 86.93 -9.48
v 28.94 75.91 -9.67
v 14.00 36.73 -9.69
v 7.52 42.06 -9.64
v 15.55 86.93 12.40
v 1.65 69.39 12.02
v 0.80 33.58 11.62
v 7.52 42.06 11.71
v 1.65 69.39 -9.85
v 15.55 86.93 -9.48
v 7.52 42.06 -9.64
v 0.80 33.58 -9.73
v 1.65 69.39 12.02
v -12.15 65.85 11.86
v -5.88 31.86 11.58
v 0.80 33.58 11.62
v -12.15 65.85 -10.01
v 1.65 69.39 -9.85
v 0.80 33.58 -9.73
v -5.88 31.86 -9.76
v -12.15 65.85 11.86
v -23.83 49.80 11.56
v -11.53 24.10 11.51
v -5.88 31.86 11.58
v -23.83 49.80 -10.29
v -12.15 65.85 -10.01
v -5.88 31.86 -9.76
v -11.53 24.10 -9.83
v -23.83 49.80 11.56
v -47.02 50.80 11.22
v -22.75 24.58 11.43
v -11.53 24.10 11.51
v -47.02 50.80 -10.62
v -23.83 49.80 -10.29
v -11.53 24.10 -9.83
v -22.75 24.58 -9.91
v -47.02 50.80 11.22
v -56.58 33.54 10.98
v -27.38 16.23 11.38
v -22.75 24.58 11.43
v -56.58 33.54 -10.86
v -47.02 50.80 -10.62
v -22.75 24.58 -9.91
v -27.38 16.23 -9.96
v -56.58 33.54 10.98
v -71.63 21.89 10.67
v -34.66 10.59 11.31
v -27.38 16.23 11.38
v -71.63 21.89 -11.16
v -56.58 33.54 -10.86
v -27.38 16.23 -9.96
v -34.66 10.59 -10.03
v -71.63 21.89 10.67
v -86.90 10.10 10.36
v -42.05 4.89 11.23
v -34.66 10.59 11.31
v -86.90 10.10 -11.46
v -71.63 21.89 -11.16
v -34.66 10.59 -10.03
v -42.05 4.89 -10.11
v -86.90 10.10 10.36
v -69.26 -17.66 10.98
v -33.51 -8.54 11.38
v -42.05 4.89 11.23
v -69.26 -17.66 -10.86
v -86.90 10.10 -11.46
v -42.05 4.89 -10.11
v -33.51 -8.54 -9.97
v -33.51 -8.54 11.38
v -22.92 -22.60 11.53
v 0.00 0.00 11.50
v -22.92 -22.60 -9.82
v -33.51 -8.54 -9.97
v 0.00 0.00 -11.50
v -22.92 -22.60 11.53
v -10.76 -33.26 11.64
v 0.00 0.00 11.50
v -10.76 -33.26 -9.71
v -22.92 -22.60 -9.82
v 0.00 0.00 -11.50
v -10.76 -33.26 11.64
v -0.64 -45.43 11.72
v 0.00 0.00 11.50
v -0.64 -45.43 -9.63
v -10.76 -33.26 -9.71
v 0.00 0.00 -11.50
v -0.64 -45.43 11.72
v 9.93 -32.12 11.56
v 0.00 0.00 11.50
v 9.93 -32.12 -9.78
v -0.64 -45.43 -9.63
v 0.00 0.00 -11.50
v 9.93 -32.12 11.56
v 20.51 -17.11 11.44
v 0.00 0.00 11.50
v 20.51 -17.11 -9.91
v 9.93 -32.12 -9.78
v 0.00 0.00 -11.50
v 20.51 -17.11 11.44
v 32.39 -2.20 11.34
v 0.00 0.00 11.50
v 32.39 -2.20 -10.00
v 20.51 -17.11 -9.91
v 0.00 0.00 -11.50
v 32.39 -2.20 11.34
v 44.15 13.65 11.30
v 0.00 0.00 11.50
v 44.15 13.65 -10.04
v 32.39 -2.20 -10.00
v 0.00 0.00 -11.50
v 44.15 13.65 11.30
v 35.26 19.56 11.43
v 0.00 0.00 11.50
v 35.26 19.56 -9.91
v 44.15 13.65 -10.04
v 0.00 0.00 -11.50
v 35.26 19.56 11.43
v 31.37 28.76 11.54
v 0.00 0.00 11.50
v 31.37 28.76 -9.81
v 35.26 19.56 -9.91
v 0.00 0.00 -11.50
v 31.37 28.76 11.54
v 18.69 28.12 11.59
v 0.00 0.00 11.50
v 18.69 28.12 -9.76
v 31.37 28.76 -9.81
v 0.00 0.00 -11.50
v 18.69 28.12 11.59
v 14.00 36.73 11.67
v 0.00 0.00 11.50
v 14.00 36.73 -9.69
v 18.69 28.12 -9.76
v 0.00 0.00 -11.50
v 14.00 36.73 11.67
v 7.52 42.06 11.71
v 0.00 0.00 11.50
v 7.52 42.06 -9.64
v 14.00 36.73 -9.69
v 0.00 0.00 -11.50
v 7.52 42.06 11.71
v 0.80 33.58 11.62
v 0.00 0.00 11.50
v 0.80 33.58 -9.73
v 7.52 42.06 -9.64
v 0.00 0.00 -11.50
v 0.80 33.58 11.62
v -5.88 31.86 11.58
v 0.00 0.00 11.50
v -5.88 31.86 -9.76
v 0.80 33.58 -9.73
v 0.00 0.00 -11.50
v -5.88 31.86 11.58
v -11.53 24.10 11.51
v 0.00 0.00 11.50
v -11.53 24.10 -9.83
v -5.88 31.86 -9.76
v 0.00 0.00 -11.50
v -11.53 24.10 11.51
v -22.75 24.58 11.43
v 0.00 0.00 11.50
v -22.75 24.58 -9.91
v -11.53 24.10 -9.83
v 0.00 0.00 -11.50
v -22.75 24.58 11.43
v -27.38 16.23 11.38
v 0.00 0.00 11.50
v -27.38 16.23 -9.96
v -22.75 24.58 -9.91
v 0.00 0.00 -11.50
v -27.38 16.23 11.38
v -34.66 10.59 11.31
v 0.00 0.00 11.50
v -34.66 10.59 -10.03
v -27.38 16.23 -9.96
v 0.00 0.00 -11.50
v -34.66 10.59 11.31
v -42.05 4.89 11.23
v 0.00 0.00 11.50
v -42.05 4.89 -10.11
v -34.66 10.59 -10.03
v 0.00 0.00 -11.50
v -42.05 4.89 11.23
v -33.51 -8.54 11.38
v 0.00 0.00 11.50
v -33.51 -8.54 -9.97
v -42.05 4.89 -10.11
v 0.00 0.00 -11.50
v -39.85 80.02 5.68
v -37.54 81.46 5.68
v -50.51 97.22 -2.05
v -50.07 96.50 -4.64
v -37.54 81.46 5.68
v -37.02 80.63 3.13
v -48.05 98.37 -1.94
v -50.51 97.22 -2.05
v -37.02 80.63 3.13
v -39.34 79.19 3.13
v -47.60 97.65 -4.54
v -48.05 98.37 -1.94
v -39.34 79.19 3.13
v -39.85 80.02 5.68
v -50.07 96.50 -4.64
v -47.60 97.65 -4.54
v -50.07 96.50 -4.64
v -50.51 97.22 -2.05
v -56.33 116.97 -10.28
v -53.68 116.65 -9.74
v -50.51 97.22 -2.05
v -48.05 98.37 -1.94
v -56.70 118.07 -7.82
v -56.33 116.97 -10.28
v -48.05 98.37 -1.94
v -47.60 97.65 -4.54
v -54.05 117.74 -7.27
v -56.70 118.07 -7.82
v -47.60 97.65 -4.54
v -50.07 96.50 -4.64
v -53.68 116.65 -9.74
v -54.05 117.74 -7.27
v -53.68 116.65 -9.74
v -56.33 116.97 -10.28
v -40.68 130.54 -18.01
v -40.90 132.27 -15.92
v -56.33 116.97 -10.28
v -56.70 118.07 -7.82
v -42.95 131.58 -19.11
v -40.68 130.54 -18.01
v -56.70 118.07 -7.82
v -54.05 117.74 -7.27
v -43.17 133.31 -17.02
v -42.95 131.58 -19.11
v -54.05 117.74 -7.27
v -53.68 116.65 -9.74
v -40.90 132.27 -15.92
v -43.17 133.31 -17.02
v -40.90 132.27 -15.92
v -40.68 130.54 -18.01
v -30.53 146.58 -28.64
v -32.93 147.45 -29.62
v -40.68 130.54 -18.01
v -42.95 131.58 -19.11
v -30.40 144.71 -30.63
v -30.53 146.58 -28.64
v -42.95 131.58 -19.11
v -43.17 133.31 -17.02
v -32.80 145.58 -31.60
v -30.40 144.71 -30.63
v -43.17 133.31 -17.02
v -40.90 132.27 -15.92
v -32.93 147.45 -29.62
v -32.80 145.58 -31.60
v -39.34 79.19 3.13
v -37.02 80.63 3.13
v -37.54 81.46 5.68
v -39.85 80.02 5.68
v -32.93 147.45 -29.62
v -30.53 146.58 -28.64
v -30.40 144.71 -30.63
v -32.80 145.58 -31.60
v -74.88 -76.38 -0.41
v -76.96 -73.55 -0.41
v -93.69 -90.19 8.02
v -94.34 -90.67 4.60
v -76.96 -73.55 -0.41
v -77.92 -74.26 -3.71
v -95.69 -87.30 8.00
v -93.69 -90.19 8.02
v -77.92 -74.26 -3.71
v -75.84 -77.09 -3.71
v -96.35 -87.78 4.58
v -95.69 -87.30 8.00
v -75.84 -77.09 -3.71
v -74.88 -76.38 -0.41
v -94.34 -90.67 4.60
v -96.35 -87.78 4.58
v -94.34 -90.67 4.60
v -93.69 -90.19 8.02
v -114.23 -103.66 7.54
v -116.15 -100.72 7.49
v -93.69 -90.19 8.02
v -95.69 -87.30 8.00
v -114.71 -103.92 11.01
v -114.23 -103.66 7.54
v -95.69 -87.30 8.00
v -96.35 -87.78 4.58
v -116.63 -100.98 10.96
v -114.71 -103.92 11.01
v -96.35 -87.78 4.58
v -94.34 -90.67 4.60
v -116.15 -100.72 7.49
v -116.63 -100.98 10.96
v -116.15 -100.72 7.49
v -114.23 -103.66 7.54
v -133.79 -112.63 -2.48
v -134.78 -113.23 0.84
v -114.23 -103.66 7.54
v -114.71 -103.92 11.01
v -133.24 -116.07 -2.94
v -133.79 -112.63 -2.48
v -114.71 -103.92 11.01
v -116.63 -100.98 10.96
v -134.23 -116.67 0.38
v -133.24 -116.07 -2.94
v -116.63 -100.98 10.96
v -116.15 -100.72 7.49
v -134.78 -113.23 0.84
v -134.23 -116.67 0.38
v -134.78 -113.23 0.84
v -133.79 -112.63 -2.48
v -157.08 -105.92 -2.01
v -158.01 -109.19 -2.88
v -133.79 -112.63 -2.48
v -133.24 -116.07 -2.94
v -156.40 -105.21 -5.38
v -157.08 -105.92 -2.01
v -133.24 -116.07 -2.94
v -134.23 -116.67 0.38
v -157.34 -108.48 -6.25
v -156.40 -105.21 -5.38
v -134.23 -116.67 0.38
v -134.78 -113.23 0.84
v -158.01 -109.19 -2.88
v -157.34 -108.48 -6.25
v -75.84 -77.09 -3.71
v -77.92 -74.26 -3.71
v -76.96 -73.55 -0.41
v -74.88 -76.38 -0.41
v -158.01 -109.19 -2.88
v -157.08 -105.92 -2.01
v -156.40 -105.21 -5.38
v -157.34 -108.48 -6.25
v 103.15 96.61 -6.64
v 104.18 94.29 -6.64
v 117.65 102.90 13.78
v 119.22 103.60 11.92
v 104.18 94.29 -6.64
v 106.02 95.10 -8.19
v 117.89 100.48 13.08
v 117.65 102.90 13.78
v 106.02 95.10 -8.19
v 104.99 97.42 -8.19
v 119.46 101.17 11.21
v 117.89 100.48 13.08
v 104.99 97.42 -8.19
v 103.15 96.61 -6.64
v 119.22 103.60 11.92
v 119.46 101.17 11.21
v 119.22 103.60 11.92
v 117.65 102.90 13.78
v 140.46 92.81 20.01
v 140.30 90.48 19.00
v 117.65 102.90 13.78
v 117.89 100.48 13.08
v 139.18 92.01 22.05
v 140.46 92.81 20.01
v 117.89 100.48 13.08
v 119.46 101.17 11.21
v 139.01 89.69 21.04
v 139.18 92.01 22.05
v 119.46 101.17 11.21
v 119.22 103.60 11.92
v 140.30 90.48 19.00
v 139.01 89.69 21.04
v 140.30 90.48 19.00
v 140.46 92.81 20.01
v 161.58 88.73 32.75
v 159.88 88.08 34.52
v 140.46 92.81 20.01
v 139.18 92.01 22.05
v 161.67 91.08 33.70
v 161.58 88.73 32.75
v 139.18 92.01 22.05
v 139.01 89.69 21.04
v 159.98 90.43 35.48
v 161.67 91.08 33.70
v 139.01 89.69 21.04
v 140.30 90.48 19.00
v 159.88 88.08 34.52
v 159.98 90.43 35.48
v 159.88 88.08 34.52
v 161.58 88.73 32.75
v 174.77 76.39 50.34
v 175.20 78.58 51.55
v 161.58 88.73 32.75
v 161.67 91.08 33.70
v 176.74 76.85 48.81
v 174.77 76.39 50.34
v 161.67 91.08 33.70
v 159.98 90.43 35.48
v 177.17 79.04 50.02
v 176.74 76.85 48.81
v 159.98 90.43 35.48
v 159.88 88.08 34.52
v 175.20 78.58 51.55
v 177.17 79.04 50.02
v 104.99 97.42 -8.19
v 106.02 95.10 -8.19
v 104.18 94.29 -6.64
v 103.15 96.61 -6.64
v 175.20 78.58 51.55
v 174.77 76.39 50.34
v 176.74 76.85 48.81
v 177.17 79.04 50.02
v -34.22 -111.06 -2.10
v -37.45 -110.36 -2.10
v -37.77 -127.33 -0.38
v -37.81 -127.51 -3.69
v -37.45 -110.36 -2.10
v -37.52 -110.69 -5.40
v -41.06 -126.95 -0.36
v -37.77 -127.33 -0.38
v -37.52 -110.69 -5.40
v -34.29 -111.39 -5.40
v -41.10 -127.13 -3.67
v -41.06 -126.95 -0.36
v -34.29 -111.39 -5.40
v -34.22 -111.06 -2.10
v -37.81 -127.51 -3.69
v -41.10 -127.13 -3.67
v -37.81 -127.51 -3.69
v -37.77 -127.33 -0.38
v -38.02 -144.31 -3.52
v -41.33 -144.35 -3.48
v -37.77 -127.33 -0.38
v -41.06 -126.95 -0.36
v -37.98 -143.75 -0.26
v -38.02 -144.31 -3.52
v -41.06 -126.95 -0.36
v -41.10 -127.13 -3.67
v -41.29 -143.80 -0.22
v -37.98 -143.75 -0.26
v -41.10 -127.13 -3.67
v -37.81 -127.51 -3.69
v -41.33 -144.35 -3.48
v -41.29 -143.80 -0.22
v -41.33 -144.35 -3.48
v -38.02 -144.31 -3.52
v -40.54 -160.90 2.13
v -40.52 -159.72 5.22
v -38.02 -144.31 -3.52
v -37.98 -143.75 -0.26
v -37.31 -160.22 1.84
v -40.54 -160.90 2.13
v -37.98 -143.75 -0.26
v -41.29 -143.80 -0.22
v -37.29 -159.05 4.94
v -37.31 -160.22 1.84
v -41.29 -143.80 -0.22
v -41.33 -144.35 -3.48
v -40.52 -159.72 5.22
v -37.29 -159.05 4.94
v -40.52 -159.72 5.22
v -40.54 -160.90 2.13
v -33.90 -174.21 11.33
v -30.85 -173.01 10.85
v -40.54 -160.90 2.13
v -37.31 -160.22 1.84
v -33.88 -175.49 8.27
v -33.90 -174.21 11.33
v -37.31 -160.22 1.84
v -37.29 -159.05 4.94
v -30.83 -174.29 7.79
v -33.88 -175.49 8.27
v -37.29 -159.05 4.94
v -40.52 -159.72 5.22
v -30.85 -173.01 10.85
v -30.83 -174.29 7.79
v -34.29 -111.39 -5.40
v -37.52 -110.69 -5.40
v -37.45 -110.36 -2.10
v -34.22 -111.06 -2.10
v -30.85 -173.01 10.85
v -33.90 -174.21 11.33
v -33.88 -175.49 8.27
v -30.83 -174.29 7.79
v 116.63 66.74 6.51
v 116.82 63.54 6.51
v 129.48 67.51 14.20
v 130.38 67.56 11.13
v 116.82 63.54 6.51
v 118.46 63.64 3.76
v 130.04 64.35 14.31
v 129.48 67.51 14.20
v 118.46 63.64 3.76
v 118.27 66.84 3.76
v 130.94 64.41 11.23
v 130.04 64.35 14.31
v 118.27 66.84 3.76
v 116.63 66.74 6.51
v 130.38 67.56 11.13
v 130.94 64.41 11.23
v 130.38 67.56 11.13
v 129.48 67.51 14.20
v 144.21 71.71 11.39
v 145.06 68.63 11.58
v 129.48 67.51 14.20
v 130.04 64.35 14.31
v 143.68 71.76 14.55
v 144.21 71.71 11.39
v 130.04 64.35 14.31
v 130.94 64.41 11.23
v 144.53 68.68 14.74
v 143.68 71.76 14.55
v 130.94 64.41 11.23
v 130.38 67.56 11.13
v 145.06 68.63 11.58
v 144.53 68.68 14.74
v 145.06 68.63 11.58
v 144.21 71.71 11.39
v 158.82 72.34 15.82
v 158.13 72.34 18.95
v 144.21 71.71 11.39
v 143.68 71.76 14.55
v 157.97 75.42 15.62
v 158.82 72.34 15.82
v 143.68 71.76 14.55
v 144.53 68.68 14.74
v 157.28 75.43 18.75
v 157.97 75.42 15.62
v 144.53 68.68 14.74
v 145.06 68.63 11.58
v 158.13 72.34 18.95
v 157.28 75.43 18.75
v 158.13 72.34 18.95
v 158.82 72.34 15.82
v 172.30 76.68 20.85
v 171.39 79.74 20.65
v 158.82 72.34 15.82
v 157.97 75.42 15.62
v 172.75 76.59 17.68
v 172.30 76.68 20.85
v 157.97 75.42 15.62
v 157.28 75.43 18.75
v 171.84 79.66 17.47
v 172.75 76.59 17.68
v 157.28 75.43 18.75
v 158.13 72.34 18.95
v 171.39 79.74 20.65
v 171.84 79.66 17.47
v 118.27 66.84 3.76
v 118.46 63.64 3.76
v 116.82 63.54 6.51
v 116.63 66.74 6.51
v 171.39 79.74 20.65
v 172.30 76.68 20.85
v 172.75 76.59 17.68
v 171.84 79.66 17.47
v -91.91 52.46 8.30
v -89.52 54.47 8.30
v -101.14 63.47 17.39
v -102.42 64.99 14.98
v -89.52 54.47 8.30
v -90.59 55.75 5.65
v -98.44 64.97 16.90
v -101.14 63.47 17.39
v -90.59 55.75 5.65
v -92.98 53.73 5.65
v -99.73 66.49 14.49
v -98.44 64.97 16.90
v -92.98 53.73 5.65
v -91.91 52.46 8.30
v -102.42 64.99 14.98
v -99.73 66.49 14.49
v -102.42 64.99 14.98
v -101.14 63.47 17.39
v -102.85 78.34 26.43
v -100.01 78.76 25.18
v -101.14 63.47 17.39
v -98.44 64.97 16.90
v -101.59 76.63 28.72
v -102.85 78.34 26.43
v -98.44 64.97 16.90
v -99.73 66.49 14.49
v -98.75 77.05 27.48
v -101.59 76.63 28.72
v -99.73 66.49 14.49
v -102.42 64.99 14.98
v -100.01 78.76 25.18
v -98.75 77.05 27.48
v -100.01 78.76 25.18
v -102.85 78.34 26.43
v -95.79 93.18 32.17
v -94.56 91.28 34.32
v -102.85 78.34 26.43
v -101.59 76.63 28.72
v -98.43 93.36 33.83
v -95.79 93.18 32.17
v -101.59 76.63 28.72
v -98.75 77.05 27.48
v -97.20 91.45 35.99
v -98.43 93.36 33.83
v -98.75 77.05 27.48
v -100.01 78.76 25.18
v -94.56 91.28 34.32
v -97.20 91.45 35.99
v -94.56 91.28 34.32
v -95.79 93.18 32.17
v -86.95 102.76 43.45
v -89.53 103.08 45.20
v -95.79 93.18 32.17
v -98.43 93.36 33.83
v -88.00 104.99 41.51
v -86.95 102.76 43.45
v -98.43 93.36 33.83
v -97.20 91.45 35.99
v -90.57 105.30 43.26
v -88.00 104.99 41.51
v -97.20 91.45 35.99
v -94.56 91.28 34.32
v -89.53 103.08 45.20
v -90.57 105.30 43.26
v -92.98 53.73 5.65
v -90.59 55.75 5.65
v -89.52 54.47 8.30
v -91.91 52.46 8.30
v -89.53 103.08 45.20
v -86.95 102.76 43.45
v -88.00 104.99 41.51
v -90.57 105.30 43.26
vt 0.0000 0.0000
vt 0.2934 0.0000
vt 0.2965 0.1077
vt 0.0030 0.1074
vt 0.0000 0.0000
vt 0.2696 0.0000
vt 0.2719 0.1079
vt 0.0023 0.1077
vt 0.0000 0.0000
vt 0.2638 0.0000
vt 0.2657 0.1080
vt 0.0019 0.1079
vt 0.0000 0.0000
vt 0.2833 0.0000
vt 0.2801 0.1077
vt -0.0032 0.1080
vt 0.0000 0.0000
vt 0.3061 -0.0000
vt 0.3037 0.1076
vt -0.0024 0.1078
vt 0.0000 0.0000
vt 0.3178 0.0000
vt 0.3162 0.1074
vt -0.0017 0.1076
vt 0.0000 0.0000
vt 0.3290 0.0000
vt 0.3282 0.1074
vt -0.0007 0.1074
vt 0.0000 0.0000
vt 0.1780 0.0000
vt 0.1822 0.1075
vt 0.0042 0.1073
vt 0.0000 0.0000
vt 0.1666 -0.0000
vt 0.1702 0.1077
vt 0.0036 0.1075
vt 0.0000 0.0000
vt 0.2116 0.0000
vt 0.2130 0.1078
vt 0.0013 0.1077
vt 0.0000 0.0000
vt 0.1636 0.0000
vt 0.1664 0.1079
vt 0.0028 0.1078
vt 0.0000 0.0000
vt 0.1399 0.0000
vt 0.1417 0.1080
vt 0.0018 0.1079
vt 0.0000 0.0000
vt 0.1805 0.0000
vt 0.1777 0.1079
vt -0.0029 0.1080
vt 0.0000 0.0000
vt 0.1149 0.0000
vt 0.1129 0.1078
vt -0.0019 0.1079
vt 0.0000 0.0000
vt 0.1602 0.0000
vt 0.1577 0.1077
vt -0.0025 0.1078
vt 0.0000 0.0000
vt 0.1872 0.0000
vt 0.1847 0.1076
vt -0.0025 0.1077
vt 0.0000 0.0000
vt 0.1591 0.0000
vt 0.1570 0.1075
vt -0.0021 0.1076
vt 0.0000 0.0000
vt 0.1536 0.0000
vt 0.1509 0.1073
vt -0.0027 0.1075
vt 0.0000 0.0000
vt 0.1556 0.0000
vt 0.1529 0.1072
vt -0.0027 0.1073
vt 0.0000 0.0000
vt 0.2653 0.0000
vt 0.2685 0.1074
vt 0.0032 0.1072
vt 0.0000 0.0000
vt 0.2934 0.0000
vt 0.2665 0.2021
vt 0.0847 0.2021
vt 0.0000 0.0000
vt 0.2934 0.0000
vt 0.2088 0.2021
vt 0.0269 0.2021
vt 0.0000 0.0000
vt 0.2696 0.0000
vt 0.1819 0.2033
vt 0.0147 0.2033
vt 0.0000 0.0000
vt 0.2696 -0.0000
vt 0.2549 0.2033
vt 0.0878 0.2034
vt 0.0000 0.0000
vt 0.2638 0.0000
vt 0.0452 0.1872
vt -0.1184 0.1872
vt 0.0000 0.0000
vt 0.2638 -0.0000
vt 0.3822 0.1872
vt 0.2187 0.1872
vt 0.0000 0.0000
vt 0.2834 0.0000
vt 0.4036 0.1757
vt 0.2280 0.1757
vt 0.0000 0.0000
vt 0.2833 -0.0000
vt 0.0553 0.1757
vt -0.1203 0.1757
vt 0.0000 0.0000
vt 0.3061 -0.0000
vt 0.3197 0.1686
vt 0.1300 0.1686
vt 0.0000 0.0000
vt 0.3061 0.0000
vt 0.1761 0.1686
vt -0.0136 0.1686
vt 0.0000 0.0000
vt 0.3178 0.0000
vt 0.2008 0.1692
vt 0.0038 0.1692
vt 0.0000 0.0000
vt 0.3178 -0.0000
vt 0.3140 0.1691
vt 0.1170 0.1692
vt 0.0000 0.0000
vt 0.3290 0.0000
vt 0.0929 0.1732
vt -0.1111 0.1731
vt 0.0000 0.0000
vt 0.3290 0.0000
vt 0.4400 0.1731
vt 0.2361 0.1731
vt 0.0000 0.0000
vt 0.1780 -0.0000
vt 0.2955 0.2268
vt 0.1852 0.2268
vt 0.0000 0.0000
vt 0.1780 -0.0000
vt -0.0071 0.2268
vt -0.1174 0.2268
vt 0.0000 0.0000
vt 0.1666 -0.0000
vt 0.0762 0.2539
vt -0.0270 0.2540
vt 0.0000 0.0000
vt 0.1666 0.0000
vt 0.1937 0.2539
vt 0.0904 0.2539
vt 0.0000 0.0000
vt 0.2116 0.0000
vt 0.3388 0.1719
vt 0.2076 0.1719
vt 0.0000 0.0000
vt 0.2116 -0.0000
vt 0.0040 0.1719
vt -0.1272 0.1720
vt 0.0000 0.0000
vt 0.1636 0.0000
vt 0.0015 0.1891
vt -0.0998 0.1891
vt 0.0000 0.0000
vt 0.1636 0.0000
vt 0.2634 0.1891
vt 0.1621 0.1891
vt 0.0000 0.0000
vt 0.1399 -0.0000
vt 0.0074 0.2361
vt -0.0793 0.2361
vt 0.0000 0.0000
vt 0.1399 -0.0000
vt 0.2192 0.2361
vt 0.1325 0.2361
vt 0.0000 0.0000
vt 0.1805 0.0000
vt 0.3503 0.1281
vt 0.2385 0.1281
vt 0.0000 0.0000
vt 0.1805 -0.0000
vt -0.0580 0.1282
vt -0.1699 0.1281
vt 0.0000 0.0000
vt 0.1149 -0.0000
vt 0.1290 0.2047
vt 0.0578 0.2048
vt 0.0000 0.0000
vt 0.1149 -0.0000
vt 0.0571 0.2048
vt -0.0141 0.2048
vt 0.0000 0.0000
vt 0.1602 0.0000
vt 0.2406 0.1489
vt 0.1413 0.1489
vt 0.0000 0.0000
vt 0.1602 0.0000
vt 0.0189 0.1489
vt -0.0804 0.1489
vt 0.0000 0.0000
vt 0.1872 -0.0000
vt 0.0366 0.1494
vt -0.0795 0.1494
vt 0.0000 0.0000
vt 0.1872 0.0000
vt 0.2666 0.1494
vt 0.1506 0.1494
vt 0.0000 0.0000
vt 0.1591 0.0000
vt 0.1649 0.2015
vt 0.0663 0.2015
vt 0.0000 0.0000
vt 0.1591 -0.0000
vt 0.0928 0.2015
vt -0.0058 0.2015
vt 0.0000 0.0000
vt 0.1536 0.0000
vt 0.0209 0.1874
vt -0.0743 0.1874
vt 0.0000 0.0000
vt 0.1536 -0.0000
vt 0.2278 0.1874
vt 0.1326 0.1874
vt 0.0000 0.0000
vt 0.1556 0.0000
vt -0.0364 0.1873
vt -0.1329 0.1873
vt 0.0000 0.0000
vt 0.1556 -0.0000
vt 0.2884 0.1873
vt 0.1920 0.1873
vt 0.0000 0.0000
vt 0.2653 0.0000
vt 0.3336 0.2082
vt 0.1691 0.2082
vt 0.0000 0.0000
vt 0.2653 -0.0000
vt 0.0963 0.2082
vt -0.0682 0.2082
vt 0.0000 0.0000
vt 0.1819 0.0000
vt 0.1592 0.1702
vt 0.0713 0.1702
vt 0.0000 0.0000
vt 0.1819 -0.0000
vt 0.1106 0.1702
vt 0.0226 0.1702
vt 0.0000 0.0000
vt 0.1672 0.0000
vt 0.0933 0.1712
vt 0.0124 0.1712
vt 0.0000 0.0000
vt 0.1672 -0.0000
vt 0.1547 0.1712
vt 0.0738 0.1712
vt 0.0000 0.0000
vt 0.1636 -0.0000
vt -0.0205 0.1576
vt -0.0997 0.1576
vt 0.0000 0.0000
vt 0.1635 -0.0000
vt 0.2632 0.1576
vt 0.1841 0.1576
vt 0.0000 0.0000
vt 0.1756 0.0000
vt 0.2769 0.1479
vt 0.1919 0.1479
vt 0.0000 0.0000
vt 0.1756 0.0000
vt -0.0163 0.1480
vt -0.1012 0.1480
vt 0.0000 0.0000
vt 0.1897 -0.0000
vt 0.2012 0.1420
vt 0.1094 0.1420
vt 0.0000 0.0000
vt 0.1897 0.0000
vt 0.0803 0.1420
vt -0.0115 0.1421
vt 0.0000 0.0000
vt 0.1970 -0.0000
vt 0.0985 0.1424
vt 0.0032 0.1424
vt 0.0000 0.0000
vt 0.1970 -0.0000
vt 0.1939 0.1425
vt 0.0985 0.1425
vt 0.0000 0.0000
vt 0.2040 -0.0000
vt 0.0052 0.1458
vt -0.0935 0.1458
vt 0.0000 0.0000
vt 0.2040 -0.0000
vt 0.2975 0.1458
vt 0.1988 0.1458
vt 0.0000 0.0000
vt 0.1103 -0.0000
vt 0.2092 0.1910
vt 0.1559 0.1910
vt 0.0000 0.0000
vt 0.1103 0.0000
vt -0.0456 0.1910
vt -0.0990 0.1910
vt 0.0000 0.0000
vt 0.1032 0.0000
vt 0.0271 0.2138
vt -0.0228 0.2138
vt 0.0000 0.0000
vt 0.1032 -0.0000
vt 0.1260 0.2139
vt 0.0761 0.2139
vt 0.0000 0.0000
vt 0.1312 -0.0000
vt 0.2383 0.1447
vt 0.1748 0.1447
vt 0.0000 0.0000
vt 0.1312 -0.0000
vt -0.0437 0.1447
vt -0.1071 0.1447
vt 0.0000 0.0000
vt 0.1014 -0.0000
vt -0.0350 0.1593
vt -0.0841 0.1593
vt 0.0000 0.0000
vt 0.1014 0.0000
vt 0.1854 0.1593
vt 0.1363 0.1593
vt 0.0000 0.0000
vt 0.0867 0.0000
vt -0.0248 0.1988
vt -0.0668 0.1988
vt 0.0000 0.0000
vt 0.0867 -0.0000
vt 0.1534 0.1988
vt 0.1115 0.1988
vt 0.0000 0.0000
vt 0.1119 -0.0000
vt 0.2549 0.1079
vt 0.2007 0.1079
vt 0.0000 0.0000
vt 0.1119 -0.0000
vt -0.0888 0.1079
vt -0.1429 0.1080
vt 0.0000 0.0000
vt 0.0712 0.0000
vt 0.0831 0.1724
vt 0.0486 0.1724
vt 0.0000 0.0000
vt 0.0712 -0.0000
vt 0.0226 0.1724
vt -0.0118 0.1724
vt 0.0000 0.0000
vt 0.0993 0.0000
vt 0.1670 0.1254
vt 0.1189 0.1254
vt 0.0000 0.0000
vt 0.0993 0.0000
vt -0.0196 0.1254
vt -0.0677 0.1254
vt 0.0000 0.0000
vt 0.1160 0.0000
vt -0.0108 0.1258
vt -0.0669 0.1258
vt 0.0000 0.0000
vt 0.1160 -0.0000
vt 0.1830 0.1258
vt 0.1269 0.1258
vt 0.0000 0.0000
vt 0.0986 0.0000
vt 0.1036 0.1697
vt 0.0558 0.1697
vt 0.0000 0.0000
vt 0.0986 -0.0000
vt 0.0428 0.1697
vt -0.0049 0.1697
vt 0.0000 0.0000
vt 0.0952 -0.0000
vt -0.0164 0.1578
vt -0.0625 0.1578
vt 0.0000 0.0000
vt 0.0952 0.0000
vt 0.1577 0.1579
vt 0.1117 0.1579
vt 0.0000 0.0000
vt 0.0965 -0.0000
vt -0.0651 0.1577
vt -0.1118 0.1577
vt 0.0000 0.0000
vt 0.0965 -0.0000
vt 0.2083 0.1577
vt 0.1616 0.1578
vt 0.0000 0.0000
vt 0.1645 -0.0000
vt 0.2219 0.1753
vt 0.1423 0.1753
vt 0.0000 0.0000
vt 0.1645 0.0000
vt 0.0221 0.1754
vt -0.0574 0.1753
vt 0.0000 0.0000
vt 0.0880 -0.0000
vt 0.0668 0.1595
vt 0.0000 0.0000
vt 0.0880 -0.0000
vt 0.0213 0.1597
vt 0.0000 0.0000
vt 0.0809 0.0000
vt 0.0116 0.1605
vt 0.0000 0.0000
vt 0.0809 -0.0000
vt 0.0693 0.1607
vt 0.0000 0.0000
vt 0.0791 -0.0000
vt -0.0934 0.1477
vt 0.0000 0.0000
vt 0.0791 0.0000
vt 0.1726 0.1480
vt 0.0000 0.0000
vt 0.0850 -0.0000
vt 0.1799 0.1387
vt 0.0000 0.0000
vt 0.0850 0.0000
vt -0.0950 0.1389
vt 0.0000 0.0000
vt 0.0918 0.0000
vt 0.1026 0.1331
vt 0.0000 0.0000
vt 0.0918 0.0000
vt -0.0108 0.1334
vt 0.0000 0.0000
vt 0.0953 -0.0000
vt 0.0030 0.1335
vt 0.0000 0.0000
vt 0.0953 0.0000
vt 0.0923 0.1338
vt 0.0000 0.0000
vt 0.0987 -0.0000
vt -0.0877 0.1366
vt 0.0000 0.0000
vt 0.0987 -0.0000
vt 0.1863 0.1369
vt 0.0000 0.0000
vt 0.0534 0.0000
vt 0.1461 0.1790
vt 0.0000 0.0000
vt 0.0534 -0.0000
vt -0.0926 0.1792
vt 0.0000 0.0000
vt 0.0499 0.0000
vt -0.0214 0.2005
vt 0.0000 0.0000
vt 0.0499 -0.0000
vt 0.0714 0.2006
vt 0.0000 0.0000
vt 0.0635 0.0000
vt 0.1639 0.1357
vt 0.0000 0.0000
vt 0.0635 -0.0000
vt -0.1004 0.1360
vt 0.0000 0.0000
vt 0.0491 0.0000
vt -0.0788 0.1493
vt 0.0000 0.0000
vt 0.0491 0.0000
vt 0.1279 0.1495
vt 0.0000 0.0000
vt 0.0420 -0.0000
vt -0.0626 0.1863
vt 0.0000 0.0000
vt 0.0420 -0.0000
vt 0.1046 0.1865
vt 0.0000 0.0000
vt 0.0541 0.0000
vt 0.1882 0.1012
vt 0.0000 0.0000
vt 0.0541 -0.0000
vt -0.1341 0.1015
vt 0.0000 0.0000
vt 0.0345 -0.0000
vt 0.0456 0.1616
vt 0.0000 0.0000
vt 0.0345 -0.0000
vt -0.0112 0.1619
vt 0.0000 0.0000
vt 0.0480 -0.0000
vt 0.1115 0.1175
vt 0.0000 0.0000
vt 0.0480 0.0000
vt -0.0635 0.1178
vt 0.0000 0.0000
vt 0.0561 -0.0000
vt -0.0628 0.1179
vt 0.0000 0.0000
vt 0.0561 0.0000
vt 0.1188 0.1182
vt 0.0000 0.0000
vt 0.0477 0.0000
vt 0.0524 0.1591
vt 0.0000 0.0000
vt 0.0477 0.0000
vt -0.0047 0.1592
vt 0.0000 0.0000
vt 0.0461 0.0000
vt -0.0586 0.1480
vt 0.0000 0.0000
vt 0.0461 0.0000
vt 0.1046 0.1482
vt 0.0000 0.0000
vt 0.0467 -0.0000
vt -0.1048 0.1478
vt 0.0000 0.0000
vt 0.0467 -0.0000
vt 0.1514 0.1481
vt 0.0000 0.0000
vt 0.0796 0.0000
vt 0.1334 0.1644
vt 0.0000 0.0000
vt 0.0796 0.0000
vt -0.0537 0.1646
vt 0.0000 0.0000
vt 0.0682 0.0000
vt 0.0003 0.5372
vt 0.0003 0.5490
vt 0.0000 0.0000
vt 0.0682 0.0000
vt 0.0002 0.5289
vt -0.0002 0.5457
vt 0.0000 0.0000
vt 0.0682 0.0000
vt 0.0003 0.5320
vt 0.0003 0.5373
vt 0.0000 0.0000
vt 0.0682 -0.0000
vt 0.0002 0.5405
vt -0.0002 0.5406
vt 0.0000 0.0000
vt 0.0682 -0.0000
vt 0.0268 0.5491
vt 0.0268 0.5267
vt 0.0000 0.0000
vt 0.0682 0.0000
vt 0.0750 0.5533
vt 0.0695 0.5500
vt 0.0000 0.0000
vt 0.0682 -0.0000
vt -0.0260 0.5204
vt -0.0260 0.5569
vt 0.0000 0.0000
vt 0.0682 0.0000
vt -0.0585 0.5079
vt -0.0639 0.5281
vt 0.0000 0.0000
vt 0.0682 -0.0000
vt -0.2334 0.4583
vt -0.2334 0.4733
vt 0.0000 0.0000
vt 0.0682 -0.0000
vt -0.0992 0.5289
vt -0.0925 0.5448
vt 0.0000 0.0000
vt 0.0682 0.0000
vt 0.2378 0.5016
vt 0.2378 0.5056
vt 0.0000 0.0000
vt 0.0682 0.0000
vt 0.0952 0.5227
vt 0.1018 0.5240
vt 0.0000 0.0000
vt 0.0682 0.0000
vt 0.0374 0.5388
vt 0.0374 0.5473
vt 0.0000 0.0000
vt 0.0682 0.0000
vt 0.0487 0.5331
vt 0.0492 0.5417
vt 0.0000 0.0000
vt 0.0682 0.0000
vt -0.0372 0.5278
vt -0.0372 0.5365
vt 0.0000 0.0000
vt 0.0682 -0.0000
vt -0.0489 0.5316
vt -0.0484 0.5403
vt 0.0000 0.0000
vt 0.0682 0.0000
vt 0.0682 0.0682
vt 0.0000 0.0682
vt 0.0000 0.0000
vt 0.0682 -0.0000
vt 0.0682 0.0682
vt 0.0000 0.0682
vt 0.0000 0.0000
vt 0.0878 0.0000
vt 0.0000 0.6139
vt 0.0000 0.6165
vt 0.0000 0.0000
vt 0.0878 0.0000
vt 0.0001 0.6117
vt 0.0004 0.6264
vt 0.0000 0.0000
vt 0.0878 0.0000
vt 0.0000 0.6019
vt 0.0000 0.6240
vt 0.0000 0.0000
vt 0.0878 0.0000
vt 0.0001 0.6040
vt 0.0004 0.6142
vt 0.0000 0.0000
vt 0.0878 -0.0000
vt -0.0662 0.5882
vt -0.0662 0.6010
vt 0.0000 0.0000
vt 0.0878 -0.0000
vt 0.0171 0.6259
vt 0.0161 0.6140
vt 0.0000 0.0000
vt 0.0878 0.0000
vt 0.0728 0.6195
vt 0.0728 0.6317
vt 0.0000 0.0000
vt 0.0878 0.0000
vt -0.0161 0.5902
vt -0.0170 0.6255
vt 0.0000 0.0000
vt 0.0878 -0.0000
vt 0.0043 0.5809
vt 0.0043 0.5851
vt 0.0000 0.0000
vt 0.0878 0.0000
vt -0.1703 0.5956
vt -0.1635 0.5704
vt 0.0000 0.0000
vt 0.0878 0.0000
vt 0.0043 0.6348
vt 0.0043 0.6545
vt 0.0000 0.0000
vt 0.0878 0.0000
vt 0.1650 0.5753
vt 0.1717 0.6228
vt 0.0000 0.0000
vt 0.0878 0.0000
vt -0.0591 0.5816
vt -0.0591 0.5939
vt 0.0000 0.0000
vt 0.0878 0.0000
vt -0.2605 0.5330
vt -0.2569 0.5490
vt 0.0000 0.0000
vt 0.0878 -0.0000
vt 0.0595 0.6283
vt 0.0595 0.6398
vt 0.0000 0.0000
vt 0.0878 -0.0000
vt 0.2654 0.5632
vt 0.2691 0.5751
vt 0.0000 0.0000
vt 0.0878 0.0000
vt 0.0878 0.0878
vt -0.0000 0.0878
vt 0.0000 0.0000
vt 0.0878 0.0000
vt 0.0878 0.0878
vt 0.0000 0.0878
vt 0.0000 0.0000
vt 0.0635 0.0000
vt 0.0028 0.6425
vt 0.0028 0.6381
vt 0.0000 0.0000
vt 0.0635 0.0000
vt -0.0017 0.6176
vt 0.0027 0.6484
vt 0.0000 0.0000
vt 0.0635 0.0000
vt 0.0028 0.6062
vt 0.0028 0.6235
vt 0.0000 0.0000
vt 0.0635 0.0000
vt -0.0017 0.6319
vt 0.0027 0.6122
vt 0.0000 0.0000
vt 0.0635 0.0000
vt -0.1065 0.6172
vt -0.1065 0.6366
vt 0.0000 0.0000
vt 0.0635 -0.0000
vt 0.2542 0.5817
vt 0.2524 0.5914
vt 0.0000 0.0000
vt 0.0635 0.0000
vt 0.1071 0.6132
vt 0.1071 0.6059
vt 0.0000 0.0000
vt 0.0635 0.0000
vt -0.2510 0.5600
vt -0.2529 0.5639
vt 0.0000 0.0000
vt 0.0635 0.0000
vt 0.1319 0.6177
vt 0.1319 0.6136
vt 0.0000 0.0000
vt 0.0635 0.0000
vt 0.0215 0.6290
vt 0.0220 0.6244
vt 0.0000 0.0000
vt 0.0635 -0.0000
vt -0.1319 0.6027
vt -0.1319 0.6197
vt 0.0000 0.0000
vt 0.0635 0.0000
vt -0.0206 0.6189
vt -0.0202 0.6362
vt 0.0000 0.0000
vt 0.0635 0.0000
vt -0.1026 0.6048
vt -0.1026 0.6113
vt 0.0000 0.0000
vt 0.0635 -0.0000
vt -0.1097 0.6142
vt -0.1079 0.6211
vt 0.0000 0.0000
vt 0.0635 0.0000
vt 0.1035 0.6265
vt 0.1035 0.6329
vt 0.0000 0.0000
vt 0.0635 0.0000
vt 0.1089 0.6150
vt 0.1107 0.6212
vt 0.0000 0.0000
vt 0.0635 0.0000
vt 0.0635 0.0635
vt -0.0000 0.0635
vt 0.0000 0.0000
vt 0.0635 0.0000
vt 0.0635 0.0635
vt -0.0000 0.0635
vt 0.0000 0.0000
vt 0.0828 0.0000
vt 0.0002 0.4103
vt 0.0002 0.4227
vt 0.0000 0.0000
vt 0.0828 -0.0000
vt 0.0002 0.4187
vt -0.0001 0.4265
vt 0.0000 0.0000
vt 0.0828 0.0000
vt 0.0002 0.4152
vt 0.0002 0.4346
vt 0.0000 0.0000
vt 0.0828 0.0000
vt 0.0002 0.4070
vt -0.0001 0.4309
vt 0.0000 0.0000
vt 0.0828 0.0000
vt -0.0191 0.4118
vt -0.0191 0.4298
vt 0.0000 0.0000
vt 0.0828 0.0000
vt -0.0413 0.4012
vt -0.0425 0.4297
vt 0.0000 0.0000
vt 0.0828 -0.0000
vt 0.0197 0.4128
vt 0.0197 0.4266
vt 0.0000 0.0000
vt 0.0828 0.0000
vt 0.0432 0.4204
vt 0.0420 0.4234
vt 0.0000 0.0000
vt 0.0828 0.0000
vt 0.0122 0.4292
vt 0.0122 0.4418
vt 0.0000 0.0000
vt 0.0828 0.0000
vt 0.0658 0.4078
vt 0.0691 0.4372
vt 0.0000 0.0000
vt 0.0828 0.0000
vt -0.0105 0.3960
vt -0.0105 0.4153
vt 0.0000 0.0000
vt 0.0828 0.0000
vt -0.0675 0.4073
vt -0.0643 0.4097
vt 0.0000 0.0000
vt 0.0828 0.0000
vt -0.0151 0.4184
vt -0.0151 0.4341
vt 0.0000 0.0000
vt 0.0828 0.0000
vt 0.0753 0.4149
vt 0.0747 0.4309
vt 0.0000 0.0000
vt 0.0828 -0.0000
vt 0.0151 0.4065
vt 0.0151 0.4226
vt 0.0000 0.0000
vt 0.0828 -0.0000
vt -0.0734 0.3971
vt -0.0740 0.4135
vt 0.0000 0.0000
vt 0.0828 0.0000
vt 0.0828 0.0828
vt -0.0000 0.0828
vt 0.0000 0.0000
vt 0.0828 0.0000
vt 0.0828 0.0828
vt -0.0000 0.0828
vt 0.0000 0.0000
vt 0.0802 0.0000
vt 0.0003 0.3664
vt 0.0003 0.3633
vt 0.0000 0.0000
vt 0.0802 0.0000
vt 0.0025 0.3759
vt 0.0001 0.3835
vt 0.0000 0.0000
vt 0.0802 0.0000
vt 0.0003 0.3569
vt 0.0003 0.3920
vt 0.0000 0.0000
vt 0.0802 -0.0000
vt 0.0025 0.3467
vt 0.0001 0.3728
vt 0.0000 0.0000
vt 0.0802 0.0000
vt -0.0926 0.3400
vt -0.0926 0.3562
vt 0.0000 0.0000
vt 0.0802 -0.0000
vt -0.0428 0.3603
vt -0.0418 0.3872
vt 0.0000 0.0000
vt 0.0802 -0.0000
vt 0.0932 0.3581
vt 0.0932 0.3768
vt 0.0000 0.0000
vt 0.0802 0.0000
vt 0.0422 0.3573
vt 0.0431 0.3641
vt 0.0000 0.0000
vt 0.0802 -0.0000
vt -0.0080 0.3635
vt -0.0080 0.3863
vt 0.0000 0.0000
vt 0.0802 0.0000
vt 0.0488 0.3601
vt 0.0488 0.3787
vt 0.0000 0.0000
vt 0.0802 0.0000
vt 0.0080 0.3588
vt 0.0080 0.3697
vt 0.0000 0.0000
vt 0.0802 0.0000
vt -0.0487 0.3557
vt -0.0487 0.3713
vt 0.0000 0.0000
vt 0.0802 -0.0000
vt 0.0297 0.3641
vt 0.0297 0.3810
vt 0.0000 0.0000
vt 0.0802 0.0000
vt 0.0078 0.3587
vt 0.0079 0.3758
vt 0.0000 0.0000
vt 0.0802 -0.0000
vt -0.0294 0.3558
vt -0.0294 0.3731
vt 0.0000 0.0000
vt 0.0802 0.0000
vt -0.0079 0.3635
vt -0.0078 0.3804
vt 0.0000 0.0000
vt 0.0802 -0.0000
vt 0.0802 0.0802
vt -0.0000 0.0802
vt 0.0000 0.0000
vt 0.0802 0.0000
vt 0.0802 0.0802
vt 0.0000 0.0802
vt 0.0000 0.0000
vt 0.0782 0.0000
vt 0.0012 0.4185
vt 0.0012 0.4418
vt 0.0000 0.0000
vt 0.0782 -0.0000
vt 0.0015 0.3998
vt -0.0009 0.4320
vt 0.0000 0.0000
vt 0.0782 -0.0000
vt 0.0012 0.4087
vt 0.0012 0.4133
vt 0.0000 0.0000
vt 0.0782 0.0000
vt 0.0015 0.4281
vt -0.0009 0.4232
vt 0.0000 0.0000
vt 0.0782 0.0000
vt 0.0539 0.4294
vt 0.0539 0.4293
vt 0.0000 0.0000
vt 0.0782 0.0000
vt 0.1045 0.4145
vt 0.1068 0.4239
vt 0.0000 0.0000
vt 0.0782 0.0000
vt -0.0537 0.3911
vt -0.0537 0.4191
vt 0.0000 0.0000
vt 0.0782 0.0000
vt -0.0997 0.3871
vt -0.0974 0.4077
vt 0.0000 0.0000
vt 0.0782 0.0000
vt -0.0744 0.4001
vt -0.0744 0.4041
vt 0.0000 0.0000
vt 0.0782 -0.0000
vt -0.0243 0.4252
vt -0.0257 0.4345
vt 0.0000 0.0000
vt 0.0782 0.0000
vt 0.0767 0.4133
vt 0.0767 0.4375
vt 0.0000 0.0000
vt 0.0782 0.0000
vt 0.0260 0.4004
vt 0.0245 0.4192
vt 0.0000 0.0000
vt 0.0782 0.0000
vt -0.0571 0.4018
vt -0.0571 0.4165
vt 0.0000 0.0000
vt 0.0782 0.0000
vt -0.0242 0.4160
vt -0.0236 0.4302
vt 0.0000 0.0000
vt 0.0782 0.0000
vt 0.0578 0.4172
vt 0.0578 0.4314
vt 0.0000 0.0000
vt 0.0782 0.0000
vt 0.0237 0.4097
vt 0.0243 0.4241
vt 0.0000 0.0000
vt 0.0782 0.0000
vt 0.0782 0.0782
vt -0.0000 0.0782
vt 0.0000 0.0000
vt 0.0782 -0.0000
vt 0.0782 0.0782
vt -0.0000 0.0782
usemtl concrete
f 1/1 2/2 3/3
f 1/1 3/3 4/4
f 5/5 6/6 7/7
f 5/5 7/7 8/8
f 9/9 10/10 11/11
f 9/9 11/11 12/12
f 13/13 14/14 15/15
f 13/13 15/15 16/16
f 17/17 18/18 19/19
f 17/17 19/19 20/20
f 21/21 22/22 23/23
f 21/21 23/23 24/24
f 25/25 26/26 27/27
f 25/25 27/27 28/28
f 29/29 30/30 31/31
f 29/29 31/31 32/32
f 33/33 34/34 35/35
f 33/33 35/35 36/36
f 37/37 38/38 39/39
f 37/37 39/39 40/40
f 41/41 42/42 43/43
f 41/41 43/43 44/44
f 45/45 46/46 47/47
f 45/45 47/47 48/48
f 49/49 50/50 51/51
f 49/49 51/51 52/52
f 53/53 54/54 55/55
f 53/53 55/55 56/56
f 57/57 58/58 59/59
f 57/57 59/59 60/60
f 61/61 62/62 63/63
f 61/61 63/63 64/64
f 65/65 66/66 67/67
f 65/65 67/67 68/68
f 69/69 70/70 71/71
f 69/69 71/71 72/72
f 73/73 74/74 75/75
f 73/73 75/75 76/76
f 77/77 78/78 79/79
f 77/77 79/79 80/80
f 81/81 82/82 83/83
f 81/81 83/83 84/84
f 85/85 86/86 87/87
f 85/85 87/87 88/88
f 89/89 90/90 91/91
f 89/89 91/91 92/92
f 93/93 94/94 95/95
f 93/93 95/95 96/96
f 97/97 98/98 99/99
f 97/97 99/99 100/100
f 101/101 102/102 103/103
f 101/101 103/103 104/104
f 105/105 106/106 107/107
f 105/105 107/107 108/108
f 109/109 110/110 111/111
f 109/109 111/111 112/112
f 113/113 114/114 115/115
f 113/113 115/115 116/116
f 117/117 118/118 119/119
f 117/117 119/119 120/120
f 121/121 122/122 123/123
f 121/121 123/123 124/124
f 125/125 126/126 127/127
f 125/125 127/127 128/128
f 129/129 130/130 131/131
f 129/129 131/131 132/132
f 133/133 134/134 135/135
f 133/133 135/135 136/136
f 137/137 138/138 139/139
f 137/137 139/139 140/140
f 141/141 142/142 143/143
f 141/141 143/143 144/144
f 145/145 146/146 147/147
f 145/145 147/147 148/148
f 149/149 150/150 151/151
f 149/149 151/151 152/152
f 153/153 154/154 155/155
f 153/153 155/155 156/156
f 157/157 158/158 159/159
f 157/157 159/159 160/160
f 161/161 162/162 163/163
f 161/161 163/163 164/164
f 165/165 166/166 167/167
f 165/165 167/167 168/168
f 169/169 170/170 171/171
f 169/169 171/171 172/172
f 173/173 174/174 175/175
f 173/173 175/175 176/176
f 177/177 178/178 179/179
f 177/177 179/179 180/180
f 181/181 182/182 183/183
f 181/181 183/183 184/184
f 185/185 186/186 187/187
f 185/185 187/187 188/188
f 189/189 190/190 191/191
f 189/189 191/191 192/192
f 193/193 194/194 195/195
f 193/193 195/195 196/196
f 197/197 198/198 199/199
f 197/197 199/199 200/200
f 201/201 202/202 203/203
f 201/201 203/203 204/204
f 205/205 206/206 207/207
f 205/205 207/207 208/208
f 209/209 210/210 211/211
f 209/209 211/211 212/212
f 213/213 214/214 215/215
f 213/213 215/215 216/216
f 217/217 218/218 219/219
f 217/217 219/219 220/220
f 221/221 222/222 223/223
f 221/221 223/223 224/224
f 225/225 226/226 227/227
f 225/225 227/227 228/228
f 229/229 230/230 231/231
f 229/229 231/231 232/232
f 233/233 234/234 235/235
f 233/233 235/235 236/236
f 237/237 238/238 239/239
f 237/237 239/239 240/240
f 241/241 242/242 243/243
f 241/241 243/243 244/244
f 245/245 246/246 247/247
f 245/245 247/247 248/248
f 249/249 250/250 251/251
f 249/249 251/251 252/252
f 253/253 254/254 255/255
f 253/253 255/255 256/256
f 257/257 258/258 259/259
f 257/257 259/259 260/260
f 261/261 262/262 263/263
f 261/261 263/263 264/264
f 265/265 266/266 267/267
f 265/265 267/267 268/268
f 269/269 270/270 271/271
f 269/269 271/271 272/272
f 273/273 274/274 275/275
f 273/273 275/275 276/276
f 277/277 278/278 279/279
f 277/277 279/279 280/280
f 281/281 282/282 283/283
f 281/281 283/283 284/284
f 285/285 286/286 287/287
f 285/285 287/287 288/288
f 289/289 290/290 291/291
f 289/289 291/291 292/292
f 293/293 294/294 295/295
f 293/293 295/295 296/296
f 297/297 298/298 299/299
f 297/297 299/299 300/300
f 301/301 302/302 303/303
f 301/301 303/303 304/304
f 305/305 306/306 307/307
f 305/305 307/307 308/308
f 309/309 310/310 311/311
f 309/309 311/311 312/312
f 313/313 314/314 315/315
f 313/313 315/315 316/316
f 317/317 318/318 319/319
f 317/317 319/319 320/320
f 321/321 322/322 323/323
f 321/321 323/323 324/324
f 325/325 326/326 327/327
f 325/325 327/327 328/328
f 329/329 330/330 331/331
f 329/329 331/331 332/332
f 333/333 334/334 335/335
f 333/333 335/335 336/336
f 337/337 338/338 339/339
f 337/337 339/339 340/340
f 341/341 342/342 343/343
f 341/341 343/343 344/344
f 345/345 346/346 347/347
f 345/345 347/347 348/348
f 349/349 350/350 351/351
f 349/349 351/351 352/352
f 353/353 354/354 355/355
f 353/353 355/355 356/356
f 357/357 358/358 359/359
f 357/357 359/359 360/360
f 361/361 362/362 363/363
f 361/361 363/363 364/364
f 365/365 366/366 367/367
f 365/365 367/367 368/368
f 369/369 370/370 371/371
f 369/369 371/371 372/372
f 373/373 374/374 375/375
f 373/373 375/375 376/376
f 377/377 378/378 379/379
f 377/377 379/379 380/380
f 381/381 382/382 383/383
f 381/381 383/383 384/384
f 385/385 386/386 387/387
f 385/385 387/387 388/388
f 389/389 390/390 391/391
f 389/389 391/391 392/392
f 393/393 394/394 395/395
f 393/393 395/395 396/396
f 397/397 398/398 399/399
f 397/397 399/399 400/400
f 401/401 402/402 403/403
f 404/404 405/405 406/406
f 407/407 408/408 409/409
f 410/410 411/411 412/412
f 413/413 414/414 415/415
f 416/416 417/417 418/418
f 419/419 420/420 421/421
f 422/422 423/423 424/424
f 425/425 426/426 427/427
f 428/428 429/429 430/430
f 431/431 432/432 433/433
f 434/434 435/435 436/436
f 437/437 438/438 439/439
f 440/440 441/441 442/442
f 443/443 444/444 445/445
f 446/446 447/447 448/448
f 449/449 450/450 451/451
f 452/452 453/453 454/454
f 455/455 456/456 457/457
f 458/458 459/459 460/460
f 461/461 462/462 463/463
f 464/464 465/465 466/466
f 467/467 468/468 469/469
f 470/470 471/471 472/472
f 473/473 474/474 475/475
f 476/476 477/477 478/478
f 479/479 480/480 481/481
f 482/482 483/483 484/484
f 485/485 486/486 487/487
f 488/488 489/489 490/490
f 491/491 492/492 493/493
f 494/494 495/495 496/496
f 497/497 498/498 499/499
f 500/500 501/501 502/502
f 503/503 504/504 505/505
f 506/506 507/507 508/508
f 509/509 510/510 511/511
f 512/512 513/513 514/514
f 515/515 516/516 517/517
f 518/518 519/519 520/520
usemtl rebar
f 521/521 522/522 523/523
f 521/521 523/523 524/524
f 525/525 526/526 527/527
f 525/525 527/527 528/528
f 529/529 530/530 531/531
f 529/529 531/531 532/532
f 533/533 534/534 535/535
f 533/533 535/535 536/536
f 537/537 538/538 539/539
f 537/537 539/539 540/540
f 541/541 542/542 543/543
f 541/541 543/543 544/544
f 545/545 546/546 547/547
f 545/545 547/547 548/548
f 549/549 550/550 551/551
f 549/549 551/551 552/552
f 553/553 554/554 555/555
f 553/553 555/555 556/556
f 557/557 558/558 559/559
f 557/557 559/559 560/560
f 561/561 562/562 563/563
f 561/561 563/563 564/564
f 565/565 566/566 567/567
f 565/565 567/567 568/568
f 569/569 570/570 571/571
f 569/569 571/571 572/572
f 573/573 574/574 575/575
f 573/573 575/575 576/576
f 577/577 578/578 579/579
f 577/577 579/579 580/580
f 581/581 582/582 583/583
f 581/581 583/583 584/584
f 585/585 586/586 587/587
f 585/585 587/587 588/588
f 589/589 590/590 591/591
f 589/589 591/591 592/592
f 593/593 594/594 595/595
f 593/593 595/595 596/596
f 597/597 598/598 599/599
f 597/597 599/599 600/600
f 601/601 602/602 603/603
f 601/601 603/603 604/604
f 605/605 606/606 607/607
f 605/605 607/607 608/608
f 609/609 610/610 611/611
f 609/609 611/611 612/612
f 613/613 614/614 615/615
f 613/613 615/615 616/616
f 617/617 618/618 619/619
f 617/617 619/619 620/620
f 621/621 622/622 623/623
f 621/621 623/623 624/624
f 625/625 626/626 627/627
f 625/625 627/627 628/628
f 629/629 630/630 631/631
f 629/629 631/631 632/632
f 633/633 634/634 635/635
f 633/633 635/635 636/636
f 637/637 638/638 639/639
f 637/637 639/639 640/640
f 641/641 642/642 643/643
f 641/641 643/643 644/644
f 645/645 646/646 647/647
f 645/645 647/647 648/648
f 649/649 650/650 651/651
f 649/649 651/651 652/652
f 653/653 654/654 655/655
f 653/653 655/655 656/656
f 657/657 658/658 659/659
f 657/657 659/659 660/660
f 661/661 662/662 663/663
f 661/661 663/663 664/664
f 665/665 666/666 667/667
f 665/665 667/667 668/668
f 669/669 670/670 671/671
f 669/669 671/671 672/672
f 673/673 674/674 675/675
f 673/673 675/675 676/676
f 677/677 678/678 679/679
f 677/677 679/679 680/680
f 681/681 682/682 683/683
f 681/681 683/683 684/684
f 685/685 686/686 687/687
f 685/685 687/687 688/688
f 689/689 690/690 691/691
f 689/689 691/691 692/692
f 693/693 694/694 695/695
f 693/693 695/695 696/696
f 697/697 698/698 699/699
f 697/697 699/699 700/700
f 701/701 702/702 703/703
f 701/701 703/703 704/704
f 705/705 706/706 707/707
f 705/705 707/707 708/708
f 709/709 710/710 711/711
f 709/709 711/711 712/712
f 713/713 714/714 715/715
f 713/713 715/715 716/716
f 717/717 718/718 719/719
f 717/717 719/719 720/720
f 721/721 722/722 723/723
f 721/721 723/723 724/724
f 725/725 726/726 727/727
f 725/725 727/727 728/728
f 729/729 730/730 731/731
f 729/729 731/731 732/732
f 733/733 734/734 735/735
f 733/733 735/735 736/736
f 737/737 738/738 739/739
f 737/737 739/739 740/740
f 741/741 742/742 743/743
f 741/741 743/743 744/744
f 745/745 746/746 747/747
f 745/745 747/747 748/748
f 749/749 750/750 751/751
f 749/749 751/751 752/752
f 753/753 754/754 755/755
f 753/753 755/755 756/756
f 757/757 758/758 759/759
f 757/757 759/759 760/760
f 761/761 762/762 763/763
f 761/761 763/763 764/764
f 765/765 766/766 767/767
f 765/765 767/767 768/768
f 769/769 770/770 771/771
f 769/769 771/771 772/772
f 773/773 774/774 775/775
f 773/773 775/775 776/776
f 777/777 778/778 779/779
f 777/777 779/779 780/780
f 781/781 782/782 783/783
f 781/781 783/783 784/784
f 785/785 786/786 787/787
f 785/785 787/787 788/788
f 789/789 790/790 791/791
f 789/789 791/791 792/792
f 793/793 794/794 795/795
f 793/793 795/795 796/796
f 797/797 798/798 799/799
f 797/797 799/799 800/800
f 801/801 802/802 803/803
f 801/801 803/803 804/804
f 805/805 806/806 807/807
f 805/805 807/807 808/808
f 809/809 810/810 811/811
f 809/809 811/811 812/812
f 813/813 814/814 815/815
f 813/813 815/815 816/816
f 817/817 818/818 819/819
f 817/817 819/819 820/820
f 821/821 822/822 823/823
f 821/821 823/823 824/824
f 825/825 826/826 827/827
f 825/825 827/827 828/828
f 829/829 830/830 831/831
f 829/829 831/831 832/832
f 833/833 834/834 835/835
f 833/833 835/835 836/836
f 837/837 838/838 839/839
f 837/837 839/839 840/840
f 841/841 842/842 843/843
f 841/841 843/843 844/844
f 845/845 846/846 847/847
f 845/845 847/847 848/848
f 849/849 850/850 851/851
f 849/849 851/851 852/852
f 853/853 854/854 855/855
f 853/853 855/855 856/856
f 857/857 858/858 859/859
f 857/857 859/859 860/860
f 861/861 862/862 863/863
f 861/861 863/863 864/864
f 865/865 866/866 867/867
f 865/865 867/867 868/868
f 869/869 870/870 871/871
f 869/869 871/871 872/872
f 873/873 874/874 875/875
f 873/873 875/875 876/876
f 877/877 878/878 879/879
f 877/877 879/879 880/880
f 881/881 882/882 883/883
f 881/881 883/883 884/884
f 885/885 886/886 887/887
f 885/885 887/887 888/888
f 889/889 890/890 891/891
f 889/889 891/891 892/892
f 893/893 894/894 895/895
f 893/893 895/895 896/896
f 897/897 898/898 899/899
f 897/897 899/899 900/900
f 901/901 902/902 903/903
f 901/901 903/903 904/904
f 905/905 906/906 907/907
f 905/905 907/907 908/908
f 909/909 910/910 911/911
f 909/909 911/911 912/912
f 913/913 914/914 915/915
f 913/913 915/915 916/916
f 917/917 918/918 919/919
f 917/917 919/919 920/920
f 921/921 922/922 923/923
f 921/921 923/923 924/924
f 925/925 926/926 927/927
f 925/925 927/927 928/928
f 929/929 930/930 931/931
f 929/929 931/931 932/932
f 933/933 934/934 935/935
f 933/933 935/935 936/936
f 937/937 938/938 939/939
f 937/937 939/939 940/940
f 941/941 942/942 943/943
f 941/941 943/943 944/944
f 945/945 946/946 947/947
f 945/945 947/947 948/948
f 949/949 950/950 951/951
f 949/949 951/951 952/952
