# S_slab_0 (Sightline generated, CENTIMETRES, +Z up)
v -54.37 -3.26 -8.53
v -67.79 -9.51 -8.80
v -67.79 -9.51 7.09
v -54.37 -3.26 7.37
v -67.79 -9.51 -8.80
v -71.84 -15.73 -8.88
v -71.84 -15.73 7.01
v -67.79 -9.51 7.09
v -71.84 -15.73 -8.88
v -69.99 -20.70 -8.85
v -69.99 -20.70 7.04
v -71.84 -15.73 7.01
v -69.99 -20.70 -8.85
v -52.45 -23.87 -8.54
v -52.45 -23.87 7.36
v -69.99 -20.70 7.04
v -52.45 -23.87 -8.54
v -35.30 -26.96 -8.43
v -35.30 -26.96 7.48
v -52.45 -23.87 7.36
v -35.30 -26.96 -8.43
v -18.14 -29.33 -8.46
v -18.14 -29.33 7.44
v -35.30 -26.96 7.48
v -18.14 -29.33 -8.46
v -2.23 -33.76 -8.75
v -2.23 -33.76 7.14
v -18.14 -29.33 7.44
v -2.23 -33.76 -8.75
v 14.23 -36.85 -9.16
v 14.23 -36.85 6.72
v -2.23 -33.76 7.14
v 14.23 -36.85 -9.16
v 35.53 -46.56 -10.39
v 35.53 -46.56 5.46
v 14.23 -36.85 6.72
v 35.53 -46.56 -10.39
v 32.82 -25.55 -8.93
v 32.82 -25.55 6.96
v 35.53 -46.56 5.46
v 32.82 -25.55 -8.93
v 42.64 -18.35 -8.84
v 42.64 -18.35 7.05
v 32.82 -25.55 6.96
v 42.64 -18.35 -8.84
v 64.37 -11.90 -9.21
v 64.37 -11.90 6.67
v 42.64 -18.35 7.05
v 64.37 -11.90 -9.21
v 72.62 -0.18 -9.10
v 72.62 -0.18 6.78
v 64.37 -11.90 6.67
v 72.62 -0.18 -9.10
v 69.01 9.56 -8.83
v 69.01 9.56 7.06
v 72.62 -0.18 6.78
v 69.01 9.56 -8.83
v 58.42 16.67 -8.56
v 58.42 16.67 7.33
v 69.01 9.56 7.06
v 58.42 16.67 -8.56
v 55.46 28.74 -8.69
v 55.46 28.74 7.20
v 58.42 16.67 7.33
v 55.46 28.74 -8.69
v 34.16 32.24 -8.59
v 34.16 32.24 7.30
v 55.46 28.74 7.20
v 34.16 32.24 -8.59
v 14.16 27.91 -8.42
v 14.16 27.91 7.48
v 34.16 32.24 7.30
v 14.16 27.91 -8.42
v 5.27 41.72 -9.16
v 5.27 41.72 6.72
v 14.16 27.91 7.48
v 5.27 41.72 -9.16
v -4.06 37.74 -9.05
v -4.06 37.74 6.84
v 5.27 41.72 6.72
v -4.06 37.74 -9.05
v -12.43 31.93 -8.85
v -12.43 31.93 7.04
v -4.06 37.74 6.84
v -12.43 31.93 -8.85
v -18.10 24.62 -8.60
v -18.10 24.62 7.30
v -12.43 31.93 7.04
v -18.10 24.62 -8.60
v -29.16 24.93 -8.82
v -29.16 24.93 7.07
v -18.10 24.62 7.30
v -29.16 24.93 -8.82
v -42.83 24.72 -9.14
v -42.83 24.72 6.74
v -29.16 24.93 7.07
v -42.83 24.72 -9.14
v -61.80 24.82 -9.75
v -61.80 24.82 6.11
v -42.83 24.72 6.74
v -61.80 24.82 -9.75
v -58.04 16.28 -9.18
v -58.04 16.28 6.69
v -61.80 24.82 6.11
v -58.04 16.28 -9.18
v -68.97 13.27 -9.42
v -68.97 13.27 6.45
v -58.04 16.28 6.69
v -68.97 13.27 -9.42
v -62.81 6.68 -8.97
v -62.81 6.68 6.91
v -68.97 13.27 6.45
v -62.81 6.68 -8.97
v -71.52 1.59 -9.10
v -71.52 1.59 6.78
v -62.81 6.68 6.91
v -71.52 1.59 -9.10
v -54.37 -3.26 -8.53
v -54.37 -3.26 7.37
v -71.52 1.59 6.78
v -54.37 -3.26 7.37
v -67.79 -9.51 7.09
v -35.25 -4.95 7.76
v -28.27 -1.69 7.83
v -67.79 -9.51 -8.80
v -54.37 -3.26 -8.53
v -28.27 -1.69 -8.03
v -35.25 -4.95 -8.11
v -67.79 -9.51 7.09
v -71.84 -15.73 7.01
v -37.35 -8.18 7.73
v -35.25 -4.95 7.76
v -71.84 -15.73 -8.88
v -67.79 -9.51 -8.80
v -35.25 -4.95 -8.11
v -37.35 -8.18 -8.13
v -71.84 -15.73 7.01
v -69.99 -20.70 7.04
v -36.40 -10.77 7.74
v -37.35 -8.18 7.73
v -69.99 -20.70 -8.85
v -71.84 -15.73 -8.88
v -37.35 -8.18 -8.13
v -36.40 -10.77 -8.12
v -69.99 -20.70 7.04
v -52.45 -23.87 7.36
v -27.27 -12.41 7.83
v -36.40 -10.77 7.74
v -52.45 -23.87 -8.54
v -69.99 -20.70 -8.85
v -36.40 -10.77 -8.12
v -27.27 -12.41 -8.04
v -52.45 -23.87 7.36
v -35.30 -26.96 7.48
v -18.36 -14.02 7.86
v -27.27 -12.41 7.83
v -35.30 -26.96 -8.43
v -52.45 -23.87 -8.54
v -27.27 -12.41 -8.04
v -18.36 -14.02 -8.01
v -35.30 -26.96 7.48
v -18.14 -29.33 7.44
v -9.44 -15.25 7.85
v -18.36 -14.02 7.86
v -18.14 -29.33 -8.46
v -35.30 -26.96 -8.43
v -18.36 -14.02 -8.01
v -9.44 -15.25 -8.02
v -18.14 -29.33 7.44
v -2.23 -33.76 7.14
v -1.16 -17.55 7.77
v -9.44 -15.25 7.85
v -2.23 -33.76 -8.75
v -18.14 -29.33 -8.46
v -9.44 -15.25 -8.02
v -1.16 -17.55 -8.09
v -2.23 -33.76 7.14
v 14.23 -36.85 6.72
v 7.40 -19.16 7.65
v -1.16 -17.55 7.77
v 14.23 -36.85 -9.16
v -2.23 -33.76 -8.75
v -1.16 -17.55 -8.09
v 7.40 -19.16 -8.20
v 14.23 -36.85 6.72
v 35.53 -46.56 5.46
v 18.47 -24.21 7.31
v 7.40 -19.16 7.65
v 35.53 -46.56 -10.39
v 14.23 -36.85 -9.16
v 7.40 -19.16 -8.20
v 18.47 -24.21 -8.54
v 35.53 -46.56 5.46
v 32.82 -25.55 6.96
v 17.07 -13.29 7.72
v 18.47 -24.21 7.31
v 32.82 -25.55 -8.93
v 35.53 -46.56 -10.39
v 18.47 -24.21 -8.54
v 17.07 -13.29 -8.14
v 32.82 -25.55 6.96
v 42.64 -18.35 7.05
v 22.17 -9.54 7.74
v 17.07 -13.29 7.72
v 42.64 -18.35 -8.84
v 32.82 -25.55 -8.93
v 17.07 -13.29 -8.14
v 22.17 -9.54 -8.12
v 42.64 -18.35 7.05
v 64.37 -11.90 6.67
v 33.47 -6.19 7.64
v 22.17 -9.54 7.74
v 64.37 -11.90 -9.21
v 42.64 -18.35 -8.84
v 22.17 -9.54 -8.12
v 33.47 -6.19 -8.22
v 64.37 -11.90 6.67
v 72.62 -0.18 6.78
v 37.76 -0.09 7.67
v 33.47 -6.19 7.64
v 72.62 -0.18 -9.10
v 64.37 -11.90 -9.21
v 33.47 -6.19 -8.22
v 37.76 -0.09 -8.19
v 72.62 -0.18 6.78
v 69.01 9.56 7.06
v 35.89 4.97 7.75
v 37.76 -0.09 7.67
v 69.01 9.56 -8.83
v 72.62 -0.18 -9.10
v 37.76 -0.09 -8.19
v 35.89 4.97 -8.11
v 69.01 9.56 7.06
v 58.42 16.67 7.33
v 30.38 8.67 7.82
v 35.89 4.97 7.75
v 58.42 16.67 -8.56
v 69.01 9.56 -8.83
v 35.89 4.97 -8.11
v 30.38 8.67 -8.04
v 58.42 16.67 7.33
v 55.46 28.74 7.20
v 28.84 14.95 7.78
v 30.38 8.67 7.82
v 55.46 28.74 -8.69
v 58.42 16.67 -8.56
v 30.38 8.67 -8.04
v 28.84 14.95 -8.08
v 55.46 28.74 7.20
v 34.16 32.24 7.30
v 17.76 16.77 7.81
v 28.84 14.95 7.78
v 34.16 32.24 -8.59
v 55.46 28.74 -8.69
v 28.84 14.95 -8.08
v 17.76 16.77 -8.05
v 34.16 32.24 7.30
v 14.16 27.91 7.48
v 7.37 14.51 7.86
v 17.76 16.77 7.81
v 14.16 27.91 -8.42
v 34.16 32.24 -8.59
v 17.76 16.77 -8.05
v 7.37 14.51 -8.00
v 14.16 27.91 7.48
v 5.27 41.72 6.72
v 2.74 21.69 7.65
v 7.37 14.51 7.86
v 5.27 41.72 -9.16
v 14.16 27.91 -8.42
v 7.37 14.51 -8.00
v 2.74 21.69 -8.20
v 5.27 41.72 6.72
v -4.06 37.74 6.84
v -2.11 19.62 7.69
v 2.74 21.69 7.65
v -4.06 37.74 -9.05
v 5.27 41.72 -9.16
v 2.74 21.69 -8.20
v -2.11 19.62 -8.17
v -4.06 37.74 6.84
v -12.43 31.93 7.04
v -6.46 16.60 7.74
v -2.11 19.62 7.69
v -12.43 31.93 -8.85
v -4.06 37.74 -9.05
v -2.11 19.62 -8.17
v -6.46 16.60 -8.12
v -12.43 31.93 7.04
v -18.10 24.62 7.30
v -9.41 12.80 7.81
v -6.46 16.60 7.74
v -18.10 24.62 -8.60
v -12.43 31.93 -8.85
v -6.46 16.60 -8.12
v -9.41 12.80 -8.05
v -18.10 24.62 7.30
v -29.16 24.93 7.07
v -15.17 12.96 7.75
v -9.41 12.80 7.81
v -29.16 24.93 -8.82
v -18.10 24.62 -8.60
v -9.41 12.80 -8.05
v -15.17 12.96 -8.11
v -29.16 24.93 7.07
v -42.83 24.72 6.74
v -22.27 12.85 7.66
v -15.17 12.96 7.75
v -42.83 24.72 -9.14
v -29.16 24.93 -8.82
v -15.17 12.96 -8.11
v -22.27 12.85 -8.20
v -42.83 24.72 6.74
v -61.80 24.82 6.11
v -32.14 12.91 7.49
v -22.27 12.85 7.66
v -61.80 24.82 -9.75
v -42.83 24.72 -9.14
v -22.27 12.85 -8.20
v -32.14 12.91 -8.36
v -61.80 24.82 6.11
v -58.04 16.28 6.69
v -30.18 8.47 7.65
v -32.14 12.91 7.49
v -58.04 16.28 -9.18
v -61.80 24.82 -9.75
v -32.14 12.91 -8.36
v -30.18 8.47 -8.21
v -58.04 16.28 6.69
v -68.97 13.27 6.45
v -35.86 6.90 7.58
v -30.18 8.47 7.65
v -68.97 13.27 -9.42
v -58.04 16.28 -9.18
v -30.18 8.47 -8.21
v -35.86 6.90 -8.27
v -68.97 13.27 6.45
v -62.81 6.68 6.91
v -32.66 3.47 7.71
v -35.86 6.90 7.58
v -62.81 6.68 -8.97
v -68.97 13.27 -9.42
v -35.86 6.90 -8.27
v -32.66 3.47 -8.15
v -62.81 6.68 6.91
v -71.52 1.59 6.78
v -37.19 0.83 7.67
v -32.66 3.47 7.71
v -71.52 1.59 -9.10
v -62.81 6.68 -8.97
v -32.66 3.47 -8.15
v -37.19 0.83 -8.19
v -71.52 1.59 6.78
v -54.37 -3.26 7.37
v -28.27 -1.69 7.83
v -37.19 0.83 7.67
v -54.37 -3.26 -8.53
v -71.52 1.59 -9.10
v -37.19 0.83 -8.19
v -28.27 -1.69 -8.03
v -28.27 -1.69 7.83
v -35.25 -4.95 7.76
v 0.00 0.00 8.00
v -35.25 -4.95 -8.11
v -28.27 -1.69 -8.03
v 0.00 0.00 -8.00
v -35.25 -4.95 7.76
v -37.35 -8.18 7.73
v 0.00 0.00 8.00
v -37.35 -8.18 -8.13
v -35.25 -4.95 -8.11
v 0.00 0.00 -8.00
v -37.35 -8.18 7.73
v -36.40 -10.77 7.74
v 0.00 0.00 8.00
v -36.40 -10.77 -8.12
v -37.35 -8.18 -8.13
v 0.00 0.00 -8.00
v -36.40 -10.77 7.74
v -27.27 -12.41 7.83
v 0.00 0.00 8.00
v -27.27 -12.41 -8.04
v -36.40 -10.77 -8.12
v 0.00 0.00 -8.00
v -27.27 -12.41 7.83
v -18.36 -14.02 7.86
v 0.00 0.00 8.00
v -18.36 -14.02 -8.01
v -27.27 -12.41 -8.04
v 0.00 0.00 -8.00
v -18.36 -14.02 7.86
v -9.44 -15.25 7.85
v 0.00 0.00 8.00
v -9.44 -15.25 -8.02
v -18.36 -14.02 -8.01
v 0.00 0.00 -8.00
v -9.44 -15.25 7.85
v -1.16 -17.55 7.77
v 0.00 0.00 8.00
v -1.16 -17.55 -8.09
v -9.44 -15.25 -8.02
v 0.00 0.00 -8.00
v -1.16 -17.55 7.77
v 7.40 -19.16 7.65
v 0.00 0.00 8.00
v 7.40 -19.16 -8.20
v -1.16 -17.55 -8.09
v 0.00 0.00 -8.00
v 7.40 -19.16 7.65
v 18.47 -24.21 7.31
v 0.00 0.00 8.00
v 18.47 -24.21 -8.54
v 7.40 -19.16 -8.20
v 0.00 0.00 -8.00
v 18.47 -24.21 7.31
v 17.07 -13.29 7.72
v 0.00 0.00 8.00
v 17.07 -13.29 -8.14
v 18.47 -24.21 -8.54
v 0.00 0.00 -8.00
v 17.07 -13.29 7.72
v 22.17 -9.54 7.74
v 0.00 0.00 8.00
v 22.17 -9.54 -8.12
v 17.07 -13.29 -8.14
v 0.00 0.00 -8.00
v 22.17 -9.54 7.74
v 33.47 -6.19 7.64
v 0.00 0.00 8.00
v 33.47 -6.19 -8.22
v 22.17 -9.54 -8.12
v 0.00 0.00 -8.00
v 33.47 -6.19 7.64
v 37.76 -0.09 7.67
v 0.00 0.00 8.00
v 37.76 -0.09 -8.19
v 33.47 -6.19 -8.22
v 0.00 0.00 -8.00
v 37.76 -0.09 7.67
v 35.89 4.97 7.75
v 0.00 0.00 8.00
v 35.89 4.97 -8.11
v 37.76 -0.09 -8.19
v 0.00 0.00 -8.00
v 35.89 4.97 7.75
v 30.38 8.67 7.82
v 0.00 0.00 8.00
v 30.38 8.67 -8.04
v 35.89 4.97 -8.11
v 0.00 0.00 -8.00
v 30.38 8.67 7.82
v 28.84 14.95 7.78
v 0.00 0.00 8.00
v 28.84 14.95 -8.08
v 30.38 8.67 -8.04
v 0.00 0.00 -8.00
v 28.84 14.95 7.78
v 17.76 16.77 7.81
v 0.00 0.00 8.00
v 17.76 16.77 -8.05
v 28.84 14.95 -8.08
v 0.00 0.00 -8.00
v 17.76 16.77 7.81
v 7.37 14.51 7.86
v 0.00 0.00 8.00
v 7.37 14.51 -8.00
v 17.76 16.77 -8.05
v 0.00 0.00 -8.00
v 7.37 14.51 7.86
v 2.74 21.69 7.65
v 0.00 0.00 8.00
v 2.74 21.69 -8.20
v 7.37 14.51 -8.00
v 0.00 0.00 -8.00
v 2.74 21.69 7.65
v -2.11 19.62 7.69
v 0.00 0.00 8.00
v -2.11 19.62 -8.17
v 2.74 21.69 -8.20
v 0.00 0.00 -8.00
v -2.11 19.62 7.69
v -6.46 16.60 7.74
v 0.00 0.00 8.00
v -6.46 16.60 -8.12
v -2.11 19.62 -8.17
v 0.00 0.00 -8.00
v -6.46 16.60 7.74
v -9.41 12.80 7.81
v 0.00 0.00 8.00
v -9.41 12.80 -8.05
v -6.46 16.60 -8.12
v 0.00 0.00 -8.00
v -9.41 12.80 7.81
v -15.17 12.96 7.75
v 0.00 0.00 8.00
v -15.17 12.96 -8.11
v -9.41 12.80 -8.05
v 0.00 0.00 -8.00
v -15.17 12.96 7.75
v -22.27 12.85 7.66
v 0.00 0.00 8.00
v -22.27 12.85 -8.20
v -15.17 12.96 -8.11
v 0.00 0.00 -8.00
v -22.27 12.85 7.66
v -32.14 12.91 7.49
v 0.00 0.00 8.00
v -32.14 12.91 -8.36
v -22.27 12.85 -8.20
v 0.00 0.00 -8.00
v -32.14 12.91 7.49
v -30.18 8.47 7.65
v 0.00 0.00 8.00
v -30.18 8.47 -8.21
v -32.14 12.91 -8.36
v 0.00 0.00 -8.00
v -30.18 8.47 7.65
v -35.86 6.90 7.58
v 0.00 0.00 8.00
v -35.86 6.90 -8.27
v -30.18 8.47 -8.21
v 0.00 0.00 -8.00
v -35.86 6.90 7.58
v -32.66 3.47 7.71
v 0.00 0.00 8.00
v -32.66 3.47 -8.15
v -35.86 6.90 -8.27
v 0.00 0.00 -8.00
v -32.66 3.47 7.71
v -37.19 0.83 7.67
v 0.00 0.00 8.00
v -37.19 0.83 -8.19
v -32.66 3.47 -8.15
v 0.00 0.00 -8.00
v -37.19 0.83 7.67
v -28.27 -1.69 7.83
v 0.00 0.00 8.00
v -28.27 -1.69 -8.03
v -37.19 0.83 -8.19
v 0.00 0.00 -8.00
v 36.99 -45.03 -2.56
v 33.69 -45.52 -2.56
v 39.16 -59.99 16.28
v 39.51 -62.40 14.00
v 33.69 -45.52 -2.56
v 34.07 -48.09 -4.64
v 35.84 -60.16 15.96
v 39.16 -59.99 16.28
v 34.07 -48.09 -4.64
v 37.37 -47.61 -4.64
v 36.20 -62.57 13.68
v 35.84 -60.16 15.96
v 37.37 -47.61 -4.64
v 36.99 -45.03 -2.56
v 39.51 -62.40 14.00
v 36.20 -62.57 13.68
v 39.51 -62.40 14.00
v 39.16 -59.99 16.28
v 35.71 -80.34 29.74
v 32.56 -79.89 28.77
v 39.16 -59.99 16.28
v 35.84 -60.16 15.96
v 35.31 -78.06 32.13
v 35.71 -80.34 29.74
v 35.84 -60.16 15.96
v 36.20 -62.57 13.68
v 32.15 -77.60 31.17
v 35.31 -78.06 32.13
v 36.20 -62.57 13.68
v 39.51 -62.40 14.00
v 32.56 -79.89 28.77
v 32.15 -77.60 31.17
v 32.56 -79.89 28.77
v 35.71 -80.34 29.74
v 22.41 -95.65 42.94
v 21.93 -93.57 45.50
v 35.71 -80.34 29.74
v 35.31 -78.06 32.13
v 25.46 -96.36 44.09
v 22.41 -95.65 42.94
v 35.31 -78.06 32.13
v 32.15 -77.60 31.17
v 24.97 -94.28 46.66
v 25.46 -96.36 44.09
v 32.15 -77.60 31.17
v 32.56 -79.89 28.77
v 21.93 -93.57 45.50
v 24.97 -94.28 46.66
v 21.93 -93.57 45.50
v 22.41 -95.65 42.94
v 14.07 -113.33 56.72
v 17.16 -113.94 57.81
v 22.41 -95.65 42.94
v 25.46 -96.36 44.09
v 14.67 -115.12 53.98
v 14.07 -113.33 56.72
v 25.46 -96.36 44.09
v 24.97 -94.28 46.66
v 17.77 -115.74 55.07
v 14.67 -115.12 53.98
v 24.97 -94.28 46.66
v 21.93 -93.57 45.50
v 17.16 -113.94 57.81
v 17.77 -115.74 55.07
v 37.37 -47.61 -4.64
v 34.07 -48.09 -4.64
v 33.69 -45.52 -2.56
v 36.99 -45.03 -2.56
v 17.16 -113.94 57.81
v 14.07 -113.33 56.72
v 14.67 -115.12 53.98
v 17.77 -115.74 55.07
v -69.11 11.72 -2.09
v -68.47 14.75 -2.09
v -83.58 14.75 -0.38
v -83.64 14.76 -3.47
v -68.47 14.75 -2.09
v -68.83 14.83 -5.17
v -82.78 17.74 -0.38
v -83.58 14.75 -0.38
v -68.83 14.83 -5.17
v -69.46 11.80 -5.17
v -82.84 17.75 -3.47
v -82.78 17.74 -0.38
v -69.46 11.80 -5.17
v -69.11 11.72 -2.09
v -83.64 14.76 -3.47
v -82.84 17.75 -3.47
v -83.64 14.76 -3.47
v -83.58 14.75 -0.38
v -97.16 19.20 -4.50
v -96.13 22.12 -4.51
v -83.58 14.75 -0.38
v -82.78 17.74 -0.38
v -98.05 19.52 -1.55
v -97.16 19.20 -4.50
v -82.78 17.74 -0.38
v -82.84 17.75 -3.47
v -97.03 22.44 -1.56
v -98.05 19.52 -1.55
v -82.84 17.75 -3.47
v -83.64 14.76 -3.47
v -96.13 22.12 -4.51
v -97.03 22.44 -1.56
v -96.13 22.12 -4.51
v -97.16 19.20 -4.50
v -107.56 26.41 -12.01
v -109.16 26.98 -9.43
v -97.16 19.20 -4.50
v -98.05 19.52 -1.55
v -108.44 23.44 -11.90
v -107.56 26.41 -12.01
v -98.05 19.52 -1.55
v -97.03 22.44 -1.56
v -110.05 24.01 -9.32
v -108.44 23.44 -11.90
v -97.03 22.44 -1.56
v -96.13 22.12 -4.51
v -109.16 26.98 -9.43
v -110.05 24.01 -9.32
v -109.16 26.98 -9.43
v -107.56 26.41 -12.01
v -121.11 29.03 -17.97
v -121.80 26.02 -17.73
v -107.56 26.41 -12.01
v -108.44 23.44 -11.90
v -119.41 28.44 -20.49
v -121.11 29.03 -17.97
v -108.44 23.44 -11.90
v -110.05 24.01 -9.32
v -120.10 25.44 -20.25
v -119.41 28.44 -20.49
v -110.05 24.01 -9.32
v -109.16 26.98 -9.43
v -121.80 26.02 -17.73
v -120.10 25.44 -20.25
v -69.46 11.80 -5.17
v -68.83 14.83 -5.17
v -68.47 14.75 -2.09
v -69.11 11.72 -2.09
v -121.80 26.02 -17.73
v -121.11 29.03 -17.97
v -119.41 28.44 -20.49
v -120.10 25.44 -20.25
v -16.74 -29.22 -1.59
v -19.38 -28.66 -1.59
v -20.28 -45.69 3.69
v -20.46 -46.50 1.13
v -19.38 -28.66 -1.59
v -19.55 -29.44 -4.16
v -22.96 -45.44 3.79
v -20.28 -45.69 3.69
v -19.55 -29.44 -4.16
v -16.91 -30.01 -4.16
v -23.14 -46.26 1.23
v -22.96 -45.44 3.79
v -16.91 -30.01 -4.16
v -16.74 -29.22 -1.59
v -20.46 -46.50 1.13
v -23.14 -46.26 1.23
v -20.46 -46.50 1.13
v -20.28 -45.69 3.69
v -19.57 -63.45 6.67
v -22.24 -63.06 6.73
v -20.28 -45.69 3.69
v -22.96 -45.44 3.79
v -19.41 -62.74 9.26
v -19.57 -63.45 6.67
v -22.96 -45.44 3.79
v -23.14 -46.26 1.23
v -22.08 -62.36 9.32
v -19.41 -62.74 9.26
v -23.14 -46.26 1.23
v -20.46 -46.50 1.13
v -22.24 -63.06 6.73
v -22.08 -62.36 9.32
v -22.24 -63.06 6.73
v -19.57 -63.45 6.67
v -27.71 -79.42 10.57
v -27.55 -78.69 13.15
v -19.57 -63.45 6.67
v -19.41 -62.74 9.26
v -25.11 -80.14 10.60
v -27.71 -79.42 10.57
v -19.41 -62.74 9.26
v -22.08 -62.36 9.32
v -24.95 -79.41 13.19
v -25.11 -80.14 10.60
v -22.08 -62.36 9.32
v -22.24 -63.06 6.73
v -27.55 -78.69 13.15
v -24.95 -79.41 13.19
v -27.55 -78.69 13.15
v -27.71 -79.42 10.57
v -31.25 -95.05 19.16
v -28.62 -95.64 19.16
v -27.71 -79.42 10.57
v -25.11 -80.14 10.60
v -31.45 -95.94 16.62
v -31.25 -95.05 19.16
v -25.11 -80.14 10.60
v -24.95 -79.41 13.19
v -28.82 -96.53 16.62
v -31.45 -95.94 16.62
v -24.95 -79.41 13.19
v -27.55 -78.69 13.15
v -28.62 -95.64 19.16
v -28.82 -96.53 16.62
v -16.91 -30.01 -4.16
v -19.55 -29.44 -4.16
v -19.38 -28.66 -1.59
v -16.74 -29.22 -1.59
v -28.62 -95.64 19.16
v -31.25 -95.05 19.16
v -31.45 -95.94 16.62
v -28.82 -96.53 16.62
vt 0.0000 0.0000
vt 0.0740 0.0000
vt 0.0726 0.0794
vt -0.0014 0.0795
vt 0.0000 0.0000
vt 0.0371 0.0000
vt 0.0362 0.0794
vt -0.0009 0.0794
vt 0.0000 0.0000
vt 0.0265 0.0000
vt 0.0270 0.0794
vt 0.0004 0.0794
vt 0.0000 0.0000
vt 0.0892 0.0000
vt 0.0905 0.0795
vt 0.0014 0.0794
vt 0.0000 0.0000
vt 0.0871 -0.0000
vt 0.0876 0.0795
vt 0.0005 0.0795
vt 0.0000 0.0000
vt 0.0866 0.0000
vt 0.0864 0.0795
vt -0.0002 0.0795
vt 0.0000 0.0000
vt 0.0826 -0.0000
vt 0.0812 0.0794
vt -0.0014 0.0795
vt 0.0000 0.0000
vt 0.0838 0.0000
vt 0.0818 0.0794
vt -0.0019 0.0794
vt 0.0000 0.0000
vt 0.1172 0.0000
vt 0.1131 0.0791
vt -0.0041 0.0793
vt 0.0000 0.0000
vt 0.1062 -0.0000
vt 0.1116 0.0792
vt 0.0054 0.0790
vt 0.0000 0.0000
vt 0.0609 -0.0000
vt 0.0615 0.0794
vt 0.0006 0.0794
vt 0.0000 0.0000
vt 0.1134 0.0000
vt 0.1121 0.0794
vt -0.0013 0.0794
vt 0.0000 0.0000
vt 0.0717 0.0000
vt 0.0723 0.0794
vt 0.0006 0.0794
vt 0.0000 0.0000
vt 0.0519 -0.0000
vt 0.0540 0.0794
vt 0.0021 0.0794
vt 0.0000 0.0000
vt 0.0638 0.0000
vt 0.0655 0.0795
vt 0.0017 0.0794
vt 0.0000 0.0000
vt 0.0622 0.0000
vt 0.0613 0.0795
vt -0.0008 0.0795
vt 0.0000 0.0000
vt 0.1079 0.0000
vt 0.1083 0.0795
vt 0.0004 0.0795
vt 0.0000 0.0000
vt 0.1023 0.0000
vt 0.1030 0.0795
vt 0.0007 0.0795
vt 0.0000 0.0000
vt 0.0822 -0.0000
vt 0.0786 0.0793
vt -0.0036 0.0794
vt 0.0000 0.0000
vt 0.0507 0.0000
vt 0.0516 0.0794
vt 0.0009 0.0794
vt 0.0000 0.0000
vt 0.0510 0.0000
vt 0.0525 0.0794
vt 0.0015 0.0794
vt 0.0000 0.0000
vt 0.0463 0.0000
vt 0.0485 0.0795
vt 0.0022 0.0794
vt 0.0000 0.0000
vt 0.0554 0.0000
vt 0.0538 0.0794
vt -0.0016 0.0795
vt 0.0000 0.0000
vt 0.0684 0.0000
vt 0.0665 0.0794
vt -0.0019 0.0794
vt 0.0000 0.0000
vt 0.0949 -0.0000
vt 0.0924 0.0793
vt -0.0025 0.0794
vt 0.0000 0.0000
vt 0.0467 -0.0000
vt 0.0515 0.0792
vt 0.0048 0.0792
vt 0.0000 0.0000
vt 0.0567 0.0000
vt 0.0551 0.0793
vt -0.0016 0.0794
vt 0.0000 0.0000
vt 0.0452 0.0000
vt 0.0491 0.0793
vt 0.0039 0.0793
vt 0.0000 0.0000
vt 0.0505 -0.0000
vt 0.0494 0.0794
vt -0.0010 0.0794
vt 0.0000 0.0000
vt 0.0891 -0.0000
vt 0.0917 0.0795
vt 0.0026 0.0794
vt 0.0000 0.0000
vt 0.0740 -0.0000
vt -0.0831 0.0480
vt -0.1216 0.0480
vt 0.0000 0.0000
vt 0.0740 -0.0000
vt 0.1956 0.0480
vt 0.1571 0.0480
vt 0.0000 0.0000
vt 0.0371 -0.0000
vt -0.0886 0.1239
vt -0.1079 0.1239
vt 0.0000 0.0000
vt 0.0371 -0.0000
vt 0.1450 0.1239
vt 0.1257 0.1239
vt 0.0000 0.0000
vt 0.0265 -0.0000
vt 0.0383 0.1748
vt 0.0245 0.1748
vt 0.0000 0.0000
vt 0.0265 -0.0000
vt 0.0020 0.1748
vt -0.0118 0.1748
vt 0.0000 0.0000
vt 0.0892 0.0000
vt 0.2029 0.0787
vt 0.1565 0.0787
vt 0.0000 0.0000
vt 0.0892 0.0000
vt -0.0674 0.0787
vt -0.1137 0.0787
vt 0.0000 0.0000
vt 0.0871 0.0000
vt 0.1590 0.0787
vt 0.1137 0.0787
vt 0.0000 0.0000
vt 0.0871 -0.0000
vt -0.0266 0.0787
vt -0.0719 0.0787
vt 0.0000 0.0000
vt 0.0866 0.0000
vt 0.1201 0.0757
vt 0.0751 0.0757
vt 0.0000 0.0000
vt 0.0866 -0.0000
vt 0.0115 0.0757
vt -0.0335 0.0757
vt 0.0000 0.0000
vt 0.0826 0.0000
vt 0.0660 0.0795
vt 0.0231 0.0795
vt 0.0000 0.0000
vt 0.0826 0.0000
vt 0.0596 0.0795
vt 0.0166 0.0795
vt 0.0000 0.0000
vt 0.0838 0.0000
vt 0.0338 0.0807
vt -0.0098 0.0807
vt 0.0000 0.0000
vt 0.0838 -0.0000
vt 0.0935 0.0807
vt 0.0500 0.0807
vt 0.0000 0.0000
vt 0.1172 0.0000
vt -0.0071 0.0663
vt -0.0679 0.0663
vt 0.0000 0.0000
vt 0.1172 -0.0000
vt 0.1851 0.0663
vt 0.1243 0.0664
vt 0.0000 0.0000
vt 0.1062 -0.0000
vt 0.1772 0.0703
vt 0.1221 0.0703
vt 0.0000 0.0000
vt 0.1062 -0.0000
vt -0.0159 0.0703
vt -0.0710 0.0703
vt 0.0000 0.0000
vt 0.0609 0.0000
vt 0.0044 0.0961
vt -0.0273 0.0961
vt 0.0000 0.0000
vt 0.0609 0.0000
vt 0.0881 0.0961
vt 0.0565 0.0961
vt 0.0000 0.0000
vt 0.1134 0.0000
vt -0.0267 0.0714
vt -0.0856 0.0714
vt 0.0000 0.0000
vt 0.1134 0.0000
vt 0.1990 0.0714
vt 0.1400 0.0714
vt 0.0000 0.0000
vt 0.0717 -0.0000
vt -0.0282 0.1429
vt -0.0655 0.1429
vt 0.0000 0.0000
vt 0.0717 0.0000
vt 0.1371 0.1429
vt 0.0999 0.1429
vt 0.0000 0.0000
vt 0.0519 0.0000
vt 0.0881 0.1633
vt 0.0611 0.1633
vt 0.0000 0.0000
vt 0.0519 -0.0000
vt -0.0091 0.1633
vt -0.0361 0.1633
vt 0.0000 0.0000
vt 0.0638 0.0000
vt 0.1579 0.1114
vt 0.1247 0.1114
vt 0.0000 0.0000
vt 0.0638 -0.0000
vt -0.0609 0.1114
vt -0.0941 0.1114
vt 0.0000 0.0000
vt 0.0622 0.0000
vt 0.0269 0.1457
vt -0.0054 0.1457
vt 0.0000 0.0000
vt 0.0622 -0.0000
vt 0.0676 0.1457
vt 0.0353 0.1457
vt 0.0000 0.0000
vt 0.1079 -0.0000
vt 0.1763 0.0897
vt 0.1202 0.0897
vt 0.0000 0.0000
vt 0.1079 0.0000
vt -0.0122 0.0897
vt -0.0684 0.0897
vt 0.0000 0.0000
vt 0.1023 0.0000
vt 0.1497 0.0583
vt 0.0965 0.0583
vt 0.0000 0.0000
vt 0.1023 0.0000
vt 0.0058 0.0583
vt -0.0474 0.0583
vt 0.0000 0.0000
vt 0.0822 -0.0000
vt 0.0048 0.0648
vt -0.0380 0.0648
vt 0.0000 0.0000
vt 0.0822 -0.0000
vt 0.1202 0.0648
vt 0.0775 0.0649
vt 0.0000 0.0000
vt 0.0507 -0.0000
vt 0.0774 0.0872
vt 0.0510 0.0872
vt 0.0000 0.0000
vt 0.0507 0.0000
vt -0.0003 0.0872
vt -0.0266 0.0872
vt 0.0000 0.0000
vt 0.0510 0.0000
vt 0.0702 0.0800
vt 0.0437 0.0800
vt 0.0000 0.0000
vt 0.0510 0.0000
vt 0.0072 0.0800
vt -0.0193 0.0800
vt 0.0000 0.0000
vt 0.0463 -0.0000
vt 0.0664 0.0706
vt 0.0423 0.0706
vt 0.0000 0.0000
vt 0.0463 0.0000
vt 0.0039 0.0706
vt -0.0201 0.0706
vt 0.0000 0.0000
vt 0.0554 0.0000
vt -0.0163 0.0579
vt -0.0451 0.0578
vt 0.0000 0.0000
vt 0.0554 0.0000
vt 0.1005 0.0579
vt 0.0717 0.0579
vt 0.0000 0.0000
vt 0.0684 0.0000
vt -0.0336 0.0609
vt -0.0691 0.0609
vt 0.0000 0.0000
vt 0.0684 0.0000
vt 0.1375 0.0609
vt 0.1019 0.0610
vt 0.0000 0.0000
vt 0.0949 0.0000
vt -0.0539 0.0588
vt -0.1032 0.0588
vt 0.0000 0.0000
vt 0.0949 0.0000
vt 0.1981 0.0588
vt 0.1488 0.0588
vt 0.0000 0.0000
vt 0.0467 0.0000
vt 0.1388 0.1117
vt 0.1145 0.1117
vt 0.0000 0.0000
vt 0.0467 -0.0000
vt -0.0678 0.1117
vt -0.0921 0.1117
vt 0.0000 0.0000
vt 0.0567 0.0000
vt -0.0945 0.0747
vt -0.1240 0.0747
vt 0.0000 0.0000
vt 0.0567 0.0000
vt 0.1807 0.0747
vt 0.1512 0.0747
vt 0.0000 0.0000
vt 0.0452 0.0000
vt 0.1599 0.0992
vt 0.1364 0.0992
vt 0.0000 0.0000
vt 0.0452 -0.0000
vt -0.0912 0.0992
vt -0.1147 0.0992
vt 0.0000 0.0000
vt 0.0505 -0.0000
vt -0.0959 0.0899
vt -0.1221 0.0899
vt 0.0000 0.0000
vt 0.0505 0.0000
vt 0.1726 0.0899
vt 0.1463 0.0899
vt 0.0000 0.0000
vt 0.0891 0.0000
vt 0.2126 0.0431
vt 0.1663 0.0431
vt 0.0000 0.0000
vt 0.0891 -0.0000
vt -0.0771 0.0431
vt -0.1234 0.0431
vt 0.0000 0.0000
vt 0.0385 0.0000
vt -0.1317 0.0520
vt 0.0000 0.0000
vt 0.0385 -0.0000
vt 0.1702 0.0520
vt 0.0000 0.0000
vt 0.0193 0.0000
vt -0.1169 0.1342
vt 0.0000 0.0000
vt 0.0193 0.0000
vt 0.1362 0.1342
vt 0.0000 0.0000
vt 0.0138 0.0000
vt 0.0266 0.1893
vt 0.0000 0.0000
vt 0.0138 0.0000
vt -0.0128 0.1893
vt 0.0000 0.0000
vt 0.0464 -0.0000
vt 0.1695 0.0853
vt 0.0000 0.0000
vt 0.0464 0.0000
vt -0.1232 0.0853
vt 0.0000 0.0000
vt 0.0453 -0.0000
vt 0.1232 0.0853
vt 0.0000 0.0000
vt 0.0453 -0.0000
vt -0.0779 0.0853
vt 0.0000 0.0000
vt 0.0450 -0.0000
vt 0.0813 0.0820
vt 0.0000 0.0000
vt 0.0450 0.0000
vt -0.0363 0.0820
vt 0.0000 0.0000
vt 0.0430 0.0000
vt 0.0250 0.0861
vt 0.0000 0.0000
vt 0.0430 -0.0000
vt 0.0179 0.0861
vt 0.0000 0.0000
vt 0.0435 -0.0000
vt -0.0105 0.0873
vt 0.0000 0.0000
vt 0.0435 0.0000
vt 0.0541 0.0873
vt 0.0000 0.0000
vt 0.0609 0.0000
vt -0.0734 0.0718
vt 0.0000 0.0000
vt 0.0609 0.0000
vt 0.1343 0.0718
vt 0.0000 0.0000
vt 0.0551 -0.0000
vt 0.1319 0.0761
vt 0.0000 0.0000
vt 0.0551 0.0000
vt -0.0768 0.0762
vt 0.0000 0.0000
vt 0.0317 -0.0000
vt -0.0296 0.1040
vt 0.0000 0.0000
vt 0.0317 0.0000
vt 0.0612 0.1040
vt 0.0000 0.0000
vt 0.0589 -0.0000
vt -0.0927 0.0773
vt 0.0000 0.0000
vt 0.0589 0.0000
vt 0.1517 0.0773
vt 0.0000 0.0000
vt 0.0373 -0.0000
vt -0.0710 0.1547
vt 0.0000 0.0000
vt 0.0373 0.0000
vt 0.1082 0.1547
vt 0.0000 0.0000
vt 0.0270 0.0000
vt 0.0661 0.1769
vt 0.0000 0.0000
vt 0.0270 0.0000
vt -0.0391 0.1769
vt 0.0000 0.0000
vt 0.0332 -0.0000
vt 0.1351 0.1207
vt 0.0000 0.0000
vt 0.0332 0.0000
vt -0.1019 0.1207
vt 0.0000 0.0000
vt 0.0323 0.0000
vt -0.0059 0.1579
vt 0.0000 0.0000
vt 0.0323 -0.0000
vt 0.0382 0.1579
vt 0.0000 0.0000
vt 0.0561 0.0000
vt 0.1302 0.0971
vt 0.0000 0.0000
vt 0.0561 0.0000
vt -0.0741 0.0971
vt 0.0000 0.0000
vt 0.0532 0.0000
vt 0.1046 0.0631
vt 0.0000 0.0000
vt 0.0532 0.0000
vt -0.0514 0.0631
vt 0.0000 0.0000
vt 0.0427 -0.0000
vt -0.0411 0.0702
vt 0.0000 0.0000
vt 0.0427 0.0000
vt 0.0838 0.0703
vt 0.0000 0.0000
vt 0.0264 -0.0000
vt 0.0552 0.0944
vt 0.0000 0.0000
vt 0.0264 0.0000
vt -0.0288 0.0944
vt 0.0000 0.0000
vt 0.0265 0.0000
vt 0.0473 0.0866
vt 0.0000 0.0000
vt 0.0265 -0.0000
vt -0.0208 0.0866
vt 0.0000 0.0000
vt 0.0240 0.0000
vt 0.0458 0.0764
vt 0.0000 0.0000
vt 0.0240 -0.0000
vt -0.0217 0.0764
vt 0.0000 0.0000
vt 0.0288 -0.0000
vt -0.0489 0.0626
vt 0.0000 0.0000
vt 0.0288 -0.0000
vt 0.0776 0.0626
vt 0.0000 0.0000
vt 0.0355 0.0000
vt -0.0748 0.0660
vt 0.0000 0.0000
vt 0.0355 -0.0000
vt 0.1104 0.0660
vt 0.0000 0.0000
vt 0.0493 -0.0000
vt -0.1117 0.0637
vt 0.0000 0.0000
vt 0.0493 -0.0000
vt 0.1610 0.0637
vt 0.0000 0.0000
vt 0.0243 0.0000
vt 0.1239 0.1210
vt 0.0000 0.0000
vt 0.0243 -0.0000
vt -0.0996 0.1210
vt 0.0000 0.0000
vt 0.0295 0.0000
vt -0.1343 0.0809
vt 0.0000 0.0000
vt 0.0295 0.0000
vt 0.1637 0.0809
vt 0.0000 0.0000
vt 0.0235 -0.0000
vt 0.1477 0.1075
vt 0.0000 0.0000
vt 0.0235 0.0000
vt -0.1242 0.1075
vt 0.0000 0.0000
vt 0.0262 -0.0000
vt -0.1323 0.0974
vt 0.0000 0.0000
vt 0.0262 -0.0000
vt 0.1585 0.0974
vt 0.0000 0.0000
vt 0.0463 0.0000
vt 0.1801 0.0467
vt 0.0000 0.0000
vt 0.0463 0.0000
vt -0.1337 0.0467
vt 0.0000 0.0000
vt 0.0834 0.0000
vt 0.0004 0.5980
vt 0.0004 0.6032
vt 0.0000 0.0000
vt 0.0834 0.0000
vt -0.0003 0.5872
vt 0.0005 0.6094
vt 0.0000 0.0000
vt 0.0834 0.0000
vt 0.0004 0.5806
vt 0.0004 0.5985
vt 0.0000 0.0000
vt 0.0834 -0.0000
vt -0.0003 0.5915
vt 0.0005 0.5921
vt 0.0000 0.0000
vt 0.0834 -0.0000
vt -0.0455 0.5967
vt -0.0455 0.5964
vt 0.0000 0.0000
vt 0.0834 -0.0000
vt 0.0811 0.5975
vt 0.0799 0.6109
vt 0.0000 0.0000
vt 0.0834 0.0000
vt 0.0456 0.5785
vt 0.0456 0.6014
vt 0.0000 0.0000
vt 0.0834 -0.0000
vt -0.0768 0.5703
vt -0.0780 0.5800
vt 0.0000 0.0000
vt 0.0834 0.0000
vt -0.0837 0.5757
vt -0.0837 0.5962
vt 0.0000 0.0000
vt 0.0834 -0.0000
vt 0.0140 0.5899
vt 0.0147 0.6047
vt 0.0000 0.0000
vt 0.0834 0.0000
vt 0.0841 0.5909
vt 0.0841 0.5937
vt 0.0000 0.0000
vt 0.0834 -0.0000
vt -0.0144 0.5882
vt -0.0137 0.5966
vt 0.0000 0.0000
vt 0.0834 0.0000
vt 0.0637 0.5920
vt 0.0637 0.6035
vt 0.0000 0.0000
vt 0.0834 -0.0000
vt 0.0235 0.5859
vt 0.0238 0.5976
vt 0.0000 0.0000
vt 0.0834 0.0000
vt -0.0632 0.5796
vt -0.0632 0.5914
vt 0.0000 0.0000
vt 0.0834 -0.0000
vt -0.0238 0.5916
vt -0.0234 0.6031
vt 0.0000 0.0000
vt 0.0834 0.0000
vt 0.0834 0.0834
vt 0.0000 0.0834
vt 0.0000 0.0000
vt 0.0834 0.0000
vt 0.0834 0.0834
vt -0.0000 0.0834
vt 0.0000 0.0000
vt 0.0774 -0.0000
vt 0.0001 0.3641
vt 0.0001 0.3729
vt 0.0000 0.0000
vt 0.0774 0.0000
vt -0.0000 0.3602
vt 0.0004 0.3801
vt 0.0000 0.0000
vt 0.0774 0.0000
vt 0.0001 0.3528
vt 0.0001 0.3759
vt 0.0000 0.0000
vt 0.0774 0.0000
vt -0.0000 0.3567
vt 0.0004 0.3686
vt 0.0000 0.0000
vt 0.0774 -0.0000
vt -0.0330 0.3467
vt -0.0330 0.3617
vt 0.0000 0.0000
vt 0.0774 0.0000
vt 0.0215 0.3735
vt 0.0196 0.3712
vt 0.0000 0.0000
vt 0.0774 0.0000
vt 0.0372 0.3666
vt 0.0372 0.3837
vt 0.0000 0.0000
vt 0.0774 0.0000
vt -0.0194 0.3430
vt -0.0213 0.3759
vt 0.0000 0.0000
vt 0.0774 0.0000
vt -0.0071 0.3501
vt -0.0071 0.3688
vt 0.0000 0.0000
vt 0.0774 0.0000
vt -0.0837 0.3355
vt -0.0849 0.3579
vt 0.0000 0.0000
vt 0.0774 -0.0000
vt 0.0072 0.3666
vt 0.0072 0.3794
vt 0.0000 0.0000
vt 0.0774 -0.0000
vt 0.0878 0.3606
vt 0.0866 0.3710
vt 0.0000 0.0000
vt 0.0774 0.0000
vt 0.0133 0.3626
vt 0.0133 0.3784
vt 0.0000 0.0000
vt 0.0774 -0.0000
vt 0.0283 0.3589
vt 0.0285 0.3749
vt 0.0000 0.0000
vt 0.0774 -0.0000
vt -0.0133 0.3537
vt -0.0133 0.3698
vt 0.0000 0.0000
vt 0.0774 0.0000
vt -0.0283 0.3557
vt -0.0281 0.3718
vt 0.0000 0.0000
vt 0.0774 0.0000
vt 0.0774 0.0774
vt -0.0000 0.0774
vt 0.0000 0.0000
vt 0.0774 -0.0000
vt 0.0774 0.0774
vt -0.0000 0.0774
vt 0.0000 0.0000
vt 0.0673 0.0000
vt 0.0003 0.4362
vt 0.0003 0.4471
vt 0.0000 0.0000
vt 0.0673 0.0000
vt -0.0000 0.4446
vt 0.0000 0.4463
vt 0.0000 0.0000
vt 0.0673 0.0000
vt 0.0003 0.4454
vt 0.0003 0.4547
vt 0.0000 0.0000
vt 0.0673 0.0000
vt -0.0000 0.4372
vt 0.0000 0.4554
vt 0.0000 0.0000
vt 0.0673 0.0000
vt 0.0049 0.4411
vt 0.0049 0.4393
vt 0.0000 0.0000
vt 0.0673 0.0000
vt -0.0554 0.4405
vt -0.0556 0.4471
vt 0.0000 0.0000
vt 0.0673 -0.0000
vt -0.0049 0.4408
vt -0.0049 0.4622
vt 0.0000 0.0000
vt 0.0673 0.0000
vt 0.0557 0.4342
vt 0.0555 0.4478
vt 0.0000 0.0000
vt 0.0673 -0.0000
vt -0.0790 0.4295
vt -0.0790 0.4356
vt 0.0000 0.0000
vt 0.0673 -0.0000
vt -0.0232 0.4450
vt -0.0233 0.4581
vt 0.0000 0.0000
vt 0.0673 0.0000
vt 0.0796 0.4379
vt 0.0796 0.4520
vt 0.0000 0.0000
vt 0.0673 0.0000
vt 0.0233 0.4354
vt 0.0232 0.4423
vt 0.0000 0.0000
vt 0.0673 0.0000
vt -0.0273 0.4395
vt -0.0273 0.4496
vt 0.0000 0.0000
vt 0.0673 0.0000
vt 0.0218 0.4440
vt 0.0216 0.4540
vt 0.0000 0.0000
vt 0.0673 0.0000
vt 0.0274 0.4404
vt 0.0274 0.4505
vt 0.0000 0.0000
vt 0.0673 -0.0000
vt -0.0215 0.4366
vt -0.0217 0.4467
vt 0.0000 0.0000
vt 0.0673 0.0000
vt 0.0673 0.0673
vt 0.0000 0.0673
vt 0.0000 0.0000
vt 0.0673 -0.0000
vt 0.0673 0.0673
vt 0.0000 0.0673
usemtl concrete
f 1/1 2/2 3/3
f 1/1 3/3 4/4
f 5/5 6/6 7/7
f 5/5 7/7 8/8
f 9/9 10/10 11/11
f 9/9 11/11 12/12
f 13/13 14/14 15/15
f 13/13 15/15 16/16
f 17/17 18/18 19/19
f 17/17 19/19 20/20
f 21/21 22/22 23/23
f 21/21 23/23 24/24
f 25/25 26/26 27/27
f 25/25 27/27 28/28
f 29/29 30/30 31/31
f 29/29 31/31 32/32
f 33/33 34/34 35/35
f 33/33 35/35 36/36
f 37/37 38/38 39/39
f 37/37 39/39 40/40
f 41/41 42/42 43/43
f 41/41 43/43 44/44
f 45/45 46/46 47/47
f 45/45 47/47 48/48
f 49/49 50/50 51/51
f 49/49 51/51 52/52
f 53/53 54/54 55/55
f 53/53 55/55 56/56
f 57/57 58/58 59/59
f 57/57 59/59 60/60
f 61/61 62/62 63/63
f 61/61 63/63 64/64
f 65/65 66/66 67/67
f 65/65 67/67 68/68
f 69/69 70/70 71/71
f 69/69 71/71 72/72
f 73/73 74/74 75/75
f 73/73 75/75 76/76
f 77/77 78/78 79/79
f 77/77 79/79 80/80
f 81/81 82/82 83/83
f 81/81 83/83 84/84
f 85/85 86/86 87/87
f 85/85 87/87 88/88
f 89/89 90/90 91/91
f 89/89 91/91 92/92
f 93/93 94/94 95/95
f 93/93 95/95 96/96
f 97/97 98/98 99/99
f 97/97 99/99 100/100
f 101/101 102/102 103/103
f 101/101 103/103 104/104
f 105/105 106/106 107/107
f 105/105 107/107 108/108
f 109/109 110/110 111/111
f 109/109 111/111 112/112
f 113/113 114/114 115/115
f 113/113 115/115 116/116
f 117/117 118/118 119/119
f 117/117 119/119 120/120
f 121/121 122/122 123/123
f 121/121 123/123 124/124
f 125/125 126/126 127/127
f 125/125 127/127 128/128
f 129/129 130/130 131/131
f 129/129 131/131 132/132
f 133/133 134/134 135/135
f 133/133 135/135 136/136
f 137/137 138/138 139/139
f 137/137 139/139 140/140
f 141/141 142/142 143/143
f 141/141 143/143 144/144
f 145/145 146/146 147/147
f 145/145 147/147 148/148
f 149/149 150/150 151/151
f 149/149 151/151 152/152
f 153/153 154/154 155/155
f 153/153 155/155 156/156
f 157/157 158/158 159/159
f 157/157 159/159 160/160
f 161/161 162/162 163/163
f 161/161 163/163 164/164
f 165/165 166/166 167/167
f 165/165 167/167 168/168
f 169/169 170/170 171/171
f 169/169 171/171 172/172
f 173/173 174/174 175/175
f 173/173 175/175 176/176
f 177/177 178/178 179/179
f 177/177 179/179 180/180
f 181/181 182/182 183/183
f 181/181 183/183 184/184
f 185/185 186/186 187/187
f 185/185 187/187 188/188
f 189/189 190/190 191/191
f 189/189 191/191 192/192
f 193/193 194/194 195/195
f 193/193 195/195 196/196
f 197/197 198/198 199/199
f 197/197 199/199 200/200
f 201/201 202/202 203/203
f 201/201 203/203 204/204
f 205/205 206/206 207/207
f 205/205 207/207 208/208
f 209/209 210/210 211/211
f 209/209 211/211 212/212
f 213/213 214/214 215/215
f 213/213 215/215 216/216
f 217/217 218/218 219/219
f 217/217 219/219 220/220
f 221/221 222/222 223/223
f 221/221 223/223 224/224
f 225/225 226/226 227/227
f 225/225 227/227 228/228
f 229/229 230/230 231/231
f 229/229 231/231 232/232
f 233/233 234/234 235/235
f 233/233 235/235 236/236
f 237/237 238/238 239/239
f 237/237 239/239 240/240
f 241/241 242/242 243/243
f 241/241 243/243 244/244
f 245/245 246/246 247/247
f 245/245 247/247 248/248
f 249/249 250/250 251/251
f 249/249 251/251 252/252
f 253/253 254/254 255/255
f 253/253 255/255 256/256
f 257/257 258/258 259/259
f 257/257 259/259 260/260
f 261/261 262/262 263/263
f 261/261 263/263 264/264
f 265/265 266/266 267/267
f 265/265 267/267 268/268
f 269/269 270/270 271/271
f 269/269 271/271 272/272
f 273/273 274/274 275/275
f 273/273 275/275 276/276
f 277/277 278/278 279/279
f 277/277 279/279 280/280
f 281/281 282/282 283/283
f 281/281 283/283 284/284
f 285/285 286/286 287/287
f 285/285 287/287 288/288
f 289/289 290/290 291/291
f 289/289 291/291 292/292
f 293/293 294/294 295/295
f 293/293 295/295 296/296
f 297/297 298/298 299/299
f 297/297 299/299 300/300
f 301/301 302/302 303/303
f 301/301 303/303 304/304
f 305/305 306/306 307/307
f 305/305 307/307 308/308
f 309/309 310/310 311/311
f 309/309 311/311 312/312
f 313/313 314/314 315/315
f 313/313 315/315 316/316
f 317/317 318/318 319/319
f 317/317 319/319 320/320
f 321/321 322/322 323/323
f 321/321 323/323 324/324
f 325/325 326/326 327/327
f 325/325 327/327 328/328
f 329/329 330/330 331/331
f 329/329 331/331 332/332
f 333/333 334/334 335/335
f 333/333 335/335 336/336
f 337/337 338/338 339/339
f 337/337 339/339 340/340
f 341/341 342/342 343/343
f 341/341 343/343 344/344
f 345/345 346/346 347/347
f 345/345 347/347 348/348
f 349/349 350/350 351/351
f 349/349 351/351 352/352
f 353/353 354/354 355/355
f 353/353 355/355 356/356
f 357/357 358/358 359/359
f 357/357 359/359 360/360
f 361/361 362/362 363/363
f 364/364 365/365 366/366
f 367/367 368/368 369/369
f 370/370 371/371 372/372
f 373/373 374/374 375/375
f 376/376 377/377 378/378
f 379/379 380/380 381/381
f 382/382 383/383 384/384
f 385/385 386/386 387/387
f 388/388 389/389 390/390
f 391/391 392/392 393/393
f 394/394 395/395 396/396
f 397/397 398/398 399/399
f 400/400 401/401 402/402
f 403/403 404/404 405/405
f 406/406 407/407 408/408
f 409/409 410/410 411/411
f 412/412 413/413 414/414
f 415/415 416/416 417/417
f 418/418 419/419 420/420
f 421/421 422/422 423/423
f 424/424 425/425 426/426
f 427/427 428/428 429/429
f 430/430 431/431 432/432
f 433/433 434/434 435/435
f 436/436 437/437 438/438
f 439/439 440/440 441/441
f 442/442 443/443 444/444
f 445/445 446/446 447/447
f 448/448 449/449 450/450
f 451/451 452/452 453/453
f 454/454 455/455 456/456
f 457/457 458/458 459/459
f 460/460 461/461 462/462
f 463/463 464/464 465/465
f 466/466 467/467 468/468
f 469/469 470/470 471/471
f 472/472 473/473 474/474
f 475/475 476/476 477/477
f 478/478 479/479 480/480
f 481/481 482/482 483/483
f 484/484 485/485 486/486
f 487/487 488/488 489/489
f 490/490 491/491 492/492
f 493/493 494/494 495/495
f 496/496 497/497 498/498
f 499/499 500/500 501/501
f 502/502 503/503 504/504
f 505/505 506/506 507/507
f 508/508 509/509 510/510
f 511/511 512/512 513/513
f 514/514 515/515 516/516
f 517/517 518/518 519/519
f 520/520 521/521 522/522
f 523/523 524/524 525/525
f 526/526 527/527 528/528
f 529/529 530/530 531/531
f 532/532 533/533 534/534
f 535/535 536/536 537/537
f 538/538 539/539 540/540
usemtl rebar
f 541/541 542/542 543/543
f 541/541 543/543 544/544
f 545/545 546/546 547/547
f 545/545 547/547 548/548
f 549/549 550/550 551/551
f 549/549 551/551 552/552
f 553/553 554/554 555/555
f 553/553 555/555 556/556
f 557/557 558/558 559/559
f 557/557 559/559 560/560
f 561/561 562/562 563/563
f 561/561 563/563 564/564
f 565/565 566/566 567/567
f 565/565 567/567 568/568
f 569/569 570/570 571/571
f 569/569 571/571 572/572
f 573/573 574/574 575/575
f 573/573 575/575 576/576
f 577/577 578/578 579/579
f 577/577 579/579 580/580
f 581/581 582/582 583/583
f 581/581 583/583 584/584
f 585/585 586/586 587/587
f 585/585 587/587 588/588
f 589/589 590/590 591/591
f 589/589 591/591 592/592
f 593/593 594/594 595/595
f 593/593 595/595 596/596
f 597/597 598/598 599/599
f 597/597 599/599 600/600
f 601/601 602/602 603/603
f 601/601 603/603 604/604
f 605/605 606/606 607/607
f 605/605 607/607 608/608
f 609/609 610/610 611/611
f 609/609 611/611 612/612
f 613/613 614/614 615/615
f 613/613 615/615 616/616
f 617/617 618/618 619/619
f 617/617 619/619 620/620
f 621/621 622/622 623/623
f 621/621 623/623 624/624
f 625/625 626/626 627/627
f 625/625 627/627 628/628
f 629/629 630/630 631/631
f 629/629 631/631 632/632
f 633/633 634/634 635/635
f 633/633 635/635 636/636
f 637/637 638/638 639/639
f 637/637 639/639 640/640
f 641/641 642/642 643/643
f 641/641 643/643 644/644
f 645/645 646/646 647/647
f 645/645 647/647 648/648
f 649/649 650/650 651/651
f 649/649 651/651 652/652
f 653/653 654/654 655/655
f 653/653 655/655 656/656
f 657/657 658/658 659/659
f 657/657 659/659 660/660
f 661/661 662/662 663/663
f 661/661 663/663 664/664
f 665/665 666/666 667/667
f 665/665 667/667 668/668
f 669/669 670/670 671/671
f 669/669 671/671 672/672
f 673/673 674/674 675/675
f 673/673 675/675 676/676
f 677/677 678/678 679/679
f 677/677 679/679 680/680
f 681/681 682/682 683/683
f 681/681 683/683 684/684
f 685/685 686/686 687/687
f 685/685 687/687 688/688
f 689/689 690/690 691/691
f 689/689 691/691 692/692
f 693/693 694/694 695/695
f 693/693 695/695 696/696
f 697/697 698/698 699/699
f 697/697 699/699 700/700
f 701/701 702/702 703/703
f 701/701 703/703 704/704
f 705/705 706/706 707/707
f 705/705 707/707 708/708
f 709/709 710/710 711/711
f 709/709 711/711 712/712
f 713/713 714/714 715/715
f 713/713 715/715 716/716
f 717/717 718/718 719/719
f 717/717 719/719 720/720
f 721/721 722/722 723/723
f 721/721 723/723 724/724
f 725/725 726/726 727/727
f 725/725 727/727 728/728
f 729/729 730/730 731/731
f 729/729 731/731 732/732
f 733/733 734/734 735/735
f 733/733 735/735 736/736
f 737/737 738/738 739/739
f 737/737 739/739 740/740
f 741/741 742/742 743/743
f 741/741 743/743 744/744
f 745/745 746/746 747/747
f 745/745 747/747 748/748
f 749/749 750/750 751/751
f 749/749 751/751 752/752
f 753/753 754/754 755/755
f 753/753 755/755 756/756
