# Sightline generated building (centimetres)
v 500.0 400.0 -100.0
v 500.0 -400.0 -100.0
v 500.0 -400.0 345.0
v 500.0 400.0 345.0
v -500.0 -400.0 -100.0
v -500.0 400.0 -100.0
v -500.0 400.0 345.0
v -500.0 -400.0 345.0
v 500.0 -400.0 -100.0
v -500.0 -400.0 -100.0
v -500.0 -400.0 345.0
v 500.0 -400.0 345.0
v -500.0 400.0 -100.0
v 500.0 400.0 -100.0
v 500.0 400.0 345.0
v -500.0 400.0 345.0
v -515.0 415.0 45.0
v 515.0 415.0 45.0
v 515.0 -415.0 45.0
v -515.0 -415.0 45.0
v 515.0 415.0 -100.0
v 515.0 -415.0 -100.0
v 515.0 -415.0 45.0
v 515.0 415.0 45.0
v -515.0 -415.0 -100.0
v -515.0 415.0 -100.0
v -515.0 415.0 45.0
v -515.0 -415.0 45.0
v 515.0 -415.0 -100.0
v -515.0 -415.0 -100.0
v -515.0 -415.0 45.0
v 515.0 -415.0 45.0
v -515.0 415.0 -100.0
v 515.0 415.0 -100.0
v 515.0 415.0 45.0
v -515.0 415.0 45.0
v -405.0 403.0 135.0
v -295.0 403.0 135.0
v -295.0 403.0 255.0
v -405.0 403.0 255.0
v -420.0 450.0 280.0
v -280.0 450.0 280.0
v -280.0 400.0 280.0
v -420.0 400.0 280.0
v -280.0 450.0 270.0
v -280.0 400.0 270.0
v -280.0 400.0 280.0
v -280.0 450.0 280.0
v -420.0 400.0 270.0
v -420.0 450.0 270.0
v -420.0 450.0 280.0
v -420.0 400.0 280.0
v -280.0 400.0 270.0
v -420.0 400.0 270.0
v -420.0 400.0 280.0
v -280.0 400.0 280.0
v -420.0 450.0 270.0
v -280.0 450.0 270.0
v -280.0 450.0 280.0
v -420.0 450.0 280.0
v -100.0 403.0 45.0
v 0.0 403.0 45.0
v 0.0 403.0 255.0
v -100.0 403.0 255.0
v -115.0 450.0 280.0
v 15.0 450.0 280.0
v 15.0 400.0 280.0
v -115.0 400.0 280.0
v 15.0 450.0 270.0
v 15.0 400.0 270.0
v 15.0 400.0 280.0
v 15.0 450.0 280.0
v -115.0 400.0 270.0
v -115.0 450.0 270.0
v -115.0 450.0 280.0
v -115.0 400.0 280.0
v 15.0 400.0 270.0
v -115.0 400.0 270.0
v -115.0 400.0 280.0
v 15.0 400.0 280.0
v -115.0 450.0 270.0
v 15.0 450.0 270.0
v 15.0 450.0 280.0
v -115.0 450.0 280.0
v 195.0 403.0 135.0
v 305.0 403.0 135.0
v 305.0 403.0 255.0
v 195.0 403.0 255.0
v 180.0 450.0 280.0
v 320.0 450.0 280.0
v 320.0 400.0 280.0
v 180.0 400.0 280.0
v 320.0 450.0 270.0
v 320.0 400.0 270.0
v 320.0 400.0 280.0
v 320.0 450.0 280.0
v 180.0 400.0 270.0
v 180.0 450.0 270.0
v 180.0 450.0 280.0
v 180.0 400.0 280.0
v 320.0 400.0 270.0
v 180.0 400.0 270.0
v 180.0 400.0 280.0
v 320.0 400.0 280.0
v 180.0 450.0 270.0
v 320.0 450.0 270.0
v 320.0 450.0 280.0
v 180.0 450.0 280.0
v -295.0 -403.0 135.0
v -405.0 -403.0 135.0
v -405.0 -403.0 255.0
v -295.0 -403.0 255.0
v -420.0 -400.0 280.0
v -280.0 -400.0 280.0
v -280.0 -450.0 280.0
v -420.0 -450.0 280.0
v -280.0 -400.0 270.0
v -280.0 -450.0 270.0
v -280.0 -450.0 280.0
v -280.0 -400.0 280.0
v -420.0 -450.0 270.0
v -420.0 -400.0 270.0
v -420.0 -400.0 280.0
v -420.0 -450.0 280.0
v -280.0 -450.0 270.0
v -420.0 -450.0 270.0
v -420.0 -450.0 280.0
v -280.0 -450.0 280.0
v -420.0 -400.0 270.0
v -280.0 -400.0 270.0
v -280.0 -400.0 280.0
v -420.0 -400.0 280.0
v 5.0 -403.0 135.0
v -105.0 -403.0 135.0
v -105.0 -403.0 255.0
v 5.0 -403.0 255.0
v -120.0 -400.0 280.0
v 20.0 -400.0 280.0
v 20.0 -450.0 280.0
v -120.0 -450.0 280.0
v 20.0 -400.0 270.0
v 20.0 -450.0 270.0
v 20.0 -450.0 280.0
v 20.0 -400.0 280.0
v -120.0 -450.0 270.0
v -120.0 -400.0 270.0
v -120.0 -400.0 280.0
v -120.0 -450.0 280.0
v 20.0 -450.0 270.0
v -120.0 -450.0 270.0
v -120.0 -450.0 280.0
v 20.0 -450.0 280.0
v -120.0 -400.0 270.0
v 20.0 -400.0 270.0
v 20.0 -400.0 280.0
v -120.0 -400.0 280.0
v 305.0 -403.0 135.0
v 195.0 -403.0 135.0
v 195.0 -403.0 255.0
v 305.0 -403.0 255.0
v 180.0 -400.0 280.0
v 320.0 -400.0 280.0
v 320.0 -450.0 280.0
v 180.0 -450.0 280.0
v 320.0 -400.0 270.0
v 320.0 -450.0 270.0
v 320.0 -450.0 280.0
v 320.0 -400.0 280.0
v 180.0 -450.0 270.0
v 180.0 -400.0 270.0
v 180.0 -400.0 280.0
v 180.0 -450.0 280.0
v 320.0 -450.0 270.0
v 180.0 -450.0 270.0
v 180.0 -450.0 280.0
v 320.0 -450.0 280.0
v 180.0 -400.0 270.0
v 320.0 -400.0 270.0
v 320.0 -400.0 280.0
v 180.0 -400.0 280.0
v -503.0 -55.0 135.0
v -503.0 55.0 135.0
v -503.0 55.0 255.0
v -503.0 -55.0 255.0
v 503.0 55.0 135.0
v 503.0 -55.0 135.0
v 503.0 -55.0 255.0
v 503.0 55.0 255.0
v -560.0 -0.0 540.1
v 560.0 -0.0 540.1
v 560.0 -31.0 525.0
v -560.0 -31.0 525.0
v -560.0 -291.0 398.2
v 560.0 -291.0 398.2
v 560.0 -460.0 315.7
v -560.0 -460.0 315.7
v -560.0 -31.0 525.0
v -210.0 -31.0 525.0
v -210.0 -291.0 398.2
v -560.0 -291.0 398.2
v 210.0 -31.0 525.0
v 560.0 -31.0 525.0
v 560.0 -291.0 398.2
v 210.0 -291.0 398.2
v -560.0 -31.0 513.0
v 560.0 -31.0 513.0
v 560.0 -0.0 528.1
v -560.0 -0.0 528.1
v -560.0 -460.0 303.7
v 560.0 -460.0 303.7
v 560.0 -291.0 386.2
v -560.0 -291.0 386.2
v -560.0 -291.0 386.2
v -210.0 -291.0 386.2
v -210.0 -31.0 513.0
v -560.0 -31.0 513.0
v 210.0 -291.0 386.2
v 560.0 -291.0 386.2
v 560.0 -31.0 513.0
v 210.0 -31.0 513.0
v -230.0 -90.0 483.3
v 230.0 -90.0 483.3
v 230.0 -102.0 483.3
v -230.0 -102.0 483.3
v 230.0 -90.0 471.3
v 230.0 -102.0 471.3
v 230.0 -102.0 483.3
v 230.0 -90.0 483.3
v -230.0 -102.0 471.3
v -230.0 -90.0 471.3
v -230.0 -90.0 483.3
v -230.0 -102.0 483.3
v 230.0 -102.0 471.3
v -230.0 -102.0 471.3
v -230.0 -102.0 483.3
v 230.0 -102.0 483.3
v -230.0 -90.0 471.3
v 230.0 -90.0 471.3
v 230.0 -90.0 483.3
v -230.0 -90.0 483.3
v -230.0 -220.0 419.9
v 230.0 -220.0 419.9
v 230.0 -232.0 419.9
v -230.0 -232.0 419.9
v 230.0 -220.0 407.9
v 230.0 -232.0 407.9
v 230.0 -232.0 419.9
v 230.0 -220.0 419.9
v -230.0 -232.0 407.9
v -230.0 -220.0 407.9
v -230.0 -220.0 419.9
v -230.0 -232.0 419.9
v 230.0 -232.0 407.9
v -230.0 -232.0 407.9
v -230.0 -232.0 419.9
v 230.0 -232.0 419.9
v -230.0 -220.0 407.9
v 230.0 -220.0 407.9
v 230.0 -220.0 419.9
v -230.0 -220.0 419.9
v -560.0 460.0 315.7
v 560.0 460.0 315.7
v 560.0 -0.0 540.1
v -560.0 -0.0 540.1
v -560.0 -0.0 528.1
v 560.0 -0.0 528.1
v 560.0 460.0 303.7
v -560.0 460.0 303.7
v -500.0 -400.0 345.0
v -500.0 400.0 345.0
v -500.0 -0.0 540.1
v -500.0 -0.0 540.1
v -500.0 400.0 345.0
v -500.0 -400.0 345.0
v 500.0 400.0 345.0
v 500.0 -400.0 345.0
v 500.0 -0.0 540.1
v 500.0 -0.0 540.1
v 500.0 -400.0 345.0
v 500.0 400.0 345.0
v -500.0 400.0 57.0
v 500.0 400.0 57.0
v 500.0 -400.0 57.0
v -500.0 -400.0 57.0
v 500.0 400.0 345.0
v 500.0 -400.0 345.0
v 500.0 -400.0 57.0
v 500.0 400.0 57.0
v -500.0 -400.0 345.0
v -500.0 400.0 345.0
v -500.0 400.0 57.0
v -500.0 -400.0 57.0
v 500.0 -400.0 345.0
v -500.0 -400.0 345.0
v -500.0 -400.0 57.0
v 500.0 -400.0 57.0
v -500.0 400.0 345.0
v 500.0 400.0 345.0
v 500.0 400.0 57.0
v -500.0 400.0 57.0
v -124.6 -148.2 83.7
v 75.4 -148.2 83.7
v 75.4 -328.2 83.7
v -124.6 -328.2 83.7
v 75.4 -148.2 57.0
v 75.4 -328.2 57.0
v 75.4 -328.2 83.7
v 75.4 -148.2 83.7
v -124.6 -328.2 57.0
v -124.6 -148.2 57.0
v -124.6 -148.2 83.7
v -124.6 -328.2 83.7
v 75.4 -328.2 57.0
v -124.6 -328.2 57.0
v -124.6 -328.2 83.7
v 75.4 -328.2 83.7
v -124.6 -148.2 57.0
v 75.4 -148.2 57.0
v 75.4 -148.2 83.7
v -124.6 -148.2 83.7
v -72.7 -154.7 110.3
v 71.3 -154.7 110.3
v 71.3 -284.3 110.3
v -72.7 -284.3 110.3
v 71.3 -154.7 57.0
v 71.3 -284.3 57.0
v 71.3 -284.3 110.3
v 71.3 -154.7 110.3
v -72.7 -284.3 57.0
v -72.7 -154.7 57.0
v -72.7 -154.7 110.3
v -72.7 -284.3 110.3
v 71.3 -284.3 57.0
v -72.7 -284.3 57.0
v -72.7 -284.3 110.3
v 71.3 -284.3 110.3
v -72.7 -154.7 57.0
v 71.3 -154.7 57.0
v 71.3 -154.7 110.3
v -72.7 -154.7 110.3
v -35.6 -189.9 137.0
v 52.4 -189.9 137.0
v 52.4 -269.1 137.0
v -35.6 -269.1 137.0
v 52.4 -189.9 57.0
v 52.4 -269.1 57.0
v 52.4 -269.1 137.0
v 52.4 -189.9 137.0
v -35.6 -269.1 57.0
v -35.6 -189.9 57.0
v -35.6 -189.9 137.0
v -35.6 -269.1 137.0
v 52.4 -269.1 57.0
v -35.6 -269.1 57.0
v -35.6 -269.1 137.0
v 52.4 -269.1 137.0
v -35.6 -189.9 57.0
v 52.4 -189.9 57.0
v 52.4 -189.9 137.0
v -35.6 -189.9 137.0
vt 0.0000 0.0000
vt 4.0000 0.0000
vt 4.0000 2.2250
vt 0.0000 2.2250
vt 0.0000 0.0000
vt 4.0000 0.0000
vt 4.0000 2.2250
vt 0.0000 2.2250
vt 0.0000 0.0000
vt 5.0000 0.0000
vt 5.0000 2.2250
vt 0.0000 2.2250
vt 0.0000 0.0000
vt 5.0000 0.0000
vt 5.0000 2.2250
vt 0.0000 2.2250
vt 0.0000 0.0000
vt 5.1500 0.0000
vt 5.1500 4.1500
vt 0.0000 4.1500
vt 0.0000 0.0000
vt 4.1500 0.0000
vt 4.1500 0.7250
vt 0.0000 0.7250
vt 0.0000 0.0000
vt 4.1500 0.0000
vt 4.1500 0.7250
vt 0.0000 0.7250
vt 0.0000 0.0000
vt 5.1500 0.0000
vt 5.1500 0.7250
vt 0.0000 0.7250
vt 0.0000 0.0000
vt 5.1500 0.0000
vt 5.1500 0.7250
vt 0.0000 0.7250
vt 0.0000 0.0000
vt 0.9167 0.0000
vt 0.9167 1.0000
vt 0.0000 1.0000
vt 0.0000 0.0000
vt 0.7000 0.0000
vt 0.7000 0.2500
vt 0.0000 0.2500
vt 0.0000 0.0000
vt 0.2500 0.0000
vt 0.2500 0.0500
vt 0.0000 0.0500
vt 0.0000 0.0000
vt 0.2500 0.0000
vt 0.2500 0.0500
vt 0.0000 0.0500
vt 0.0000 0.0000
vt 0.7000 0.0000
vt 0.7000 0.0500
vt 0.0000 0.0500
vt 0.0000 0.0000
vt 0.7000 0.0000
vt 0.7000 0.0500
vt 0.0000 0.0500
vt 0.0000 0.0000
vt 1.0000 0.0000
vt 1.0000 2.1000
vt 0.0000 2.1000
vt 0.0000 0.0000
vt 0.6500 0.0000
vt 0.6500 0.2500
vt 0.0000 0.2500
vt 0.0000 0.0000
vt 0.2500 0.0000
vt 0.2500 0.0500
vt 0.0000 0.0500
vt 0.0000 0.0000
vt 0.2500 0.0000
vt 0.2500 0.0500
vt 0.0000 0.0500
vt 0.0000 0.0000
vt 0.6500 0.0000
vt 0.6500 0.0500
vt 0.0000 0.0500
vt 0.0000 0.0000
vt 0.6500 0.0000
vt 0.6500 0.0500
vt 0.0000 0.0500
vt 0.0000 0.0000
vt 0.9167 0.0000
vt 0.9167 1.0000
vt 0.0000 1.0000
vt 0.0000 0.0000
vt 0.7000 0.0000
vt 0.7000 0.2500
vt 0.0000 0.2500
vt 0.0000 0.0000
vt 0.2500 0.0000
vt 0.2500 0.0500
vt 0.0000 0.0500
vt 0.0000 0.0000
vt 0.2500 0.0000
vt 0.2500 0.0500
vt 0.0000 0.0500
vt 0.0000 0.0000
vt 0.7000 0.0000
vt 0.7000 0.0500
vt 0.0000 0.0500
vt 0.0000 0.0000
vt 0.7000 0.0000
vt 0.7000 0.0500
vt 0.0000 0.0500
vt 0.0000 0.0000
vt 0.9167 0.0000
vt 0.9167 1.0000
vt 0.0000 1.0000
vt 0.0000 0.0000
vt 0.7000 0.0000
vt 0.7000 0.2500
vt 0.0000 0.2500
vt 0.0000 0.0000
vt 0.2500 0.0000
vt 0.2500 0.0500
vt 0.0000 0.0500
vt 0.0000 0.0000
vt 0.2500 0.0000
vt 0.2500 0.0500
vt 0.0000 0.0500
vt 0.0000 0.0000
vt 0.7000 0.0000
vt 0.7000 0.0500
vt 0.0000 0.0500
vt 0.0000 0.0000
vt 0.7000 0.0000
vt 0.7000 0.0500
vt 0.0000 0.0500
vt 0.0000 0.0000
vt 0.9167 0.0000
vt 0.9167 1.0000
vt 0.0000 1.0000
vt 0.0000 0.0000
vt 0.7000 0.0000
vt 0.7000 0.2500
vt 0.0000 0.2500
vt 0.0000 0.0000
vt 0.2500 0.0000
vt 0.2500 0.0500
vt 0.0000 0.0500
vt 0.0000 0.0000
vt 0.2500 0.0000
vt 0.2500 0.0500
vt 0.0000 0.0500
vt 0.0000 0.0000
vt 0.7000 0.0000
vt 0.7000 0.0500
vt 0.0000 0.0500
vt 0.0000 0.0000
vt 0.7000 0.0000
vt 0.7000 0.0500
vt 0.0000 0.0500
vt 0.0000 0.0000
vt 0.9167 0.0000
vt 0.9167 1.0000
vt 0.0000 1.0000
vt 0.0000 0.0000
vt 0.7000 0.0000
vt 0.7000 0.2500
vt 0.0000 0.2500
vt 0.0000 0.0000
vt 0.2500 0.0000
vt 0.2500 0.0500
vt 0.0000 0.0500
vt 0.0000 0.0000
vt 0.2500 0.0000
vt 0.2500 0.0500
vt 0.0000 0.0500
vt 0.0000 0.0000
vt 0.7000 0.0000
vt 0.7000 0.0500
vt 0.0000 0.0500
vt 0.0000 0.0000
vt 0.7000 0.0000
vt 0.7000 0.0500
vt 0.0000 0.0500
vt 0.0000 0.0000
vt 0.9167 0.0000
vt 0.9167 1.0000
vt 0.0000 1.0000
vt 0.0000 0.0000
vt 0.9167 0.0000
vt 0.9167 1.0000
vt 0.0000 1.0000
vt 0.0000 0.0000
vt 7.4667 0.0000
vt 7.4667 0.2299
vt 0.0000 0.2299
vt 0.0000 0.0000
vt 7.4667 0.0000
vt 7.4667 1.2535
vt 0.0000 1.2535
vt 0.0000 0.0000
vt 2.3333 0.0000
vt 2.3333 1.9285
vt 0.0000 1.9285
vt 0.0000 0.0000
vt 2.3333 0.0000
vt 2.3333 1.9285
vt 0.0000 1.9285
vt 0.0000 0.0000
vt 11.2000 0.0000
vt 11.2000 0.3449
vt 0.0000 0.3449
vt 0.0000 0.0000
vt 11.2000 0.0000
vt 11.2000 1.8803
vt 0.0000 1.8803
vt 0.0000 0.0000
vt 3.5000 0.0000
vt 3.5000 2.8928
vt 0.0000 2.8928
vt 0.0000 0.0000
vt 3.5000 0.0000
vt 3.5000 2.8928
vt 0.0000 2.8928
vt 0.0000 0.0000
vt 4.6000 0.0000
vt 4.6000 0.1200
vt 0.0000 0.1200
vt 0.0000 0.0000
vt 0.1200 0.0000
vt 0.1200 0.1200
vt 0.0000 0.1200
vt 0.0000 0.0000
vt 0.1200 0.0000
vt 0.1200 0.1200
vt 0.0000 0.1200
vt 0.0000 0.0000
vt 4.6000 0.0000
vt 4.6000 0.1200
vt 0.0000 0.1200
vt 0.0000 0.0000
vt 4.6000 0.0000
vt 4.6000 0.1200
vt 0.0000 0.1200
vt 0.0000 0.0000
vt 4.6000 0.0000
vt 4.6000 0.1200
vt 0.0000 0.1200
vt 0.0000 0.0000
vt 0.1200 0.0000
vt 0.1200 0.1200
vt 0.0000 0.1200
vt 0.0000 0.0000
vt 0.1200 0.0000
vt 0.1200 0.1200
vt 0.0000 0.1200
vt 0.0000 0.0000
vt 4.6000 0.0000
vt 4.6000 0.1200
vt 0.0000 0.1200
vt 0.0000 0.0000
vt 4.6000 0.0000
vt 4.6000 0.1200
vt 0.0000 0.1200
vt 0.0000 0.0000
vt 7.4667 0.0000
vt 7.4667 3.4120
vt 0.0000 3.4120
vt 0.0000 0.0000
vt 11.2000 0.0000
vt 11.2000 5.1180
vt 0.0000 5.1180
vt 0.0000 0.0000
vt 4.0000 0.0000
vt 2.0000 0.9755
vt 0.0000 0.0000
vt 2.2252 0.0000
vt -1.3700 1.7535
vt 0.0000 0.0000
vt 4.0000 0.0000
vt 2.0000 0.9755
vt 0.0000 0.0000
vt 2.2252 0.0000
vt -1.3700 1.7535
vt 0.0000 0.0000
vt 6.2500 0.0000
vt 6.2500 5.0000
vt 0.0000 5.0000
vt 0.0000 0.0000
vt 8.0000 0.0000
vt 8.0000 2.8800
vt 0.0000 2.8800
vt 0.0000 0.0000
vt 8.0000 0.0000
vt 8.0000 2.8800
vt 0.0000 2.8800
vt 0.0000 0.0000
vt 10.0000 0.0000
vt 10.0000 2.8800
vt 0.0000 2.8800
vt 0.0000 0.0000
vt 10.0000 0.0000
vt 10.0000 2.8800
vt 0.0000 2.8800
vt 0.0000 0.0000
vt 1.2500 0.0000
vt 1.2500 1.1250
vt 0.0000 1.1250
vt 0.0000 0.0000
vt 1.1250 0.0000
vt 1.1250 0.1667
vt 0.0000 0.1667
vt 0.0000 0.0000
vt 1.1250 0.0000
vt 1.1250 0.1667
vt 0.0000 0.1667
vt 0.0000 0.0000
vt 1.2500 0.0000
vt 1.2500 0.1667
vt 0.0000 0.1667
vt 0.0000 0.0000
vt 1.2500 0.0000
vt 1.2500 0.1667
vt 0.0000 0.1667
vt 0.0000 0.0000
vt 0.9000 0.0000
vt 0.9000 0.8100
vt 0.0000 0.8100
vt 0.0000 0.0000
vt 0.8100 0.0000
vt 0.8100 0.3333
vt 0.0000 0.3333
vt 0.0000 0.0000
vt 0.8100 0.0000
vt 0.8100 0.3333
vt 0.0000 0.3333
vt 0.0000 0.0000
vt 0.9000 0.0000
vt 0.9000 0.3333
vt 0.0000 0.3333
vt 0.0000 0.0000
vt 0.9000 0.0000
vt 0.9000 0.3333
vt 0.0000 0.3333
vt 0.0000 0.0000
vt 0.5500 0.0000
vt 0.5500 0.4950
vt 0.0000 0.4950
vt 0.0000 0.0000
vt 0.4950 0.0000
vt 0.4950 0.5000
vt 0.0000 0.5000
vt 0.0000 0.0000
vt 0.4950 0.0000
vt 0.4950 0.5000
vt 0.0000 0.5000
vt 0.0000 0.0000
vt 0.5500 0.0000
vt 0.5500 0.5000
vt 0.0000 0.5000
vt 0.0000 0.0000
vt 0.5500 0.0000
vt 0.5500 0.5000
vt 0.0000 0.5000
usemtl wall
f 3/3 2/2 1/1
f 4/4 3/3 1/1
f 7/7 6/6 5/5
f 8/8 7/7 5/5
f 11/11 10/10 9/9
f 12/12 11/11 9/9
f 15/15 14/14 13/13
f 16/16 15/15 13/13
f 271/271 270/270 269/269
f 274/274 273/273 272/272
f 277/277 276/276 275/275
f 280/280 279/279 278/278
usemtl concrete
f 19/19 18/18 17/17
f 20/20 19/19 17/17
f 23/23 22/22 21/21
f 24/24 23/23 21/21
f 27/27 26/26 25/25
f 28/28 27/27 25/25
f 31/31 30/30 29/29
f 32/32 31/31 29/29
f 35/35 34/34 33/33
f 36/36 35/35 33/33
f 43/43 42/42 41/41
f 44/44 43/43 41/41
f 47/47 46/46 45/45
f 48/48 47/47 45/45
f 51/51 50/50 49/49
f 52/52 51/51 49/49
f 55/55 54/54 53/53
f 56/56 55/55 53/53
f 59/59 58/58 57/57
f 60/60 59/59 57/57
f 67/67 66/66 65/65
f 68/68 67/67 65/65
f 71/71 70/70 69/69
f 72/72 71/71 69/69
f 75/75 74/74 73/73
f 76/76 75/75 73/73
f 79/79 78/78 77/77
f 80/80 79/79 77/77
f 83/83 82/82 81/81
f 84/84 83/83 81/81
f 91/91 90/90 89/89
f 92/92 91/91 89/89
f 95/95 94/94 93/93
f 96/96 95/95 93/93
f 99/99 98/98 97/97
f 100/100 99/99 97/97
f 103/103 102/102 101/101
f 104/104 103/103 101/101
f 107/107 106/106 105/105
f 108/108 107/107 105/105
f 115/115 114/114 113/113
f 116/116 115/115 113/113
f 119/119 118/118 117/117
f 120/120 119/119 117/117
f 123/123 122/122 121/121
f 124/124 123/123 121/121
f 127/127 126/126 125/125
f 128/128 127/127 125/125
f 131/131 130/130 129/129
f 132/132 131/131 129/129
f 139/139 138/138 137/137
f 140/140 139/139 137/137
f 143/143 142/142 141/141
f 144/144 143/143 141/141
f 147/147 146/146 145/145
f 148/148 147/147 145/145
f 151/151 150/150 149/149
f 152/152 151/151 149/149
f 155/155 154/154 153/153
f 156/156 155/155 153/153
f 163/163 162/162 161/161
f 164/164 163/163 161/161
f 167/167 166/166 165/165
f 168/168 167/167 165/165
f 171/171 170/170 169/169
f 172/172 171/171 169/169
f 175/175 174/174 173/173
f 176/176 175/175 173/173
f 179/179 178/178 177/177
f 180/180 179/179 177/177
usemtl window
f 39/39 38/38 37/37
f 40/40 39/39 37/37
f 87/87 86/86 85/85
f 88/88 87/87 85/85
f 111/111 110/110 109/109
f 112/112 111/111 109/109
f 135/135 134/134 133/133
f 136/136 135/135 133/133
f 159/159 158/158 157/157
f 160/160 159/159 157/157
f 183/183 182/182 181/181
f 184/184 183/183 181/181
f 187/187 186/186 185/185
f 188/188 187/187 185/185
usemtl wood
f 63/63 62/62 61/61
f 64/64 63/63 61/61
f 207/207 206/206 205/205
f 208/208 207/207 205/205
f 211/211 210/210 209/209
f 212/212 211/211 209/209
f 215/215 214/214 213/213
f 216/216 215/215 213/213
f 219/219 218/218 217/217
f 220/220 219/219 217/217
f 223/223 222/222 221/221
f 224/224 223/223 221/221
f 227/227 226/226 225/225
f 228/228 227/227 225/225
f 231/231 230/230 229/229
f 232/232 231/231 229/229
f 235/235 234/234 233/233
f 236/236 235/235 233/233
f 239/239 238/238 237/237
f 240/240 239/239 237/237
f 243/243 242/242 241/241
f 244/244 243/243 241/241
f 247/247 246/246 245/245
f 248/248 247/247 245/245
f 251/251 250/250 249/249
f 252/252 251/251 249/249
f 255/255 254/254 253/253
f 256/256 255/255 253/253
f 259/259 258/258 257/257
f 260/260 259/259 257/257
f 267/267 266/266 265/265
f 268/268 267/267 265/265
f 287/287 286/286 285/285
f 288/288 287/287 285/285
f 291/291 290/290 289/289
f 292/292 291/291 289/289
f 295/295 294/294 293/293
f 296/296 295/295 293/293
f 299/299 298/298 297/297
f 300/300 299/299 297/297
usemtl roof_tile
f 191/191 190/190 189/189
f 192/192 191/191 189/189
f 195/195 194/194 193/193
f 196/196 195/195 193/193
f 199/199 198/198 197/197
f 200/200 199/199 197/197
f 203/203 202/202 201/201
f 204/204 203/203 201/201
f 263/263 262/262 261/261
f 264/264 263/263 261/261
usemtl rubble
f 283/283 282/282 281/281
f 284/284 283/283 281/281
f 303/303 302/302 301/301
f 304/304 303/303 301/301
f 307/307 306/306 305/305
f 308/308 307/307 305/305
f 311/311 310/310 309/309
f 312/312 311/311 309/309
f 315/315 314/314 313/313
f 316/316 315/315 313/313
f 319/319 318/318 317/317
f 320/320 319/319 317/317
f 323/323 322/322 321/321
f 324/324 323/323 321/321
f 327/327 326/326 325/325
f 328/328 327/327 325/325
f 331/331 330/330 329/329
f 332/332 331/331 329/329
f 335/335 334/334 333/333
f 336/336 335/335 333/333
f 339/339 338/338 337/337
f 340/340 339/339 337/337
f 343/343 342/342 341/341
f 344/344 343/343 341/341
f 347/347 346/346 345/345
f 348/348 347/347 345/345
f 351/351 350/350 349/349
f 352/352 351/351 349/349
f 355/355 354/354 353/353
f 356/356 355/355 353/353
f 359/359 358/358 357/357
f 360/360 359/359 357/357