# Sightline generated building (centimetres)
v 550.0 450.0 -100.0
v 550.0 -450.0 -100.0
v 550.0 -450.0 645.0
v 550.0 450.0 645.0
v -550.0 -450.0 -100.0
v -550.0 450.0 -100.0
v -550.0 450.0 645.0
v -550.0 -450.0 645.0
v 550.0 -450.0 -100.0
v -550.0 -450.0 -100.0
v -550.0 -450.0 645.0
v 550.0 -450.0 645.0
v -550.0 450.0 -100.0
v 550.0 450.0 -100.0
v 550.0 450.0 645.0
v -550.0 450.0 645.0
v -565.0 465.0 45.0
v 565.0 465.0 45.0
v 565.0 -465.0 45.0
v -565.0 -465.0 45.0
v 565.0 465.0 -100.0
v 565.0 -465.0 -100.0
v 565.0 -465.0 45.0
v 565.0 465.0 45.0
v -565.0 -465.0 -100.0
v -565.0 465.0 -100.0
v -565.0 465.0 45.0
v -565.0 -465.0 45.0
v 565.0 -465.0 -100.0
v -565.0 -465.0 -100.0
v -565.0 -465.0 45.0
v 565.0 -465.0 45.0
v -565.0 465.0 -100.0
v 565.0 465.0 -100.0
v 565.0 465.0 45.0
v -565.0 465.0 45.0
v -455.0 453.0 135.0
v -345.0 453.0 135.0
v -345.0 453.0 255.0
v -455.0 453.0 255.0
v -470.0 500.0 280.0
v -330.0 500.0 280.0
v -330.0 450.0 280.0
v -470.0 450.0 280.0
v -330.0 500.0 270.0
v -330.0 450.0 270.0
v -330.0 450.0 280.0
v -330.0 500.0 280.0
v -470.0 450.0 270.0
v -470.0 500.0 270.0
v -470.0 500.0 280.0
v -470.0 450.0 280.0
v -330.0 450.0 270.0
v -470.0 450.0 270.0
v -470.0 450.0 280.0
v -330.0 450.0 280.0
v -470.0 500.0 270.0
v -330.0 500.0 270.0
v -330.0 500.0 280.0
v -470.0 500.0 280.0
v -150.0 453.0 45.0
v -50.0 453.0 45.0
v -50.0 453.0 255.0
v -150.0 453.0 255.0
v -165.0 500.0 280.0
v -35.0 500.0 280.0
v -35.0 450.0 280.0
v -165.0 450.0 280.0
v -35.0 500.0 270.0
v -35.0 450.0 270.0
v -35.0 450.0 280.0
v -35.0 500.0 280.0
v -165.0 450.0 270.0
v -165.0 500.0 270.0
v -165.0 500.0 280.0
v -165.0 450.0 280.0
v -35.0 450.0 270.0
v -165.0 450.0 270.0
v -165.0 450.0 280.0
v -35.0 450.0 280.0
v -165.0 500.0 270.0
v -35.0 500.0 270.0
v -35.0 500.0 280.0
v -165.0 500.0 280.0
v 145.0 453.0 135.0
v 255.0 453.0 135.0
v 255.0 453.0 255.0
v 145.0 453.0 255.0
v 130.0 500.0 280.0
v 270.0 500.0 280.0
v 270.0 450.0 280.0
v 130.0 450.0 280.0
v 270.0 500.0 270.0
v 270.0 450.0 270.0
v 270.0 450.0 280.0
v 270.0 500.0 280.0
v 130.0 450.0 270.0
v 130.0 500.0 270.0
v 130.0 500.0 280.0
v 130.0 450.0 280.0
v 270.0 450.0 270.0
v 130.0 450.0 270.0
v 130.0 450.0 280.0
v 270.0 450.0 280.0
v 130.0 500.0 270.0
v 270.0 500.0 270.0
v 270.0 500.0 280.0
v 130.0 500.0 280.0
v -345.0 -453.0 135.0
v -455.0 -453.0 135.0
v -455.0 -453.0 255.0
v -345.0 -453.0 255.0
v -470.0 -450.0 280.0
v -330.0 -450.0 280.0
v -330.0 -500.0 280.0
v -470.0 -500.0 280.0
v -330.0 -450.0 270.0
v -330.0 -500.0 270.0
v -330.0 -500.0 280.0
v -330.0 -450.0 280.0
v -470.0 -500.0 270.0
v -470.0 -450.0 270.0
v -470.0 -450.0 280.0
v -470.0 -500.0 280.0
v -330.0 -500.0 270.0
v -470.0 -500.0 270.0
v -470.0 -500.0 280.0
v -330.0 -500.0 280.0
v -470.0 -450.0 270.0
v -330.0 -450.0 270.0
v -330.0 -450.0 280.0
v -470.0 -450.0 280.0
v -45.0 -453.0 135.0
v -155.0 -453.0 135.0
v -155.0 -453.0 255.0
v -45.0 -453.0 255.0
v -170.0 -450.0 280.0
v -30.0 -450.0 280.0
v -30.0 -500.0 280.0
v -170.0 -500.0 280.0
v -30.0 -450.0 270.0
v -30.0 -500.0 270.0
v -30.0 -500.0 280.0
v -30.0 -450.0 280.0
v -170.0 -500.0 270.0
v -170.0 -450.0 270.0
v -170.0 -450.0 280.0
v -170.0 -500.0 280.0
v -30.0 -500.0 270.0
v -170.0 -500.0 270.0
v -170.0 -500.0 280.0
v -30.0 -500.0 280.0
v -170.0 -450.0 270.0
v -30.0 -450.0 270.0
v -30.0 -450.0 280.0
v -170.0 -450.0 280.0
v 255.0 -453.0 135.0
v 145.0 -453.0 135.0
v 145.0 -453.0 255.0
v 255.0 -453.0 255.0
v 130.0 -450.0 280.0
v 270.0 -450.0 280.0
v 270.0 -500.0 280.0
v 130.0 -500.0 280.0
v 270.0 -450.0 270.0
v 270.0 -500.0 270.0
v 270.0 -500.0 280.0
v 270.0 -450.0 280.0
v 130.0 -500.0 270.0
v 130.0 -450.0 270.0
v 130.0 -450.0 280.0
v 130.0 -500.0 280.0
v 270.0 -500.0 270.0
v 130.0 -500.0 270.0
v 130.0 -500.0 280.0
v 270.0 -500.0 280.0
v 130.0 -450.0 270.0
v 270.0 -450.0 270.0
v 270.0 -450.0 280.0
v 130.0 -450.0 280.0
v -553.0 -55.0 135.0
v -553.0 55.0 135.0
v -553.0 55.0 255.0
v -553.0 -55.0 255.0
v 553.0 55.0 135.0
v 553.0 -55.0 135.0
v 553.0 -55.0 255.0
v 553.0 55.0 255.0
v -455.0 453.0 435.0
v -345.0 453.0 435.0
v -345.0 453.0 555.0
v -455.0 453.0 555.0
v -470.0 500.0 580.0
v -330.0 500.0 580.0
v -330.0 450.0 580.0
v -470.0 450.0 580.0
v -330.0 500.0 570.0
v -330.0 450.0 570.0
v -330.0 450.0 580.0
v -330.0 500.0 580.0
v -470.0 450.0 570.0
v -470.0 500.0 570.0
v -470.0 500.0 580.0
v -470.0 450.0 580.0
v -330.0 450.0 570.0
v -470.0 450.0 570.0
v -470.0 450.0 580.0
v -330.0 450.0 580.0
v -470.0 500.0 570.0
v -330.0 500.0 570.0
v -330.0 500.0 580.0
v -470.0 500.0 580.0
v -155.0 453.0 435.0
v -45.0 453.0 435.0
v -45.0 453.0 555.0
v -155.0 453.0 555.0
v -170.0 500.0 580.0
v -30.0 500.0 580.0
v -30.0 450.0 580.0
v -170.0 450.0 580.0
v -30.0 500.0 570.0
v -30.0 450.0 570.0
v -30.0 450.0 580.0
v -30.0 500.0 580.0
v -170.0 450.0 570.0
v -170.0 500.0 570.0
v -170.0 500.0 580.0
v -170.0 450.0 580.0
v -30.0 450.0 570.0
v -170.0 450.0 570.0
v -170.0 450.0 580.0
v -30.0 450.0 580.0
v -170.0 500.0 570.0
v -30.0 500.0 570.0
v -30.0 500.0 580.0
v -170.0 500.0 580.0
v 145.0 453.0 435.0
v 255.0 453.0 435.0
v 255.0 453.0 555.0
v 145.0 453.0 555.0
v 130.0 500.0 580.0
v 270.0 500.0 580.0
v 270.0 450.0 580.0
v 130.0 450.0 580.0
v 270.0 500.0 570.0
v 270.0 450.0 570.0
v 270.0 450.0 580.0
v 270.0 500.0 580.0
v 130.0 450.0 570.0
v 130.0 500.0 570.0
v 130.0 500.0 580.0
v 130.0 450.0 580.0
v 270.0 450.0 570.0
v 130.0 450.0 570.0
v 130.0 450.0 580.0
v 270.0 450.0 580.0
v 130.0 500.0 570.0
v 270.0 500.0 570.0
v 270.0 500.0 580.0
v 130.0 500.0 580.0
v -345.0 -453.0 435.0
v -455.0 -453.0 435.0
v -455.0 -453.0 555.0
v -345.0 -453.0 555.0
v -470.0 -450.0 580.0
v -330.0 -450.0 580.0
v -330.0 -500.0 580.0
v -470.0 -500.0 580.0
v -330.0 -450.0 570.0
v -330.0 -500.0 570.0
v -330.0 -500.0 580.0
v -330.0 -450.0 580.0
v -470.0 -500.0 570.0
v -470.0 -450.0 570.0
v -470.0 -450.0 580.0
v -470.0 -500.0 580.0
v -330.0 -500.0 570.0
v -470.0 -500.0 570.0
v -470.0 -500.0 580.0
v -330.0 -500.0 580.0
v -470.0 -450.0 570.0
v -330.0 -450.0 570.0
v -330.0 -450.0 580.0
v -470.0 -450.0 580.0
v -45.0 -453.0 435.0
v -155.0 -453.0 435.0
v -155.0 -453.0 555.0
v -45.0 -453.0 555.0
v -170.0 -450.0 580.0
v -30.0 -450.0 580.0
v -30.0 -500.0 580.0
v -170.0 -500.0 580.0
v -30.0 -450.0 570.0
v -30.0 -500.0 570.0
v -30.0 -500.0 580.0
v -30.0 -450.0 580.0
v -170.0 -500.0 570.0
v -170.0 -450.0 570.0
v -170.0 -450.0 580.0
v -170.0 -500.0 580.0
v -30.0 -500.0 570.0
v -170.0 -500.0 570.0
v -170.0 -500.0 580.0
v -30.0 -500.0 580.0
v -170.0 -450.0 570.0
v -30.0 -450.0 570.0
v -30.0 -450.0 580.0
v -170.0 -450.0 580.0
v 255.0 -453.0 435.0
v 145.0 -453.0 435.0
v 145.0 -453.0 555.0
v 255.0 -453.0 555.0
v 130.0 -450.0 580.0
v 270.0 -450.0 580.0
v 270.0 -500.0 580.0
v 130.0 -500.0 580.0
v 270.0 -450.0 570.0
v 270.0 -500.0 570.0
v 270.0 -500.0 580.0
v 270.0 -450.0 580.0
v 130.0 -500.0 570.0
v 130.0 -450.0 570.0
v 130.0 -450.0 580.0
v 130.0 -500.0 580.0
v 270.0 -500.0 570.0
v 130.0 -500.0 570.0
v 130.0 -500.0 580.0
v 270.0 -500.0 580.0
v 130.0 -450.0 570.0
v 270.0 -450.0 570.0
v 270.0 -450.0 580.0
v 130.0 -450.0 580.0
v -553.0 -55.0 435.0
v -553.0 55.0 435.0
v -553.0 55.0 555.0
v -553.0 -55.0 555.0
v 553.0 55.0 435.0
v 553.0 -55.0 435.0
v 553.0 -55.0 555.0
v 553.0 55.0 555.0
v -558.0 458.0 355.0
v 558.0 458.0 355.0
v 558.0 -458.0 355.0
v -558.0 -458.0 355.0
v 558.0 458.0 335.0
v 558.0 -458.0 335.0
v 558.0 -458.0 355.0
v 558.0 458.0 355.0
v -558.0 -458.0 335.0
v -558.0 458.0 335.0
v -558.0 458.0 355.0
v -558.0 -458.0 355.0
v 558.0 -458.0 335.0
v -558.0 -458.0 335.0
v -558.0 -458.0 355.0
v 558.0 -458.0 355.0
v -558.0 458.0 335.0
v 558.0 458.0 335.0
v 558.0 458.0 355.0
v -558.0 458.0 355.0
v -580.0 480.0 665.0
v 580.0 480.0 665.0
v 580.0 -160.0 665.0
v -580.0 -160.0 665.0
v -580.0 480.0 645.0
v -580.0 -160.0 645.0
v 580.0 -160.0 645.0
v 580.0 480.0 645.0
v 580.0 480.0 645.0
v 580.0 -160.0 645.0
v 580.0 -160.0 665.0
v 580.0 480.0 665.0
v -580.0 -160.0 645.0
v -580.0 480.0 645.0
v -580.0 480.0 665.0
v -580.0 -160.0 665.0
v 580.0 -160.0 645.0
v -580.0 -160.0 645.0
v -580.0 -160.0 665.0
v 580.0 -160.0 665.0
v -580.0 480.0 645.0
v 580.0 480.0 645.0
v 580.0 480.0 665.0
v -580.0 480.0 665.0
v -580.0 -160.0 665.0
v 200.0 -160.0 665.0
v 200.0 -480.0 665.0
v -580.0 -480.0 665.0
v -580.0 -160.0 645.0
v -580.0 -480.0 645.0
v 200.0 -480.0 645.0
v 200.0 -160.0 645.0
v 200.0 -160.0 645.0
v 200.0 -480.0 645.0
v 200.0 -480.0 665.0
v 200.0 -160.0 665.0
v -580.0 -480.0 645.0
v -580.0 -160.0 645.0
v -580.0 -160.0 665.0
v -580.0 -480.0 665.0
v 200.0 -480.0 645.0
v -580.0 -480.0 645.0
v -580.0 -480.0 665.0
v 200.0 -480.0 665.0
v -580.0 -160.0 645.0
v 200.0 -160.0 645.0
v 200.0 -160.0 665.0
v -580.0 -160.0 665.0
v -580.0 480.0 755.0
v 580.0 480.0 755.0
v 580.0 465.0 755.0
v -580.0 465.0 755.0
v 580.0 480.0 665.0
v 580.0 465.0 665.0
v 580.0 465.0 755.0
v 580.0 480.0 755.0
v -580.0 465.0 665.0
v -580.0 480.0 665.0
v -580.0 480.0 755.0
v -580.0 465.0 755.0
v 580.0 465.0 665.0
v -580.0 465.0 665.0
v -580.0 465.0 755.0
v 580.0 465.0 755.0
v -580.0 480.0 665.0
v 580.0 480.0 665.0
v 580.0 480.0 755.0
v -580.0 480.0 755.0
v -580.0 -465.0 755.0
v 200.0 -465.0 755.0
v 200.0 -480.0 755.0
v -580.0 -480.0 755.0
v 200.0 -465.0 665.0
v 200.0 -480.0 665.0
v 200.0 -480.0 755.0
v 200.0 -465.0 755.0
v -580.0 -480.0 665.0
v -580.0 -465.0 665.0
v -580.0 -465.0 755.0
v -580.0 -480.0 755.0
v 200.0 -480.0 665.0
v -580.0 -480.0 665.0
v -580.0 -480.0 755.0
v 200.0 -480.0 755.0
v -580.0 -465.0 665.0
v 200.0 -465.0 665.0
v 200.0 -465.0 755.0
v -580.0 -465.0 755.0
v -580.0 480.0 755.0
v -565.0 480.0 755.0
v -565.0 -480.0 755.0
v -580.0 -480.0 755.0
v -565.0 480.0 665.0
v -565.0 -480.0 665.0
v -565.0 -480.0 755.0
v -565.0 480.0 755.0
v -580.0 -480.0 665.0
v -580.0 480.0 665.0
v -580.0 480.0 755.0
v -580.0 -480.0 755.0
v -565.0 -480.0 665.0
v -580.0 -480.0 665.0
v -580.0 -480.0 755.0
v -565.0 -480.0 755.0
v -580.0 480.0 665.0
v -565.0 480.0 665.0
v -565.0 480.0 755.0
v -580.0 480.0 755.0
v 565.0 480.0 755.0
v 580.0 480.0 755.0
v 580.0 -160.0 755.0
v 565.0 -160.0 755.0
v 580.0 480.0 665.0
v 580.0 -160.0 665.0
v 580.0 -160.0 755.0
v 580.0 480.0 755.0
v 565.0 -160.0 665.0
v 565.0 480.0 665.0
v 565.0 480.0 755.0
v 565.0 -160.0 755.0
v 580.0 -160.0 665.0
v 565.0 -160.0 665.0
v 565.0 -160.0 755.0
v 580.0 -160.0 755.0
v 565.0 480.0 665.0
v 580.0 480.0 665.0
v 580.0 480.0 755.0
v 565.0 480.0 755.0
v 200.0 -160.0 645.0
v 580.0 -160.0 645.0
v 580.0 -160.0 665.0
v 200.0 -160.0 665.0
v 200.0 -160.0 665.0
v 580.0 -160.0 665.0
v 580.0 -160.0 645.0
v 200.0 -160.0 645.0
v 200.0 -160.0 645.0
v 200.0 -480.0 645.0
v 200.0 -480.0 665.0
v 200.0 -160.0 665.0
v 200.0 -160.0 665.0
v 200.0 -480.0 665.0
v 200.0 -480.0 645.0
v 200.0 -160.0 645.0
v 210.0 -170.0 645.0
v 420.0 -180.0 630.0
v 400.0 -350.0 510.0
v 220.0 -330.0 530.0
v 220.0 -330.0 530.0
v 400.0 -350.0 510.0
v 420.0 -180.0 630.0
v 210.0 -170.0 645.0
v 190.0 410.0 905.0
v 490.0 410.0 905.0
v 490.0 130.0 905.0
v 190.0 130.0 905.0
v 490.0 410.0 665.0
v 490.0 130.0 665.0
v 490.0 130.0 905.0
v 490.0 410.0 905.0
v 190.0 130.0 665.0
v 190.0 410.0 665.0
v 190.0 410.0 905.0
v 190.0 130.0 905.0
v 490.0 130.0 665.0
v 190.0 130.0 665.0
v 190.0 130.0 905.0
v 490.0 130.0 905.0
v 190.0 410.0 665.0
v 490.0 410.0 665.0
v 490.0 410.0 905.0
v 190.0 410.0 905.0
v 170.0 430.0 920.0
v 510.0 430.0 920.0
v 510.0 110.0 920.0
v 170.0 110.0 920.0
v 510.0 430.0 905.0
v 510.0 110.0 905.0
v 510.0 110.0 920.0
v 510.0 430.0 920.0
v 170.0 110.0 905.0
v 170.0 430.0 905.0
v 170.0 430.0 920.0
v 170.0 110.0 920.0
v 510.0 110.0 905.0
v 170.0 110.0 905.0
v 170.0 110.0 920.0
v 510.0 110.0 920.0
v 170.0 430.0 905.0
v 510.0 430.0 905.0
v 510.0 430.0 920.0
v 170.0 430.0 920.0
v -550.0 450.0 357.0
v 550.0 450.0 357.0
v 550.0 -450.0 357.0
v -550.0 -450.0 357.0
v 550.0 450.0 645.0
v 550.0 -450.0 645.0
v 550.0 -450.0 357.0
v 550.0 450.0 357.0
v -550.0 -450.0 645.0
v -550.0 450.0 645.0
v -550.0 450.0 357.0
v -550.0 -450.0 357.0
v 550.0 -450.0 645.0
v -550.0 -450.0 645.0
v -550.0 -450.0 357.0
v 550.0 -450.0 357.0
v -550.0 450.0 645.0
v 550.0 450.0 645.0
v 550.0 450.0 357.0
v -550.0 450.0 357.0
v 192.7 -194.5 397.0
v 492.7 -194.5 397.0
v 492.7 -454.5 397.0
v 192.7 -454.5 397.0
v 492.7 -194.5 357.0
v 492.7 -454.5 357.0
v 492.7 -454.5 397.0
v 492.7 -194.5 397.0
v 192.7 -454.5 357.0
v 192.7 -194.5 357.0
v 192.7 -194.5 397.0
v 192.7 -454.5 397.0
v 492.7 -454.5 357.0
v 192.7 -454.5 357.0
v 192.7 -454.5 397.0
v 492.7 -454.5 397.0
v 192.7 -194.5 357.0
v 492.7 -194.5 357.0
v 492.7 -194.5 397.0
v 192.7 -194.5 397.0
v 254.3 -204.7 437.0
v 470.3 -204.7 437.0
v 470.3 -391.9 437.0
v 254.3 -391.9 437.0
v 470.3 -204.7 357.0
v 470.3 -391.9 357.0
v 470.3 -391.9 437.0
v 470.3 -204.7 437.0
v 254.3 -391.9 357.0
v 254.3 -204.7 357.0
v 254.3 -204.7 437.0
v 254.3 -391.9 437.0
v 470.3 -391.9 357.0
v 254.3 -391.9 357.0
v 254.3 -391.9 437.0
v 470.3 -391.9 437.0
v 254.3 -204.7 357.0
v 470.3 -204.7 357.0
v 470.3 -204.7 437.0
v 254.3 -204.7 437.0
v 304.6 -253.2 477.0
v 436.6 -253.2 477.0
v 436.6 -367.6 477.0
v 304.6 -367.6 477.0
v 436.6 -253.2 357.0
v 436.6 -367.6 357.0
v 436.6 -367.6 477.0
v 436.6 -253.2 477.0
v 304.6 -367.6 357.0
v 304.6 -253.2 357.0
v 304.6 -253.2 477.0
v 304.6 -367.6 477.0
v 436.6 -367.6 357.0
v 304.6 -367.6 357.0
v 304.6 -367.6 477.0
v 436.6 -367.6 477.0
v 304.6 -253.2 357.0
v 436.6 -253.2 357.0
v 436.6 -253.2 477.0
v 304.6 -253.2 477.0
vt 0.0000 0.0000
vt 4.5000 0.0000
vt 4.5000 3.7250
vt 0.0000 3.7250
vt 0.0000 0.0000
vt 4.5000 0.0000
vt 4.5000 3.7250
vt 0.0000 3.7250
vt 0.0000 0.0000
vt 5.5000 0.0000
vt 5.5000 3.7250
vt 0.0000 3.7250
vt 0.0000 0.0000
vt 5.5000 0.0000
vt 5.5000 3.7250
vt 0.0000 3.7250
vt 0.0000 0.0000
vt 5.6500 0.0000
vt 5.6500 4.6500
vt 0.0000 4.6500
vt 0.0000 0.0000
vt 4.6500 0.0000
vt 4.6500 0.7250
vt 0.0000 0.7250
vt 0.0000 0.0000
vt 4.6500 0.0000
vt 4.6500 0.7250
vt 0.0000 0.7250
vt 0.0000 0.0000
vt 5.6500 0.0000
vt 5.6500 0.7250
vt 0.0000 0.7250
vt 0.0000 0.0000
vt 5.6500 0.0000
vt 5.6500 0.7250
vt 0.0000 0.7250
vt 0.0000 0.0000
vt 0.9167 0.0000
vt 0.9167 1.0000
vt 0.0000 1.0000
vt 0.0000 0.0000
vt 0.7000 0.0000
vt 0.7000 0.2500
vt 0.0000 0.2500
vt 0.0000 0.0000
vt 0.2500 0.0000
vt 0.2500 0.0500
vt 0.0000 0.0500
vt 0.0000 0.0000
vt 0.2500 0.0000
vt 0.2500 0.0500
vt 0.0000 0.0500
vt 0.0000 0.0000
vt 0.7000 0.0000
vt 0.7000 0.0500
vt 0.0000 0.0500
vt 0.0000 0.0000
vt 0.7000 0.0000
vt 0.7000 0.0500
vt 0.0000 0.0500
vt 0.0000 0.0000
vt 1.0000 0.0000
vt 1.0000 2.1000
vt 0.0000 2.1000
vt 0.0000 0.0000
vt 0.6500 0.0000
vt 0.6500 0.2500
vt 0.0000 0.2500
vt 0.0000 0.0000
vt 0.2500 0.0000
vt 0.2500 0.0500
vt 0.0000 0.0500
vt 0.0000 0.0000
vt 0.2500 0.0000
vt 0.2500 0.0500
vt 0.0000 0.0500
vt 0.0000 0.0000
vt 0.6500 0.0000
vt 0.6500 0.0500
vt 0.0000 0.0500
vt 0.0000 0.0000
vt 0.6500 0.0000
vt 0.6500 0.0500
vt 0.0000 0.0500
vt 0.0000 0.0000
vt 0.9167 0.0000
vt 0.9167 1.0000
vt 0.0000 1.0000
vt 0.0000 0.0000
vt 0.7000 0.0000
vt 0.7000 0.2500
vt 0.0000 0.2500
vt 0.0000 0.0000
vt 0.2500 0.0000
vt 0.2500 0.0500
vt 0.0000 0.0500
vt 0.0000 0.0000
vt 0.2500 0.0000
vt 0.2500 0.0500
vt 0.0000 0.0500
vt 0.0000 0.0000
vt 0.7000 0.0000
vt 0.7000 0.0500
vt 0.0000 0.0500
vt 0.0000 0.0000
vt 0.7000 0.0000
vt 0.7000 0.0500
vt 0.0000 0.0500
vt 0.0000 0.0000
vt 0.9167 0.0000
vt 0.9167 1.0000
vt 0.0000 1.0000
vt 0.0000 0.0000
vt 0.7000 0.0000
vt 0.7000 0.2500
vt 0.0000 0.2500
vt 0.0000 0.0000
vt 0.2500 0.0000
vt 0.2500 0.0500
vt 0.0000 0.0500
vt 0.0000 0.0000
vt 0.2500 0.0000
vt 0.2500 0.0500
vt 0.0000 0.0500
vt 0.0000 0.0000
vt 0.7000 0.0000
vt 0.7000 0.0500
vt 0.0000 0.0500
vt 0.0000 0.0000
vt 0.7000 0.0000
vt 0.7000 0.0500
vt 0.0000 0.0500
vt 0.0000 0.0000
vt 0.9167 0.0000
vt 0.9167 1.0000
vt 0.0000 1.0000
vt 0.0000 0.0000
vt 0.7000 0.0000
vt 0.7000 0.2500
vt 0.0000 0.2500
vt 0.0000 0.0000
vt 0.2500 0.0000
vt 0.2500 0.0500
vt 0.0000 0.0500
vt 0.0000 0.0000
vt 0.2500 0.0000
vt 0.2500 0.0500
vt 0.0000 0.0500
vt 0.0000 0.0000
vt 0.7000 0.0000
vt 0.7000 0.0500
vt 0.0000 0.0500
vt 0.0000 0.0000
vt 0.7000 0.0000
vt 0.7000 0.0500
vt 0.0000 0.0500
vt 0.0000 0.0000
vt 0.9167 0.0000
vt 0.9167 1.0000
vt 0.0000 1.0000
vt 0.0000 0.0000
vt 0.7000 0.0000
vt 0.7000 0.2500
vt 0.0000 0.2500
vt 0.0000 0.0000
vt 0.2500 0.0000
vt 0.2500 0.0500
vt 0.0000 0.0500
vt 0.0000 0.0000
vt 0.2500 0.0000
vt 0.2500 0.0500
vt 0.0000 0.0500
vt 0.0000 0.0000
vt 0.7000 0.0000
vt 0.7000 0.0500
vt 0.0000 0.0500
vt 0.0000 0.0000
vt 0.7000 0.0000
vt 0.7000 0.0500
vt 0.0000 0.0500
vt 0.0000 0.0000
vt 0.9167 0.0000
vt 0.9167 1.0000
vt 0.0000 1.0000
vt 0.0000 0.0000
vt 0.9167 0.0000
vt 0.9167 1.0000
vt 0.0000 1.0000
vt 0.0000 0.0000
vt 0.9167 0.0000
vt 0.9167 1.0000
vt 0.0000 1.0000
vt 0.0000 0.0000
vt 0.7000 0.0000
vt 0.7000 0.2500
vt 0.0000 0.2500
vt 0.0000 0.0000
vt 0.2500 0.0000
vt 0.2500 0.0500
vt 0.0000 0.0500
vt 0.0000 0.0000
vt 0.2500 0.0000
vt 0.2500 0.0500
vt 0.0000 0.0500
vt 0.0000 0.0000
vt 0.7000 0.0000
vt 0.7000 0.0500
vt 0.0000 0.0500
vt 0.0000 0.0000
vt 0.7000 0.0000
vt 0.7000 0.0500
vt 0.0000 0.0500
vt 0.0000 0.0000
vt 0.9167 0.0000
vt 0.9167 1.0000
vt 0.0000 1.0000
vt 0.0000 0.0000
vt 0.7000 0.0000
vt 0.7000 0.2500
vt 0.0000 0.2500
vt 0.0000 0.0000
vt 0.2500 0.0000
vt 0.2500 0.0500
vt 0.0000 0.0500
vt 0.0000 0.0000
vt 0.2500 0.0000
vt 0.2500 0.0500
vt 0.0000 0.0500
vt 0.0000 0.0000
vt 0.7000 0.0000
vt 0.7000 0.0500
vt 0.0000 0.0500
vt 0.0000 0.0000
vt 0.7000 0.0000
vt 0.7000 0.0500
vt 0.0000 0.0500
vt 0.0000 0.0000
vt 0.9167 0.0000
vt 0.9167 1.0000
vt 0.0000 1.0000
vt 0.0000 0.0000
vt 0.7000 0.0000
vt 0.7000 0.2500
vt 0.0000 0.2500
vt 0.0000 0.0000
vt 0.2500 0.0000
vt 0.2500 0.0500
vt 0.0000 0.0500
vt 0.0000 0.0000
vt 0.2500 0.0000
vt 0.2500 0.0500
vt 0.0000 0.0500
vt 0.0000 0.0000
vt 0.7000 0.0000
vt 0.7000 0.0500
vt 0.0000 0.0500
vt 0.0000 0.0000
vt 0.7000 0.0000
vt 0.7000 0.0500
vt 0.0000 0.0500
vt 0.0000 0.0000
vt 0.9167 0.0000
vt 0.9167 1.0000
vt 0.0000 1.0000
vt 0.0000 0.0000
vt 0.7000 0.0000
vt 0.7000 0.2500
vt 0.0000 0.2500
vt 0.0000 0.0000
vt 0.2500 0.0000
vt 0.2500 0.0500
vt 0.0000 0.0500
vt 0.0000 0.0000
vt 0.2500 0.0000
vt 0.2500 0.0500
vt 0.0000 0.0500
vt 0.0000 0.0000
vt 0.7000 0.0000
vt 0.7000 0.0500
vt 0.0000 0.0500
vt 0.0000 0.0000
vt 0.7000 0.0000
vt 0.7000 0.0500
vt 0.0000 0.0500
vt 0.0000 0.0000
vt 0.9167 0.0000
vt 0.9167 1.0000
vt 0.0000 1.0000
vt 0.0000 0.0000
vt 0.7000 0.0000
vt 0.7000 0.2500
vt 0.0000 0.2500
vt 0.0000 0.0000
vt 0.2500 0.0000
vt 0.2500 0.0500
vt 0.0000 0.0500
vt 0.0000 0.0000
vt 0.2500 0.0000
vt 0.2500 0.0500
vt 0.0000 0.0500
vt 0.0000 0.0000
vt 0.7000 0.0000
vt 0.7000 0.0500
vt 0.0000 0.0500
vt 0.0000 0.0000
vt 0.7000 0.0000
vt 0.7000 0.0500
vt 0.0000 0.0500
vt 0.0000 0.0000
vt 0.9167 0.0000
vt 0.9167 1.0000
vt 0.0000 1.0000
vt 0.0000 0.0000
vt 0.7000 0.0000
vt 0.7000 0.2500
vt 0.0000 0.2500
vt 0.0000 0.0000
vt 0.2500 0.0000
vt 0.2500 0.0500
vt 0.0000 0.0500
vt 0.0000 0.0000
vt 0.2500 0.0000
vt 0.2500 0.0500
vt 0.0000 0.0500
vt 0.0000 0.0000
vt 0.7000 0.0000
vt 0.7000 0.0500
vt 0.0000 0.0500
vt 0.0000 0.0000
vt 0.7000 0.0000
vt 0.7000 0.0500
vt 0.0000 0.0500
vt 0.0000 0.0000
vt 0.9167 0.0000
vt 0.9167 1.0000
vt 0.0000 1.0000
vt 0.0000 0.0000
vt 0.9167 0.0000
vt 0.9167 1.0000
vt 0.0000 1.0000
vt 0.0000 0.0000
vt 5.5800 0.0000
vt 5.5800 4.5800
vt 0.0000 4.5800
vt 0.0000 0.0000
vt 4.5800 0.0000
vt 4.5800 0.1000
vt 0.0000 0.1000
vt 0.0000 0.0000
vt 4.5800 0.0000
vt 4.5800 0.1000
vt 0.0000 0.1000
vt 0.0000 0.0000
vt 5.5800 0.0000
vt 5.5800 0.1000
vt 0.0000 0.1000
vt 0.0000 0.0000
vt 5.5800 0.0000
vt 5.5800 0.1000
vt 0.0000 0.1000
vt 0.0000 0.0000
vt 5.8000 0.0000
vt 5.8000 3.2000
vt 0.0000 3.2000
vt 0.0000 0.0000
vt 3.2000 0.0000
vt 3.2000 5.8000
vt 0.0000 5.8000
vt 0.0000 0.0000
vt 3.2000 0.0000
vt 3.2000 0.1000
vt 0.0000 0.1000
vt 0.0000 0.0000
vt 3.2000 0.0000
vt 3.2000 0.1000
vt 0.0000 0.1000
vt 0.0000 0.0000
vt 5.8000 0.0000
vt 5.8000 0.1000
vt 0.0000 0.1000
vt 0.0000 0.0000
vt 5.8000 0.0000
vt 5.8000 0.1000
vt 0.0000 0.1000
vt 0.0000 0.0000
vt 3.9000 0.0000
vt 3.9000 1.6000
vt 0.0000 1.6000
vt 0.0000 0.0000
vt 1.6000 0.0000
vt 1.6000 3.9000
vt 0.0000 3.9000
vt 0.0000 0.0000
vt 1.6000 0.0000
vt 1.6000 0.1000
vt 0.0000 0.1000
vt 0.0000 0.0000
vt 1.6000 0.0000
vt 1.6000 0.1000
vt 0.0000 0.1000
vt 0.0000 0.0000
vt 3.9000 0.0000
vt 3.9000 0.1000
vt 0.0000 0.1000
vt 0.0000 0.0000
vt 3.9000 0.0000
vt 3.9000 0.1000
vt 0.0000 0.1000
vt 0.0000 0.0000
vt 5.8000 0.0000
vt 5.8000 0.0750
vt 0.0000 0.0750
vt 0.0000 0.0000
vt 0.0750 0.0000
vt 0.0750 0.4500
vt 0.0000 0.4500
vt 0.0000 0.0000
vt 0.0750 0.0000
vt 0.0750 0.4500
vt 0.0000 0.4500
vt 0.0000 0.0000
vt 5.8000 0.0000
vt 5.8000 0.4500
vt 0.0000 0.4500
vt 0.0000 0.0000
vt 5.8000 0.0000
vt 5.8000 0.4500
vt 0.0000 0.4500
vt 0.0000 0.0000
vt 3.9000 0.0000
vt 3.9000 0.0750
vt 0.0000 0.0750
vt 0.0000 0.0000
vt 0.0750 0.0000
vt 0.0750 0.4500
vt 0.0000 0.4500
vt 0.0000 0.0000
vt 0.0750 0.0000
vt 0.0750 0.4500
vt 0.0000 0.4500
vt 0.0000 0.0000
vt 3.9000 0.0000
vt 3.9000 0.4500
vt 0.0000 0.4500
vt 0.0000 0.0000
vt 3.9000 0.0000
vt 3.9000 0.4500
vt 0.0000 0.4500
vt 0.0000 0.0000
vt 0.0750 0.0000
vt 0.0750 4.8000
vt 0.0000 4.8000
vt 0.0000 0.0000
vt 4.8000 0.0000
vt 4.8000 0.4500
vt 0.0000 0.4500
vt 0.0000 0.0000
vt 4.8000 0.0000
vt 4.8000 0.4500
vt 0.0000 0.4500
vt 0.0000 0.0000
vt 0.0750 0.0000
vt 0.0750 0.4500
vt 0.0000 0.4500
vt 0.0000 0.0000
vt 0.0750 0.0000
vt 0.0750 0.4500
vt 0.0000 0.4500
vt 0.0000 0.0000
vt 0.0750 0.0000
vt 0.0750 3.2000
vt 0.0000 3.2000
vt 0.0000 0.0000
vt 3.2000 0.0000
vt 3.2000 0.4500
vt 0.0000 0.4500
vt 0.0000 0.0000
vt 3.2000 0.0000
vt 3.2000 0.4500
vt 0.0000 0.4500
vt 0.0000 0.0000
vt 0.0750 0.0000
vt 0.0750 0.4500
vt 0.0000 0.4500
vt 0.0000 0.0000
vt 0.0750 0.0000
vt 0.0750 0.4500
vt 0.0000 0.4500
vt 0.0000 0.0000
vt 2.3750 0.0000
vt 2.3750 0.1250
vt 0.0000 0.1250
vt 0.0000 0.0000
vt 2.3750 0.0000
vt 2.3750 0.1250
vt 0.0000 0.1250
vt 0.0000 0.0000
vt 2.0000 0.0000
vt 2.0000 0.1250
vt 0.0000 0.1250
vt 0.0000 0.0000
vt 2.0000 0.0000
vt 2.0000 0.1250
vt 0.0000 0.1250
vt 0.0000 0.0000
vt 1.0539 0.0000
vt 1.0373 1.0451
vt 0.1287 0.9780
vt 0.0000 0.0000
vt 0.9110 -0.0000
vt 0.8507 1.0435
vt -0.2003 0.9659
vt 0.0000 0.0000
vt 1.5000 0.0000
vt 1.5000 1.4000
vt 0.0000 1.4000
vt 0.0000 0.0000
vt 1.4000 0.0000
vt 1.4000 1.2000
vt 0.0000 1.2000
vt 0.0000 0.0000
vt 1.4000 0.0000
vt 1.4000 1.2000
vt 0.0000 1.2000
vt 0.0000 0.0000
vt 1.5000 0.0000
vt 1.5000 1.2000
vt 0.0000 1.2000
vt 0.0000 0.0000
vt 1.5000 0.0000
vt 1.5000 1.2000
vt 0.0000 1.2000
vt 0.0000 0.0000
vt 1.7000 0.0000
vt 1.7000 1.6000
vt 0.0000 1.6000
vt 0.0000 0.0000
vt 1.6000 0.0000
vt 1.6000 0.0750
vt 0.0000 0.0750
vt 0.0000 0.0000
vt 1.6000 0.0000
vt 1.6000 0.0750
vt 0.0000 0.0750
vt 0.0000 0.0000
vt 1.7000 0.0000
vt 1.7000 0.0750
vt 0.0000 0.0750
vt 0.0000 0.0000
vt 1.7000 0.0000
vt 1.7000 0.0750
vt 0.0000 0.0750
vt 0.0000 0.0000
vt 6.8750 0.0000
vt 6.8750 5.6250
vt 0.0000 5.6250
vt 0.0000 0.0000
vt 9.0000 0.0000
vt 9.0000 2.8800
vt 0.0000 2.8800
vt 0.0000 0.0000
vt 9.0000 0.0000
vt 9.0000 2.8800
vt 0.0000 2.8800
vt 0.0000 0.0000
vt 11.0000 0.0000
vt 11.0000 2.8800
vt 0.0000 2.8800
vt 0.0000 0.0000
vt 11.0000 0.0000
vt 11.0000 2.8800
vt 0.0000 2.8800
vt 0.0000 0.0000
vt 1.8750 0.0000
vt 1.8750 1.6250
vt 0.0000 1.6250
vt 0.0000 0.0000
vt 1.6250 0.0000
vt 1.6250 0.2500
vt 0.0000 0.2500
vt 0.0000 0.0000
vt 1.6250 0.0000
vt 1.6250 0.2500
vt 0.0000 0.2500
vt 0.0000 0.0000
vt 1.8750 0.0000
vt 1.8750 0.2500
vt 0.0000 0.2500
vt 0.0000 0.0000
vt 1.8750 0.0000
vt 1.8750 0.2500
vt 0.0000 0.2500
vt 0.0000 0.0000
vt 1.3500 0.0000
vt 1.3500 1.1700
vt 0.0000 1.1700
vt 0.0000 0.0000
vt 1.1700 0.0000
vt 1.1700 0.5000
vt 0.0000 0.5000
vt 0.0000 0.0000
vt 1.1700 0.0000
vt 1.1700 0.5000
vt 0.0000 0.5000
vt 0.0000 0.0000
vt 1.3500 0.0000
vt 1.3500 0.5000
vt 0.0000 0.5000
vt 0.0000 0.0000
vt 1.3500 0.0000
vt 1.3500 0.5000
vt 0.0000 0.5000
vt 0.0000 0.0000
vt 0.8250 0.0000
vt 0.8250 0.7150
vt 0.0000 0.7150
vt 0.0000 0.0000
vt 0.7150 0.0000
vt 0.7150 0.7500
vt 0.0000 0.7500
vt 0.0000 0.0000
vt 0.7150 0.0000
vt 0.7150 0.7500
vt 0.0000 0.7500
vt 0.0000 0.0000
vt 0.8250 0.0000
vt 0.8250 0.7500
vt 0.0000 0.7500
vt 0.0000 0.0000
vt 0.8250 0.0000
vt 0.8250 0.7500
vt 0.0000 0.7500
usemtl wall
f 3/3 2/2 1/1
f 4/4 3/3 1/1
f 7/7 6/6 5/5
f 8/8 7/7 5/5
f 11/11 10/10 9/9
f 12/12 11/11 9/9
f 15/15 14/14 13/13
f 16/16 15/15 13/13
f 415/415 414/414 413/413
f 416/416 415/415 413/413
f 419/419 418/418 417/417
f 420/420 419/419 417/417
f 423/423 422/422 421/421
f 424/424 423/423 421/421
f 427/427 426/426 425/425
f 428/428 427/427 425/425
f 435/435 434/434 433/433
f 436/436 435/435 433/433
f 439/439 438/438 437/437
f 440/440 439/439 437/437
f 443/443 442/442 441/441
f 444/444 443/443 441/441
f 447/447 446/446 445/445
f 448/448 447/447 445/445
f 455/455 454/454 453/453
f 456/456 455/455 453/453
f 459/459 458/458 457/457
f 460/460 459/459 457/457
f 463/463 462/462 461/461
f 464/464 463/463 461/461
f 467/467 466/466 465/465
f 468/468 467/467 465/465
f 475/475 474/474 473/473
f 476/476 475/475 473/473
f 479/479 478/478 477/477
f 480/480 479/479 477/477
f 483/483 482/482 481/481
f 484/484 483/483 481/481
f 487/487 486/486 485/485
f 488/488 487/487 485/485
f 515/515 514/514 513/513
f 516/516 515/515 513/513
f 519/519 518/518 517/517
f 520/520 519/519 517/517
f 523/523 522/522 521/521
f 524/524 523/523 521/521
f 527/527 526/526 525/525
f 528/528 527/527 525/525
f 531/531 530/530 529/529
f 532/532 531/531 529/529
usemtl concrete
f 19/19 18/18 17/17
f 20/20 19/19 17/17
f 23/23 22/22 21/21
f 24/24 23/23 21/21
f 27/27 26/26 25/25
f 28/28 27/27 25/25
f 31/31 30/30 29/29
f 32/32 31/31 29/29
f 35/35 34/34 33/33
f 36/36 35/35 33/33
f 43/43 42/42 41/41
f 44/44 43/43 41/41
f 47/47 46/46 45/45
f 48/48 47/47 45/45
f 51/51 50/50 49/49
f 52/52 51/51 49/49
f 55/55 54/54 53/53
f 56/56 55/55 53/53
f 59/59 58/58 57/57
f 60/60 59/59 57/57
f 67/67 66/66 65/65
f 68/68 67/67 65/65
f 71/71 70/70 69/69
f 72/72 71/71 69/69
f 75/75 74/74 73/73
f 76/76 75/75 73/73
f 79/79 78/78 77/77
f 80/80 79/79 77/77
f 83/83 82/82 81/81
f 84/84 83/83 81/81
f 91/91 90/90 89/89
f 92/92 91/91 89/89
f 95/95 94/94 93/93
f 96/96 95/95 93/93
f 99/99 98/98 97/97
f 100/100 99/99 97/97
f 103/103 102/102 101/101
f 104/104 103/103 101/101
f 107/107 106/106 105/105
f 108/108 107/107 105/105
f 115/115 114/114 113/113
f 116/116 115/115 113/113
f 119/119 118/118 117/117
f 120/120 119/119 117/117
f 123/123 122/122 121/121
f 124/124 123/123 121/121
f 127/127 126/126 125/125
f 128/128 127/127 125/125
f 131/131 130/130 129/129
f 132/132 131/131 129/129
f 139/139 138/138 137/137
f 140/140 139/139 137/137
f 143/143 142/142 141/141
f 144/144 143/143 141/141
f 147/147 146/146 145/145
f 148/148 147/147 145/145
f 151/151 150/150 149/149
f 152/152 151/151 149/149
f 155/155 154/154 153/153
f 156/156 155/155 153/153
f 163/163 162/162 161/161
f 164/164 163/163 161/161
f 167/167 166/166 165/165
f 168/168 167/167 165/165
f 171/171 170/170 169/169
f 172/172 171/171 169/169
f 175/175 174/174 173/173
f 176/176 175/175 173/173
f 179/179 178/178 177/177
f 180/180 179/179 177/177
f 195/195 194/194 193/193
f 196/196 195/195 193/193
f 199/199 198/198 197/197
f 200/200 199/199 197/197
f 203/203 202/202 201/201
f 204/204 203/203 201/201
f 207/207 206/206 205/205
f 208/208 207/207 205/205
f 211/211 210/210 209/209
f 212/212 211/211 209/209
f 219/219 218/218 217/217
f 220/220 219/219 217/217
f 223/223 222/222 221/221
f 224/224 223/223 221/221
f 227/227 226/226 225/225
f 228/228 227/227 225/225
f 231/231 230/230 229/229
f 232/232 231/231 229/229
f 235/235 234/234 233/233
f 236/236 235/235 233/233
f 243/243 242/242 241/241
f 244/244 243/243 241/241
f 247/247 246/246 245/245
f 248/248 247/247 245/245
f 251/251 250/250 249/249
f 252/252 251/251 249/249
f 255/255 254/254 253/253
f 256/256 255/255 253/253
f 259/259 258/258 257/257
f 260/260 259/259 257/257
f 267/267 266/266 265/265
f 268/268 267/267 265/265
f 271/271 270/270 269/269
f 272/272 271/271 269/269
f 275/275 274/274 273/273
f 276/276 275/275 273/273
f 279/279 278/278 277/277
f 280/280 279/279 277/277
f 283/283 282/282 281/281
f 284/284 283/283 281/281
f 291/291 290/290 289/289
f 292/292 291/291 289/289
f 295/295 294/294 293/293
f 296/296 295/295 293/293
f 299/299 298/298 297/297
f 300/300 299/299 297/297
f 303/303 302/302 301/301
f 304/304 303/303 301/301
f 307/307 306/306 305/305
f 308/308 307/307 305/305
f 315/315 314/314 313/313
f 316/316 315/315 313/313
f 319/319 318/318 317/317
f 320/320 319/319 317/317
f 323/323 322/322 321/321
f 324/324 323/323 321/321
f 327/327 326/326 325/325
f 328/328 327/327 325/325
f 331/331 330/330 329/329
f 332/332 331/331 329/329
f 343/343 342/342 341/341
f 344/344 343/343 341/341
f 347/347 346/346 345/345
f 348/348 347/347 345/345
f 351/351 350/350 349/349
f 352/352 351/351 349/349
f 355/355 354/354 353/353
f 356/356 355/355 353/353
f 359/359 358/358 357/357
f 360/360 359/359 357/357
f 363/363 362/362 361/361
f 364/364 363/363 361/361
f 367/367 366/366 365/365
f 368/368 367/367 365/365
f 371/371 370/370 369/369
f 372/372 371/371 369/369
f 375/375 374/374 373/373
f 376/376 375/375 373/373
f 379/379 378/378 377/377
f 380/380 379/379 377/377
f 383/383 382/382 381/381
f 384/384 383/383 381/381
f 387/387 386/386 385/385
f 388/388 387/387 385/385
f 391/391 390/390 389/389
f 392/392 391/391 389/389
f 395/395 394/394 393/393
f 396/396 395/395 393/393
f 399/399 398/398 397/397
f 400/400 399/399 397/397
f 403/403 402/402 401/401
f 404/404 403/403 401/401
f 407/407 406/406 405/405
f 408/408 407/407 405/405
f 411/411 410/410 409/409
f 412/412 411/411 409/409
f 431/431 430/430 429/429
f 432/432 431/431 429/429
f 451/451 450/450 449/449
f 452/452 451/451 449/449
f 471/471 470/470 469/469
f 472/472 471/471 469/469
f 507/507 506/506 505/505
f 508/508 507/507 505/505
f 511/511 510/510 509/509
f 512/512 511/511 509/509
f 535/535 534/534 533/533
f 536/536 535/535 533/533
f 539/539 538/538 537/537
f 540/540 539/539 537/537
f 543/543 542/542 541/541
f 544/544 543/543 541/541
f 547/547 546/546 545/545
f 548/548 547/547 545/545
f 551/551 550/550 549/549
f 552/552 551/551 549/549
usemtl window
f 39/39 38/38 37/37
f 40/40 39/39 37/37
f 87/87 86/86 85/85
f 88/88 87/87 85/85
f 111/111 110/110 109/109
f 112/112 111/111 109/109
f 135/135 134/134 133/133
f 136/136 135/135 133/133
f 159/159 158/158 157/157
f 160/160 159/159 157/157
f 183/183 182/182 181/181
f 184/184 183/183 181/181
f 187/187 186/186 185/185
f 188/188 187/187 185/185
f 191/191 190/190 189/189
f 192/192 191/191 189/189
f 215/215 214/214 213/213
f 216/216 215/215 213/213
f 239/239 238/238 237/237
f 240/240 239/239 237/237
f 263/263 262/262 261/261
f 264/264 263/263 261/261
f 287/287 286/286 285/285
f 288/288 287/287 285/285
f 311/311 310/310 309/309
f 312/312 311/311 309/309
f 335/335 334/334 333/333
f 336/336 335/335 333/333
f 339/339 338/338 337/337
f 340/340 339/339 337/337
usemtl wood
f 63/63 62/62 61/61
f 64/64 63/63 61/61
f 559/559 558/558 557/557
f 560/560 559/559 557/557
f 563/563 562/562 561/561
f 564/564 563/563 561/561
f 567/567 566/566 565/565
f 568/568 567/567 565/565
f 571/571 570/570 569/569
f 572/572 571/571 569/569
usemtl rubble
f 491/491 490/490 489/489
f 492/492 491/491 489/489
f 495/495 494/494 493/493
f 496/496 495/495 493/493
f 499/499 498/498 497/497
f 500/500 499/499 497/497
f 503/503 502/502 501/501
f 504/504 503/503 501/501
f 555/555 554/554 553/553
f 556/556 555/555 553/553
f 575/575 574/574 573/573
f 576/576 575/575 573/573
f 579/579 578/578 577/577
f 580/580 579/579 577/577
f 583/583 582/582 581/581
f 584/584 583/583 581/581
f 587/587 586/586 585/585
f 588/588 587/587 585/585
f 591/591 590/590 589/589
f 592/592 591/591 589/589
f 595/595 594/594 593/593
f 596/596 595/595 593/593
f 599/599 598/598 597/597
f 600/600 599/599 597/597
f 603/603 602/602 601/601
f 604/604 603/603 601/601
f 607/607 606/606 605/605
f 608/608 607/607 605/605
f 611/611 610/610 609/609
f 612/612 611/611 609/609
f 615/615 614/614 613/613
f 616/616 615/615 613/613
f 619/619 618/618 617/617
f 620/620 619/619 617/617
f 623/623 622/622 621/621
f 624/624 623/623 621/621
f 627/627 626/626 625/625
f 628/628 627/627 625/625
f 631/631 630/630 629/629
f 632/632 631/631 629/629