# Sightline generated building (centimetres)
v 450.0 350.0 -100.0
v 450.0 -350.0 -100.0
v 450.0 -350.0 345.0
v 450.0 350.0 345.0
v -450.0 -350.0 -100.0
v -450.0 350.0 -100.0
v -450.0 350.0 345.0
v -450.0 -350.0 345.0
v -450.0 350.0 -100.0
v 450.0 350.0 -100.0
v 450.0 350.0 345.0
v -450.0 350.0 345.0
v -465.0 365.0 45.0
v 465.0 365.0 45.0
v 465.0 -365.0 45.0
v -465.0 -365.0 45.0
v 465.0 365.0 -100.0
v 465.0 -365.0 -100.0
v 465.0 -365.0 45.0
v 465.0 365.0 45.0
v -465.0 -365.0 -100.0
v -465.0 365.0 -100.0
v -465.0 365.0 45.0
v -465.0 -365.0 45.0
v 465.0 -365.0 -100.0
v -465.0 -365.0 -100.0
v -465.0 -365.0 45.0
v 465.0 -365.0 45.0
v -465.0 365.0 -100.0
v 465.0 365.0 -100.0
v 465.0 365.0 45.0
v -465.0 365.0 45.0
v -355.0 353.0 135.0
v -245.0 353.0 135.0
v -245.0 353.0 255.0
v -355.0 353.0 255.0
v -370.0 400.0 280.0
v -230.0 400.0 280.0
v -230.0 350.0 280.0
v -370.0 350.0 280.0
v -230.0 400.0 270.0
v -230.0 350.0 270.0
v -230.0 350.0 280.0
v -230.0 400.0 280.0
v -370.0 350.0 270.0
v -370.0 400.0 270.0
v -370.0 400.0 280.0
v -370.0 350.0 280.0
v -230.0 350.0 270.0
v -370.0 350.0 270.0
v -370.0 350.0 280.0
v -230.0 350.0 280.0
v -370.0 400.0 270.0
v -230.0 400.0 270.0
v -230.0 400.0 280.0
v -370.0 400.0 280.0
v -50.0 353.0 45.0
v 50.0 353.0 45.0
v 50.0 353.0 255.0
v -50.0 353.0 255.0
v -65.0 400.0 280.0
v 65.0 400.0 280.0
v 65.0 350.0 280.0
v -65.0 350.0 280.0
v 65.0 400.0 270.0
v 65.0 350.0 270.0
v 65.0 350.0 280.0
v 65.0 400.0 280.0
v -65.0 350.0 270.0
v -65.0 400.0 270.0
v -65.0 400.0 280.0
v -65.0 350.0 280.0
v 65.0 350.0 270.0
v -65.0 350.0 270.0
v -65.0 350.0 280.0
v 65.0 350.0 280.0
v -65.0 400.0 270.0
v 65.0 400.0 270.0
v 65.0 400.0 280.0
v -65.0 400.0 280.0
v 245.0 353.0 135.0
v 355.0 353.0 135.0
v 355.0 353.0 255.0
v 245.0 353.0 255.0
v 230.0 400.0 280.0
v 370.0 400.0 280.0
v 370.0 350.0 280.0
v 230.0 350.0 280.0
v 370.0 400.0 270.0
v 370.0 350.0 270.0
v 370.0 350.0 280.0
v 370.0 400.0 280.0
v 230.0 350.0 270.0
v 230.0 400.0 270.0
v 230.0 400.0 280.0
v 230.0 350.0 280.0
v 370.0 350.0 270.0
v 230.0 350.0 270.0
v 230.0 350.0 280.0
v 370.0 350.0 280.0
v 230.0 400.0 270.0
v 370.0 400.0 270.0
v 370.0 400.0 280.0
v 230.0 400.0 280.0
v -245.0 -353.0 135.0
v -355.0 -353.0 135.0
v -355.0 -353.0 255.0
v -245.0 -353.0 255.0
v -370.0 -350.0 280.0
v -230.0 -350.0 280.0
v -230.0 -400.0 280.0
v -370.0 -400.0 280.0
v -230.0 -350.0 270.0
v -230.0 -400.0 270.0
v -230.0 -400.0 280.0
v -230.0 -350.0 280.0
v -370.0 -400.0 270.0
v -370.0 -350.0 270.0
v -370.0 -350.0 280.0
v -370.0 -400.0 280.0
v -230.0 -400.0 270.0
v -370.0 -400.0 270.0
v -370.0 -400.0 280.0
v -230.0 -400.0 280.0
v -370.0 -350.0 270.0
v -230.0 -350.0 270.0
v -230.0 -350.0 280.0
v -370.0 -350.0 280.0
v 55.0 -353.0 135.0
v -55.0 -353.0 135.0
v -55.0 -353.0 255.0
v 55.0 -353.0 255.0
v -70.0 -350.0 280.0
v 70.0 -350.0 280.0
v 70.0 -400.0 280.0
v -70.0 -400.0 280.0
v 70.0 -350.0 270.0
v 70.0 -400.0 270.0
v 70.0 -400.0 280.0
v 70.0 -350.0 280.0
v -70.0 -400.0 270.0
v -70.0 -350.0 270.0
v -70.0 -350.0 280.0
v -70.0 -400.0 280.0
v 70.0 -400.0 270.0
v -70.0 -400.0 270.0
v -70.0 -400.0 280.0
v 70.0 -400.0 280.0
v -70.0 -350.0 270.0
v 70.0 -350.0 270.0
v 70.0 -350.0 280.0
v -70.0 -350.0 280.0
v 355.0 -353.0 135.0
v 245.0 -353.0 135.0
v 245.0 -353.0 255.0
v 355.0 -353.0 255.0
v 230.0 -350.0 280.0
v 370.0 -350.0 280.0
v 370.0 -400.0 280.0
v 230.0 -400.0 280.0
v 370.0 -350.0 270.0
v 370.0 -400.0 270.0
v 370.0 -400.0 280.0
v 370.0 -350.0 280.0
v 230.0 -400.0 270.0
v 230.0 -350.0 270.0
v 230.0 -350.0 280.0
v 230.0 -400.0 280.0
v 370.0 -400.0 270.0
v 230.0 -400.0 270.0
v 230.0 -400.0 280.0
v 370.0 -400.0 280.0
v 230.0 -350.0 270.0
v 370.0 -350.0 270.0
v 370.0 -350.0 280.0
v 230.0 -350.0 280.0
v -453.0 -55.0 135.0
v -453.0 55.0 135.0
v -453.0 55.0 255.0
v -453.0 -55.0 255.0
v 453.0 55.0 135.0
v 453.0 -55.0 135.0
v 453.0 -55.0 255.0
v 453.0 55.0 255.0
v -450.0 -350.0 -100.0
v 450.0 -350.0 -100.0
v 450.0 -460.0 255.0
v -450.0 -460.0 255.0
v -450.0 -460.0 255.0
v 450.0 -460.0 255.0
v 450.0 -350.0 -100.0
v -450.0 -350.0 -100.0
v -480.0 380.0 365.0
v 480.0 380.0 365.0
v 480.0 -440.0 280.0
v -480.0 -440.0 280.0
v -480.0 -440.0 280.0
v 480.0 -440.0 280.0
v 480.0 380.0 365.0
v -480.0 380.0 365.0
v -480.0 380.0 455.0
v 480.0 380.0 455.0
v 480.0 365.0 455.0
v -480.0 365.0 455.0
v 480.0 380.0 365.0
v 480.0 365.0 365.0
v 480.0 365.0 455.0
v 480.0 380.0 455.0
v -480.0 365.0 365.0
v -480.0 380.0 365.0
v -480.0 380.0 455.0
v -480.0 365.0 455.0
v 480.0 365.0 365.0
v -480.0 365.0 365.0
v -480.0 365.0 455.0
v 480.0 365.0 455.0
v -480.0 380.0 365.0
v 480.0 380.0 365.0
v 480.0 380.0 455.0
v -480.0 380.0 455.0
v -480.0 380.0 455.0
v -465.0 380.0 455.0
v -465.0 -250.0 455.0
v -480.0 -250.0 455.0
v -465.0 380.0 365.0
v -465.0 -250.0 365.0
v -465.0 -250.0 455.0
v -465.0 380.0 455.0
v -480.0 -250.0 365.0
v -480.0 380.0 365.0
v -480.0 380.0 455.0
v -480.0 -250.0 455.0
v -465.0 -250.0 365.0
v -480.0 -250.0 365.0
v -480.0 -250.0 455.0
v -465.0 -250.0 455.0
v -480.0 380.0 365.0
v -465.0 380.0 365.0
v -465.0 380.0 455.0
v -480.0 380.0 455.0
v 465.0 380.0 455.0
v 480.0 380.0 455.0
v 480.0 -250.0 455.0
v 465.0 -250.0 455.0
v 480.0 380.0 365.0
v 480.0 -250.0 365.0
v 480.0 -250.0 455.0
v 480.0 380.0 455.0
v 465.0 -250.0 365.0
v 465.0 380.0 365.0
v 465.0 380.0 455.0
v 465.0 -250.0 455.0
v 480.0 -250.0 365.0
v 465.0 -250.0 365.0
v 465.0 -250.0 455.0
v 480.0 -250.0 455.0
v 465.0 380.0 365.0
v 480.0 380.0 365.0
v 480.0 380.0 455.0
v 465.0 380.0 455.0
v -450.0 350.0 57.0
v 450.0 350.0 57.0
v 450.0 -350.0 57.0
v -450.0 -350.0 57.0
v 450.0 350.0 305.0
v 450.0 -350.0 305.0
v 450.0 -350.0 57.0
v 450.0 350.0 57.0
v -450.0 -350.0 305.0
v -450.0 350.0 305.0
v -450.0 350.0 57.0
v -450.0 -350.0 57.0
v 450.0 -350.0 305.0
v -450.0 -350.0 305.0
v -450.0 -350.0 57.0
v 450.0 -350.0 57.0
v -450.0 350.0 305.0
v 450.0 350.0 305.0
v 450.0 350.0 57.0
v -450.0 350.0 57.0
v -385.2 -423.7 31.7
v 14.8 -423.7 31.7
v 14.8 -643.7 31.7
v -385.2 -643.7 31.7
v 14.8 -423.7 -5.0
v 14.8 -643.7 -5.0
v 14.8 -643.7 31.7
v 14.8 -423.7 31.7
v -385.2 -643.7 -5.0
v -385.2 -423.7 -5.0
v -385.2 -423.7 31.7
v -385.2 -643.7 31.7
v 14.8 -643.7 -5.0
v -385.2 -643.7 -5.0
v -385.2 -643.7 31.7
v 14.8 -643.7 31.7
v -385.2 -423.7 -5.0
v 14.8 -423.7 -5.0
v 14.8 -423.7 31.7
v -385.2 -423.7 31.7
v -301.0 -407.1 68.3
v -13.0 -407.1 68.3
v -13.0 -565.5 68.3
v -301.0 -565.5 68.3
v -13.0 -407.1 -5.0
v -13.0 -565.5 -5.0
v -13.0 -565.5 68.3
v -13.0 -407.1 68.3
v -301.0 -565.5 -5.0
v -301.0 -407.1 -5.0
v -301.0 -407.1 68.3
v -301.0 -565.5 68.3
v -13.0 -565.5 -5.0
v -301.0 -565.5 -5.0
v -301.0 -565.5 68.3
v -13.0 -565.5 68.3
v -301.0 -407.1 -5.0
v -13.0 -407.1 -5.0
v -13.0 -407.1 68.3
v -301.0 -407.1 68.3
v -292.5 -437.0 105.0
v -116.5 -437.0 105.0
v -116.5 -533.8 105.0
v -292.5 -533.8 105.0
v -116.5 -437.0 -5.0
v -116.5 -533.8 -5.0
v -116.5 -533.8 105.0
v -116.5 -437.0 105.0
v -292.5 -533.8 -5.0
v -292.5 -437.0 -5.0
v -292.5 -437.0 105.0
v -292.5 -533.8 105.0
v -116.5 -533.8 -5.0
v -292.5 -533.8 -5.0
v -292.5 -533.8 105.0
v -116.5 -533.8 105.0
v -292.5 -437.0 -5.0
v -116.5 -437.0 -5.0
v -116.5 -437.0 105.0
v -292.5 -437.0 105.0
vt 0.0000 0.0000
vt 3.5000 0.0000
vt 3.5000 2.2250
vt 0.0000 2.2250
vt 0.0000 0.0000
vt 3.5000 0.0000
vt 3.5000 2.2250
vt 0.0000 2.2250
vt 0.0000 0.0000
vt 4.5000 0.0000
vt 4.5000 2.2250
vt 0.0000 2.2250
vt 0.0000 0.0000
vt 4.6500 0.0000
vt 4.6500 3.6500
vt 0.0000 3.6500
vt 0.0000 0.0000
vt 3.6500 0.0000
vt 3.6500 0.7250
vt 0.0000 0.7250
vt 0.0000 0.0000
vt 3.6500 0.0000
vt 3.6500 0.7250
vt 0.0000 0.7250
vt 0.0000 0.0000
vt 4.6500 0.0000
vt 4.6500 0.7250
vt 0.0000 0.7250
vt 0.0000 0.0000
vt 4.6500 0.0000
vt 4.6500 0.7250
vt 0.0000 0.7250
vt 0.0000 0.0000
vt 0.9167 0.0000
vt 0.9167 1.0000
vt 0.0000 1.0000
vt 0.0000 0.0000
vt 0.7000 0.0000
vt 0.7000 0.2500
vt 0.0000 0.2500
vt 0.0000 0.0000
vt 0.2500 0.0000
vt 0.2500 0.0500
vt 0.0000 0.0500
vt 0.0000 0.0000
vt 0.2500 0.0000
vt 0.2500 0.0500
vt 0.0000 0.0500
vt 0.0000 0.0000
vt 0.7000 0.0000
vt 0.7000 0.0500
vt 0.0000 0.0500
vt 0.0000 0.0000
vt 0.7000 0.0000
vt 0.7000 0.0500
vt 0.0000 0.0500
vt 0.0000 0.0000
vt 1.0000 0.0000
vt 1.0000 2.1000
vt 0.0000 2.1000
vt 0.0000 0.0000
vt 0.6500 0.0000
vt 0.6500 0.2500
vt 0.0000 0.2500
vt 0.0000 0.0000
vt 0.2500 0.0000
vt 0.2500 0.0500
vt 0.0000 0.0500
vt 0.0000 0.0000
vt 0.2500 0.0000
vt 0.2500 0.0500
vt 0.0000 0.0500
vt 0.0000 0.0000
vt 0.6500 0.0000
vt 0.6500 0.0500
vt 0.0000 0.0500
vt 0.0000 0.0000
vt 0.6500 0.0000
vt 0.6500 0.0500
vt 0.0000 0.0500
vt 0.0000 0.0000
vt 0.9167 0.0000
vt 0.9167 1.0000
vt 0.0000 1.0000
vt 0.0000 0.0000
vt 0.7000 0.0000
vt 0.7000 0.2500
vt 0.0000 0.2500
vt 0.0000 0.0000
vt 0.2500 0.0000
vt 0.2500 0.0500
vt 0.0000 0.0500
vt 0.0000 0.0000
vt 0.2500 0.0000
vt 0.2500 0.0500
vt 0.0000 0.0500
vt 0.0000 0.0000
vt 0.7000 0.0000
vt 0.7000 0.0500
vt 0.0000 0.0500
vt 0.0000 0.0000
vt 0.7000 0.0000
vt 0.7000 0.0500
vt 0.0000 0.0500
vt 0.0000 0.0000
vt 0.9167 0.0000
vt 0.9167 1.0000
vt 0.0000 1.0000
vt 0.0000 0.0000
vt 0.7000 0.0000
vt 0.7000 0.2500
vt 0.0000 0.2500
vt 0.0000 0.0000
vt 0.2500 0.0000
vt 0.2500 0.0500
vt 0.0000 0.0500
vt 0.0000 0.0000
vt 0.2500 0.0000
vt 0.2500 0.0500
vt 0.0000 0.0500
vt 0.0000 0.0000
vt 0.7000 0.0000
vt 0.7000 0.0500
vt 0.0000 0.0500
vt 0.0000 0.0000
vt 0.7000 0.0000
vt 0.7000 0.0500
vt 0.0000 0.0500
vt 0.0000 0.0000
vt 0.9167 0.0000
vt 0.9167 1.0000
vt 0.0000 1.0000
vt 0.0000 0.0000
vt 0.7000 0.0000
vt 0.7000 0.2500
vt 0.0000 0.2500
vt 0.0000 0.0000
vt 0.2500 0.0000
vt 0.2500 0.0500
vt 0.0000 0.0500
vt 0.0000 0.0000
vt 0.2500 0.0000
vt 0.2500 0.0500
vt 0.0000 0.0500
vt 0.0000 0.0000
vt 0.7000 0.0000
vt 0.7000 0.0500
vt 0.0000 0.0500
vt 0.0000 0.0000
vt 0.7000 0.0000
vt 0.7000 0.0500
vt 0.0000 0.0500
vt 0.0000 0.0000
vt 0.9167 0.0000
vt 0.9167 1.0000
vt 0.0000 1.0000
vt 0.0000 0.0000
vt 0.7000 0.0000
vt 0.7000 0.2500
vt 0.0000 0.2500
vt 0.0000 0.0000
vt 0.2500 0.0000
vt 0.2500 0.0500
vt 0.0000 0.0500
vt 0.0000 0.0000
vt 0.2500 0.0000
vt 0.2500 0.0500
vt 0.0000 0.0500
vt 0.0000 0.0000
vt 0.7000 0.0000
vt 0.7000 0.0500
vt 0.0000 0.0500
vt 0.0000 0.0000
vt 0.7000 0.0000
vt 0.7000 0.0500
vt 0.0000 0.0500
vt 0.0000 0.0000
vt 0.9167 0.0000
vt 0.9167 1.0000
vt 0.0000 1.0000
vt 0.0000 0.0000
vt 0.9167 0.0000
vt 0.9167 1.0000
vt 0.0000 1.0000
vt 0.0000 0.0000
vt 4.5000 0.0000
vt 4.5000 1.8583
vt 0.0000 1.8583
vt 0.0000 0.0000
vt 4.5000 0.0000
vt 4.5000 1.8583
vt 0.0000 1.8583
vt 0.0000 0.0000
vt 4.8000 0.0000
vt 4.8000 4.1220
vt 0.0000 4.1220
vt 0.0000 0.0000
vt 4.8000 0.0000
vt 4.8000 4.1220
vt 0.0000 4.1220
vt 0.0000 0.0000
vt 4.8000 0.0000
vt 4.8000 0.0750
vt 0.0000 0.0750
vt 0.0000 0.0000
vt 0.0750 0.0000
vt 0.0750 0.4500
vt 0.0000 0.4500
vt 0.0000 0.0000
vt 0.0750 0.0000
vt 0.0750 0.4500
vt 0.0000 0.4500
vt 0.0000 0.0000
vt 4.8000 0.0000
vt 4.8000 0.4500
vt 0.0000 0.4500
vt 0.0000 0.0000
vt 4.8000 0.0000
vt 4.8000 0.4500
vt 0.0000 0.4500
vt 0.0000 0.0000
vt 0.0750 0.0000
vt 0.0750 3.1500
vt 0.0000 3.1500
vt 0.0000 0.0000
vt 3.1500 0.0000
vt 3.1500 0.4500
vt 0.0000 0.4500
vt 0.0000 0.0000
vt 3.1500 0.0000
vt 3.1500 0.4500
vt 0.0000 0.4500
vt 0.0000 0.0000
vt 0.0750 0.0000
vt 0.0750 0.4500
vt 0.0000 0.4500
vt 0.0000 0.0000
vt 0.0750 0.0000
vt 0.0750 0.4500
vt 0.0000 0.4500
vt 0.0000 0.0000
vt 0.0750 0.0000
vt 0.0750 3.1500
vt 0.0000 3.1500
vt 0.0000 0.0000
vt 3.1500 0.0000
vt 3.1500 0.4500
vt 0.0000 0.4500
vt 0.0000 0.0000
vt 3.1500 0.0000
vt 3.1500 0.4500
vt 0.0000 0.4500
vt 0.0000 0.0000
vt 0.0750 0.0000
vt 0.0750 0.4500
vt 0.0000 0.4500
vt 0.0000 0.0000
vt 0.0750 0.0000
vt 0.0750 0.4500
vt 0.0000 0.4500
vt 0.0000 0.0000
vt 5.6250 0.0000
vt 5.6250 4.3750
vt 0.0000 4.3750
vt 0.0000 0.0000
vt 7.0000 0.0000
vt 7.0000 2.4800
vt 0.0000 2.4800
vt 0.0000 0.0000
vt 7.0000 0.0000
vt 7.0000 2.4800
vt 0.0000 2.4800
vt 0.0000 0.0000
vt 9.0000 0.0000
vt 9.0000 2.4800
vt 0.0000 2.4800
vt 0.0000 0.0000
vt 9.0000 0.0000
vt 9.0000 2.4800
vt 0.0000 2.4800
vt 0.0000 0.0000
vt 2.5000 0.0000
vt 2.5000 1.3750
vt 0.0000 1.3750
vt 0.0000 0.0000
vt 1.3750 0.0000
vt 1.3750 0.2292
vt 0.0000 0.2292
vt 0.0000 0.0000
vt 1.3750 0.0000
vt 1.3750 0.2292
vt 0.0000 0.2292
vt 0.0000 0.0000
vt 2.5000 0.0000
vt 2.5000 0.2292
vt 0.0000 0.2292
vt 0.0000 0.0000
vt 2.5000 0.0000
vt 2.5000 0.2292
vt 0.0000 0.2292
vt 0.0000 0.0000
vt 1.8000 0.0000
vt 1.8000 0.9900
vt 0.0000 0.9900
vt 0.0000 0.0000
vt 0.9900 0.0000
vt 0.9900 0.4583
vt 0.0000 0.4583
vt 0.0000 0.0000
vt 0.9900 0.0000
vt 0.9900 0.4583
vt 0.0000 0.4583
vt 0.0000 0.0000
vt 1.8000 0.0000
vt 1.8000 0.4583
vt 0.0000 0.4583
vt 0.0000 0.0000
vt 1.8000 0.0000
vt 1.8000 0.4583
vt 0.0000 0.4583
vt 0.0000 0.0000
vt 1.1000 0.0000
vt 1.1000 0.6050
vt 0.0000 0.6050
vt 0.0000 0.0000
vt 0.6050 0.0000
vt 0.6050 0.6875
vt 0.0000 0.6875
vt 0.0000 0.0000
vt 0.6050 0.0000
vt 0.6050 0.6875
vt 0.0000 0.6875
vt 0.0000 0.0000
vt 1.1000 0.0000
vt 1.1000 0.6875
vt 0.0000 0.6875
vt 0.0000 0.0000
vt 1.1000 0.0000
vt 1.1000 0.6875
vt 0.0000 0.6875
usemtl wall
f 3/3 2/2 1/1
f 4/4 3/3 1/1
f 7/7 6/6 5/5
f 8/8 7/7 5/5
f 11/11 10/10 9/9
f 12/12 11/11 9/9
f 187/187 186/186 185/185
f 188/188 187/187 185/185
f 191/191 190/190 189/189
f 192/192 191/191 189/189
f 207/207 206/206 205/205
f 208/208 207/207 205/205
f 211/211 210/210 209/209
f 212/212 211/211 209/209
f 215/215 214/214 213/213
f 216/216 215/215 213/213
f 219/219 218/218 217/217
f 220/220 219/219 217/217
f 227/227 226/226 225/225
f 228/228 227/227 225/225
f 231/231 230/230 229/229
f 232/232 231/231 229/229
f 235/235 234/234 233/233
f 236/236 235/235 233/233
f 239/239 238/238 237/237
f 240/240 239/239 237/237
f 247/247 246/246 245/245
f 248/248 247/247 245/245
f 251/251 250/250 249/249
f 252/252 251/251 249/249
f 255/255 254/254 253/253
f 256/256 255/255 253/253
f 259/259 258/258 257/257
f 260/260 259/259 257/257
usemtl concrete
f 15/15 14/14 13/13
f 16/16 15/15 13/13
f 19/19 18/18 17/17
f 20/20 19/19 17/17
f 23/23 22/22 21/21
f 24/24 23/23 21/21
f 27/27 26/26 25/25
f 28/28 27/27 25/25
f 31/31 30/30 29/29
f 32/32 31/31 29/29
f 39/39 38/38 37/37
f 40/40 39/39 37/37
f 43/43 42/42 41/41
f 44/44 43/43 41/41
f 47/47 46/46 45/45
f 48/48 47/47 45/45
f 51/51 50/50 49/49
f 52/52 51/51 49/49
f 55/55 54/54 53/53
f 56/56 55/55 53/53
f 63/63 62/62 61/61
f 64/64 63/63 61/61
f 67/67 66/66 65/65
f 68/68 67/67 65/65
f 71/71 70/70 69/69
f 72/72 71/71 69/69
f 75/75 74/74 73/73
f 76/76 75/75 73/73
f 79/79 78/78 77/77
f 80/80 79/79 77/77
f 87/87 86/86 85/85
f 88/88 87/87 85/85
f 91/91 90/90 89/89
f 92/92 91/91 89/89
f 95/95 94/94 93/93
f 96/96 95/95 93/93
f 99/99 98/98 97/97
f 100/100 99/99 97/97
f 103/103 102/102 101/101
f 104/104 103/103 101/101
f 195/195 194/194 193/193
f 196/196 195/195 193/193
f 199/199 198/198 197/197
f 200/200 199/199 197/197
f 203/203 202/202 201/201
f 204/204 203/203 201/201
f 223/223 222/222 221/221
f 224/224 223/223 221/221
f 243/243 242/242 241/241
f 244/244 243/243 241/241
usemtl window
f 35/35 34/34 33/33
f 36/36 35/35 33/33
f 83/83 82/82 81/81
f 84/84 83/83 81/81
f 179/179 178/178 177/177
f 180/180 179/179 177/177
f 183/183 182/182 181/181
f 184/184 183/183 181/181
usemtl wood
f 59/59 58/58 57/57
f 60/60 59/59 57/57
f 267/267 266/266 265/265
f 268/268 267/267 265/265
f 271/271 270/270 269/269
f 272/272 271/271 269/269
f 275/275 274/274 273/273
f 276/276 275/275 273/273
f 279/279 278/278 277/277
f 280/280 279/279 277/277
usemtl rubble
f 263/263 262/262 261/261
f 264/264 263/263 261/261
f 283/283 282/282 281/281
f 284/284 283/283 281/281
f 287/287 286/286 285/285
f 288/288 287/287 285/285
f 291/291 290/290 289/289
f 292/292 291/291 289/289
f 295/295 294/294 293/293
f 296/296 295/295 293/293
f 299/299 298/298 297/297
f 300/300 299/299 297/297
f 303/303 302/302 301/301
f 304/304 303/303 301/301
f 307/307 306/306 305/305
f 308/308 307/307 305/305
f 311/311 310/310 309/309
f 312/312 311/311 309/309
f 315/315 314/314 313/313
f 316/316 315/315 313/313
f 319/319 318/318 317/317
f 320/320 319/319 317/317
f 323/323 322/322 321/321
f 324/324 323/323 321/321
f 327/327 326/326 325/325
f 328/328 327/327 325/325
f 331/331 330/330 329/329
f 332/332 331/331 329/329
f 335/335 334/334 333/333
f 336/336 335/335 333/333
f 339/339 338/338 337/337
f 340/340 339/339 337/337